G04 ================== begin FILE IDENTIFICATION RECORD ==================*
G04 Layout Name:  D:/Spacewizard/2019/PCBA/M248V10/Schematics/M248V10_200212.brd*
G04 Film Name:    SILK_BOT*
G04 File Format:  Gerber RS274X*
G04 File Origin:  Cadence Allegro 17.2-P019*
G04 Origin Date:  Wed Feb 12 06:36:25 2020*
G04 *
G04 Layer:  REF DES/SILKSCREEN_BOTTOM*
G04 Layer:  PACKAGE GEOMETRY/SILKSCREEN_BOTTOM*
G04 Layer:  BOARD GEOMETRY/OUTLINE*
G04 Layer:  BOARD GEOMETRY/SILKSCREEN_BOTTOM*
G04 *
G04 Offset:    (0.0000 0.0000)*
G04 Mirror:    No*
G04 Mode:      Positive*
G04 Rotation:  0*
G04 FullContactRelief:  No*
G04 UndefLineWidth:     0.1500*
G04 ================== end FILE IDENTIFICATION RECORD ====================*
%FSLAX25Y25*MOMM*%
%IR0*IPPOS*OFA0.00000B0.00000*MIA0B0*SFA1.00000B1.00000*%
%ADD10C,.1*%
%ADD11C,.2032*%
%ADD12C,.153*%
%ADD13C,.127*%
%ADD14C,.254*%
%ADD15C,.1524*%
G75*
%LPD*%
G75*
G36*
G01X-578500Y-2118000D02*
G03I-62500J0D01*
G37*
G54D10*
G01X3048000Y3316000D02*
G02X6020000Y2247000I-4989J-4679701D01*
G01Y-2901000D01*
X-3478000D01*
Y3316000D01*
X3047000D01*
G01X-950000Y-460000D02*
Y-1480000D01*
X-360000D01*
Y-1570000D01*
X-20000D01*
Y-1480000D01*
X950000D01*
X949000Y2020000D01*
X1250000D01*
X1249000Y2521000D01*
X-1250000D01*
G01X-1030000Y-460000D02*
X-950000D01*
G01X-1030000Y60000D02*
Y-460000D01*
G01X-1250000Y2521000D02*
Y2021000D01*
X-951000D01*
X-950000Y60000D01*
G01D02*
X-1030000D01*
G01X39000Y-2251000D02*
Y-2601000D01*
X139000D01*
Y-2281000D01*
X109000Y-2251000D01*
X39000D01*
G01X323140Y-2331000D02*
G03I-14140J0D01*
G54D11*
G01X872000Y-2333000D02*
Y-2533000D01*
G01D02*
X1122000D01*
G01X922000Y-2283000D02*
X872000Y-2333000D01*
G01X1122000Y-2533000D02*
Y-2283000D01*
G01D02*
X922000D01*
G54D12*
G01X-1231000Y-2702000D02*
Y-2202000D01*
G01X-731000Y-2201000D02*
Y-2702000D01*
X-1231000D01*
G01Y-2202000D02*
X-731000Y-2201000D01*
G54D13*
G01X-1730500Y-2337940D02*
Y-2536060D01*
G02X-1857500I-63500J0D01*
G01Y-2337940D01*
G02X-1730500I63500J0D01*
G01X-1772410Y-2595750D02*
G03X-1773680Y-2594480I-1270J0D01*
G01X-1816860D01*
G01X-1758440Y-2585590D02*
X-1829560D01*
G01X-1748280Y-2576700D02*
G03X-1749550Y-2575430I-1270J0D01*
G01X-1840990D01*
G01X-1768600Y-2284600D02*
X-1824480D01*
G01X-1754630Y-2294760D02*
X-1833370D01*
G01X-1743200Y-2302380D02*
G03X-1747010Y-2298570I-3810J0D01*
G01X-1842260D01*
G01X-1791460Y-2438270D02*
G03I-6350J0D01*
G01X-1428520Y-2594000D02*
X-1489480D01*
G01X-1425980Y-2675280D02*
X-1492020D01*
Y-2512720D01*
X-1425980D01*
Y-2675280D01*
G01X-1488480Y-2236000D02*
X-1427520D01*
G01X-1491020Y-2154720D02*
X-1424980D01*
Y-2317280D01*
X-1491020D01*
Y-2154720D01*
G01X-331500Y-2323940D02*
Y-2522060D01*
G02X-458500I-63500J0D01*
G01Y-2323940D01*
G02X-331500I63500J0D01*
G01X-349280Y-2562700D02*
G03X-350550Y-2561430I-1270J0D01*
G01X-441990D01*
G01X-355630Y-2280760D02*
X-434370D01*
G01X-344200Y-2288380D02*
G03X-348010Y-2284570I-3810J0D01*
G01X-443260D01*
G01X-373410Y-2581750D02*
G03X-374680Y-2580480I-1270J0D01*
G01X-417860D01*
G01X-359440Y-2571590D02*
X-430560D01*
G01X-369600Y-2270600D02*
X-425480D01*
G01X-392460Y-2424270D02*
G03I-6350J0D01*
G01X384980Y-2341720D02*
X451020D01*
Y-2504280D01*
X384980D01*
Y-2341720D01*
G01X387520Y-2423000D02*
X448480D01*
G01X697000Y-2509480D02*
Y-2448520D01*
G01X615720Y-2512020D02*
Y-2445980D01*
X778280D01*
Y-2512020D01*
X615720D01*
G01X1297000Y-2513480D02*
Y-2452520D01*
G01X1215720Y-2516020D02*
Y-2449980D01*
X1378280D01*
Y-2516020D01*
X1215720D01*
G01X1297000Y-2363480D02*
Y-2302520D01*
G01X1215720Y-2366020D02*
Y-2299980D01*
X1378280D01*
Y-2366020D01*
X1215720D01*
G54D14*
G01X-1736850Y-2438270D02*
X-1851150D01*
G01X-337850Y-2424270D02*
X-452150D01*
G54D15*
G01X-1841490Y-2655030D02*
X-1845940Y-2648680D01*
X-1848900Y-2641280D01*
Y-2632810D01*
X-1844450Y-2623280D01*
X-1837050Y-2615880D01*
X-1828160Y-2610580D01*
X-1813340Y-2606350D01*
X-1800000Y-2605290D01*
X-1786670Y-2607410D01*
X-1777780Y-2610580D01*
X-1768890Y-2616930D01*
X-1762960Y-2624340D01*
X-1760000Y-2631750D01*
Y-2639160D01*
X-1762960Y-2646570D01*
X-1767410Y-2652920D01*
X-1773330Y-2658210D01*
G01X-1834080Y-2695460D02*
X-1842970Y-2701810D01*
X-1847420Y-2709220D01*
X-1848900Y-2717690D01*
X-1845940Y-2728270D01*
X-1838530Y-2735680D01*
X-1829640Y-2737800D01*
X-1820750Y-2736740D01*
X-1813340Y-2732500D01*
X-1798520Y-2711340D01*
X-1788150Y-2701810D01*
X-1773330Y-2695460D01*
X-1760000Y-2693340D01*
Y-2737800D01*
G01X-1834080Y-2779280D02*
X-1842970Y-2785630D01*
X-1847420Y-2793040D01*
X-1848900Y-2801510D01*
X-1845940Y-2812090D01*
X-1838530Y-2819500D01*
X-1829640Y-2821620D01*
X-1820750Y-2820560D01*
X-1813340Y-2816320D01*
X-1798520Y-2795160D01*
X-1788150Y-2785630D01*
X-1773330Y-2779280D01*
X-1760000Y-2777160D01*
Y-2821620D01*
G01X-1310000Y-2510580D02*
X-1398900D01*
Y-2537040D01*
X-1394450Y-2545510D01*
X-1388530Y-2550800D01*
X-1376670Y-2552920D01*
X-1364820Y-2550800D01*
X-1357410Y-2544450D01*
X-1352970Y-2537040D01*
Y-2510580D01*
G01Y-2537040D02*
X-1310000Y-2552920D01*
G01X-1327780Y-2592290D02*
X-1317410Y-2598640D01*
X-1311480Y-2607100D01*
X-1310000Y-2616630D01*
X-1311480Y-2625100D01*
X-1318890Y-2633560D01*
X-1327780Y-2638850D01*
X-1336670Y-2639910D01*
X-1347040Y-2637800D01*
X-1354450Y-2630390D01*
X-1357410Y-2622980D01*
Y-2613450D01*
G01Y-2622980D02*
X-1361860Y-2629330D01*
X-1369260Y-2634620D01*
X-1378160Y-2636740D01*
X-1387050Y-2634620D01*
X-1394450Y-2629330D01*
X-1398900Y-2619800D01*
X-1397420Y-2610280D01*
X-1391490Y-2600750D01*
G01X-1310000Y-2712090D02*
X-1398900D01*
X-1335190Y-2672930D01*
Y-2725850D01*
G01X-1691490Y-2655030D02*
X-1695940Y-2648680D01*
X-1698900Y-2641280D01*
Y-2632810D01*
X-1694450Y-2623280D01*
X-1687050Y-2615880D01*
X-1678160Y-2610580D01*
X-1663340Y-2606350D01*
X-1650000Y-2605290D01*
X-1636670Y-2607410D01*
X-1627780Y-2610580D01*
X-1618890Y-2616930D01*
X-1612960Y-2624340D01*
X-1610000Y-2631750D01*
Y-2639160D01*
X-1612960Y-2646570D01*
X-1617410Y-2652920D01*
X-1623330Y-2658210D01*
G01X-1684080Y-2695460D02*
X-1692970Y-2701810D01*
X-1697420Y-2709220D01*
X-1698900Y-2717690D01*
X-1695940Y-2728270D01*
X-1688530Y-2735680D01*
X-1679640Y-2737800D01*
X-1670750Y-2736740D01*
X-1663340Y-2732500D01*
X-1648520Y-2711340D01*
X-1638150Y-2701810D01*
X-1623330Y-2695460D01*
X-1610000Y-2693340D01*
Y-2737800D01*
G01X-1623330Y-2776110D02*
X-1615930Y-2782460D01*
X-1611480Y-2789860D01*
X-1610000Y-2799390D01*
X-1612960Y-2808920D01*
X-1618890Y-2816320D01*
X-1629260Y-2821620D01*
X-1641110Y-2822670D01*
X-1652970Y-2820560D01*
X-1660380Y-2815260D01*
X-1666300Y-2807860D01*
X-1667780Y-2800450D01*
X-1666300Y-2793040D01*
X-1660380Y-2783520D01*
X-1698900Y-2786690D01*
Y-2815260D01*
G01X-1581000Y-2380990D02*
Y-2481010D01*
G02X-1661000I-40000J-3D01*
G01Y-2380990D01*
G02X-1581000I40000J3D01*
G01X-1310000Y-2150580D02*
X-1398900D01*
Y-2177040D01*
X-1394450Y-2185510D01*
X-1388530Y-2190800D01*
X-1376670Y-2192920D01*
X-1364820Y-2190800D01*
X-1357410Y-2184450D01*
X-1352970Y-2177040D01*
Y-2150580D01*
G01Y-2177040D02*
X-1310000Y-2192920D01*
G01X-1327780Y-2232290D02*
X-1317410Y-2238640D01*
X-1311480Y-2247100D01*
X-1310000Y-2256630D01*
X-1311480Y-2265100D01*
X-1318890Y-2273560D01*
X-1327780Y-2278850D01*
X-1336670Y-2279910D01*
X-1347040Y-2277800D01*
X-1354450Y-2270390D01*
X-1357410Y-2262980D01*
Y-2253450D01*
G01Y-2262980D02*
X-1361860Y-2269330D01*
X-1369260Y-2274620D01*
X-1378160Y-2276740D01*
X-1387050Y-2274620D01*
X-1394450Y-2269330D01*
X-1398900Y-2259800D01*
X-1397420Y-2250280D01*
X-1391490Y-2240750D01*
G01X-1327780Y-2316110D02*
X-1317410Y-2322460D01*
X-1311480Y-2330920D01*
X-1310000Y-2340450D01*
X-1311480Y-2348920D01*
X-1318890Y-2357380D01*
X-1327780Y-2362670D01*
X-1336670Y-2363730D01*
X-1347040Y-2361620D01*
X-1354450Y-2354210D01*
X-1357410Y-2346800D01*
Y-2337270D01*
G01Y-2346800D02*
X-1361860Y-2353150D01*
X-1369260Y-2358440D01*
X-1378160Y-2360560D01*
X-1387050Y-2358440D01*
X-1394450Y-2353150D01*
X-1398900Y-2343620D01*
X-1397420Y-2334100D01*
X-1391490Y-2324570D01*
G01X-678900Y-2608470D02*
X-615190D01*
X-601850Y-2612700D01*
X-592960Y-2621170D01*
X-590000Y-2631750D01*
X-592960Y-2642330D01*
X-601850Y-2650800D01*
X-615190Y-2655030D01*
X-678900D01*
G01X-590000Y-2715570D02*
X-678900D01*
X-661120Y-2702870D01*
G01X-590000D02*
Y-2728270D01*
G01X-678900Y-2799390D02*
X-675940Y-2790920D01*
X-668530Y-2784570D01*
X-659640Y-2780340D01*
X-647780Y-2777160D01*
X-634450Y-2776110D01*
X-621110Y-2777160D01*
X-609260Y-2780340D01*
X-600370Y-2784570D01*
X-592960Y-2790920D01*
X-590000Y-2799390D01*
X-592960Y-2807860D01*
X-600370Y-2814210D01*
X-609260Y-2818440D01*
X-621110Y-2821620D01*
X-634450Y-2822670D01*
X-647780Y-2821620D01*
X-659640Y-2818440D01*
X-668530Y-2814210D01*
X-675940Y-2807860D01*
X-678900Y-2799390D01*
G01X-461490Y-2655030D02*
X-465940Y-2648680D01*
X-468900Y-2641280D01*
Y-2632810D01*
X-464450Y-2623280D01*
X-457050Y-2615880D01*
X-448160Y-2610580D01*
X-433340Y-2606350D01*
X-420000Y-2605290D01*
X-406670Y-2607410D01*
X-397780Y-2610580D01*
X-388890Y-2616930D01*
X-382960Y-2624340D01*
X-380000Y-2631750D01*
Y-2639160D01*
X-382960Y-2646570D01*
X-387410Y-2652920D01*
X-393330Y-2658210D01*
G01X-454080Y-2695460D02*
X-462970Y-2701810D01*
X-467420Y-2709220D01*
X-468900Y-2717690D01*
X-465940Y-2728270D01*
X-458530Y-2735680D01*
X-449640Y-2737800D01*
X-440750Y-2736740D01*
X-433340Y-2732500D01*
X-418520Y-2711340D01*
X-408150Y-2701810D01*
X-393330Y-2695460D01*
X-380000Y-2693340D01*
Y-2737800D01*
G01X-397780Y-2776110D02*
X-387410Y-2782460D01*
X-381480Y-2790920D01*
X-380000Y-2800450D01*
X-381480Y-2808920D01*
X-388890Y-2817380D01*
X-397780Y-2822670D01*
X-406670Y-2823730D01*
X-417040Y-2821620D01*
X-424450Y-2814210D01*
X-427410Y-2806800D01*
Y-2797270D01*
G01Y-2806800D02*
X-431860Y-2813150D01*
X-439260Y-2818440D01*
X-448160Y-2820560D01*
X-457050Y-2818440D01*
X-464450Y-2813150D01*
X-468900Y-2803620D01*
X-467420Y-2794100D01*
X-461490Y-2784570D01*
G01X-281490Y-2655030D02*
X-285940Y-2648680D01*
X-288900Y-2641280D01*
Y-2632810D01*
X-284450Y-2623280D01*
X-277050Y-2615880D01*
X-268160Y-2610580D01*
X-253340Y-2606350D01*
X-240000Y-2605290D01*
X-226670Y-2607410D01*
X-217780Y-2610580D01*
X-208890Y-2616930D01*
X-202960Y-2624340D01*
X-200000Y-2631750D01*
Y-2639160D01*
X-202960Y-2646570D01*
X-207410Y-2652920D01*
X-213330Y-2658210D01*
G01X-274080Y-2695460D02*
X-282970Y-2701810D01*
X-287420Y-2709220D01*
X-288900Y-2717690D01*
X-285940Y-2728270D01*
X-278530Y-2735680D01*
X-269640Y-2737800D01*
X-260750Y-2736740D01*
X-253340Y-2732500D01*
X-238520Y-2711340D01*
X-228150Y-2701810D01*
X-213330Y-2695460D01*
X-200000Y-2693340D01*
Y-2737800D01*
G01Y-2812090D02*
X-288900D01*
X-225190Y-2772930D01*
Y-2825850D01*
G01X-179000Y-2374990D02*
Y-2475010D01*
G02X-259000I-40000J-3D01*
G01Y-2374990D01*
G02X-179000I40000J3D01*
G01X41100Y-2658470D02*
X104810D01*
X118150Y-2662700D01*
X127040Y-2671170D01*
X130000Y-2681750D01*
X127040Y-2692330D01*
X118150Y-2700800D01*
X104810Y-2705030D01*
X41100D01*
G01X130000Y-2765570D02*
X128520Y-2772980D01*
X124070Y-2781440D01*
X116670Y-2786740D01*
X106290Y-2788850D01*
X95920Y-2786740D01*
X87030Y-2780390D01*
X82590Y-2770860D01*
Y-2760280D01*
X79620Y-2753930D01*
X72220Y-2748640D01*
X61840Y-2746520D01*
X51470Y-2749700D01*
X44060Y-2757100D01*
X41100Y-2765570D01*
X44060Y-2774040D01*
X51470Y-2781440D01*
X61840Y-2784620D01*
X72220Y-2782500D01*
X79620Y-2777210D01*
X82590Y-2770860D01*
Y-2760280D01*
X87030Y-2750750D01*
X95920Y-2744400D01*
X106290Y-2742290D01*
X116670Y-2744400D01*
X124070Y-2749700D01*
X128520Y-2758160D01*
X130000Y-2765570D01*
G01X460000Y-2610580D02*
X371100D01*
Y-2637040D01*
X375550Y-2645510D01*
X381470Y-2650800D01*
X393330Y-2652920D01*
X405180Y-2650800D01*
X412590Y-2644450D01*
X417030Y-2637040D01*
Y-2610580D01*
G01Y-2637040D02*
X460000Y-2652920D01*
G01X442220Y-2692290D02*
X452590Y-2698640D01*
X458520Y-2707100D01*
X460000Y-2716630D01*
X458520Y-2725100D01*
X451110Y-2733560D01*
X442220Y-2738850D01*
X433330Y-2739910D01*
X422960Y-2737800D01*
X415550Y-2730390D01*
X412590Y-2722980D01*
Y-2713450D01*
G01Y-2722980D02*
X408140Y-2729330D01*
X400740Y-2734620D01*
X391840Y-2736740D01*
X382950Y-2734620D01*
X375550Y-2729330D01*
X371100Y-2719800D01*
X372580Y-2710280D01*
X378510Y-2700750D01*
G01X446670Y-2776110D02*
X454070Y-2782460D01*
X458520Y-2789860D01*
X460000Y-2799390D01*
X457040Y-2808920D01*
X451110Y-2816320D01*
X440740Y-2821620D01*
X428890Y-2822670D01*
X417030Y-2820560D01*
X409620Y-2815260D01*
X403700Y-2807860D01*
X402220Y-2800450D01*
X403700Y-2793040D01*
X409620Y-2783520D01*
X371100Y-2786690D01*
Y-2815260D01*
G01X1051530Y-2711100D02*
Y-2774810D01*
X1047300Y-2788150D01*
X1038830Y-2797040D01*
X1028250Y-2800000D01*
X1017670Y-2797040D01*
X1009200Y-2788150D01*
X1004970Y-2774810D01*
Y-2711100D01*
G01X962420Y-2789630D02*
X955010Y-2797040D01*
X946550Y-2800000D01*
X938080Y-2797040D01*
X930670Y-2788150D01*
X925380Y-2774810D01*
X923260Y-2761480D01*
Y-2745180D01*
X925380Y-2731840D01*
X930670Y-2719990D01*
X937020Y-2714060D01*
X944430Y-2711100D01*
X952900Y-2714060D01*
X959250Y-2719990D01*
X963480Y-2728880D01*
X965600Y-2740740D01*
X963480Y-2751100D01*
X958190Y-2761480D01*
X951840Y-2767400D01*
X944430Y-2768890D01*
X935960Y-2765920D01*
X929610Y-2758510D01*
X923260Y-2745180D01*
G01X779420Y-2850000D02*
Y-2761100D01*
X752960D01*
X744490Y-2765550D01*
X739200Y-2771470D01*
X737080Y-2783330D01*
X739200Y-2795180D01*
X745550Y-2802590D01*
X752960Y-2807030D01*
X779420D01*
G01X752960D02*
X737080Y-2850000D01*
G01X697710Y-2832220D02*
X691360Y-2842590D01*
X682900Y-2848520D01*
X673370Y-2850000D01*
X664900Y-2848520D01*
X656440Y-2841110D01*
X651150Y-2832220D01*
X650090Y-2823330D01*
X652200Y-2812960D01*
X659610Y-2805550D01*
X667020Y-2802590D01*
X676550D01*
G01X667020D02*
X660670Y-2798140D01*
X655380Y-2790740D01*
X653260Y-2781840D01*
X655380Y-2772950D01*
X660670Y-2765550D01*
X670200Y-2761100D01*
X679720Y-2762580D01*
X689250Y-2768510D01*
G01X610720Y-2812960D02*
X603310Y-2802590D01*
X596960Y-2796660D01*
X588490Y-2793700D01*
X581080Y-2796660D01*
X575790Y-2802590D01*
X571560Y-2811480D01*
X570500Y-2821850D01*
X571560Y-2830740D01*
X575790Y-2839630D01*
X582140Y-2847040D01*
X589550Y-2850000D01*
X598020Y-2847040D01*
X605430Y-2838150D01*
X609660Y-2824810D01*
X610720Y-2810000D01*
X608600Y-2790740D01*
X605430Y-2780360D01*
X600140Y-2769990D01*
X592730Y-2762580D01*
X585320Y-2761100D01*
X577910Y-2764060D01*
X572620Y-2771470D01*
G01X734970Y-2618510D02*
X741320Y-2614060D01*
X748720Y-2611100D01*
X757190D01*
X766720Y-2615550D01*
X774120Y-2622950D01*
X779420Y-2631840D01*
X783650Y-2646660D01*
X784710Y-2660000D01*
X782590Y-2673330D01*
X779420Y-2682220D01*
X773070Y-2691110D01*
X765660Y-2697040D01*
X758250Y-2700000D01*
X750840D01*
X743430Y-2697040D01*
X737080Y-2692590D01*
X731790Y-2686670D01*
G01X694540Y-2625920D02*
X688190Y-2617030D01*
X680780Y-2612580D01*
X672310Y-2611100D01*
X661730Y-2614060D01*
X654320Y-2621470D01*
X652200Y-2630360D01*
X653260Y-2639250D01*
X657500Y-2646660D01*
X678660Y-2661480D01*
X688190Y-2671850D01*
X694540Y-2686670D01*
X696660Y-2700000D01*
X652200D01*
G01X610720Y-2662960D02*
X603310Y-2652590D01*
X596960Y-2646660D01*
X588490Y-2643700D01*
X581080Y-2646660D01*
X575790Y-2652590D01*
X571560Y-2661480D01*
X570500Y-2671850D01*
X571560Y-2680740D01*
X575790Y-2689630D01*
X582140Y-2697040D01*
X589550Y-2700000D01*
X598020Y-2697040D01*
X605430Y-2688150D01*
X609660Y-2674810D01*
X610720Y-2660000D01*
X608600Y-2640740D01*
X605430Y-2630360D01*
X600140Y-2619990D01*
X592730Y-2612580D01*
X585320Y-2611100D01*
X577910Y-2614060D01*
X572620Y-2621470D01*
G01X747010Y-2373000D02*
X646990D01*
G02Y-2293000I-3J40000D01*
G01X747010D01*
G02Y-2373000I3J-40000D01*
G01X1409420Y-2850000D02*
Y-2761100D01*
X1382960D01*
X1374490Y-2765550D01*
X1369200Y-2771470D01*
X1367080Y-2783330D01*
X1369200Y-2795180D01*
X1375550Y-2802590D01*
X1382960Y-2807030D01*
X1409420D01*
G01X1382960D02*
X1367080Y-2850000D01*
G01X1327710Y-2832220D02*
X1321360Y-2842590D01*
X1312900Y-2848520D01*
X1303370Y-2850000D01*
X1294900Y-2848520D01*
X1286440Y-2841110D01*
X1281150Y-2832220D01*
X1280090Y-2823330D01*
X1282200Y-2812960D01*
X1289610Y-2805550D01*
X1297020Y-2802590D01*
X1306550D01*
G01X1297020D02*
X1290670Y-2798140D01*
X1285380Y-2790740D01*
X1283260Y-2781840D01*
X1285380Y-2772950D01*
X1290670Y-2765550D01*
X1300200Y-2761100D01*
X1309720Y-2762580D01*
X1319250Y-2768510D01*
G01X1240720Y-2775920D02*
X1234370Y-2767030D01*
X1226960Y-2762580D01*
X1218490Y-2761100D01*
X1207910Y-2764060D01*
X1200500Y-2771470D01*
X1198380Y-2780360D01*
X1199440Y-2789250D01*
X1203680Y-2796660D01*
X1224840Y-2811480D01*
X1234370Y-2821850D01*
X1240720Y-2836670D01*
X1242840Y-2850000D01*
X1198380D01*
G01X1409420Y-2700000D02*
Y-2611100D01*
X1382960D01*
X1374490Y-2615550D01*
X1369200Y-2621470D01*
X1367080Y-2633330D01*
X1369200Y-2645180D01*
X1375550Y-2652590D01*
X1382960Y-2657030D01*
X1409420D01*
G01X1382960D02*
X1367080Y-2700000D01*
G01X1327710Y-2682220D02*
X1321360Y-2692590D01*
X1312900Y-2698520D01*
X1303370Y-2700000D01*
X1294900Y-2698520D01*
X1286440Y-2691110D01*
X1281150Y-2682220D01*
X1280090Y-2673330D01*
X1282200Y-2662960D01*
X1289610Y-2655550D01*
X1297020Y-2652590D01*
X1306550D01*
G01X1297020D02*
X1290670Y-2648140D01*
X1285380Y-2640740D01*
X1283260Y-2631840D01*
X1285380Y-2622950D01*
X1290670Y-2615550D01*
X1300200Y-2611100D01*
X1309720Y-2612580D01*
X1319250Y-2618510D01*
G01X1220610Y-2700000D02*
Y-2611100D01*
X1233310Y-2628880D01*
G01Y-2700000D02*
X1207910D01*
M02*
