G04 ================== begin FILE IDENTIFICATION RECORD ==================*
G04 Layout Name:  D:/Spacewizard/2019/PCBA/M248V10/Schematics/M248V10_200212.brd*
G04 Film Name:    SOLDER_BOT*
G04 File Format:  Gerber RS274X*
G04 File Origin:  Cadence Allegro 17.2-P019*
G04 Origin Date:  Wed Feb 12 06:36:25 2020*
G04 *
G04 Layer:  VIA CLASS/SOLDERMASK_BOTTOM*
G04 Layer:  PIN/SOLDERMASK_BOTTOM*
G04 Layer:  PACKAGE GEOMETRY/SOLDERMASK_BOTTOM*
G04 Layer:  BOARD GEOMETRY/OUTLINE*
G04 Layer:  BOARD GEOMETRY/SOLDERMASK_BOTTOM*
G04 *
G04 Offset:    (0.0000 0.0000)*
G04 Mirror:    No*
G04 Mode:      Positive*
G04 Rotation:  0*
G04 FullContactRelief:  No*
G04 UndefLineWidth:     0.0000*
G04 ================== end FILE IDENTIFICATION RECORD ====================*
%FSLAX25Y25*MOMM*%
%IR0*IPPOS*OFA0.00000B0.00000*MIA0B0*SFA1.00000B1.00000*%
%ADD16R,1.1X.5*%
%ADD14R,.6604X1.6764*%
%ADD15R,1.6764X.6604*%
%ADD12R,.9652X1.1684*%
%ADD11C,1.2*%
%ADD22C,3.5*%
%ADD20C,1.7*%
%ADD21R,1.6X1.6*%
%ADD10C,8.3312*%
%ADD18R,.4064X.4572*%
%ADD13R,.6604X.6604*%
%ADD19R,.4572X.4064*%
%ADD17R,.6604X.6604*%
%ADD23C,.1*%
G75*
%LPD*%
G75*
G54D10*
X-3082500Y-2495250D03*
X-3077500Y2909750D03*
X3047500Y2924750D03*
X5620000Y-2500000D03*
G54D20*
X4415500Y-2500250D03*
G54D11*
X-3170000Y-1663000D03*
Y-1538000D03*
Y-1163000D03*
Y-1288000D03*
Y-1413000D03*
Y-1038000D03*
Y-488000D03*
Y-363000D03*
Y-238000D03*
Y-113000D03*
Y437000D03*
Y687000D03*
Y562000D03*
Y1062000D03*
Y937000D03*
Y812000D03*
X-3171000Y2023000D03*
Y1898000D03*
Y1773000D03*
Y1648000D03*
Y2148000D03*
X-1144250Y-1527000D03*
Y-1781000D03*
Y-1273000D03*
Y-765000D03*
Y-1019000D03*
Y-257000D03*
Y-511000D03*
Y251000D03*
Y-3000D03*
Y759000D03*
Y505000D03*
Y1013000D03*
Y1521000D03*
Y1267000D03*
Y1775000D03*
X1142250Y-1781000D03*
Y-1527000D03*
Y-1273000D03*
Y-1019000D03*
Y-765000D03*
Y-511000D03*
Y-257000D03*
Y-3000D03*
Y251000D03*
Y505000D03*
Y759000D03*
Y1013000D03*
Y1267000D03*
Y1521000D03*
Y1775000D03*
X1843000Y-2650000D03*
X1593000D03*
X1718000D03*
X1968000D03*
X2418000D03*
X2543000D03*
X2920500Y303000D03*
X3045500D03*
X3170500D03*
X2946000Y861000D03*
X3146000D03*
X3295500Y303000D03*
X4089500Y614000D03*
X3964500D03*
X4339500D03*
X4214500D03*
G54D21*
X4165500Y-2500250D03*
G54D12*
X-1794000Y-2515740D03*
Y-2358260D03*
X-395000Y-2501740D03*
Y-2344260D03*
G54D13*
X-1459000Y-2638450D03*
Y-2549550D03*
X-1621000Y-2475450D03*
X-1458000Y-2191550D03*
Y-2280450D03*
X-1621000Y-2386550D03*
X-219000Y-2469450D03*
Y-2380550D03*
X418000Y-2467450D03*
Y-2378550D03*
G54D22*
X4637500Y304750D03*
G54D23*
G01X3048000Y3316000D02*
G02X6020000Y2247000I-4989J-4679701D01*
G01Y-2901000D01*
X-3478000D01*
Y3316000D01*
X3047000D01*
G01X-950000Y-460000D02*
Y-1480000D01*
X-360000D01*
Y-1570000D01*
X-20000D01*
Y-1480000D01*
X950000D01*
X949000Y2020000D01*
X1250000D01*
X1249000Y2521000D01*
X-1250000D01*
G01X-1030000Y-460000D02*
X-950000D01*
G01X-1030000Y60000D02*
Y-460000D01*
G01X-1250000Y2521000D02*
Y2021000D01*
X-951000D01*
X-950000Y60000D01*
G01D02*
X-1030000D01*
G54D14*
X-981000Y-2672000D03*
Y-2232000D03*
G54D15*
X-1201000Y-2546000D03*
Y-2292000D03*
Y-2419000D03*
X-761000Y-2546000D03*
Y-2419000D03*
Y-2292000D03*
G54D16*
X-41000Y-2521000D03*
Y-2331000D03*
X219000Y-2521000D03*
Y-2331000D03*
Y-2426000D03*
G54D17*
X652550Y-2479000D03*
X741450D03*
X652550Y-2333000D03*
X741450D03*
X1252550Y-2483000D03*
X1341450D03*
X1252550Y-2333000D03*
X1341450D03*
G54D18*
X922000Y-2408000D03*
X1072000D03*
G54D19*
X947000Y-2483000D03*
X1047000D03*
Y-2333000D03*
X947000D03*
M02*
