G04 ================== begin FILE IDENTIFICATION RECORD ==================*
G04 Layout Name:  D:/Spacewizard/2019/PCBA/M248V10/Schematics/M248V10_200212.brd*
G04 Film Name:    SOLDER_TOP*
G04 File Format:  Gerber RS274X*
G04 File Origin:  Cadence Allegro 17.2-P019*
G04 Origin Date:  Wed Feb 12 06:36:25 2020*
G04 *
G04 Layer:  VIA CLASS/SOLDERMASK_TOP*
G04 Layer:  PIN/SOLDERMASK_TOP*
G04 Layer:  PACKAGE GEOMETRY/SOLDERMASK_TOP*
G04 Layer:  BOARD GEOMETRY/OUTLINE*
G04 Layer:  BOARD GEOMETRY/SOLDERMASK_TOP*
G04 *
G04 Offset:    (0.0000 0.0000)*
G04 Mirror:    No*
G04 Mode:      Positive*
G04 Rotation:  0*
G04 FullContactRelief:  No*
G04 UndefLineWidth:     0.0000*
G04 ================== end FILE IDENTIFICATION RECORD ====================*
%FSLAX25Y25*MOMM*%
%IR0*IPPOS*OFA0.00000B0.00000*MIA0B0*SFA1.00000B1.00000*%
%ADD21R,.5X1.1*%
%ADD33R,1.1X.5*%
%ADD34R,1.2X.9*%
%ADD35R,.635X1.524*%
%ADD36R,1.524X.635*%
%ADD43C,.762*%
%ADD24O,.4572X1.4224*%
%ADD12R,.9X.9*%
%ADD29R,1.0414X.9652*%
%ADD27R,.9652X1.0414*%
%ADD13O,.762X2.0828*%
%ADD30R,.861X.861*%
%ADD15R,1.1684X.9652*%
%ADD17R,.9652X1.1684*%
%ADD23R,.8499X3.7501*%
%ADD31R,.6858X1.0668*%
%AMMACRO32*
4,1,8,-.381,-2.1844,
-.381,-1.3716,
-.9906,-1.3716,
-.9906,2.1844,
.9906,2.1844,
.9906,-1.3716,
.381,-1.3716,
.381,-2.1844,
-.381,-2.1844,
0.0*
%
%ADD32MACRO32*%
%ADD42R,1.2X2.2*%
%ADD11C,1.2*%
%ADD25R,1.524X1.016*%
%ADD41C,3.5*%
%ADD38C,1.7*%
%ADD44R,1.2X1.2*%
%ADD22R,1.65X2.4501*%
%ADD39R,1.6X1.6*%
%ADD19R,.508X.7112*%
%ADD10C,8.3312*%
%ADD14R,.6604X.6604*%
%ADD16R,.6604X.6604*%
%ADD20R,1.9812X1.3716*%
%ADD18R,.508X.6096*%
%ADD40R,1.3716X1.9812*%
%ADD26R,.3556X.6604*%
%ADD45R,.6604X.8636*%
%ADD28R,1.7526X1.5494*%
%ADD46R,1.9558X1.1684*%
%ADD37R,1.2954X1.4986*%
%ADD47C,.1*%
G75*
%LPD*%
G75*
G54D10*
X-3082500Y-2495250D03*
X-3077500Y2909750D03*
X3047500Y2924750D03*
X5620000Y-2500000D03*
G54D20*
X2516000Y1950510D03*
Y2485490D03*
G54D11*
X-3170000Y-1663000D03*
Y-1538000D03*
Y-1163000D03*
Y-1288000D03*
Y-1413000D03*
Y-1038000D03*
Y-488000D03*
Y-363000D03*
Y-238000D03*
Y-113000D03*
Y437000D03*
Y687000D03*
Y562000D03*
Y1062000D03*
Y937000D03*
Y812000D03*
X-3171000Y2023000D03*
Y1898000D03*
Y1773000D03*
Y1648000D03*
Y2148000D03*
X-1144250Y-1527000D03*
Y-1781000D03*
X-1271250Y-1654000D03*
Y-1527000D03*
Y-1781000D03*
X-1144250Y-1273000D03*
X-1271250Y-1146000D03*
Y-1400000D03*
Y-1273000D03*
X-1144250Y-765000D03*
Y-1019000D03*
X-1271250Y-638000D03*
Y-892000D03*
Y-765000D03*
Y-1019000D03*
X-1144250Y-257000D03*
Y-511000D03*
X-1271250Y-384000D03*
Y-257000D03*
Y-511000D03*
X-1144250Y251000D03*
Y-3000D03*
X-1271250Y124000D03*
Y-130000D03*
Y251000D03*
Y-3000D03*
X-1144250Y759000D03*
Y505000D03*
X-1271250Y632000D03*
Y378000D03*
Y505000D03*
X-1144250Y1013000D03*
X-1271250Y1140000D03*
Y886000D03*
Y1013000D03*
Y759000D03*
X-1144250Y1521000D03*
Y1267000D03*
X-1271250Y1394000D03*
Y1521000D03*
Y1267000D03*
X-1144250Y1775000D03*
X-1271250Y1902000D03*
Y1648000D03*
Y1775000D03*
X1142250Y-1781000D03*
Y-1527000D03*
X1269250Y-1654000D03*
Y-1781000D03*
Y-1527000D03*
X1142250Y-1273000D03*
X1269250Y-1400000D03*
Y-1146000D03*
Y-1273000D03*
X1142250Y-1019000D03*
Y-765000D03*
X1269250Y-892000D03*
Y-638000D03*
Y-1019000D03*
Y-765000D03*
X1142250Y-511000D03*
Y-257000D03*
X1269250Y-384000D03*
Y-511000D03*
Y-257000D03*
X1142250Y-3000D03*
Y251000D03*
X1269250Y-130000D03*
Y124000D03*
Y-3000D03*
Y251000D03*
X1142250Y505000D03*
Y759000D03*
X1269250Y378000D03*
Y632000D03*
Y505000D03*
X1142250Y1013000D03*
X1269250Y886000D03*
Y1140000D03*
Y759000D03*
Y1013000D03*
X1142250Y1267000D03*
Y1521000D03*
X1269250Y1394000D03*
Y1267000D03*
Y1521000D03*
X1142250Y1775000D03*
X1269250Y1648000D03*
Y1902000D03*
Y1775000D03*
X1843000Y-2650000D03*
X1593000D03*
X1718000D03*
X1968000D03*
X2418000D03*
X2543000D03*
X2920500Y303000D03*
X3045500D03*
X3170500D03*
X2946000Y861000D03*
X3146000D03*
X3295500Y303000D03*
X4089500Y614000D03*
X3964500D03*
X4339500D03*
X4214500D03*
G54D30*
X3717000Y-2551050D03*
Y-2704050D03*
G54D12*
X-1771200Y-2050000D03*
X-2017800D03*
X-2170200D03*
X-1618800D03*
X2253800Y-2000000D03*
X2246550Y-1527250D03*
Y-1781250D03*
Y-1273250D03*
Y-765250D03*
Y-1019250D03*
Y-512250D03*
X2406200Y-2000000D03*
X2398950Y-1527250D03*
Y-1781250D03*
Y-1273250D03*
Y-765250D03*
Y-1019250D03*
Y-512250D03*
X2974800Y1152000D03*
X3127200D03*
G54D21*
X2320000Y2675000D03*
X2415000D03*
X2510000D03*
Y2935000D03*
X2320000D03*
G54D40*
X4275010Y-1293750D03*
X4809990D03*
G54D22*
X2899000Y-2690750D03*
X3529000D03*
G54D31*
X3861780Y-2119250D03*
X4161500D03*
G54D13*
X-2080500Y-1504250D03*
X-1953500D03*
X-1826500D03*
Y-996250D03*
X-1953500D03*
X-2080500D03*
Y-504250D03*
X-1953500D03*
X-1826500D03*
Y3750D03*
X-1953500D03*
X-2080500D03*
X-1699500Y-1504250D03*
Y-996250D03*
Y-504250D03*
Y3750D03*
G54D14*
X-2076300Y-1879050D03*
Y-1790150D03*
X-1952300Y-1879150D03*
Y-1790250D03*
X-2080300Y-715550D03*
Y-804450D03*
X-1824500Y225550D03*
X-1953000D03*
X-2080300D03*
X-1824500Y314450D03*
X-1824000Y452550D03*
Y541450D03*
X-1953000Y314450D03*
X-2080300D03*
X-1699600Y225550D03*
Y314450D03*
X-1700000Y452550D03*
Y541450D03*
X2083000Y2882550D03*
Y2971450D03*
X3104000Y-825700D03*
Y-736800D03*
Y-986800D03*
Y-1075700D03*
X2979000Y-986800D03*
Y-1075700D03*
Y-825700D03*
Y-736800D03*
X2987000Y-231450D03*
Y-142550D03*
X2818000Y2393550D03*
Y2482450D03*
X2981000Y2349550D03*
Y2438450D03*
X2817000Y2265450D03*
Y2176550D03*
X3229000Y-1075700D03*
Y-986800D03*
X3354000D03*
Y-1075700D03*
Y-736800D03*
Y-825700D03*
X3229000Y-736800D03*
Y-825700D03*
X3653500Y-2265300D03*
Y-2354200D03*
X3780500D03*
Y-2265300D03*
X3717000Y-1592200D03*
X3844100Y-1591350D03*
X3980200D03*
X3717000Y-1503300D03*
X3844100Y-1502450D03*
X3980200D03*
X3907500Y757300D03*
Y846200D03*
X4034500Y757300D03*
Y846200D03*
X3844000Y2376550D03*
Y2465450D03*
X3971000Y2376550D03*
Y2465450D03*
X3653500Y2909950D03*
Y2821050D03*
X4129800Y-1591350D03*
Y-1502450D03*
X4161500Y757300D03*
Y846200D03*
X4288500Y757300D03*
Y846200D03*
X4415500Y757300D03*
Y846200D03*
X4170000Y2374550D03*
Y2463450D03*
X4193250Y2909950D03*
Y2821050D03*
X4981000Y-1528450D03*
Y-1439550D03*
X4672000Y2491450D03*
Y2402550D03*
X5000000Y2313550D03*
Y2402450D03*
X5384350Y2314490D03*
Y2403390D03*
G54D41*
X4637500Y304750D03*
G54D32*
X4011640Y-1954150D03*
G54D23*
X3139010Y-2485750D03*
X3289000D03*
G54D42*
X4522000Y2768000D03*
X4822000D03*
G54D15*
X-1771640Y-1780700D03*
X-1614160D03*
X1576260Y-2000000D03*
X1733740D03*
X2237260Y-260000D03*
X2394740D03*
X3573490Y2230500D03*
X3416010D03*
X3636990Y2421000D03*
X3479510D03*
G54D24*
X3014690Y-1745870D03*
X3080730D03*
X3146770D03*
Y-1286130D03*
X3080730D03*
X3014690D03*
X3212810Y-1745870D03*
Y-1286130D03*
G54D33*
X4034500Y-1293750D03*
Y-1198750D03*
Y-1103750D03*
X3774500D03*
Y-1293750D03*
G54D16*
X-1737350Y-1918300D03*
X-1648450D03*
X1935550Y-1975000D03*
X2024450D03*
X2216350Y120000D03*
X2217050Y250000D03*
Y-30000D03*
X2215800Y504750D03*
Y377750D03*
Y631750D03*
X2217050Y890000D03*
X2218550Y767000D03*
X2210950Y1139750D03*
X2122050D03*
X2210950Y1393750D03*
X2122050D03*
X2051550Y1993000D03*
X2140450D03*
X2138450Y2182000D03*
X2049550D03*
X2624800Y-2055750D03*
X2713700D03*
X2523200Y-2373250D03*
X2434300D03*
X2305250Y120000D03*
X2305950Y250000D03*
Y-30000D03*
X2304700Y504750D03*
Y377750D03*
Y631750D03*
X2305950Y890000D03*
X2429700Y1139750D03*
X2340800D03*
X2307450Y767000D03*
X2618450Y1532000D03*
X2529550D03*
X2460950Y1267750D03*
X2372050D03*
X2460950Y1393750D03*
X2372050D03*
X2999450Y-2055750D03*
X2910550D03*
X3091450Y-367000D03*
X3002550D03*
X3127550Y-479000D03*
X2850450Y1627000D03*
X2761550D03*
X3101050Y1817750D03*
X2999450Y1722500D03*
X2910550D03*
X3068450Y2172000D03*
X2979550D03*
X3216450Y-479000D03*
X3305550Y1590000D03*
X3394450D03*
X3189950Y1817750D03*
X3412200Y1913000D03*
X3323300D03*
X3745550Y50000D03*
X3834450D03*
Y170000D03*
X3745550D03*
X4045550Y50000D03*
X3745550Y410000D03*
X3834450D03*
X3745550Y290000D03*
X3834450D03*
X4134450Y50000D03*
X4345550D03*
X4434450D03*
X4671840Y2402530D03*
X4760740D03*
G54D25*
X3178000Y-169000D03*
G54D43*
X4672500Y1524750D03*
Y1704750D03*
Y1884750D03*
G54D34*
X3995000Y200000D03*
Y390000D03*
Y295000D03*
X4255000Y200000D03*
Y295000D03*
Y390000D03*
G54D26*
X3098000Y-269000D03*
X3138000D03*
X3098000Y-69000D03*
X3138000D03*
X3258000Y-269000D03*
X3218000D03*
X3178000D03*
Y-69000D03*
X3218000D03*
X3258000D03*
G54D44*
X4672000Y2618000D03*
G54D17*
X1521000Y41260D03*
Y198740D03*
X2093000Y2520260D03*
Y2677740D03*
X3590000Y-2070990D03*
X3399500D03*
X3590000Y-1913510D03*
X3399500Y-1532510D03*
Y-1689990D03*
Y-1913510D03*
X3408000Y-256740D03*
Y-99260D03*
X3580000Y181260D03*
Y338740D03*
X3280000Y621260D03*
X3284000Y1053260D03*
X3280000Y778740D03*
X3284000Y1210740D03*
X3220000Y2245260D03*
Y2402740D03*
X4415500Y-2070990D03*
Y-1913510D03*
X4326000Y2384260D03*
Y2541740D03*
X4606000Y-2070990D03*
Y-1913510D03*
X4983800Y-1248740D03*
Y-1091260D03*
G54D35*
X4042500Y1039750D03*
X3952500D03*
X3862500D03*
Y2189750D03*
X3952500D03*
X4042500D03*
X4492500Y1039750D03*
X4402500D03*
X4312500D03*
X4222500D03*
X4132500D03*
Y2189750D03*
X4222500D03*
X4312500D03*
X4402500D03*
X4492500D03*
X4762500Y1039750D03*
X4672500D03*
X4582500D03*
Y2189750D03*
X4672500D03*
X4762500D03*
G54D45*
X5150740Y2403000D03*
X5247260D03*
G54D18*
X2256500Y-2327530D03*
X2732750D03*
X2929600D03*
X3494750D03*
G54D27*
X3446750Y-1281250D03*
X3573750D03*
X3621750Y2611500D03*
X3494750D03*
G54D36*
X3737500Y1164750D03*
Y1254750D03*
Y1344750D03*
Y1434750D03*
Y1524750D03*
Y1614750D03*
Y1704750D03*
Y1794750D03*
Y1884750D03*
Y1974750D03*
Y2064750D03*
X4887500Y1164750D03*
Y1614750D03*
Y1524750D03*
Y1434750D03*
Y1344750D03*
Y1254750D03*
Y1974750D03*
Y1884750D03*
Y1794750D03*
Y1704750D03*
Y2064750D03*
G54D37*
X4019250Y2660250D03*
Y2880250D03*
X3859250D03*
Y2660250D03*
G54D46*
X5596000Y1231000D03*
Y1931000D03*
G54D28*
X3475000Y615000D03*
Y835000D03*
X3735000Y615000D03*
Y835000D03*
G54D19*
X2256500Y-2413890D03*
X2732750D03*
X2929600D03*
X3494750D03*
G54D47*
G01X3048000Y3316000D02*
G02X6020000Y2247000I-4989J-4679701D01*
G01Y-2901000D01*
X-3478000D01*
Y3316000D01*
X3047000D01*
G01X-950000Y-460000D02*
Y-1480000D01*
X-360000D01*
Y-1570000D01*
X-20000D01*
Y-1480000D01*
X950000D01*
X949000Y2020000D01*
X1250000D01*
X1249000Y2521000D01*
X-1250000D01*
G01X-1030000Y-460000D02*
X-950000D01*
G01X-1030000Y60000D02*
Y-460000D01*
G01X-1250000Y2521000D02*
Y2021000D01*
X-951000D01*
X-950000Y60000D01*
G01D02*
X-1030000D01*
G54D38*
X4415500Y-2500250D03*
G54D29*
X3469000Y1180500D03*
Y1053500D03*
G54D39*
X4165500Y-2500250D03*
M02*
