G04 ================== begin FILE IDENTIFICATION RECORD ==================*
G04 Layout Name:  D:/Spacewizard/2019/PCBA/M249V10/Schematics/M249V10-DRL_200212.brd*
G04 Film Name:    SOLDER_TOP*
G04 File Format:  Gerber RS274X*
G04 File Origin:  Cadence Allegro 17.2-P019*
G04 Origin Date:  Wed Feb 12 03:13:37 2020*
G04 *
G04 Layer:  VIA CLASS/SOLDERMASK_TOP*
G04 Layer:  PIN/SOLDERMASK_TOP*
G04 Layer:  PACKAGE GEOMETRY/SOLDERMASK_TOP*
G04 Layer:  BOARD GEOMETRY/OUTLINE*
G04 Layer:  BOARD GEOMETRY/SOLDERMASK_TOP*
G04 *
G04 Offset:    (0.0000 0.0000)*
G04 Mirror:    No*
G04 Mode:      Positive*
G04 Rotation:  0*
G04 FullContactRelief:  No*
G04 UndefLineWidth:     0.0000*
G04 ================== end FILE IDENTIFICATION RECORD ====================*
%FSLAX25Y25*MOMM*%
%IR0*IPPOS*OFA0.00000B0.00000*MIA0B0*SFA1.00000B1.00000*%
%ADD21R,.889X.7874*%
%ADD29R,.7874X.889*%
%ADD34O,2.X.6*%
%ADD38R,2.X.6*%
%ADD39O,.44X1.9*%
%ADD44R,.44X1.9*%
%ADD15R,.9X.9*%
%ADD52R,.861X.861*%
%ADD24R,1.397X.762*%
%ADD16R,1.1684X.9652*%
%ADD28R,.9652X1.1684*%
%ADD46R,1.0668X.6858*%
%AMMACRO47*
4,1,8,-2.1844,.381,
-1.3716,.381,
-1.3716,.9906,
2.1844,.9906,
2.1844,-.9906,
-1.3716,-.9906,
-1.3716,-.381,
-2.1844,-.381,
-2.1844,.381,
0.0*
%
%ADD47MACRO47*%
%ADD48R,2.1X2.4*%
%ADD30R,1.1X1.6*%
%ADD18R,3.2X2.2*%
%ADD45R,1.6X1.1*%
%ADD40R,2.4X2.1*%
%ADD26R,1.6X2.1*%
%ADD23R,2.1X2.4*%
%ADD12R,2.1X1.6*%
%ADD33R,6.3X2.3*%
%ADD11C,1.*%
%ADD32R,1.6X2.7*%
%ADD51C,1.2*%
%ADD49R,4.2X3.8*%
%ADD36R,2.7X1.6*%
%ADD14R,7.X6.4*%
%ADD41R,3.8X4.2*%
%ADD13C,2.2*%
%ADD37C,1.4*%
%ADD20C,2.5*%
%ADD19R,2.6X5.9*%
%ADD17C,1.8*%
%ADD10C,8.3312*%
%ADD43R,.6604X.6604*%
%ADD27R,1.4732X1.1684*%
%ADD25R,1.1684X1.4732*%
%ADD31R,1.98X1.98*%
%ADD50R,1.4986X1.1176*%
%ADD35R,1.1176X1.4986*%
%ADD22R,2.4892X1.778*%
%ADD42R,1.4986X1.2954*%
%ADD53C,.1*%
%ADD54C,.15*%
G75*
%LPD*%
G75*
G36*
G01X7292500Y1870000D02*
Y1680000D01*
X6707500D01*
Y1870000D01*
X7292500D01*
G37*
G36*
G01Y2420000D02*
Y2230000D01*
X6707500D01*
Y2420000D01*
X7292500D01*
G37*
G36*
G01X7580000Y955000D02*
Y1145000D01*
X8470000D01*
Y955000D01*
X7580000D01*
G37*
G36*
G01Y1505000D02*
Y1695000D01*
X8470000D01*
Y1505000D01*
X7580000D01*
G37*
G54D10*
X398000Y400200D03*
X400000Y4900000D03*
X9099290Y400180D03*
X9099320Y5815510D03*
G54D20*
X1875000Y4950000D03*
X2125000D03*
X2375000D03*
G54D11*
X191770Y805620D03*
Y1405620D03*
Y1005620D03*
Y1205620D03*
Y1805620D03*
Y1605620D03*
Y2405620D03*
Y2005620D03*
Y2205620D03*
X475000Y2150000D03*
X191770Y2793120D03*
Y2593120D03*
X437500Y2550000D03*
X191770Y3193120D03*
Y2993120D03*
Y3393120D03*
Y3793120D03*
Y3593120D03*
Y3993120D03*
Y4180620D03*
Y4380620D03*
X650000Y2550000D03*
X875000D03*
X787500Y2450000D03*
X550000D03*
X1300000Y400000D03*
Y275000D03*
X1276200Y2675000D03*
X1050000Y2650000D03*
X1000000Y4700220D03*
X1400000Y5100220D03*
X1200000D03*
Y4900220D03*
X1000000Y5100220D03*
Y4900220D03*
X1400000Y5312720D03*
Y5712720D03*
Y5512720D03*
X1200000Y5312720D03*
Y5712720D03*
Y5512720D03*
X1004270Y5505620D03*
Y5305620D03*
X1600000Y400000D03*
Y275000D03*
X1450000D03*
Y400000D03*
X1800000Y875000D03*
Y600000D03*
X1525000Y1250000D03*
X1675000D03*
Y1125000D03*
X1525000D03*
X1825000Y1250000D03*
Y1125000D03*
X1525000Y2100000D03*
X1675000Y1975000D03*
X1525000D03*
X1675000Y2100000D03*
X1825000D03*
Y1975000D03*
X1887500Y3150000D03*
X1800000Y5712720D03*
Y5312720D03*
Y5512720D03*
X1600000Y5312720D03*
Y5712720D03*
Y5512720D03*
X1800000Y5912720D03*
X1975000Y875000D03*
X2150000D03*
Y600000D03*
X1975000D03*
X2025000Y1450000D03*
X2200000D03*
X2375000D03*
X2025000Y1725000D03*
X2200000D03*
X2375000D03*
X2000000Y2300000D03*
X2200000D03*
X2400000D03*
X2000000Y2575000D03*
X2200000D03*
X2400000D03*
Y5512720D03*
X2000000Y5712720D03*
X2200000D03*
X2400000D03*
X2000000Y5312720D03*
X2400000D03*
Y5912720D03*
X2200000D03*
X2000000D03*
X2525000Y950000D03*
X2718390Y1775000D03*
X2725000Y2625000D03*
X2600000Y5512720D03*
X2800000D03*
X2600000Y5712720D03*
X2800000D03*
X2600000Y5312720D03*
X2800000D03*
Y5912720D03*
X2600000D03*
X3350000Y5050000D03*
X3000000Y5512720D03*
Y5712720D03*
Y5312720D03*
X3200000D03*
X3000000Y5912720D03*
X3425000Y950000D03*
X3750000Y850000D03*
X3375000D03*
Y650000D03*
X3750000Y750000D03*
Y650000D03*
X3375000Y750000D03*
X3475000Y1775000D03*
X3600000Y1675000D03*
Y1475000D03*
Y1575000D03*
Y2325000D03*
Y2525000D03*
Y2425000D03*
X3475000Y2625000D03*
X3650000Y4750000D03*
X3800000D03*
X3500000Y5050000D03*
Y4900000D03*
X3650000D03*
X3600000Y5512720D03*
X3400000Y5712720D03*
X3800000D03*
X3400000Y5912720D03*
X4100000Y375000D03*
X4200000Y712720D03*
X3975000Y1675000D03*
Y1575000D03*
Y1475000D03*
X4300000Y2050000D03*
X3975000Y2325000D03*
Y2425000D03*
Y2525000D03*
X3925000Y4200000D03*
X4475000Y500000D03*
X4717690Y957300D03*
X4625000Y825000D03*
X4400000Y912720D03*
Y712720D03*
X4725000Y1375000D03*
X4348130Y1223130D03*
X4725000Y1700000D03*
X4500000Y1525000D03*
Y2375000D03*
X4650000Y2598800D03*
X4659760Y3025000D03*
X4600000Y5512720D03*
X5200000Y312720D03*
X5275000Y975000D03*
X4875000D03*
X4800000Y912720D03*
X5200000Y712720D03*
Y512720D03*
X5275000Y1450000D03*
X5200000Y1312720D03*
X5000000Y1112720D03*
X5150000Y1611500D03*
X4875000Y1800000D03*
X5050000Y1975000D03*
X5025000Y2225000D03*
X5253500Y2200000D03*
X5050000Y2425000D03*
X5000000Y2712720D03*
Y2512720D03*
X4800000D03*
X5248800Y2825000D03*
X5241820Y2948800D03*
X4850000Y3304670D03*
X5200000Y3112720D03*
X5000000D03*
Y3712720D03*
X5200000D03*
X4800000Y4312720D03*
X5000000D03*
X5200000D03*
X4825000Y4075000D03*
X4800000Y4512720D03*
X5000000D03*
X5200000D03*
X4800000Y4712720D03*
X5000000D03*
X5200000D03*
X4800000Y4912720D03*
X5000000D03*
X5200000D03*
X4800000Y5112720D03*
X5000000D03*
X5200000D03*
X4800000Y5312720D03*
X5000000D03*
X5200000D03*
X5025000Y5800000D03*
X5600000Y312720D03*
X5650000Y950000D03*
X5600000Y712720D03*
Y512720D03*
Y1312720D03*
Y1912720D03*
Y1512720D03*
X5678500Y2246500D03*
X5600000Y2112720D03*
X5425000Y2525000D03*
X5375000Y2425000D03*
X5625000Y2750000D03*
X5750000Y2425000D03*
X5625000Y2948800D03*
X5400000Y4312720D03*
X5600000D03*
X5400000Y4512720D03*
X5600000D03*
X5400000Y4712720D03*
X5600000D03*
X5400000Y4912720D03*
X5600000D03*
X5400000Y5112720D03*
X5600000D03*
X5400000Y5712720D03*
X5600000D03*
X5400000Y5312720D03*
X6150000Y175000D03*
X6200000Y912720D03*
X6000000D03*
X6200000Y712720D03*
X6000000D03*
X6200000Y512720D03*
X6000000D03*
Y1312720D03*
Y1112720D03*
X5800000Y1912720D03*
Y1712720D03*
X6171820Y2125000D03*
X6100000Y2325000D03*
X6050000Y2175000D03*
X5825000Y2525000D03*
X6025000Y2750000D03*
X5900000Y2425000D03*
X6025000Y2948800D03*
X5800000Y4312720D03*
X6000000D03*
X6200000D03*
X5800000Y4000000D03*
X6000000D03*
X6200000D03*
X5800000Y4512720D03*
X6000000D03*
X6200000D03*
X5800000Y4712720D03*
X6000000D03*
X6200000D03*
X5800000Y4912720D03*
X6000000D03*
X6200000D03*
X5800000Y5112720D03*
X6000000D03*
X6200000D03*
X5800000Y5512720D03*
Y5712720D03*
X6200000D03*
X5800000Y5800000D03*
X6400000Y312720D03*
Y712720D03*
X6500000Y1225000D03*
Y1350000D03*
X6600000Y1512720D03*
X6612300Y2250000D03*
X6550000Y2900000D03*
X6675000Y2475000D03*
X6350000Y2850000D03*
X6512500Y2437500D03*
X6600000Y3112720D03*
X6525000Y3300000D03*
X6600000Y4112720D03*
X6400000Y4312720D03*
X6600000D03*
X6400000Y4512720D03*
X6600000D03*
X6400000Y4712720D03*
X6600000D03*
X6400000Y4912720D03*
X6600000D03*
X6400000Y5112720D03*
X6600000D03*
X6400000Y5712720D03*
X6600000D03*
Y5312720D03*
X6856250Y406250D03*
X6975000Y825000D03*
X7000000Y1112720D03*
X7075000Y1150000D03*
X6976200Y1426200D03*
X6925000Y1150000D03*
X7000000Y1512720D03*
X7095250Y1604750D03*
X6777750Y1652750D03*
X7166970Y1954260D03*
X7085670Y2035540D03*
X6775000Y2175000D03*
X6968250D03*
X7025000Y2100000D03*
X7031750Y2475000D03*
X6750000Y2900000D03*
X6904750Y2475000D03*
X7175000D03*
X7100000Y4700000D03*
Y4500000D03*
Y4900000D03*
X6800000Y5712720D03*
X7000000D03*
X6800000Y5312720D03*
X7000000D03*
X6800000Y5912720D03*
X7250000Y200000D03*
X7200000Y800000D03*
X7625000Y900000D03*
X7275000Y600000D03*
X7300000Y800000D03*
X7200000Y1312720D03*
X7475000Y1450000D03*
X7550000Y1375000D03*
X7400000Y1250000D03*
X7500000Y1625000D03*
X7200000Y1512720D03*
X7575000Y2150000D03*
X7550000Y2900000D03*
X7325000D03*
X7575000Y2500000D03*
X7250000Y2550000D03*
X7450000D03*
X7300000Y4700000D03*
X7500000D03*
Y4900000D03*
X7300000D03*
X7200000Y5712720D03*
X7400000D03*
Y5312720D03*
X7600000D03*
X7400000Y5912720D03*
X7850000Y375000D03*
X8125000Y550000D03*
X8025000Y575000D03*
Y900000D03*
X7800000Y912820D03*
X8075000Y800000D03*
X8037500Y1262500D03*
X7800000Y1250000D03*
X7912500Y1262500D03*
X8025000Y1775000D03*
Y1875000D03*
X7825000Y2075000D03*
X7925000Y2225000D03*
X7800000D03*
X8100000Y1950000D03*
X7675000Y1975000D03*
X8000000Y2900000D03*
X8150000Y2775000D03*
X8000000Y2500000D03*
X7800000D03*
X7675000Y2700000D03*
X7700000Y4300000D03*
X8100000Y4700000D03*
X7900000D03*
X7700000D03*
X7940340Y4376110D03*
X7700000Y4900000D03*
X8100000D03*
X7900000D03*
X8000000Y5712720D03*
X7800000Y5312720D03*
X8000000D03*
Y5912720D03*
X8250000Y575000D03*
X8275000Y900000D03*
X8200000Y1425000D03*
X8250000Y1350000D03*
X8425000Y1275000D03*
X8310750Y1200000D03*
X8450000Y1775000D03*
X8365550D03*
X8275000D03*
X8400000Y2312720D03*
X8200000Y2225000D03*
Y1950000D03*
X8625000Y1957280D03*
X8350000Y2900000D03*
X8600000Y2712720D03*
Y2512720D03*
X8400000Y3312720D03*
X8415340Y4226110D03*
X8600000Y5512720D03*
X8400000Y5712720D03*
X8600000D03*
X8400000Y5312720D03*
X8600000Y5912720D03*
X8675000Y875000D03*
X8975000Y1150000D03*
X9000000Y2112720D03*
Y3112720D03*
Y3312720D03*
X8800000Y2912720D03*
X8825000Y3150000D03*
X8990340Y4226110D03*
X8715340Y4351110D03*
X8990340Y4476110D03*
X8715340Y4601110D03*
X8990340Y4901110D03*
X8900000Y5100000D03*
X9100000D03*
X8700000D03*
X9200000Y1712720D03*
X9300000Y4100000D03*
Y5100000D03*
G54D12*
X450000Y2691000D03*
Y3009000D03*
X825000Y2691000D03*
Y3009000D03*
X4625000Y341000D03*
Y659000D03*
X4875000Y1216000D03*
Y1534000D03*
Y2066000D03*
Y2384000D03*
G54D30*
X4450000Y5600000D03*
X4750000D03*
G54D21*
X2375000Y835000D03*
Y615000D03*
X2600000Y1710000D03*
Y1490000D03*
Y2340000D03*
Y2560000D03*
X3975000Y810000D03*
Y590000D03*
X4200000Y1440000D03*
Y1660000D03*
Y2290000D03*
Y2510000D03*
X7300000Y1215000D03*
Y1435000D03*
G54D22*
X2675000Y4232360D03*
Y4567640D03*
X4075000Y4582360D03*
Y4917640D03*
X5075000Y2932360D03*
Y3267640D03*
Y3557360D03*
Y3892640D03*
G54D31*
X4490000Y5975000D03*
X4860000D03*
G54D13*
X800000Y1329000D03*
Y1725000D03*
Y2121000D03*
Y3604000D03*
Y3996000D03*
G54D40*
X7040000Y3275000D03*
Y4175000D03*
X7560000Y3275000D03*
X7300000D03*
Y4175000D03*
X7560000D03*
G54D50*
X8340020Y4825000D03*
X8559980Y4730000D03*
Y4920000D03*
G54D41*
X7150000Y5485000D03*
Y5965000D03*
X8250000Y5485000D03*
Y5965000D03*
G54D14*
X1335500Y506500D03*
X1560500Y1356500D03*
Y2206500D03*
X2910500Y506500D03*
X3135500Y1356500D03*
Y2206500D03*
G54D32*
X5050000Y210000D03*
Y690000D03*
X5450000Y210000D03*
Y690000D03*
X5850000Y210000D03*
Y690000D03*
G54D23*
X3200000Y4400000D03*
Y5200000D03*
X3700000Y4400000D03*
Y5200000D03*
G54D42*
X7565000Y780000D03*
Y620000D03*
X7785000Y780000D03*
Y620000D03*
G54D51*
X9050000Y2000000D03*
X9176000Y1052000D03*
Y1177000D03*
Y1302000D03*
Y1427000D03*
Y1552000D03*
X9250000Y2000000D03*
X9251000Y4477000D03*
Y4602000D03*
Y4727000D03*
Y4852000D03*
Y4977000D03*
G54D33*
X5450000Y5520000D03*
Y5980000D03*
G54D24*
X3177350Y5736500D03*
Y5609500D03*
Y5863500D03*
Y5990500D03*
X3672650Y5609500D03*
Y5736500D03*
Y5863500D03*
Y5990500D03*
G54D15*
X1123800Y2775000D03*
X1276200D03*
X2400000Y223800D03*
Y376200D03*
X2625000Y1073800D03*
Y1226200D03*
Y1923800D03*
Y2076200D03*
X4198800Y500000D03*
X3975000Y223800D03*
Y376200D03*
X4198800Y800000D03*
X4200000Y1073800D03*
Y1226200D03*
Y1923800D03*
Y2076200D03*
X4175000Y5573800D03*
Y5726200D03*
X4351200Y500000D03*
Y800000D03*
X4423800Y1375000D03*
X4576200D03*
X4423800Y1650000D03*
X4576200D03*
X4423800Y2225000D03*
X4576200D03*
X4423800Y2500000D03*
X4576200D03*
X5125000Y2701200D03*
Y2548800D03*
X5525000D03*
Y2701200D03*
Y2948800D03*
Y3101200D03*
X5325000D03*
Y2948800D03*
X5725000Y3101200D03*
Y2948800D03*
X5925000Y2548800D03*
Y2701200D03*
Y2948800D03*
Y3101200D03*
X6150000D03*
Y2948800D03*
X6650000Y873800D03*
Y1273800D03*
Y1426200D03*
Y1026200D03*
X6350000Y2548800D03*
Y2701200D03*
X6375000Y2948800D03*
Y3101200D03*
X6875000Y873800D03*
X7075000D03*
X6875000Y1273800D03*
Y1426200D03*
X7075000Y1273800D03*
Y1426200D03*
X6875000Y1026200D03*
X7075000D03*
X6750000Y2776200D03*
Y2623800D03*
X6950000D03*
Y2776200D03*
X7150000D03*
Y2623800D03*
X7550000Y2776200D03*
Y2623800D03*
X7350000Y2776200D03*
Y2623800D03*
X8000000Y2776200D03*
Y2623800D03*
X7800000D03*
Y2776200D03*
X7673800Y4475000D03*
X7826200D03*
X8048800D03*
X8348800Y3050000D03*
X8501200D03*
X8201200Y4475000D03*
X8826200Y1475000D03*
X8673800D03*
X8826200Y1675000D03*
X8673800D03*
X8826200Y1875000D03*
X8673800D03*
Y2075000D03*
X8826200D03*
X8825000Y4473800D03*
Y4626200D03*
Y4873800D03*
Y5026200D03*
G54D25*
X4167050Y225000D03*
X4382950D03*
X4607950Y1075000D03*
X4392050D03*
X4607950Y1925000D03*
X4392050D03*
X5525000Y3900000D03*
X5325000D03*
G54D43*
X7400000Y605550D03*
Y694450D03*
X7950000Y605550D03*
Y694450D03*
G54D16*
X1278740Y3000000D03*
X1121260D03*
X4771260Y2700000D03*
X4928740D03*
X6403740Y900000D03*
X6246260D03*
X6571260Y3000000D03*
X7128740D03*
X6971260D03*
X6728740D03*
X7396260D03*
X7553740D03*
X7621260Y5450000D03*
X8121260Y675000D03*
X7778740Y5450000D03*
X8278740Y675000D03*
X8828740Y1275000D03*
X8671260D03*
X8828740Y1075000D03*
X8671260D03*
X9071260Y1825000D03*
X9228740D03*
G54D52*
X8698800Y3050000D03*
X8851800D03*
G54D34*
X5435000Y1103500D03*
Y1230500D03*
Y1357500D03*
Y1484500D03*
Y1611500D03*
Y1738500D03*
Y1865500D03*
Y1992500D03*
Y2119500D03*
Y2246500D03*
X6315000Y1357500D03*
Y1230500D03*
Y1865500D03*
Y1738500D03*
Y1611500D03*
Y1484500D03*
Y2246500D03*
Y2119500D03*
Y1992500D03*
G54D53*
G01X2248000Y5462500D02*
G03I-123000J0D01*
G54D35*
X5425000Y3365020D03*
X5520000Y3584980D03*
X5330000D03*
X5730000D03*
X5825000Y3365020D03*
X6225000D03*
X5920000Y3584980D03*
X6130000D03*
X6320000D03*
G54D17*
X1430000Y4425000D03*
X1525000Y3700000D03*
X2125000D03*
X2170000Y4425000D03*
X2900000Y3225000D03*
Y4025000D03*
X3700000Y3225000D03*
Y4025000D03*
X4387450Y4365930D03*
Y5105930D03*
G54D26*
X4216000Y2775000D03*
X4534000D03*
G54D44*
X7612360Y1050000D03*
X7285750Y2325000D03*
G54D54*
G01X0Y5100000D02*
Y0D01*
X9500000D01*
Y6200000D01*
X3000000D01*
G01X0Y5100000D02*
G02X3000000Y6200000I2962128J-3437623D01*
G01X2244000Y5484000D02*
G03I-120000J-23000D01*
G54D27*
X4075000Y4000000D03*
Y4200000D03*
X4775000Y3125000D03*
Y2925000D03*
Y3800000D03*
Y3600000D03*
G54D36*
X6035000Y5550000D03*
Y5950000D03*
X6515000Y5550000D03*
Y5950000D03*
G54D45*
X7700000Y5700000D03*
Y6000000D03*
G54D18*
X1979000Y276500D03*
X1977000Y732000D03*
X2204000Y1126500D03*
X2202000Y1582000D03*
X2204000Y1976500D03*
X2202000Y2432000D03*
X3554000Y276500D03*
X3552000Y732000D03*
X3779000Y1126500D03*
Y1976500D03*
X3777000Y1582000D03*
Y2432000D03*
G54D19*
X1545000Y3000000D03*
X2305000D03*
G54D37*
X6375000Y199000D03*
X6575000D03*
X6275000Y625000D03*
X6475000D03*
X6675000D03*
X6775000Y199000D03*
X6975000D03*
X6875000Y625000D03*
X7075000D03*
X7525000Y200000D03*
X7725000D03*
X7925000D03*
X8125000D03*
X8325000D03*
X9174000Y2325000D03*
Y2925000D03*
Y2725000D03*
Y2525000D03*
X9175000Y3325000D03*
X9174000Y3125000D03*
G54D46*
X7711000Y2374720D03*
Y2075000D03*
G54D28*
X3925000Y5728740D03*
Y5571260D03*
X4975000Y5521260D03*
Y5678740D03*
X5725000Y2546260D03*
Y2703740D03*
X5325000Y2546260D03*
Y2703740D03*
X6150000Y2546260D03*
Y2703740D03*
X6550000Y2778740D03*
Y2621260D03*
X7300000Y871260D03*
Y1028740D03*
X7500000Y1871260D03*
Y2028740D03*
Y2403740D03*
Y2246260D03*
G54D47*
X7876100Y2224860D03*
G54D38*
X6315000Y1103500D03*
G54D29*
X3940000Y5950000D03*
X4160000D03*
X7460000Y4475000D03*
X7240000D03*
X7940000Y3050000D03*
X8160000D03*
X8415000Y4475000D03*
X8635000D03*
G54D48*
X7995000Y3280000D03*
Y4220000D03*
X8570000Y3280000D03*
X8255000D03*
X8570000Y4220000D03*
X8255000D03*
X8830000Y3280000D03*
Y4220000D03*
G54D39*
X7158750Y1775000D03*
X7095250D03*
X7031750D03*
X6968250D03*
X6904750D03*
X6841250D03*
X6777750D03*
X6714250D03*
Y2325000D03*
X6777750D03*
X6841250D03*
X6904750D03*
X6968250D03*
X7031750Y2324000D03*
X7095250D03*
X7158750D03*
X7612250Y1600000D03*
X7285750Y1775000D03*
X7222250D03*
Y2325000D03*
X8120360Y1050000D03*
X8056860D03*
X7993360D03*
X7929860D03*
X7866360Y1051000D03*
X7802860D03*
X7739360D03*
X7675860Y1050000D03*
X7675750Y1600000D03*
X7739250D03*
X7802750D03*
X7866250D03*
X7929750D03*
X7993250D03*
X8056750D03*
X8120250D03*
X8437750Y1050000D03*
X8374250D03*
X8310750D03*
X8247250D03*
X8183860D03*
X8183750Y1600000D03*
X8247250D03*
X8310750D03*
X8374250D03*
X8437750D03*
G54D49*
X8360000Y2550000D03*
X8840000D03*
M02*
