G04 ================== begin FILE IDENTIFICATION RECORD ==================*
G04 Layout Name:  D:/Spacewizard/2019/PCBA/M249V10/Schematics/M249V10-DRL_200212.brd*
G04 Film Name:    SILK_TOP*
G04 File Format:  Gerber RS274X*
G04 File Origin:  Cadence Allegro 17.2-P019*
G04 Origin Date:  Wed Feb 12 03:13:37 2020*
G04 *
G04 Layer:  REF DES/SILKSCREEN_TOP*
G04 Layer:  PACKAGE GEOMETRY/SILKSCREEN_TOP*
G04 Layer:  BOARD GEOMETRY/OUTLINE*
G04 Layer:  BOARD GEOMETRY/SILKSCREEN_TOP*
G04 *
G04 Offset:    (0.0000 0.0000)*
G04 Mirror:    No*
G04 Mode:      Positive*
G04 Rotation:  0*
G04 FullContactRelief:  No*
G04 UndefLineWidth:     0.0000*
G04 ================== end FILE IDENTIFICATION RECORD ====================*
%FSLAX25Y25*MOMM*%
%IR0*IPPOS*OFA0.00000B0.00000*MIA0B0*SFA1.00000B1.00000*%
%ADD10C,.1*%
%ADD11C,.2*%
%ADD12C,.3*%
%ADD13C,.102*%
%ADD14C,.15*%
%ADD15C,.25*%
%ADD16C,.2032*%
%ADD17C,.152*%
%ADD18C,.127*%
%ADD19C,.254*%
%ADD20C,.1524*%
%ADD21C,.1499*%
G75*
%LPD*%
G75*
G36*
G01X2425000Y675000D02*
X2325000D01*
X2375000Y725000D01*
X2425000Y675000D01*
G37*
G36*
G01X2650000Y1550000D02*
X2550000D01*
X2600000Y1600000D01*
X2650000Y1550000D01*
G37*
G36*
G01Y2400000D02*
X2550000D01*
X2600000Y2450000D01*
X2650000Y2400000D01*
G37*
G36*
G01X4025000Y650000D02*
X3925000D01*
X3975000Y700000D01*
X4025000Y650000D01*
G37*
G36*
G01X4250000Y1500000D02*
X4150000D01*
X4200000Y1550000D01*
X4250000Y1500000D01*
G37*
G36*
G01Y2350000D02*
X4150000D01*
X4200000Y2400000D01*
X4250000Y2350000D01*
G37*
G36*
G01X4100000Y6000000D02*
Y5900000D01*
X4050000Y5950000D01*
X4100000Y6000000D01*
G37*
G36*
G01X4550000Y5540000D02*
Y5660000D01*
X4610000Y5600000D01*
X4550000Y5540000D01*
G37*
G36*
G01X4950000Y360000D02*
X5150000D01*
X5050000Y460000D01*
X4950000Y360000D01*
G37*
G36*
G01X5350000D02*
X5550000D01*
X5450000Y460000D01*
X5350000Y360000D01*
G37*
G36*
G01X5750000D02*
X5950000D01*
X5850000Y460000D01*
X5750000Y360000D01*
G37*
G36*
G01X6365000Y5450000D02*
Y5650000D01*
X6265000Y5550000D01*
X6365000Y5450000D01*
G37*
G36*
G01Y5850000D02*
Y6050000D01*
X6265000Y5950000D01*
X6365000Y5850000D01*
G37*
G36*
G01X7522610Y1040000D02*
G03I-49500J0D01*
G37*
G36*
G01X7250000Y1375000D02*
X7350000D01*
X7300000Y1325000D01*
X7250000Y1375000D01*
G37*
G36*
G01X7474500Y2335000D02*
G03I-49500J0D01*
G37*
G36*
G01X7300000Y4425000D02*
Y4525000D01*
X7350000Y4475000D01*
X7300000Y4425000D01*
G37*
G36*
G01X8100000Y3100000D02*
Y3000000D01*
X8050000Y3050000D01*
X8100000Y3100000D01*
G37*
G36*
G01X7640000Y5900000D02*
X7760000D01*
X7700000Y5840000D01*
X7640000Y5900000D01*
G37*
G36*
G01X8475000Y4425000D02*
Y4525000D01*
X8525000Y4475000D01*
X8475000Y4425000D01*
G37*
G36*
G01X8926000Y952000D02*
Y1152000D01*
X9026000Y1052000D01*
X8926000Y952000D01*
G37*
G36*
G01X8987500Y1987500D02*
X8937500Y2037500D01*
Y1937500D01*
X8987500Y1987500D01*
G37*
G36*
G01X9001000Y4377000D02*
Y4577000D01*
X9101000Y4477000D01*
X9001000Y4377000D01*
G37*
G54D10*
G01X317000Y3123000D02*
Y2577000D01*
X583000D01*
Y3123000D01*
X317000D01*
G01X692000D02*
Y2577000D01*
X958000D01*
Y3123000D01*
X692000D01*
G01X1525000Y4000000D02*
G03Y3400000I0J-300000D01*
G01X1450000Y4695000D02*
G03Y4145000I5000J-275000D01*
G01X2435000Y2700000D02*
X1415000D01*
Y3300000D01*
X2435000D01*
Y2700000D01*
G01X2125000Y3400000D02*
X1525000D01*
G01X2125000Y4000000D02*
X1525000D01*
G01X1450000Y4145000D02*
X2150000D01*
G01X1450000Y4695000D02*
X2150000D01*
G01X2125000Y3400000D02*
G03Y4000000I0J300000D01*
G01X2150000Y4695000D02*
G02Y4145000I-5000J-275000D01*
G01X2248000Y5462500D02*
G03I-123000J0D01*
G01X2800000Y3225000D02*
G02Y4025000I116667J400000D01*
G01X3800000Y3225000D02*
X2800000D01*
G01X3800000Y4025000D02*
X2800000D01*
G01X3311000Y4479400D02*
Y4279400D01*
G01D02*
X3091000D01*
G01D02*
Y4479400D01*
G01X3880000Y4480000D02*
X3020000D01*
Y5120000D01*
X3880000D01*
Y4480000D01*
G01X3089000Y5120600D02*
Y5320600D01*
G01X3309000D02*
Y5120600D01*
G01X3089000Y5320600D02*
X3309000D01*
G01X3810000Y4480000D02*
Y4280000D01*
X3590000D01*
Y4480000D01*
G01X3589000Y5120600D02*
Y5320600D01*
G01D02*
X3809000D01*
G01X4648000Y2908000D02*
X4102000D01*
Y2642000D01*
X4648000D01*
Y2908000D01*
G01X3800000Y3225000D02*
G03Y4025000I-116667J400000D01*
G01X3964000Y4190000D02*
G03I-64000J0D01*
G01X3809000Y5320600D02*
Y5120600D01*
G01X4492000Y773000D02*
Y227000D01*
X4758000D01*
Y773000D01*
X4492000D01*
G01X4742000Y1648000D02*
Y1102000D01*
X5008000D01*
Y1648000D01*
X4742000D01*
G01Y2498000D02*
Y1952000D01*
X5008000D01*
Y2498000D01*
X4742000D01*
G01X4487450Y5645930D02*
Y3835930D01*
X8987450D01*
Y5635930D01*
X8977450Y5645930D01*
X4487450D01*
G01X4390000Y5510000D02*
Y5690000D01*
G01D02*
X4810000D01*
G01X4650000Y5600000D02*
X4610000D01*
G01Y5540000D02*
Y5660000D01*
G01X4810000Y5510000D02*
X4390000D01*
G01X4611000Y5835000D02*
X4357000D01*
Y6115000D01*
X4611000D01*
G01X4739000Y5835000D02*
X4993000D01*
Y6115000D01*
X4739000D01*
G01X5770000Y6100000D02*
Y5400000D01*
X5130000D01*
Y6100000D01*
X5770000D01*
G01X4810000Y5510000D02*
Y5690000D01*
G01X7390000Y5375000D02*
X6910000D01*
X6800000Y5485000D01*
Y6075000D01*
X7500000D01*
Y5485000D01*
X7390000Y5375000D01*
G01X7610000Y5640000D02*
X7790000D01*
G01X7610000D02*
Y6060000D01*
G01D02*
X7790000D01*
G01X7895000Y3430000D02*
Y4070000D01*
X8355000D01*
G01Y3430000D02*
X7895000D01*
G01X8490000Y5375000D02*
X8010000D01*
X7900000Y5485000D01*
Y6075000D01*
X8600000D01*
Y5485000D01*
X8490000Y5375000D01*
G01X7790000Y6060000D02*
Y5640000D01*
G01X7700000Y5800000D02*
Y5840000D01*
G01X7640000D02*
X7760000D01*
G01X8250000Y2310000D02*
Y2790000D01*
X8360000Y2900000D01*
X8950000D01*
Y2200000D01*
X8360000D01*
X8250000Y2310000D01*
G01X8930000Y4070000D02*
Y3430000D01*
X8470000D01*
G01Y4070000D02*
X8930000D01*
G01X9400000Y850000D02*
X9025000D01*
Y1750000D01*
X9400000D01*
Y850000D01*
G01X8765000Y3080000D02*
Y3020000D01*
X8795000Y3050000D01*
X8765000Y3080000D01*
G01X8622600Y2986500D02*
X8927600D01*
Y3113500D01*
X8622600D01*
Y2988500D01*
G01X9475000Y4275000D02*
X9100000D01*
Y5175000D01*
X9475000D01*
Y4275000D01*
G54D20*
G01X2476880Y4067260D02*
X2563240D01*
G01X2517520Y4034240D02*
Y4100280D01*
G01X2555010Y4219990D02*
X2535000D01*
Y4580010D01*
X2555010D01*
G01X2794990D02*
X2815000D01*
Y4219990D01*
X2794990D01*
G01X4255030Y106490D02*
X4248680Y110940D01*
X4241280Y113900D01*
X4232810D01*
X4223280Y109450D01*
X4215880Y102050D01*
X4210580Y93160D01*
X4206350Y78340D01*
X4205290Y65000D01*
X4207410Y51670D01*
X4210580Y42780D01*
X4216930Y33890D01*
X4224340Y27960D01*
X4231750Y25000D01*
X4239160D01*
X4246570Y27960D01*
X4252920Y32410D01*
X4258210Y38330D01*
G01X4295460Y62040D02*
X4302870Y72410D01*
X4309220Y78340D01*
X4317690Y81300D01*
X4325100Y78340D01*
X4330390Y72410D01*
X4334620Y63520D01*
X4335680Y53150D01*
X4334620Y44260D01*
X4330390Y35370D01*
X4324040Y27960D01*
X4316630Y25000D01*
X4308160Y27960D01*
X4300750Y36850D01*
X4296520Y50190D01*
X4295460Y65000D01*
X4297580Y84260D01*
X4300750Y94640D01*
X4306040Y105010D01*
X4313450Y112420D01*
X4320860Y113900D01*
X4328270Y110940D01*
X4333560Y103530D01*
G01X3876880Y4417260D02*
X3963240D01*
G01X3917520Y4384240D02*
Y4450280D01*
G01X3955010Y4569990D02*
X3935000D01*
Y4930010D01*
X3955010D01*
G01X4194990D02*
X4215000D01*
Y4569990D01*
X4194990D01*
G01X4455030Y956490D02*
X4448680Y960940D01*
X4441280Y963900D01*
X4432810D01*
X4423280Y959450D01*
X4415880Y952050D01*
X4410580Y943160D01*
X4406350Y928340D01*
X4405290Y915000D01*
X4407410Y901670D01*
X4410580Y892780D01*
X4416930Y883890D01*
X4424340Y877960D01*
X4431750Y875000D01*
X4439160D01*
X4446570Y877960D01*
X4452920Y882410D01*
X4458210Y888330D01*
G01X4515570Y875000D02*
Y963900D01*
X4502870Y946120D01*
G01Y875000D02*
X4528270D01*
G01X4599390Y963900D02*
X4590920Y960940D01*
X4584570Y953530D01*
X4580340Y944640D01*
X4577160Y932780D01*
X4576110Y919450D01*
X4577160Y906110D01*
X4580340Y894260D01*
X4584570Y885370D01*
X4590920Y877960D01*
X4599390Y875000D01*
X4607860Y877960D01*
X4614210Y885370D01*
X4618440Y894260D01*
X4621620Y906110D01*
X4622670Y919450D01*
X4621620Y932780D01*
X4618440Y944640D01*
X4614210Y953530D01*
X4607860Y960940D01*
X4599390Y963900D01*
G01X4455030Y1806490D02*
X4448680Y1810940D01*
X4441280Y1813900D01*
X4432810D01*
X4423280Y1809450D01*
X4415880Y1802050D01*
X4410580Y1793160D01*
X4406350Y1778340D01*
X4405290Y1765000D01*
X4407410Y1751670D01*
X4410580Y1742780D01*
X4416930Y1733890D01*
X4424340Y1727960D01*
X4431750Y1725000D01*
X4439160D01*
X4446570Y1727960D01*
X4452920Y1732410D01*
X4458210Y1738330D01*
G01X4515570Y1725000D02*
Y1813900D01*
X4502870Y1796120D01*
G01Y1725000D02*
X4528270D01*
G01X4599390D02*
X4606800Y1726480D01*
X4615260Y1730930D01*
X4620560Y1738330D01*
X4622670Y1748710D01*
X4620560Y1759080D01*
X4614210Y1767970D01*
X4604680Y1772410D01*
X4594100D01*
X4587750Y1775380D01*
X4582460Y1782780D01*
X4580340Y1793160D01*
X4583520Y1803530D01*
X4590920Y1810940D01*
X4599390Y1813900D01*
X4607860Y1810940D01*
X4615260Y1803530D01*
X4618440Y1793160D01*
X4616320Y1782780D01*
X4611030Y1775380D01*
X4604680Y1772410D01*
X4594100D01*
X4584570Y1767970D01*
X4578220Y1759080D01*
X4576110Y1748710D01*
X4578220Y1738330D01*
X4583520Y1730930D01*
X4591980Y1726480D01*
X4599390Y1725000D01*
G01X5194990Y3280010D02*
X5215000D01*
Y2919990D01*
X5194990D01*
G01X4955010D02*
X4935000D01*
Y3280010D01*
X4955010D01*
G01X4876880Y3392260D02*
X4963240D01*
G01X4917520Y3359240D02*
Y3425280D01*
G01X4955010Y3544990D02*
X4935000D01*
Y3905010D01*
X4955010D01*
G01X5194990D02*
X5215000D01*
Y3544990D01*
X5194990D01*
G01X5273120Y3432740D02*
X5186760D01*
G01X5232480Y3465760D02*
Y3399720D01*
G01X5443800Y3560090D02*
X5406200D01*
G01X5348800Y3388640D02*
X5259900D01*
Y3497860D01*
G01X5590100D02*
Y3388640D01*
X5501200D01*
G01X5748800D02*
X5659900D01*
Y3497860D01*
G01X6175000Y485000D02*
Y15000D01*
G01D02*
X7175000D01*
G01Y485000D02*
X6175000D01*
G01X5843800Y3560090D02*
X5806200D01*
G01X5990100Y3497860D02*
Y3388640D01*
X5901200D01*
G01X6148800D02*
X6059900D01*
Y3497860D01*
G01X6243800Y3560090D02*
X6206200D01*
G01X6390100Y3497860D02*
Y3388640D01*
X6301200D01*
G01X7325000Y485000D02*
Y15000D01*
G01D02*
X8525000D01*
G01X7175000D02*
Y485000D01*
G01X8525000D02*
X7325000D01*
G01X7872300Y542700D02*
X7477700D01*
Y857300D01*
X7872300D01*
Y542700D01*
G01X7360000Y700010D02*
Y599990D01*
G03X7440000I40000J-3D01*
G01Y700010D01*
G03X7360000I-40000J3D01*
G01X8155030Y581490D02*
X8148680Y585940D01*
X8141280Y588900D01*
X8132810D01*
X8123280Y584450D01*
X8115880Y577050D01*
X8110580Y568160D01*
X8106350Y553340D01*
X8105290Y540000D01*
X8107410Y526670D01*
X8110580Y517780D01*
X8116930Y508890D01*
X8124340Y502960D01*
X8131750Y500000D01*
X8139160D01*
X8146570Y502960D01*
X8152920Y507410D01*
X8158210Y513330D01*
G01X8195460Y574080D02*
X8201810Y582970D01*
X8209220Y587420D01*
X8217690Y588900D01*
X8228270Y585940D01*
X8235680Y578530D01*
X8237800Y569640D01*
X8236740Y560750D01*
X8232500Y553340D01*
X8211340Y538520D01*
X8201810Y528150D01*
X8195460Y513330D01*
X8193340Y500000D01*
X8237800D01*
G01X8279280Y574080D02*
X8285630Y582970D01*
X8293040Y587420D01*
X8301510Y588900D01*
X8312090Y585940D01*
X8319500Y578530D01*
X8321620Y569640D01*
X8320560Y560750D01*
X8316320Y553340D01*
X8295160Y538520D01*
X8285630Y528150D01*
X8279280Y513330D01*
X8277160Y500000D01*
X8321620D01*
G01X7910000Y700010D02*
Y599990D01*
G03X7990000I40000J-3D01*
G01Y700010D01*
G03X7910000I-40000J3D01*
G01X8525000Y15000D02*
Y485000D01*
G01X8472860Y4659900D02*
X8363640D01*
Y4748800D01*
G01X8535090Y4806200D02*
Y4843800D01*
G01X8363640Y4901200D02*
Y4990100D01*
X8472860D01*
G01X8705030Y1006490D02*
X8698680Y1010940D01*
X8691280Y1013900D01*
X8682810D01*
X8673280Y1009450D01*
X8665880Y1002050D01*
X8660580Y993160D01*
X8656350Y978340D01*
X8655290Y965000D01*
X8657410Y951670D01*
X8660580Y942780D01*
X8666930Y933890D01*
X8674340Y927960D01*
X8681750Y925000D01*
X8689160D01*
X8696570Y927960D01*
X8702920Y932410D01*
X8708210Y938330D01*
G01X8745460Y999080D02*
X8751810Y1007970D01*
X8759220Y1012420D01*
X8767690Y1013900D01*
X8778270Y1010940D01*
X8785680Y1003530D01*
X8787800Y994640D01*
X8786740Y985750D01*
X8782500Y978340D01*
X8761340Y963520D01*
X8751810Y953150D01*
X8745460Y938330D01*
X8743340Y925000D01*
X8787800D01*
G01X8862090D02*
Y1013900D01*
X8822930Y950190D01*
X8875850D01*
G01X8990000Y2125000D02*
X9460000D01*
G01X8990000Y3525000D02*
Y2125000D01*
G01X9460000Y3525000D02*
X8990000D01*
G01X9460000Y2125000D02*
Y3525000D01*
G54D11*
G01X562500Y755000D02*
X568750Y740000D01*
X576250Y730000D01*
X585000Y725000D01*
X595000Y730000D01*
X602500Y740000D01*
X610000Y755000D01*
X612500Y775000D01*
Y875000D01*
G01X668750Y850000D02*
X676250Y865000D01*
X685000Y872500D01*
X695000Y875000D01*
X707500Y870000D01*
X716250Y857500D01*
X718750Y842500D01*
X717500Y827500D01*
X712500Y815000D01*
X687500Y790000D01*
X676250Y772500D01*
X668750Y747500D01*
X666250Y725000D01*
X718750D01*
G01X687500Y4505000D02*
X693750Y4490000D01*
X701250Y4480000D01*
X710000Y4475000D01*
X720000Y4480000D01*
X727500Y4490000D01*
X735000Y4505000D01*
X737500Y4525000D01*
Y4625000D01*
G01X817500Y4475000D02*
Y4625000D01*
X802500Y4595000D01*
G01Y4475000D02*
X832500D01*
G01X5785000Y1025000D02*
Y917500D01*
X5790000Y895000D01*
X5800000Y880000D01*
X5812500Y875000D01*
X5825000Y880000D01*
X5835000Y895000D01*
X5840000Y917500D01*
Y1025000D01*
G01X5917500Y875000D02*
Y1025000D01*
X5902500Y995000D01*
G01Y875000D02*
X5932500D01*
G01X7175000Y525000D02*
X6175000D01*
Y725000D01*
X7175000D01*
Y525000D01*
G01X6485000Y2125000D02*
Y2017500D01*
X6490000Y1995000D01*
X6500000Y1980000D01*
X6512500Y1975000D01*
X6525000Y1980000D01*
X6535000Y1995000D01*
X6540000Y2017500D01*
Y2125000D01*
G01X6593750Y2100000D02*
X6601250Y2115000D01*
X6610000Y2122500D01*
X6620000Y2125000D01*
X6632500Y2120000D01*
X6641250Y2107500D01*
X6643750Y2092500D01*
X6642500Y2077500D01*
X6637500Y2065000D01*
X6612500Y2040000D01*
X6601250Y2022500D01*
X6593750Y1997500D01*
X6591250Y1975000D01*
X6643750D01*
G01X7187500Y80000D02*
X7193750Y65000D01*
X7201250Y55000D01*
X7210000Y50000D01*
X7220000Y55000D01*
X7227500Y65000D01*
X7235000Y80000D01*
X7237500Y100000D01*
Y200000D01*
G01X7317500Y50000D02*
X7326250Y52500D01*
X7336250Y60000D01*
X7342500Y72500D01*
X7345000Y90000D01*
X7342500Y107500D01*
X7335000Y122500D01*
X7323750Y130000D01*
X7311250D01*
X7303750Y135000D01*
X7297500Y147500D01*
X7295000Y165000D01*
X7298750Y182500D01*
X7307500Y195000D01*
X7317500Y200000D01*
X7327500Y195000D01*
X7336250Y182500D01*
X7340000Y165000D01*
X7337500Y147500D01*
X7331250Y135000D01*
X7323750Y130000D01*
X7311250D01*
X7300000Y122500D01*
X7292500Y107500D01*
X7290000Y90000D01*
X7292500Y72500D01*
X7298750Y60000D01*
X7308750Y52500D01*
X7317500Y50000D01*
G01X7187500Y605000D02*
X7193750Y590000D01*
X7201250Y580000D01*
X7210000Y575000D01*
X7220000Y580000D01*
X7227500Y590000D01*
X7235000Y605000D01*
X7237500Y625000D01*
Y725000D01*
G01X7290000Y605000D02*
X7297500Y587500D01*
X7307500Y577500D01*
X7318750Y575000D01*
X7328750Y577500D01*
X7338750Y590000D01*
X7345000Y605000D01*
X7346250Y620000D01*
X7343750Y637500D01*
X7335000Y650000D01*
X7326250Y655000D01*
X7315000D01*
G01X7326250D02*
X7333750Y662500D01*
X7340000Y675000D01*
X7342500Y690000D01*
X7340000Y705000D01*
X7333750Y717500D01*
X7322500Y725000D01*
X7311250Y722500D01*
X7300000Y712500D01*
G01X7935000Y1900000D02*
Y1792500D01*
X7940000Y1770000D01*
X7950000Y1755000D01*
X7962500Y1750000D01*
X7975000Y1755000D01*
X7985000Y1770000D01*
X7990000Y1792500D01*
Y1900000D01*
G01X8040000Y1780000D02*
X8047500Y1762500D01*
X8057500Y1752500D01*
X8068750Y1750000D01*
X8078750Y1752500D01*
X8088750Y1765000D01*
X8095000Y1780000D01*
X8096250Y1795000D01*
X8093750Y1812500D01*
X8085000Y1825000D01*
X8076250Y1830000D01*
X8065000D01*
G01X8076250D02*
X8083750Y1837500D01*
X8090000Y1850000D01*
X8092500Y1865000D01*
X8090000Y1880000D01*
X8083750Y1892500D01*
X8072500Y1900000D01*
X8061250Y1897500D01*
X8050000Y1887500D01*
G01X8562500Y80000D02*
X8568750Y65000D01*
X8576250Y55000D01*
X8585000Y50000D01*
X8595000Y55000D01*
X8602500Y65000D01*
X8610000Y80000D01*
X8612500Y100000D01*
Y200000D01*
G01X8665000Y72500D02*
X8672500Y60000D01*
X8681250Y52500D01*
X8692500Y50000D01*
X8703750Y55000D01*
X8712500Y65000D01*
X8718750Y82500D01*
X8720000Y102500D01*
X8717500Y122500D01*
X8711250Y135000D01*
X8702500Y145000D01*
X8693750Y147500D01*
X8685000Y145000D01*
X8673750Y135000D01*
X8677500Y200000D01*
X8711250D01*
G01X8920000Y2112500D02*
X8935000Y2118750D01*
X8945000Y2126250D01*
X8950000Y2135000D01*
X8945000Y2145000D01*
X8935000Y2152500D01*
X8920000Y2160000D01*
X8900000Y2162500D01*
X8800000D01*
G01X8950000Y2257500D02*
X8800000D01*
X8907500Y2211250D01*
Y2273750D01*
G01X9445000Y1787500D02*
X9460000Y1793750D01*
X9470000Y1801250D01*
X9475000Y1810000D01*
X9470000Y1820000D01*
X9460000Y1827500D01*
X9445000Y1835000D01*
X9425000Y1837500D01*
X9325000D01*
G01X9457500Y1896250D02*
X9470000Y1905000D01*
X9475000Y1915000D01*
X9470000Y1925000D01*
X9455000Y1933750D01*
X9432500Y1940000D01*
X9410000Y1942500D01*
X9382500D01*
X9360000Y1940000D01*
X9340000Y1933750D01*
X9330000Y1926250D01*
X9325000Y1917500D01*
X9330000Y1907500D01*
X9340000Y1900000D01*
X9355000Y1895000D01*
X9375000Y1892500D01*
X9392500Y1895000D01*
X9410000Y1901250D01*
X9420000Y1908750D01*
X9422500Y1917500D01*
X9417500Y1927500D01*
X9405000Y1935000D01*
X9382500Y1942500D01*
G01X9420000Y3587500D02*
X9435000Y3593750D01*
X9445000Y3601250D01*
X9450000Y3610000D01*
X9445000Y3620000D01*
X9435000Y3627500D01*
X9420000Y3635000D01*
X9400000Y3637500D01*
X9300000D01*
G01X9450000Y3715000D02*
X9417500Y3717500D01*
X9390000Y3721250D01*
X9365000Y3726250D01*
X9337500Y3732500D01*
X9300000Y3742500D01*
Y3692500D01*
G01X9420000Y5237500D02*
X9435000Y5243750D01*
X9445000Y5251250D01*
X9450000Y5260000D01*
X9445000Y5270000D01*
X9435000Y5277500D01*
X9420000Y5285000D01*
X9400000Y5287500D01*
X9300000D01*
G01X9387500Y5343750D02*
X9370000Y5352500D01*
X9360000Y5360000D01*
X9355000Y5370000D01*
X9360000Y5378750D01*
X9370000Y5385000D01*
X9385000Y5390000D01*
X9402500Y5391250D01*
X9417500Y5390000D01*
X9432500Y5385000D01*
X9445000Y5377500D01*
X9450000Y5368750D01*
X9445000Y5358750D01*
X9430000Y5350000D01*
X9407500Y5345000D01*
X9382500Y5343750D01*
X9350000Y5346250D01*
X9332500Y5350000D01*
X9315000Y5356250D01*
X9302500Y5365000D01*
X9300000Y5373750D01*
X9305000Y5382500D01*
X9317500Y5388750D01*
G54D21*
G01X2434940Y894990D02*
X2315060D01*
G01X2435000Y895000D02*
X2434940Y555070D01*
X2315060D01*
Y894930D01*
G01X2659940Y1769990D02*
X2540060D01*
G01X2660000Y1770000D02*
X2659940Y1430070D01*
X2540060D01*
Y1769930D01*
G01X2660000Y2620000D02*
X2659940Y2280070D01*
X2540060D01*
Y2619930D01*
G01X2659940Y2619990D02*
X2540060D01*
G01X4034940Y869990D02*
X3915060D01*
G01X4035000Y870000D02*
X4034940Y530070D01*
X3915060D01*
Y869930D01*
G01X4260000Y1720000D02*
X4259940Y1380070D01*
X4140060D01*
Y1719930D01*
G01X4259940Y1719990D02*
X4140060D01*
G01X4260000Y2570000D02*
X4259940Y2230070D01*
X4140060D01*
Y2569930D01*
G01X4259940Y2569990D02*
X4140060D01*
G01X3880010Y6009940D02*
Y5890060D01*
G01X3880000Y6010000D02*
X4219930Y6009940D01*
Y5890060D01*
X3880070D01*
G01X7240060Y1155010D02*
X7359940D01*
G01X7240000Y1155000D02*
X7240060Y1494930D01*
X7359940D01*
Y1155070D01*
G01X7519990Y4415060D02*
Y4534940D01*
G01X7520000Y4415000D02*
X7180070Y4415060D01*
Y4534940D01*
X7519930D01*
G01X7880010Y3109940D02*
Y2990060D01*
G01X7880000Y3110000D02*
X8219930Y3109940D01*
Y2990060D01*
X7880070D01*
G01X8695000Y4415000D02*
X8355070Y4415060D01*
Y4534940D01*
X8694930D01*
G01X8694990Y4415060D02*
Y4534940D01*
G54D12*
G01X2957930Y2775000D02*
Y2935000D01*
X3009500Y2801670D01*
X3061070Y2935000D01*
Y2775000D01*
G01X3131820Y2908330D02*
X3143720Y2924330D01*
X3157600Y2932330D01*
X3173470Y2935000D01*
X3193300Y2929670D01*
X3207180Y2916330D01*
X3211150Y2900340D01*
X3209170Y2884330D01*
X3201230Y2871000D01*
X3161570Y2844330D01*
X3143720Y2825670D01*
X3131820Y2798990D01*
X3127850Y2775000D01*
X3211150D01*
G01X3353300D02*
Y2935000D01*
X3279910Y2820330D01*
X3379090D01*
G01X3455780Y2793660D02*
X3469670Y2780330D01*
X3485530Y2775000D01*
X3501400Y2780330D01*
X3515280Y2796330D01*
X3525200Y2820330D01*
X3529170Y2844330D01*
Y2873670D01*
X3525200Y2897660D01*
X3515280Y2919000D01*
X3503380Y2929670D01*
X3489500Y2935000D01*
X3473630Y2929670D01*
X3461730Y2919000D01*
X3453800Y2903000D01*
X3449830Y2881660D01*
X3453800Y2863000D01*
X3463720Y2844330D01*
X3475620Y2833660D01*
X3489500Y2831000D01*
X3505370Y2836330D01*
X3517270Y2849670D01*
X3529170Y2873670D01*
G01X3599910Y2935000D02*
X3649500Y2775000D01*
X3699090Y2935000D01*
G01X3809500Y2775000D02*
Y2935000D01*
X3785700Y2903000D01*
G01Y2775000D02*
X3833300D01*
G01X3969500Y2935000D02*
X3953630Y2929670D01*
X3941730Y2916330D01*
X3933800Y2900340D01*
X3927850Y2879000D01*
X3925870Y2855000D01*
X3927850Y2831000D01*
X3933800Y2809660D01*
X3941730Y2793660D01*
X3953630Y2780330D01*
X3969500Y2775000D01*
X3985370Y2780330D01*
X3997270Y2793660D01*
X4005200Y2809660D01*
X4011150Y2831000D01*
X4013130Y2855000D01*
X4011150Y2879000D01*
X4005200Y2900340D01*
X3997270Y2916330D01*
X3985370Y2929670D01*
X3969500Y2935000D01*
G54D13*
G01X1352400Y2838500D02*
X1047600D01*
Y2711500D01*
X1352400D01*
Y2838500D01*
G01X2336500Y452400D02*
Y147600D01*
X2463500D01*
Y452400D01*
X2336500D01*
G01X2561500Y1302400D02*
Y997600D01*
X2688500D01*
Y1302400D01*
X2561500D01*
G01Y2152400D02*
Y1847600D01*
X2688500D01*
Y2152400D01*
X2561500D01*
G01X4427400Y563500D02*
X4122600D01*
Y436500D01*
X4427400D01*
Y563500D01*
G01X3911500Y452400D02*
Y147600D01*
X4038500D01*
Y452400D01*
X3911500D01*
G01X4427400Y863500D02*
X4122600D01*
Y736500D01*
X4427400D01*
Y863500D01*
G01X4136500Y1302400D02*
Y997600D01*
X4263500D01*
Y1302400D01*
X4136500D01*
G01Y2152400D02*
Y1847600D01*
X4263500D01*
Y2152400D01*
X4136500D01*
G01X4111500Y5802400D02*
Y5497600D01*
X4238500D01*
Y5802400D01*
X4111500D01*
G01X4652400Y1438500D02*
X4347600D01*
Y1311500D01*
X4652400D01*
Y1438500D01*
G01Y1713500D02*
X4347600D01*
Y1586500D01*
X4652400D01*
Y1713500D01*
G01Y2288500D02*
X4347600D01*
Y2161500D01*
X4652400D01*
Y2288500D01*
G01Y2563500D02*
X4347600D01*
Y2436500D01*
X4652400D01*
Y2563500D01*
G01X5188500Y2472600D02*
Y2777400D01*
X5061500D01*
Y2472600D01*
X5188500D01*
G01X5461500Y2777400D02*
Y2472600D01*
X5588500D01*
Y2777400D01*
X5461500D01*
G01Y3177400D02*
Y2872600D01*
X5588500D01*
Y3177400D01*
X5461500D01*
G01X5388500Y2872600D02*
Y3177400D01*
X5261500D01*
Y2872600D01*
X5388500D01*
G01X5788500D02*
Y3177400D01*
X5661500D01*
Y2872600D01*
X5788500D01*
G01X5861500Y2777400D02*
Y2472600D01*
X5988500D01*
Y2777400D01*
X5861500D01*
G01Y3177400D02*
Y2872600D01*
X5988500D01*
Y3177400D01*
X5861500D01*
G01X6213500Y2872600D02*
Y3177400D01*
X6086500D01*
Y2872600D01*
X6213500D01*
G01X6586500Y1102400D02*
Y797600D01*
X6713500D01*
Y1102400D01*
X6586500D01*
G01Y1502400D02*
Y1197600D01*
X6713500D01*
Y1502400D01*
X6586500D01*
G01X6286500Y2777400D02*
Y2472600D01*
X6413500D01*
Y2777400D01*
X6286500D01*
G01X6311500Y3177400D02*
Y2872600D01*
X6438500D01*
Y3177400D01*
X6311500D01*
G01X6811500Y1102400D02*
Y797600D01*
X6938500D01*
Y1102400D01*
X6811500D01*
G01X7011500D02*
Y797600D01*
X7138500D01*
Y1102400D01*
X7011500D01*
G01X6811500Y1502400D02*
Y1197600D01*
X6938500D01*
Y1502400D01*
X6811500D01*
G01X7011500D02*
Y1197600D01*
X7138500D01*
Y1502400D01*
X7011500D01*
G01X6813500Y2547600D02*
Y2852400D01*
X6686500D01*
Y2547600D01*
X6813500D01*
G01X6886500Y2852400D02*
Y2547600D01*
X7013500D01*
Y2852400D01*
X6886500D01*
G01X7213500Y2547600D02*
Y2852400D01*
X7086500D01*
Y2547600D01*
X7213500D01*
G01X7613500D02*
Y2852400D01*
X7486500D01*
Y2547600D01*
X7613500D01*
G01X7413500D02*
Y2852400D01*
X7286500D01*
Y2547600D01*
X7413500D01*
G01X7902400Y4538500D02*
X7597600D01*
Y4411500D01*
X7902400D01*
Y4538500D01*
G01X8063500Y2547600D02*
Y2852400D01*
X7936500D01*
Y2547600D01*
X8063500D01*
G01X7736500Y2852400D02*
Y2547600D01*
X7863500D01*
Y2852400D01*
X7736500D01*
G01X8277400Y4538500D02*
X7972600D01*
Y4411500D01*
X8277400D01*
Y4538500D01*
G01X8577400Y3113500D02*
X8272600D01*
Y2986500D01*
X8577400D01*
Y3113500D01*
G01X8597600Y1411500D02*
X8902400D01*
Y1538500D01*
X8597600D01*
Y1411500D01*
G01Y1611500D02*
X8902400D01*
Y1738500D01*
X8597600D01*
Y1611500D01*
G01Y1811500D02*
X8902400D01*
Y1938500D01*
X8597600D01*
Y1811500D01*
G01X8902400Y2138500D02*
X8597600D01*
Y2011500D01*
X8902400D01*
Y2138500D01*
G01X8761500Y4702400D02*
Y4397600D01*
X8888500D01*
Y4702400D01*
X8761500D01*
G01Y5102400D02*
Y4797600D01*
X8888500D01*
Y5102400D01*
X8761500D01*
G54D14*
G01X0Y5100000D02*
Y0D01*
X9500000D01*
Y6200000D01*
X3000000D01*
G01X1100000Y947000D02*
X300000Y946000D01*
G01Y945000D02*
Y2507000D01*
G01Y2505000D02*
X1100000Y2506000D01*
G01X585000Y2621000D02*
Y2578000D01*
X582000Y2576000D01*
X318000D01*
X313000Y2581000D01*
Y2621000D01*
G01X1100000Y3205000D02*
X300000Y3204000D01*
G01D02*
Y4392000D01*
G01X585000Y3086000D02*
Y3124000D01*
X318000D01*
X315000Y3122000D01*
Y3084000D01*
G01X300000Y4392000D02*
X1100000Y4393000D01*
G01X0Y5100000D02*
G02X3000000Y6200000I2962128J-3437623D01*
G01X960000Y2621000D02*
Y2578000D01*
X957000Y2576000D01*
X693000D01*
X688000Y2581000D01*
Y2621000D01*
G01X960000Y3086000D02*
Y3124000D01*
X693000D01*
X690000Y3122000D01*
Y3084000D01*
G01X1100000Y2508000D02*
Y946000D01*
G01Y4393000D02*
Y3205000D01*
G01X1365000Y4810000D02*
Y5880000D01*
G01Y4810000D02*
X2885000D01*
G01Y5880000D02*
X1365000D01*
G01X2625000Y4810000D02*
Y5260000D01*
X1625000D01*
Y4810000D01*
G01X2414880Y734930D02*
X2335120D01*
G01X2244000Y5484000D02*
G03I-120000J-23000D01*
G01X2375000Y784930D02*
Y735000D01*
G01X2600000Y1659930D02*
Y1610000D01*
G01X2639880Y1609930D02*
X2560120D01*
G01X2600000Y2509930D02*
Y2460000D01*
G01X2639880Y2459930D02*
X2560120D01*
G01X2885000Y5880000D02*
Y4810000D01*
G01X3975000Y759930D02*
Y710000D01*
G01X4014880Y709930D02*
X3935120D01*
G01X4200000Y1609930D02*
Y1560000D01*
G01X4239880Y1559930D02*
X4160120D01*
G01X4146000Y2640000D02*
X4103000D01*
X4101000Y2643000D01*
Y2907000D01*
X4106000Y2912000D01*
X4146000D01*
G01X4200000Y2459930D02*
Y2410000D01*
G01X4239880Y2409930D02*
X4160120D01*
G01X4437450Y5535930D02*
X4177450D01*
G01X3990070Y5950000D02*
X4040000D01*
G01X4040070Y5989880D02*
Y5910120D01*
G01X4760000Y271000D02*
Y228000D01*
X4757000Y226000D01*
X4493000D01*
X4488000Y231000D01*
Y271000D01*
G01X4760000Y736000D02*
Y774000D01*
X4493000D01*
X4490000Y772000D01*
Y734000D01*
G01X5010000Y1146000D02*
Y1103000D01*
X5007000Y1101000D01*
X4743000D01*
X4738000Y1106000D01*
Y1146000D01*
G01X5010000Y1611000D02*
Y1649000D01*
X4743000D01*
X4740000Y1647000D01*
Y1609000D01*
G01X5010000Y1996000D02*
Y1953000D01*
X5007000Y1951000D01*
X4743000D01*
X4738000Y1956000D01*
Y1996000D01*
G01X5010000Y2461000D02*
Y2499000D01*
X4743000D01*
X4740000Y2497000D01*
Y2459000D01*
G01X4611000Y2640000D02*
X4649000D01*
Y2907000D01*
X4647000Y2910000D01*
X4609000D01*
G01X4307450Y5665930D02*
Y5405930D01*
G01X4900000Y650000D02*
Y250000D01*
X5200000D01*
Y650000D01*
X4900000D01*
G01X5700000D02*
Y250000D01*
X6000000D01*
Y650000D01*
X5700000D01*
G01X5300000D02*
Y250000D01*
X5600000D01*
Y650000D01*
X5300000D01*
G01X6075000Y5400000D02*
X6475000D01*
Y5700000D01*
X6075000D01*
Y5400000D01*
G01Y5800000D02*
X6475000D01*
Y6100000D01*
X6075000D01*
Y5800000D01*
G01X7690000Y3395000D02*
Y3155000D01*
X6910000D01*
Y3395000D01*
G01X6850000D02*
X7750000D01*
G01X6850000D02*
Y4055000D01*
X7750000D01*
Y3395000D01*
G01X7690000Y4055000D02*
Y4295000D01*
X6910000D01*
Y4055000D01*
G01X7300000Y1265070D02*
Y1315000D01*
G01X7260120Y1315070D02*
X7339880D01*
G01X7170000Y3155000D02*
Y3395000D01*
G01X7430000Y3155000D02*
Y3395000D01*
G01Y4295000D02*
Y4055000D01*
G01X7170000Y4295000D02*
Y4055000D01*
G01X7409930Y4475000D02*
X7360000D01*
G01X7359930Y4435120D02*
Y4514880D01*
G01X7889700Y3310000D02*
G03I-44700J0D01*
G01X7990070Y3050000D02*
X8040000D01*
G01X8040070Y3089880D02*
Y3010120D01*
G01X7824720Y4175000D02*
G03I-44720J0D01*
G01X8584930Y4475000D02*
X8535000D01*
G01X8534930Y4435120D02*
Y4514880D01*
G01X9024700Y4190000D02*
G03I-44700J0D01*
G54D15*
G01X5050000Y530000D02*
Y470000D01*
G01X5150000D02*
X4940000D01*
G01X5450000Y530000D02*
Y470000D01*
G01X5550000D02*
X5340000D01*
G01X5850000Y530000D02*
Y470000D01*
G01X5950000D02*
X5740000D01*
G01X6195000Y5550000D02*
X6255000D01*
G01X6195000Y5950000D02*
X6255000D01*
G01Y5650000D02*
Y5440000D01*
G01Y6050000D02*
Y5840000D01*
G54D16*
G01X4148000Y313900D02*
X4402000D01*
G02Y136100I0J-88900D01*
G01X4148000D01*
G02Y313900I0J88900D01*
G01X4249600Y174200D02*
Y275800D01*
X4300400D01*
Y174200D01*
X4249600D01*
G01X4155010Y3930000D02*
X3994990D01*
Y4270000D01*
X4155010D01*
Y3930000D01*
G01X4373000Y1163900D02*
X4627000D01*
G02Y986100I0J-88900D01*
G01X4373000D01*
G02Y1163900I0J88900D01*
G01X4474600Y1024200D02*
Y1125800D01*
X4525400D01*
Y1024200D01*
X4474600D01*
G01X4373000Y2013900D02*
X4627000D01*
G02Y1836100I0J-88900D01*
G01X4373000D01*
G02Y2013900I0J88900D01*
G01X4474600Y1874200D02*
Y1975800D01*
X4525400D01*
Y1874200D01*
X4474600D01*
G01X4694990Y3195000D02*
X4855010D01*
Y2855000D01*
X4694990D01*
Y3195000D01*
G01Y3870000D02*
X4855010D01*
Y3530000D01*
X4694990D01*
Y3870000D01*
G01X5595000Y3980010D02*
Y3819990D01*
X5255000D01*
Y3980010D01*
X5595000D01*
G54D17*
G01X29230Y50000D02*
Y138900D01*
X56750Y64820D01*
X84270Y138900D01*
Y50000D01*
G01X113220D02*
Y138900D01*
G01X157680D02*
Y50000D01*
G01Y94450D02*
X113220D01*
G01X190870Y67780D02*
X197220Y57410D01*
X205680Y51480D01*
X215210Y50000D01*
X223680Y51480D01*
X232140Y58890D01*
X237430Y67780D01*
X238490Y76670D01*
X236380Y87040D01*
X228970Y94450D01*
X221560Y97410D01*
X212030D01*
G01X221560D02*
X227910Y101860D01*
X233200Y109260D01*
X235320Y118160D01*
X233200Y127050D01*
X227910Y134450D01*
X218380Y138900D01*
X208860Y137420D01*
X199330Y131490D01*
G01X675000Y2760580D02*
X586100D01*
Y2787040D01*
X590550Y2795510D01*
X596470Y2800800D01*
X608330Y2802920D01*
X620180Y2800800D01*
X627590Y2794450D01*
X632030Y2787040D01*
Y2760580D01*
G01Y2787040D02*
X675000Y2802920D01*
G01Y2873150D02*
X586100D01*
X649810Y2833990D01*
Y2886910D01*
G01X600920Y2919040D02*
X592030Y2925390D01*
X587580Y2932800D01*
X586100Y2941270D01*
X589060Y2951850D01*
X596470Y2959260D01*
X605360Y2961380D01*
X614250Y2960320D01*
X621660Y2956080D01*
X636480Y2934920D01*
X646850Y2925390D01*
X661670Y2919040D01*
X675000Y2916920D01*
Y2961380D01*
G01X454230Y5300000D02*
Y5388900D01*
X481750Y5314820D01*
X509270Y5388900D01*
Y5300000D01*
G01X538220D02*
Y5388900D01*
G01X582680D02*
Y5300000D01*
G01Y5344450D02*
X538220D01*
G01X639150Y5300000D02*
Y5388900D01*
X626450Y5371120D01*
G01Y5300000D02*
X651850D01*
G01X1135580Y2600000D02*
Y2688900D01*
X1162040D01*
X1170510Y2684450D01*
X1175800Y2678530D01*
X1177920Y2666670D01*
X1175800Y2654820D01*
X1169450Y2647410D01*
X1162040Y2642970D01*
X1135580D01*
G01X1162040D02*
X1177920Y2600000D01*
G01X1212170Y2617780D02*
X1218520Y2607410D01*
X1226980Y2601480D01*
X1236510Y2600000D01*
X1244980Y2601480D01*
X1253440Y2608890D01*
X1258730Y2617780D01*
X1259790Y2626670D01*
X1257680Y2637040D01*
X1250270Y2644450D01*
X1242860Y2647410D01*
X1233330D01*
G01X1242860D02*
X1249210Y2651860D01*
X1254500Y2659260D01*
X1256620Y2668160D01*
X1254500Y2677050D01*
X1249210Y2684450D01*
X1239680Y2688900D01*
X1230160Y2687420D01*
X1220630Y2681490D01*
G01X1314150Y2600000D02*
X1321560Y2601480D01*
X1330020Y2605930D01*
X1335320Y2613330D01*
X1337430Y2623710D01*
X1335320Y2634080D01*
X1328970Y2642970D01*
X1319440Y2647410D01*
X1308860D01*
X1302510Y2650380D01*
X1297220Y2657780D01*
X1295100Y2668160D01*
X1298280Y2678530D01*
X1305680Y2685940D01*
X1314150Y2688900D01*
X1322620Y2685940D01*
X1330020Y2678530D01*
X1333200Y2668160D01*
X1331080Y2657780D01*
X1325790Y2650380D01*
X1319440Y2647410D01*
X1308860D01*
X1299330Y2642970D01*
X1292980Y2634080D01*
X1290870Y2623710D01*
X1292980Y2613330D01*
X1298280Y2605930D01*
X1306740Y2601480D01*
X1314150Y2600000D01*
G01X1050000Y2760580D02*
X961100D01*
Y2787040D01*
X965550Y2795510D01*
X971470Y2800800D01*
X983330Y2802920D01*
X995180Y2800800D01*
X1002590Y2794450D01*
X1007030Y2787040D01*
Y2760580D01*
G01Y2787040D02*
X1050000Y2802920D01*
G01Y2873150D02*
X961100D01*
X1024810Y2833990D01*
Y2886910D01*
G01X1050000Y2939150D02*
X961100D01*
X978880Y2926450D01*
G01X1050000D02*
Y2951850D01*
G01X1180030Y3181490D02*
X1173680Y3185940D01*
X1166280Y3188900D01*
X1157810D01*
X1148280Y3184450D01*
X1140880Y3177050D01*
X1135580Y3168160D01*
X1131350Y3153340D01*
X1130290Y3140000D01*
X1132410Y3126670D01*
X1135580Y3117780D01*
X1141930Y3108890D01*
X1149340Y3102960D01*
X1156750Y3100000D01*
X1164160D01*
X1171570Y3102960D01*
X1177920Y3107410D01*
X1183210Y3113330D01*
G01X1235450Y3100000D02*
Y3188900D01*
X1222750Y3171120D01*
G01Y3100000D02*
X1248150D01*
G01X1312030D02*
X1314150Y3119260D01*
X1317330Y3135560D01*
X1321560Y3150380D01*
X1326850Y3166670D01*
X1335320Y3188900D01*
X1292980D01*
G01X1786640Y2575000D02*
Y2663900D01*
X1826860D01*
G01X1812040Y2620930D02*
X1786640D01*
G01X1885450Y2575000D02*
Y2663900D01*
X1872750Y2646120D01*
G01Y2575000D02*
X1898150D01*
G01X2300000Y185580D02*
X2211100D01*
Y212040D01*
X2215550Y220510D01*
X2221470Y225800D01*
X2233330Y227920D01*
X2245180Y225800D01*
X2252590Y219450D01*
X2257030Y212040D01*
Y185580D01*
G01Y212040D02*
X2300000Y227920D01*
G01Y285450D02*
X2211100D01*
X2228880Y272750D01*
G01X2300000D02*
Y298150D01*
G01Y376850D02*
X2211100D01*
X2274810Y337690D01*
Y390610D01*
G01X2000000Y406750D02*
X1998520Y398280D01*
X1992590Y390880D01*
X1983700Y384520D01*
X1973330Y380290D01*
X1961480Y378170D01*
X1949620D01*
X1937770Y380290D01*
X1927400Y384520D01*
X1918510Y390880D01*
X1912580Y398280D01*
X1911100Y406750D01*
X1912580Y415220D01*
X1918510Y422620D01*
X1927400Y428980D01*
X1937770Y433210D01*
X1949620Y435330D01*
X1961480D01*
X1973330Y433210D01*
X1983700Y428980D01*
X1992590Y422620D01*
X1998520Y415220D01*
X2000000Y406750D01*
G01X1976290Y415220D02*
X2000000Y427920D01*
G01X1986670Y462170D02*
X1994070Y468520D01*
X1998520Y475920D01*
X2000000Y485450D01*
X1997040Y494980D01*
X1991110Y502380D01*
X1980740Y507680D01*
X1968890Y508730D01*
X1957030Y506620D01*
X1949620Y501320D01*
X1943700Y493920D01*
X1942220Y486510D01*
X1943700Y479100D01*
X1949620Y469580D01*
X1911100Y472750D01*
Y501320D01*
G01X2300000Y683470D02*
X2211100D01*
Y704630D01*
X2215550Y713100D01*
X2221470Y719450D01*
X2230360Y724740D01*
X2240740Y728980D01*
X2255550Y730030D01*
X2270370Y728980D01*
X2280740Y724740D01*
X2289630Y719450D01*
X2295560Y713100D01*
X2300000Y704630D01*
Y683470D01*
G01X2286670Y762170D02*
X2294070Y768520D01*
X2298520Y775920D01*
X2300000Y785450D01*
X2297040Y794980D01*
X2291110Y802380D01*
X2280740Y807680D01*
X2268890Y808730D01*
X2257030Y806620D01*
X2249620Y801320D01*
X2243700Y793920D01*
X2242220Y786510D01*
X2243700Y779100D01*
X2249620Y769580D01*
X2211100Y772750D01*
Y801320D01*
G01X2225000Y1231750D02*
X2223520Y1223280D01*
X2217590Y1215880D01*
X2208700Y1209520D01*
X2198330Y1205290D01*
X2186480Y1203170D01*
X2174620D01*
X2162770Y1205290D01*
X2152400Y1209520D01*
X2143510Y1215880D01*
X2137580Y1223280D01*
X2136100Y1231750D01*
X2137580Y1240220D01*
X2143510Y1247620D01*
X2152400Y1253980D01*
X2162770Y1258210D01*
X2174620Y1260330D01*
X2186480D01*
X2198330Y1258210D01*
X2208700Y1253980D01*
X2217590Y1247620D01*
X2223520Y1240220D01*
X2225000Y1231750D01*
G01X2201290Y1240220D02*
X2225000Y1252920D01*
G01Y1310450D02*
X2136100D01*
X2153880Y1297750D01*
G01X2225000D02*
Y1323150D01*
G01X2136100Y1389150D02*
X2139060Y1380680D01*
X2146470Y1374330D01*
X2155360Y1370100D01*
X2167220Y1366920D01*
X2180550Y1365870D01*
X2193890Y1366920D01*
X2205740Y1370100D01*
X2214630Y1374330D01*
X2222040Y1380680D01*
X2225000Y1389150D01*
X2222040Y1397620D01*
X2214630Y1403970D01*
X2205740Y1408200D01*
X2193890Y1411380D01*
X2180550Y1412430D01*
X2167220Y1411380D01*
X2155360Y1408200D01*
X2146470Y1403970D01*
X2139060Y1397620D01*
X2136100Y1389150D01*
G01X2225000Y2081750D02*
X2223520Y2073280D01*
X2217590Y2065880D01*
X2208700Y2059520D01*
X2198330Y2055290D01*
X2186480Y2053170D01*
X2174620D01*
X2162770Y2055290D01*
X2152400Y2059520D01*
X2143510Y2065880D01*
X2137580Y2073280D01*
X2136100Y2081750D01*
X2137580Y2090220D01*
X2143510Y2097620D01*
X2152400Y2103980D01*
X2162770Y2108210D01*
X2174620Y2110330D01*
X2186480D01*
X2198330Y2108210D01*
X2208700Y2103980D01*
X2217590Y2097620D01*
X2223520Y2090220D01*
X2225000Y2081750D01*
G01X2201290Y2090220D02*
X2225000Y2102920D01*
G01Y2160450D02*
X2136100D01*
X2153880Y2147750D01*
G01X2225000D02*
Y2173150D01*
G01X2207220Y2215870D02*
X2217590Y2222220D01*
X2223520Y2230680D01*
X2225000Y2240210D01*
X2223520Y2248680D01*
X2216110Y2257140D01*
X2207220Y2262430D01*
X2198330Y2263490D01*
X2187960Y2261380D01*
X2180550Y2253970D01*
X2177590Y2246560D01*
Y2237030D01*
G01Y2246560D02*
X2173140Y2252910D01*
X2165740Y2258200D01*
X2156840Y2260320D01*
X2147950Y2258200D01*
X2140550Y2252910D01*
X2136100Y2243380D01*
X2137580Y2233860D01*
X2143510Y2224330D01*
G01X2310580Y3350000D02*
Y3438900D01*
X2337040D01*
X2345510Y3434450D01*
X2350800Y3428530D01*
X2352920Y3416670D01*
X2350800Y3404820D01*
X2344450Y3397410D01*
X2337040Y3392970D01*
X2310580D01*
G01X2337040D02*
X2352920Y3350000D01*
G01X2410450Y3438900D02*
Y3350000D01*
G01X2386110Y3438900D02*
X2434790D01*
G01X2489150Y3350000D02*
Y3438900D01*
X2476450Y3421120D01*
G01Y3350000D02*
X2501850D01*
G01X2260580Y4050000D02*
Y4138900D01*
X2287040D01*
X2295510Y4134450D01*
X2300800Y4128530D01*
X2302920Y4116670D01*
X2300800Y4104820D01*
X2294450Y4097410D01*
X2287040Y4092970D01*
X2260580D01*
G01X2287040D02*
X2302920Y4050000D01*
G01X2333990Y4138900D02*
X2360450Y4050000D01*
X2386910Y4138900D01*
G01X2439150Y4050000D02*
Y4138900D01*
X2426450Y4121120D01*
G01Y4050000D02*
X2451850D01*
G01X2525000Y1060580D02*
X2436100D01*
Y1087040D01*
X2440550Y1095510D01*
X2446470Y1100800D01*
X2458330Y1102920D01*
X2470180Y1100800D01*
X2477590Y1094450D01*
X2482030Y1087040D01*
Y1060580D01*
G01Y1087040D02*
X2525000Y1102920D01*
G01X2450920Y1140340D02*
X2442030Y1146690D01*
X2437580Y1154100D01*
X2436100Y1162570D01*
X2439060Y1173150D01*
X2446470Y1180560D01*
X2455360Y1182680D01*
X2464250Y1181620D01*
X2471660Y1177380D01*
X2486480Y1156220D01*
X2496850Y1146690D01*
X2511670Y1140340D01*
X2525000Y1138220D01*
Y1182680D01*
G01X2514630Y1221160D02*
X2522040Y1228570D01*
X2525000Y1237030D01*
X2522040Y1245500D01*
X2513150Y1252910D01*
X2499810Y1258200D01*
X2486480Y1260320D01*
X2470180D01*
X2456840Y1258200D01*
X2444990Y1252910D01*
X2439060Y1246560D01*
X2436100Y1239150D01*
X2439060Y1230680D01*
X2444990Y1224330D01*
X2453880Y1220100D01*
X2465740Y1217980D01*
X2476100Y1220100D01*
X2486480Y1225390D01*
X2492400Y1231740D01*
X2493890Y1239150D01*
X2490920Y1247620D01*
X2483510Y1253970D01*
X2470180Y1260320D01*
G01X2525000Y1910580D02*
X2436100D01*
Y1937040D01*
X2440550Y1945510D01*
X2446470Y1950800D01*
X2458330Y1952920D01*
X2470180Y1950800D01*
X2477590Y1944450D01*
X2482030Y1937040D01*
Y1910580D01*
G01Y1937040D02*
X2525000Y1952920D01*
G01Y2023150D02*
X2436100D01*
X2499810Y1983990D01*
Y2036910D01*
G01X2514630Y2071160D02*
X2522040Y2078570D01*
X2525000Y2087030D01*
X2522040Y2095500D01*
X2513150Y2102910D01*
X2499810Y2108200D01*
X2486480Y2110320D01*
X2470180D01*
X2456840Y2108200D01*
X2444990Y2102910D01*
X2439060Y2096560D01*
X2436100Y2089150D01*
X2439060Y2080680D01*
X2444990Y2074330D01*
X2453880Y2070100D01*
X2465740Y2067980D01*
X2476100Y2070100D01*
X2486480Y2075390D01*
X2492400Y2081740D01*
X2493890Y2089150D01*
X2490920Y2097620D01*
X2483510Y2103970D01*
X2470180Y2110320D01*
G01X2525000Y1558470D02*
X2436100D01*
Y1579630D01*
X2440550Y1588100D01*
X2446470Y1594450D01*
X2455360Y1599740D01*
X2465740Y1603980D01*
X2480550Y1605030D01*
X2495370Y1603980D01*
X2505740Y1599740D01*
X2514630Y1594450D01*
X2520560Y1588100D01*
X2525000Y1579630D01*
Y1558470D01*
G01Y1660450D02*
X2523520Y1667860D01*
X2519070Y1676320D01*
X2511670Y1681620D01*
X2501290Y1683730D01*
X2490920Y1681620D01*
X2482030Y1675270D01*
X2477590Y1665740D01*
Y1655160D01*
X2474620Y1648810D01*
X2467220Y1643520D01*
X2456840Y1641400D01*
X2446470Y1644580D01*
X2439060Y1651980D01*
X2436100Y1660450D01*
X2439060Y1668920D01*
X2446470Y1676320D01*
X2456840Y1679500D01*
X2467220Y1677380D01*
X2474620Y1672090D01*
X2477590Y1665740D01*
Y1655160D01*
X2482030Y1645630D01*
X2490920Y1639280D01*
X2501290Y1637170D01*
X2511670Y1639280D01*
X2519070Y1644580D01*
X2523520Y1653040D01*
X2525000Y1660450D01*
G01Y2358470D02*
X2436100D01*
Y2379630D01*
X2440550Y2388100D01*
X2446470Y2394450D01*
X2455360Y2399740D01*
X2465740Y2403980D01*
X2480550Y2405030D01*
X2495370Y2403980D01*
X2505740Y2399740D01*
X2514630Y2394450D01*
X2520560Y2388100D01*
X2525000Y2379630D01*
Y2358470D01*
G01Y2460450D02*
X2436100D01*
X2453880Y2447750D01*
G01X2525000D02*
Y2473150D01*
G01X2507220Y2515870D02*
X2517590Y2522220D01*
X2523520Y2530680D01*
X2525000Y2540210D01*
X2523520Y2548680D01*
X2516110Y2557140D01*
X2507220Y2562430D01*
X2498330Y2563490D01*
X2487960Y2561380D01*
X2480550Y2553970D01*
X2477590Y2546560D01*
Y2537030D01*
G01Y2546560D02*
X2473140Y2552910D01*
X2465740Y2558200D01*
X2456840Y2560320D01*
X2447950Y2558200D01*
X2440550Y2552910D01*
X2436100Y2543380D01*
X2437580Y2533860D01*
X2443510Y2524330D01*
G01X2856750Y4675000D02*
X2848280Y4676480D01*
X2840880Y4682410D01*
X2834520Y4691300D01*
X2830290Y4701670D01*
X2828170Y4713520D01*
Y4725380D01*
X2830290Y4737230D01*
X2834520Y4747600D01*
X2840880Y4756490D01*
X2848280Y4762420D01*
X2856750Y4763900D01*
X2865220Y4762420D01*
X2872620Y4756490D01*
X2878980Y4747600D01*
X2883210Y4737230D01*
X2885330Y4725380D01*
Y4713520D01*
X2883210Y4701670D01*
X2878980Y4691300D01*
X2872620Y4682410D01*
X2865220Y4676480D01*
X2856750Y4675000D01*
G01X2865220Y4698710D02*
X2877920Y4675000D01*
G01X2935450D02*
Y4763900D01*
X2922750Y4746120D01*
G01Y4675000D02*
X2948150D01*
G01X2843510Y4380030D02*
X2839060Y4373680D01*
X2836100Y4366280D01*
Y4357810D01*
X2840550Y4348280D01*
X2847950Y4340880D01*
X2856840Y4335580D01*
X2871660Y4331350D01*
X2885000Y4330290D01*
X2898330Y4332410D01*
X2907220Y4335580D01*
X2916110Y4341930D01*
X2922040Y4349340D01*
X2925000Y4356750D01*
Y4364160D01*
X2922040Y4371570D01*
X2917590Y4377920D01*
X2911670Y4383210D01*
G01X2925000Y4435450D02*
X2836100D01*
X2853880Y4422750D01*
G01X2925000D02*
Y4448150D01*
G01X3231750Y3163900D02*
Y3075000D01*
G01X3207410Y3163900D02*
X3256090D01*
G01X3310450Y3075000D02*
Y3163900D01*
X3297750Y3146120D01*
G01Y3075000D02*
X3323150D01*
G01X3575000Y406750D02*
X3573520Y398280D01*
X3567590Y390880D01*
X3558700Y384520D01*
X3548330Y380290D01*
X3536480Y378170D01*
X3524620D01*
X3512770Y380290D01*
X3502400Y384520D01*
X3493510Y390880D01*
X3487580Y398280D01*
X3486100Y406750D01*
X3487580Y415220D01*
X3493510Y422620D01*
X3502400Y428980D01*
X3512770Y433210D01*
X3524620Y435330D01*
X3536480D01*
X3548330Y433210D01*
X3558700Y428980D01*
X3567590Y422620D01*
X3573520Y415220D01*
X3575000Y406750D01*
G01X3551290Y415220D02*
X3575000Y427920D01*
G01X3500920Y465340D02*
X3492030Y471690D01*
X3487580Y479100D01*
X3486100Y487570D01*
X3489060Y498150D01*
X3496470Y505560D01*
X3505360Y507680D01*
X3514250Y506620D01*
X3521660Y502380D01*
X3536480Y481220D01*
X3546850Y471690D01*
X3561670Y465340D01*
X3575000Y463220D01*
Y507680D01*
G01X3800000Y1281750D02*
X3798520Y1273280D01*
X3792590Y1265880D01*
X3783700Y1259520D01*
X3773330Y1255290D01*
X3761480Y1253170D01*
X3749620D01*
X3737770Y1255290D01*
X3727400Y1259520D01*
X3718510Y1265880D01*
X3712580Y1273280D01*
X3711100Y1281750D01*
X3712580Y1290220D01*
X3718510Y1297620D01*
X3727400Y1303980D01*
X3737770Y1308210D01*
X3749620Y1310330D01*
X3761480D01*
X3773330Y1308210D01*
X3783700Y1303980D01*
X3792590Y1297620D01*
X3798520Y1290220D01*
X3800000Y1281750D01*
G01X3776290Y1290220D02*
X3800000Y1302920D01*
G01Y1360450D02*
X3798520Y1367860D01*
X3794070Y1376320D01*
X3786670Y1381620D01*
X3776290Y1383730D01*
X3765920Y1381620D01*
X3757030Y1375270D01*
X3752590Y1365740D01*
Y1355160D01*
X3749620Y1348810D01*
X3742220Y1343520D01*
X3731840Y1341400D01*
X3721470Y1344580D01*
X3714060Y1351980D01*
X3711100Y1360450D01*
X3714060Y1368920D01*
X3721470Y1376320D01*
X3731840Y1379500D01*
X3742220Y1377380D01*
X3749620Y1372090D01*
X3752590Y1365740D01*
Y1355160D01*
X3757030Y1345630D01*
X3765920Y1339280D01*
X3776290Y1337170D01*
X3786670Y1339280D01*
X3794070Y1344580D01*
X3798520Y1353040D01*
X3800000Y1360450D01*
G01Y2081750D02*
X3798520Y2073280D01*
X3792590Y2065880D01*
X3783700Y2059520D01*
X3773330Y2055290D01*
X3761480Y2053170D01*
X3749620D01*
X3737770Y2055290D01*
X3727400Y2059520D01*
X3718510Y2065880D01*
X3712580Y2073280D01*
X3711100Y2081750D01*
X3712580Y2090220D01*
X3718510Y2097620D01*
X3727400Y2103980D01*
X3737770Y2108210D01*
X3749620Y2110330D01*
X3761480D01*
X3773330Y2108210D01*
X3783700Y2103980D01*
X3792590Y2097620D01*
X3798520Y2090220D01*
X3800000Y2081750D01*
G01X3776290Y2090220D02*
X3800000Y2102920D01*
G01Y2160450D02*
X3711100D01*
X3728880Y2147750D01*
G01X3800000D02*
Y2173150D01*
G01Y2239150D02*
X3711100D01*
X3728880Y2226450D01*
G01X3800000D02*
Y2251850D01*
G01X3408470Y4200000D02*
Y4288900D01*
X3429630D01*
X3438100Y4284450D01*
X3444450Y4278530D01*
X3449740Y4269640D01*
X3453980Y4259260D01*
X3455030Y4244450D01*
X3453980Y4229630D01*
X3449740Y4219260D01*
X3444450Y4210370D01*
X3438100Y4204440D01*
X3429630Y4200000D01*
X3408470D01*
G01X3490340Y4274080D02*
X3496690Y4282970D01*
X3504100Y4287420D01*
X3512570Y4288900D01*
X3523150Y4285940D01*
X3530560Y4278530D01*
X3532680Y4269640D01*
X3531620Y4260750D01*
X3527380Y4253340D01*
X3506220Y4238520D01*
X3496690Y4228150D01*
X3490340Y4213330D01*
X3488220Y4200000D01*
X3532680D01*
G01X3383470Y5538900D02*
Y5475190D01*
X3387700Y5461850D01*
X3396170Y5452960D01*
X3406750Y5450000D01*
X3417330Y5452960D01*
X3425800Y5461850D01*
X3430030Y5475190D01*
Y5538900D01*
G01X3498150Y5450000D02*
Y5538900D01*
X3458990Y5475190D01*
X3511910D01*
G01X4210580Y325000D02*
Y413900D01*
X4237040D01*
X4245510Y409450D01*
X4250800Y403530D01*
X4252920Y391670D01*
X4250800Y379820D01*
X4244450Y372410D01*
X4237040Y367970D01*
X4210580D01*
G01X4237040D02*
X4252920Y325000D01*
G01X4310450D02*
Y413900D01*
X4297750Y396120D01*
G01Y325000D02*
X4323150D01*
G01X3900000Y235580D02*
X3811100D01*
Y262040D01*
X3815550Y270510D01*
X3821470Y275800D01*
X3833330Y277920D01*
X3845180Y275800D01*
X3852590Y269450D01*
X3857030Y262040D01*
Y235580D01*
G01Y262040D02*
X3900000Y277920D01*
G01X3862960Y315340D02*
X3852590Y322750D01*
X3846660Y329100D01*
X3843700Y337570D01*
X3846660Y344980D01*
X3852590Y350270D01*
X3861480Y354500D01*
X3871850Y355560D01*
X3880740Y354500D01*
X3889630Y350270D01*
X3897040Y343920D01*
X3900000Y336510D01*
X3897040Y328040D01*
X3888150Y320630D01*
X3874810Y316400D01*
X3860000Y315340D01*
X3840740Y317460D01*
X3830360Y320630D01*
X3819990Y325920D01*
X3812580Y333330D01*
X3811100Y340740D01*
X3814060Y348150D01*
X3821470Y353440D01*
G01X4185580Y625000D02*
Y713900D01*
X4212040D01*
X4220510Y709450D01*
X4225800Y703530D01*
X4227920Y691670D01*
X4225800Y679820D01*
X4219450Y672410D01*
X4212040Y667970D01*
X4185580D01*
G01X4212040D02*
X4227920Y625000D01*
G01X4285450D02*
Y713900D01*
X4272750Y696120D01*
G01Y625000D02*
X4298150D01*
G01X4364150Y713900D02*
X4355680Y710940D01*
X4349330Y703530D01*
X4345100Y694640D01*
X4341920Y682780D01*
X4340870Y669450D01*
X4341920Y656110D01*
X4345100Y644260D01*
X4349330Y635370D01*
X4355680Y627960D01*
X4364150Y625000D01*
X4372620Y627960D01*
X4378970Y635370D01*
X4383200Y644260D01*
X4386380Y656110D01*
X4387430Y669450D01*
X4386380Y682780D01*
X4383200Y694640D01*
X4378970Y703530D01*
X4372620Y710940D01*
X4364150Y713900D01*
G01X3900000Y658470D02*
X3811100D01*
Y679630D01*
X3815550Y688100D01*
X3821470Y694450D01*
X3830360Y699740D01*
X3840740Y703980D01*
X3855550Y705030D01*
X3870370Y703980D01*
X3880740Y699740D01*
X3889630Y694450D01*
X3895560Y688100D01*
X3900000Y679630D01*
Y658470D01*
G01Y760450D02*
X3811100D01*
X3828880Y747750D01*
G01X3900000D02*
Y773150D01*
G01X4125000Y1060580D02*
X4036100D01*
Y1087040D01*
X4040550Y1095510D01*
X4046470Y1100800D01*
X4058330Y1102920D01*
X4070180Y1100800D01*
X4077590Y1094450D01*
X4082030Y1087040D01*
Y1060580D01*
G01Y1087040D02*
X4125000Y1102920D01*
G01X4050920Y1140340D02*
X4042030Y1146690D01*
X4037580Y1154100D01*
X4036100Y1162570D01*
X4039060Y1173150D01*
X4046470Y1180560D01*
X4055360Y1182680D01*
X4064250Y1181620D01*
X4071660Y1177380D01*
X4086480Y1156220D01*
X4096850Y1146690D01*
X4111670Y1140340D01*
X4125000Y1138220D01*
Y1182680D01*
G01X4050920Y1219040D02*
X4042030Y1225390D01*
X4037580Y1232800D01*
X4036100Y1241270D01*
X4039060Y1251850D01*
X4046470Y1259260D01*
X4055360Y1261380D01*
X4064250Y1260320D01*
X4071660Y1256080D01*
X4086480Y1234920D01*
X4096850Y1225390D01*
X4111670Y1219040D01*
X4125000Y1216920D01*
Y1261380D01*
G01Y1885580D02*
X4036100D01*
Y1912040D01*
X4040550Y1920510D01*
X4046470Y1925800D01*
X4058330Y1927920D01*
X4070180Y1925800D01*
X4077590Y1919450D01*
X4082030Y1912040D01*
Y1885580D01*
G01Y1912040D02*
X4125000Y1927920D01*
G01Y1998150D02*
X4036100D01*
X4099810Y1958990D01*
Y2011910D01*
G01X4111670Y2040870D02*
X4119070Y2047220D01*
X4123520Y2054620D01*
X4125000Y2064150D01*
X4122040Y2073680D01*
X4116110Y2081080D01*
X4105740Y2086380D01*
X4093890Y2087430D01*
X4082030Y2085320D01*
X4074620Y2080020D01*
X4068700Y2072620D01*
X4067220Y2065210D01*
X4068700Y2057800D01*
X4074620Y2048280D01*
X4036100Y2051450D01*
Y2080020D01*
G01X4125000Y1508470D02*
X4036100D01*
Y1529630D01*
X4040550Y1538100D01*
X4046470Y1544450D01*
X4055360Y1549740D01*
X4065740Y1553980D01*
X4080550Y1555030D01*
X4095370Y1553980D01*
X4105740Y1549740D01*
X4114630Y1544450D01*
X4120560Y1538100D01*
X4125000Y1529630D01*
Y1508470D01*
G01X4087960Y1590340D02*
X4077590Y1597750D01*
X4071660Y1604100D01*
X4068700Y1612570D01*
X4071660Y1619980D01*
X4077590Y1625270D01*
X4086480Y1629500D01*
X4096850Y1630560D01*
X4105740Y1629500D01*
X4114630Y1625270D01*
X4122040Y1618920D01*
X4125000Y1611510D01*
X4122040Y1603040D01*
X4113150Y1595630D01*
X4099810Y1591400D01*
X4085000Y1590340D01*
X4065740Y1592460D01*
X4055360Y1595630D01*
X4044990Y1600920D01*
X4037580Y1608330D01*
X4036100Y1615740D01*
X4039060Y1623150D01*
X4046470Y1628440D01*
G01X4125000Y2308470D02*
X4036100D01*
Y2329630D01*
X4040550Y2338100D01*
X4046470Y2344450D01*
X4055360Y2349740D01*
X4065740Y2353980D01*
X4080550Y2355030D01*
X4095370Y2353980D01*
X4105740Y2349740D01*
X4114630Y2344450D01*
X4120560Y2338100D01*
X4125000Y2329630D01*
Y2308470D01*
G01Y2410450D02*
X4036100D01*
X4053880Y2397750D01*
G01X4125000D02*
Y2423150D01*
G01X4036100Y2489150D02*
X4039060Y2480680D01*
X4046470Y2474330D01*
X4055360Y2470100D01*
X4067220Y2466920D01*
X4080550Y2465870D01*
X4093890Y2466920D01*
X4105740Y2470100D01*
X4114630Y2474330D01*
X4122040Y2480680D01*
X4125000Y2489150D01*
X4122040Y2497620D01*
X4114630Y2503970D01*
X4105740Y2508200D01*
X4093890Y2511380D01*
X4080550Y2512430D01*
X4067220Y2511380D01*
X4055360Y2508200D01*
X4046470Y2503970D01*
X4039060Y2497620D01*
X4036100Y2489150D01*
G01X4285580Y2525000D02*
Y2613900D01*
X4312040D01*
X4320510Y2609450D01*
X4325800Y2603530D01*
X4327920Y2591670D01*
X4325800Y2579820D01*
X4319450Y2572410D01*
X4312040Y2567970D01*
X4285580D01*
G01X4312040D02*
X4327920Y2525000D01*
G01X4362170Y2542780D02*
X4368520Y2532410D01*
X4376980Y2526480D01*
X4386510Y2525000D01*
X4394980Y2526480D01*
X4403440Y2533890D01*
X4408730Y2542780D01*
X4409790Y2551670D01*
X4407680Y2562040D01*
X4400270Y2569450D01*
X4392860Y2572410D01*
X4383330D01*
G01X4392860D02*
X4399210Y2576860D01*
X4404500Y2584260D01*
X4406620Y2593160D01*
X4404500Y2602050D01*
X4399210Y2609450D01*
X4389680Y2613900D01*
X4380160Y2612420D01*
X4370630Y2606490D01*
G01X4440870Y2538330D02*
X4447220Y2530930D01*
X4454620Y2526480D01*
X4464150Y2525000D01*
X4473680Y2527960D01*
X4481080Y2533890D01*
X4486380Y2544260D01*
X4487430Y2556110D01*
X4485320Y2567970D01*
X4480020Y2575380D01*
X4472620Y2581300D01*
X4465210Y2582780D01*
X4457800Y2581300D01*
X4448280Y2575380D01*
X4451450Y2613900D01*
X4480020D01*
G01X4275000Y4060580D02*
X4186100D01*
Y4087040D01*
X4190550Y4095510D01*
X4196470Y4100800D01*
X4208330Y4102920D01*
X4220180Y4100800D01*
X4227590Y4094450D01*
X4232030Y4087040D01*
Y4060580D01*
G01Y4087040D02*
X4275000Y4102920D01*
G01Y4173150D02*
X4186100D01*
X4249810Y4133990D01*
Y4186910D01*
G01X4243510Y4755030D02*
X4239060Y4748680D01*
X4236100Y4741280D01*
Y4732810D01*
X4240550Y4723280D01*
X4247950Y4715880D01*
X4256840Y4710580D01*
X4271660Y4706350D01*
X4285000Y4705290D01*
X4298330Y4707410D01*
X4307220Y4710580D01*
X4316110Y4716930D01*
X4322040Y4724340D01*
X4325000Y4731750D01*
Y4739160D01*
X4322040Y4746570D01*
X4317590Y4752920D01*
X4311670Y4758210D01*
G01Y4787170D02*
X4319070Y4793520D01*
X4323520Y4800920D01*
X4325000Y4810450D01*
X4322040Y4819980D01*
X4316110Y4827380D01*
X4305740Y4832680D01*
X4293890Y4833730D01*
X4282030Y4831620D01*
X4274620Y4826320D01*
X4268700Y4818920D01*
X4267220Y4811510D01*
X4268700Y4804100D01*
X4274620Y4794580D01*
X4236100Y4797750D01*
Y4826320D01*
G01X3993510Y5605030D02*
X3989060Y5598680D01*
X3986100Y5591280D01*
Y5582810D01*
X3990550Y5573280D01*
X3997950Y5565880D01*
X4006840Y5560580D01*
X4021660Y5556350D01*
X4035000Y5555290D01*
X4048330Y5557410D01*
X4057220Y5560580D01*
X4066110Y5566930D01*
X4072040Y5574340D01*
X4075000Y5581750D01*
Y5589160D01*
X4072040Y5596570D01*
X4067590Y5602920D01*
X4061670Y5608210D01*
G01X4000920Y5640340D02*
X3992030Y5646690D01*
X3987580Y5654100D01*
X3986100Y5662570D01*
X3989060Y5673150D01*
X3996470Y5680560D01*
X4005360Y5682680D01*
X4014250Y5681620D01*
X4021660Y5677380D01*
X4036480Y5656220D01*
X4046850Y5646690D01*
X4061670Y5640340D01*
X4075000Y5638220D01*
Y5682680D01*
G01X4064630Y5721160D02*
X4072040Y5728570D01*
X4075000Y5737030D01*
X4072040Y5745500D01*
X4063150Y5752910D01*
X4049810Y5758200D01*
X4036480Y5760320D01*
X4020180D01*
X4006840Y5758200D01*
X3994990Y5752910D01*
X3989060Y5746560D01*
X3986100Y5739150D01*
X3989060Y5730680D01*
X3994990Y5724330D01*
X4003880Y5720100D01*
X4015740Y5717980D01*
X4026100Y5720100D01*
X4036480Y5725390D01*
X4042400Y5731740D01*
X4043890Y5739150D01*
X4040920Y5747620D01*
X4033510Y5753970D01*
X4020180Y5760320D01*
G01X4325000Y5560580D02*
X4236100D01*
Y5587040D01*
X4240550Y5595510D01*
X4246470Y5600800D01*
X4258330Y5602920D01*
X4270180Y5600800D01*
X4277590Y5594450D01*
X4282030Y5587040D01*
Y5560580D01*
G01Y5587040D02*
X4325000Y5602920D01*
G01X4311670Y5637170D02*
X4319070Y5643520D01*
X4323520Y5650920D01*
X4325000Y5660450D01*
X4322040Y5669980D01*
X4316110Y5677380D01*
X4305740Y5682680D01*
X4293890Y5683730D01*
X4282030Y5681620D01*
X4274620Y5676320D01*
X4268700Y5668920D01*
X4267220Y5661510D01*
X4268700Y5654100D01*
X4274620Y5644580D01*
X4236100Y5647750D01*
Y5676320D01*
G01X4311670Y5715870D02*
X4319070Y5722220D01*
X4323520Y5729620D01*
X4325000Y5739150D01*
X4322040Y5748680D01*
X4316110Y5756080D01*
X4305740Y5761380D01*
X4293890Y5762430D01*
X4282030Y5760320D01*
X4274620Y5755020D01*
X4268700Y5747620D01*
X4267220Y5740210D01*
X4268700Y5732800D01*
X4274620Y5723280D01*
X4236100Y5726450D01*
Y5755020D01*
G01X3958470Y6025000D02*
Y6113900D01*
X3979630D01*
X3988100Y6109450D01*
X3994450Y6103530D01*
X3999740Y6094640D01*
X4003980Y6084260D01*
X4005030Y6069450D01*
X4003980Y6054630D01*
X3999740Y6044260D01*
X3994450Y6035370D01*
X3988100Y6029440D01*
X3979630Y6025000D01*
X3958470D01*
G01X4060450D02*
Y6113900D01*
X4047750Y6096120D01*
G01Y6025000D02*
X4073150D01*
G01X4115870Y6038330D02*
X4122220Y6030930D01*
X4129620Y6026480D01*
X4139150Y6025000D01*
X4148680Y6027960D01*
X4156080Y6033890D01*
X4161380Y6044260D01*
X4162430Y6056110D01*
X4160320Y6067970D01*
X4155020Y6075380D01*
X4147620Y6081300D01*
X4140210Y6082780D01*
X4132800Y6081300D01*
X4123280Y6075380D01*
X4126450Y6113900D01*
X4155020D01*
G01X4410580Y1200000D02*
Y1288900D01*
X4437040D01*
X4445510Y1284450D01*
X4450800Y1278530D01*
X4452920Y1266670D01*
X4450800Y1254820D01*
X4444450Y1247410D01*
X4437040Y1242970D01*
X4410580D01*
G01X4437040D02*
X4452920Y1200000D01*
G01X4490340Y1274080D02*
X4496690Y1282970D01*
X4504100Y1287420D01*
X4512570Y1288900D01*
X4523150Y1285940D01*
X4530560Y1278530D01*
X4532680Y1269640D01*
X4531620Y1260750D01*
X4527380Y1253340D01*
X4506220Y1238520D01*
X4496690Y1228150D01*
X4490340Y1213330D01*
X4488220Y1200000D01*
X4532680D01*
G01X4589150Y1288900D02*
X4580680Y1285940D01*
X4574330Y1278530D01*
X4570100Y1269640D01*
X4566920Y1257780D01*
X4565870Y1244450D01*
X4566920Y1231110D01*
X4570100Y1219260D01*
X4574330Y1210370D01*
X4580680Y1202960D01*
X4589150Y1200000D01*
X4597620Y1202960D01*
X4603970Y1210370D01*
X4608200Y1219260D01*
X4611380Y1231110D01*
X4612430Y1244450D01*
X4611380Y1257780D01*
X4608200Y1269640D01*
X4603970Y1278530D01*
X4597620Y1285940D01*
X4589150Y1288900D01*
G01X4410580Y1475000D02*
Y1563900D01*
X4437040D01*
X4445510Y1559450D01*
X4450800Y1553530D01*
X4452920Y1541670D01*
X4450800Y1529820D01*
X4444450Y1522410D01*
X4437040Y1517970D01*
X4410580D01*
G01X4437040D02*
X4452920Y1475000D01*
G01X4490340Y1549080D02*
X4496690Y1557970D01*
X4504100Y1562420D01*
X4512570Y1563900D01*
X4523150Y1560940D01*
X4530560Y1553530D01*
X4532680Y1544640D01*
X4531620Y1535750D01*
X4527380Y1528340D01*
X4506220Y1513520D01*
X4496690Y1503150D01*
X4490340Y1488330D01*
X4488220Y1475000D01*
X4532680D01*
G01X4569040Y1512040D02*
X4576450Y1522410D01*
X4582800Y1528340D01*
X4591270Y1531300D01*
X4598680Y1528340D01*
X4603970Y1522410D01*
X4608200Y1513520D01*
X4609260Y1503150D01*
X4608200Y1494260D01*
X4603970Y1485370D01*
X4597620Y1477960D01*
X4590210Y1475000D01*
X4581740Y1477960D01*
X4574330Y1486850D01*
X4570100Y1500190D01*
X4569040Y1515000D01*
X4571160Y1534260D01*
X4574330Y1544640D01*
X4579620Y1555010D01*
X4587030Y1562420D01*
X4594440Y1563900D01*
X4601850Y1560940D01*
X4607140Y1553530D01*
G01X4410580Y2050000D02*
Y2138900D01*
X4437040D01*
X4445510Y2134450D01*
X4450800Y2128530D01*
X4452920Y2116670D01*
X4450800Y2104820D01*
X4444450Y2097410D01*
X4437040Y2092970D01*
X4410580D01*
G01X4437040D02*
X4452920Y2050000D01*
G01X4523150D02*
Y2138900D01*
X4483990Y2075190D01*
X4536910D01*
G01X4565870Y2067780D02*
X4572220Y2057410D01*
X4580680Y2051480D01*
X4590210Y2050000D01*
X4598680Y2051480D01*
X4607140Y2058890D01*
X4612430Y2067780D01*
X4613490Y2076670D01*
X4611380Y2087040D01*
X4603970Y2094450D01*
X4596560Y2097410D01*
X4587030D01*
G01X4596560D02*
X4602910Y2101860D01*
X4608200Y2109260D01*
X4610320Y2118160D01*
X4608200Y2127050D01*
X4602910Y2134450D01*
X4593380Y2138900D01*
X4583860Y2137420D01*
X4574330Y2131490D01*
G01X4410580Y2325000D02*
Y2413900D01*
X4437040D01*
X4445510Y2409450D01*
X4450800Y2403530D01*
X4452920Y2391670D01*
X4450800Y2379820D01*
X4444450Y2372410D01*
X4437040Y2367970D01*
X4410580D01*
G01X4437040D02*
X4452920Y2325000D01*
G01X4523150D02*
Y2413900D01*
X4483990Y2350190D01*
X4536910D01*
G01X4589150Y2325000D02*
X4596560Y2326480D01*
X4605020Y2330930D01*
X4610320Y2338330D01*
X4612430Y2348710D01*
X4610320Y2359080D01*
X4603970Y2367970D01*
X4594440Y2372410D01*
X4583860D01*
X4577510Y2375380D01*
X4572220Y2382780D01*
X4570100Y2393160D01*
X4573280Y2403530D01*
X4580680Y2410940D01*
X4589150Y2413900D01*
X4597620Y2410940D01*
X4605020Y2403530D01*
X4608200Y2393160D01*
X4606080Y2382780D01*
X4600790Y2375380D01*
X4594440Y2372410D01*
X4583860D01*
X4574330Y2367970D01*
X4567980Y2359080D01*
X4565870Y2348710D01*
X4567980Y2338330D01*
X4573280Y2330930D01*
X4581740Y2326480D01*
X4589150Y2325000D01*
G01X4805030Y2606490D02*
X4798680Y2610940D01*
X4791280Y2613900D01*
X4782810D01*
X4773280Y2609450D01*
X4765880Y2602050D01*
X4760580Y2593160D01*
X4756350Y2578340D01*
X4755290Y2565000D01*
X4757410Y2551670D01*
X4760580Y2542780D01*
X4766930Y2533890D01*
X4774340Y2527960D01*
X4781750Y2525000D01*
X4789160D01*
X4796570Y2527960D01*
X4802920Y2532410D01*
X4808210Y2538330D01*
G01X4860450Y2525000D02*
Y2613900D01*
X4847750Y2596120D01*
G01Y2525000D02*
X4873150D01*
G01X4919040Y2562040D02*
X4926450Y2572410D01*
X4932800Y2578340D01*
X4941270Y2581300D01*
X4948680Y2578340D01*
X4953970Y2572410D01*
X4958200Y2563520D01*
X4959260Y2553150D01*
X4958200Y2544260D01*
X4953970Y2535370D01*
X4947620Y2527960D01*
X4940210Y2525000D01*
X4931740Y2527960D01*
X4924330Y2536850D01*
X4920100Y2550190D01*
X4919040Y2565000D01*
X4921160Y2584260D01*
X4924330Y2594640D01*
X4929620Y2605010D01*
X4937030Y2612420D01*
X4944440Y2613900D01*
X4951850Y2610940D01*
X4957140Y2603530D01*
G01X4368510Y4105030D02*
X4364060Y4098680D01*
X4361100Y4091280D01*
Y4082810D01*
X4365550Y4073280D01*
X4372950Y4065880D01*
X4381840Y4060580D01*
X4396660Y4056350D01*
X4410000Y4055290D01*
X4423330Y4057410D01*
X4432220Y4060580D01*
X4441110Y4066930D01*
X4447040Y4074340D01*
X4450000Y4081750D01*
Y4089160D01*
X4447040Y4096570D01*
X4442590Y4102920D01*
X4436670Y4108210D01*
G01X4450000Y4173150D02*
X4361100D01*
X4424810Y4133990D01*
Y4186910D01*
G01X4605030Y5806490D02*
X4598680Y5810940D01*
X4591280Y5813900D01*
X4582810D01*
X4573280Y5809450D01*
X4565880Y5802050D01*
X4560580Y5793160D01*
X4556350Y5778340D01*
X4555290Y5765000D01*
X4557410Y5751670D01*
X4560580Y5742780D01*
X4566930Y5733890D01*
X4574340Y5727960D01*
X4581750Y5725000D01*
X4589160D01*
X4596570Y5727960D01*
X4602920Y5732410D01*
X4608210Y5738330D01*
G01X4637170Y5742780D02*
X4643520Y5732410D01*
X4651980Y5726480D01*
X4661510Y5725000D01*
X4669980Y5726480D01*
X4678440Y5733890D01*
X4683730Y5742780D01*
X4684790Y5751670D01*
X4682680Y5762040D01*
X4675270Y5769450D01*
X4667860Y5772410D01*
X4658330D01*
G01X4667860D02*
X4674210Y5776860D01*
X4679500Y5784260D01*
X4681620Y5793160D01*
X4679500Y5802050D01*
X4674210Y5809450D01*
X4664680Y5813900D01*
X4655160Y5812420D01*
X4645630Y5806490D01*
G01X4739150Y5813900D02*
X4730680Y5810940D01*
X4724330Y5803530D01*
X4720100Y5794640D01*
X4716920Y5782780D01*
X4715870Y5769450D01*
X4716920Y5756110D01*
X4720100Y5744260D01*
X4724330Y5735370D01*
X4730680Y5727960D01*
X4739150Y5725000D01*
X4747620Y5727960D01*
X4753970Y5735370D01*
X4758200Y5744260D01*
X4761380Y5756110D01*
X4762430Y5769450D01*
X4761380Y5782780D01*
X4758200Y5794640D01*
X4753970Y5803530D01*
X4747620Y5810940D01*
X4739150Y5813900D01*
G01X4511640Y5488900D02*
X4551860D01*
X4511640Y5400000D01*
X4551860D01*
G01X4587170D02*
Y5488900D01*
X4608330D01*
X4616800Y5484450D01*
X4623150Y5478530D01*
X4628440Y5469640D01*
X4632680Y5459260D01*
X4633730Y5444450D01*
X4632680Y5429630D01*
X4628440Y5419260D01*
X4623150Y5410370D01*
X4616800Y5404440D01*
X4608330Y5400000D01*
X4587170D01*
G01X4669040Y5474080D02*
X4675390Y5482970D01*
X4682800Y5487420D01*
X4691270Y5488900D01*
X4701850Y5485940D01*
X4709260Y5478530D01*
X4711380Y5469640D01*
X4710320Y5460750D01*
X4706080Y5453340D01*
X4684920Y5438520D01*
X4675390Y5428150D01*
X4669040Y5413330D01*
X4666920Y5400000D01*
X4711380D01*
G01X4850000Y385580D02*
X4761100D01*
Y412040D01*
X4765550Y420510D01*
X4771470Y425800D01*
X4783330Y427920D01*
X4795180Y425800D01*
X4802590Y419450D01*
X4807030Y412040D01*
Y385580D01*
G01Y412040D02*
X4850000Y427920D01*
G01Y485450D02*
X4761100D01*
X4778880Y472750D01*
G01X4850000D02*
Y498150D01*
G01X4832220Y540870D02*
X4842590Y547220D01*
X4848520Y555680D01*
X4850000Y565210D01*
X4848520Y573680D01*
X4841110Y582140D01*
X4832220Y587430D01*
X4823330Y588490D01*
X4812960Y586380D01*
X4805550Y578970D01*
X4802590Y571560D01*
Y562030D01*
G01Y571560D02*
X4798140Y577910D01*
X4790740Y583200D01*
X4781840Y585320D01*
X4772950Y583200D01*
X4765550Y577910D01*
X4761100Y568380D01*
X4762580Y558860D01*
X4768510Y549330D01*
G01X4983470Y25000D02*
Y113900D01*
X5004630D01*
X5013100Y109450D01*
X5019450Y103530D01*
X5024740Y94640D01*
X5028980Y84260D01*
X5030030Y69450D01*
X5028980Y54630D01*
X5024740Y44260D01*
X5019450Y35370D01*
X5013100Y29440D01*
X5004630Y25000D01*
X4983470D01*
G01X5062170Y42780D02*
X5068520Y32410D01*
X5076980Y26480D01*
X5086510Y25000D01*
X5094980Y26480D01*
X5103440Y33890D01*
X5108730Y42780D01*
X5109790Y51670D01*
X5107680Y62040D01*
X5100270Y69450D01*
X5092860Y72410D01*
X5083330D01*
G01X5092860D02*
X5099210Y76860D01*
X5104500Y84260D01*
X5106620Y93160D01*
X5104500Y102050D01*
X5099210Y109450D01*
X5089680Y113900D01*
X5080160Y112420D01*
X5070630Y106490D01*
G01X5125000Y1285580D02*
X5036100D01*
Y1312040D01*
X5040550Y1320510D01*
X5046470Y1325800D01*
X5058330Y1327920D01*
X5070180Y1325800D01*
X5077590Y1319450D01*
X5082030Y1312040D01*
Y1285580D01*
G01Y1312040D02*
X5125000Y1327920D01*
G01Y1385450D02*
X5036100D01*
X5053880Y1372750D01*
G01X5125000D02*
Y1398150D01*
G01Y1464150D02*
X5123520Y1471560D01*
X5119070Y1480020D01*
X5111670Y1485320D01*
X5101290Y1487430D01*
X5090920Y1485320D01*
X5082030Y1478970D01*
X5077590Y1469440D01*
Y1458860D01*
X5074620Y1452510D01*
X5067220Y1447220D01*
X5056840Y1445100D01*
X5046470Y1448280D01*
X5039060Y1455680D01*
X5036100Y1464150D01*
X5039060Y1472620D01*
X5046470Y1480020D01*
X5056840Y1483200D01*
X5067220Y1481080D01*
X5074620Y1475790D01*
X5077590Y1469440D01*
Y1458860D01*
X5082030Y1449330D01*
X5090920Y1442980D01*
X5101290Y1440870D01*
X5111670Y1442980D01*
X5119070Y1448280D01*
X5123520Y1456740D01*
X5125000Y1464150D01*
G01Y2110580D02*
X5036100D01*
Y2137040D01*
X5040550Y2145510D01*
X5046470Y2150800D01*
X5058330Y2152920D01*
X5070180Y2150800D01*
X5077590Y2144450D01*
X5082030Y2137040D01*
Y2110580D01*
G01Y2137040D02*
X5125000Y2152920D01*
G01X5050920Y2190340D02*
X5042030Y2196690D01*
X5037580Y2204100D01*
X5036100Y2212570D01*
X5039060Y2223150D01*
X5046470Y2230560D01*
X5055360Y2232680D01*
X5064250Y2231620D01*
X5071660Y2227380D01*
X5086480Y2206220D01*
X5096850Y2196690D01*
X5111670Y2190340D01*
X5125000Y2188220D01*
Y2232680D01*
G01Y2301850D02*
X5036100D01*
X5099810Y2262690D01*
Y2315610D01*
G01X5275000Y2510580D02*
X5186100D01*
Y2537040D01*
X5190550Y2545510D01*
X5196470Y2550800D01*
X5208330Y2552920D01*
X5220180Y2550800D01*
X5227590Y2544450D01*
X5232030Y2537040D01*
Y2510580D01*
G01Y2537040D02*
X5275000Y2552920D01*
G01Y2623150D02*
X5186100D01*
X5249810Y2583990D01*
Y2636910D01*
G01X5186100Y2689150D02*
X5189060Y2680680D01*
X5196470Y2674330D01*
X5205360Y2670100D01*
X5217220Y2666920D01*
X5230550Y2665870D01*
X5243890Y2666920D01*
X5255740Y2670100D01*
X5264630Y2674330D01*
X5272040Y2680680D01*
X5275000Y2689150D01*
X5272040Y2697620D01*
X5264630Y2703970D01*
X5255740Y2708200D01*
X5243890Y2711380D01*
X5230550Y2712430D01*
X5217220Y2711380D01*
X5205360Y2708200D01*
X5196470Y2703970D01*
X5189060Y2697620D01*
X5186100Y2689150D01*
G01X5218510Y3230030D02*
X5214060Y3223680D01*
X5211100Y3216280D01*
Y3207810D01*
X5215550Y3198280D01*
X5222950Y3190880D01*
X5231840Y3185580D01*
X5246660Y3181350D01*
X5260000Y3180290D01*
X5273330Y3182410D01*
X5282220Y3185580D01*
X5291110Y3191930D01*
X5297040Y3199340D01*
X5300000Y3206750D01*
Y3214160D01*
X5297040Y3221570D01*
X5292590Y3227920D01*
X5286670Y3233210D01*
G01X5282220Y3262170D02*
X5292590Y3268520D01*
X5298520Y3276980D01*
X5300000Y3286510D01*
X5298520Y3294980D01*
X5291110Y3303440D01*
X5282220Y3308730D01*
X5273330Y3309790D01*
X5262960Y3307680D01*
X5255550Y3300270D01*
X5252590Y3292860D01*
Y3283330D01*
G01Y3292860D02*
X5248140Y3299210D01*
X5240740Y3304500D01*
X5231840Y3306620D01*
X5222950Y3304500D01*
X5215550Y3299210D01*
X5211100Y3289680D01*
X5212580Y3280160D01*
X5218510Y3270630D01*
G01X4950000Y2960580D02*
X4861100D01*
Y2987040D01*
X4865550Y2995510D01*
X4871470Y3000800D01*
X4883330Y3002920D01*
X4895180Y3000800D01*
X4902590Y2994450D01*
X4907030Y2987040D01*
Y2960580D01*
G01Y2987040D02*
X4950000Y3002920D01*
G01X4939630Y3042460D02*
X4947040Y3049870D01*
X4950000Y3058330D01*
X4947040Y3066800D01*
X4938150Y3074210D01*
X4924810Y3079500D01*
X4911480Y3081620D01*
X4895180D01*
X4881840Y3079500D01*
X4869990Y3074210D01*
X4864060Y3067860D01*
X4861100Y3060450D01*
X4864060Y3051980D01*
X4869990Y3045630D01*
X4878880Y3041400D01*
X4890740Y3039280D01*
X4901100Y3041400D01*
X4911480Y3046690D01*
X4917400Y3053040D01*
X4918890Y3060450D01*
X4915920Y3068920D01*
X4908510Y3075270D01*
X4895180Y3081620D01*
G01X5218510Y3705030D02*
X5214060Y3698680D01*
X5211100Y3691280D01*
Y3682810D01*
X5215550Y3673280D01*
X5222950Y3665880D01*
X5231840Y3660580D01*
X5246660Y3656350D01*
X5260000Y3655290D01*
X5273330Y3657410D01*
X5282220Y3660580D01*
X5291110Y3666930D01*
X5297040Y3674340D01*
X5300000Y3681750D01*
Y3689160D01*
X5297040Y3696570D01*
X5292590Y3702920D01*
X5286670Y3708210D01*
G01X5225920Y3740340D02*
X5217030Y3746690D01*
X5212580Y3754100D01*
X5211100Y3762570D01*
X5214060Y3773150D01*
X5221470Y3780560D01*
X5230360Y3782680D01*
X5239250Y3781620D01*
X5246660Y3777380D01*
X5261480Y3756220D01*
X5271850Y3746690D01*
X5286670Y3740340D01*
X5300000Y3738220D01*
Y3782680D01*
G01X4950000Y3610580D02*
X4861100D01*
Y3637040D01*
X4865550Y3645510D01*
X4871470Y3650800D01*
X4883330Y3652920D01*
X4895180Y3650800D01*
X4902590Y3644450D01*
X4907030Y3637040D01*
Y3610580D01*
G01Y3637040D02*
X4950000Y3652920D01*
G01Y3710450D02*
X4948520Y3717860D01*
X4944070Y3726320D01*
X4936670Y3731620D01*
X4926290Y3733730D01*
X4915920Y3731620D01*
X4907030Y3725270D01*
X4902590Y3715740D01*
Y3705160D01*
X4899620Y3698810D01*
X4892220Y3693520D01*
X4881840Y3691400D01*
X4871470Y3694580D01*
X4864060Y3701980D01*
X4861100Y3710450D01*
X4864060Y3718920D01*
X4871470Y3726320D01*
X4881840Y3729500D01*
X4892220Y3727380D01*
X4899620Y3722090D01*
X4902590Y3715740D01*
Y3705160D01*
X4907030Y3695630D01*
X4915920Y3689280D01*
X4926290Y3687170D01*
X4936670Y3689280D01*
X4944070Y3694580D01*
X4948520Y3703040D01*
X4950000Y3710450D01*
G01X5043510Y5555030D02*
X5039060Y5548680D01*
X5036100Y5541280D01*
Y5532810D01*
X5040550Y5523280D01*
X5047950Y5515880D01*
X5056840Y5510580D01*
X5071660Y5506350D01*
X5085000Y5505290D01*
X5098330Y5507410D01*
X5107220Y5510580D01*
X5116110Y5516930D01*
X5122040Y5524340D01*
X5125000Y5531750D01*
Y5539160D01*
X5122040Y5546570D01*
X5117590Y5552920D01*
X5111670Y5558210D01*
G01X5107220Y5587170D02*
X5117590Y5593520D01*
X5123520Y5601980D01*
X5125000Y5611510D01*
X5123520Y5619980D01*
X5116110Y5628440D01*
X5107220Y5633730D01*
X5098330Y5634790D01*
X5087960Y5632680D01*
X5080550Y5625270D01*
X5077590Y5617860D01*
Y5608330D01*
G01Y5617860D02*
X5073140Y5624210D01*
X5065740Y5629500D01*
X5056840Y5631620D01*
X5047950Y5629500D01*
X5040550Y5624210D01*
X5036100Y5614680D01*
X5037580Y5605160D01*
X5043510Y5595630D01*
G01X5125000Y5689150D02*
X5036100D01*
X5053880Y5676450D01*
G01X5125000D02*
Y5701850D01*
G01X5383470Y25000D02*
Y113900D01*
X5404630D01*
X5413100Y109450D01*
X5419450Y103530D01*
X5424740Y94640D01*
X5428980Y84260D01*
X5430030Y69450D01*
X5428980Y54630D01*
X5424740Y44260D01*
X5419450Y35370D01*
X5413100Y29440D01*
X5404630Y25000D01*
X5383470D01*
G01X5483330D02*
X5485450Y44260D01*
X5488630Y60560D01*
X5492860Y75380D01*
X5498150Y91670D01*
X5506620Y113900D01*
X5464280D01*
G01X5535000Y1040000D02*
Y2310000D01*
G01X6215000Y1040000D02*
X5975000D01*
X5875000Y1145000D01*
X5775000Y1040000D01*
X5535000D01*
G01Y2310000D02*
X6215000D01*
G01X5393510Y2605030D02*
X5389060Y2598680D01*
X5386100Y2591280D01*
Y2582810D01*
X5390550Y2573280D01*
X5397950Y2565880D01*
X5406840Y2560580D01*
X5421660Y2556350D01*
X5435000Y2555290D01*
X5448330Y2557410D01*
X5457220Y2560580D01*
X5466110Y2566930D01*
X5472040Y2574340D01*
X5475000Y2581750D01*
Y2589160D01*
X5472040Y2596570D01*
X5467590Y2602920D01*
X5461670Y2608210D01*
G01X5475000Y2658330D02*
X5455740Y2660450D01*
X5439440Y2663630D01*
X5424620Y2667860D01*
X5408330Y2673150D01*
X5386100Y2681620D01*
Y2639280D01*
G01X5675000Y2535580D02*
X5586100D01*
Y2562040D01*
X5590550Y2570510D01*
X5596470Y2575800D01*
X5608330Y2577920D01*
X5620180Y2575800D01*
X5627590Y2569450D01*
X5632030Y2562040D01*
Y2535580D01*
G01Y2562040D02*
X5675000Y2577920D01*
G01Y2635450D02*
X5586100D01*
X5603880Y2622750D01*
G01X5675000D02*
Y2648150D01*
G01X5661670Y2690870D02*
X5669070Y2697220D01*
X5673520Y2704620D01*
X5675000Y2714150D01*
X5672040Y2723680D01*
X5666110Y2731080D01*
X5655740Y2736380D01*
X5643890Y2737430D01*
X5632030Y2735320D01*
X5624620Y2730020D01*
X5618700Y2722620D01*
X5617220Y2715210D01*
X5618700Y2707800D01*
X5624620Y2698280D01*
X5586100Y2701450D01*
Y2730020D01*
G01X5675000Y2935580D02*
X5586100D01*
Y2962040D01*
X5590550Y2970510D01*
X5596470Y2975800D01*
X5608330Y2977920D01*
X5620180Y2975800D01*
X5627590Y2969450D01*
X5632030Y2962040D01*
Y2935580D01*
G01Y2962040D02*
X5675000Y2977920D01*
G01Y3035450D02*
X5586100D01*
X5603880Y3022750D01*
G01X5675000D02*
Y3048150D01*
G01Y3114150D02*
X5586100D01*
X5603880Y3101450D01*
G01X5675000D02*
Y3126850D01*
G01X5475000Y2935580D02*
X5386100D01*
Y2962040D01*
X5390550Y2970510D01*
X5396470Y2975800D01*
X5408330Y2977920D01*
X5420180Y2975800D01*
X5427590Y2969450D01*
X5432030Y2962040D01*
Y2935580D01*
G01Y2962040D02*
X5475000Y2977920D01*
G01Y3035450D02*
X5386100D01*
X5403880Y3022750D01*
G01X5475000D02*
Y3048150D01*
G01X5400920Y3094040D02*
X5392030Y3100390D01*
X5387580Y3107800D01*
X5386100Y3116270D01*
X5389060Y3126850D01*
X5396470Y3134260D01*
X5405360Y3136380D01*
X5414250Y3135320D01*
X5421660Y3131080D01*
X5436480Y3109920D01*
X5446850Y3100390D01*
X5461670Y3094040D01*
X5475000Y3091920D01*
Y3136380D01*
G01X5531750Y3275000D02*
X5523280Y3276480D01*
X5515880Y3282410D01*
X5509520Y3291300D01*
X5505290Y3301670D01*
X5503170Y3313520D01*
Y3325380D01*
X5505290Y3337230D01*
X5509520Y3347600D01*
X5515880Y3356490D01*
X5523280Y3362420D01*
X5531750Y3363900D01*
X5540220Y3362420D01*
X5547620Y3356490D01*
X5553980Y3347600D01*
X5558210Y3337230D01*
X5560330Y3325380D01*
Y3313520D01*
X5558210Y3301670D01*
X5553980Y3291300D01*
X5547620Y3282410D01*
X5540220Y3276480D01*
X5531750Y3275000D01*
G01X5540220Y3298710D02*
X5552920Y3275000D01*
G01X5590340Y3312040D02*
X5597750Y3322410D01*
X5604100Y3328340D01*
X5612570Y3331300D01*
X5619980Y3328340D01*
X5625270Y3322410D01*
X5629500Y3313520D01*
X5630560Y3303150D01*
X5629500Y3294260D01*
X5625270Y3285370D01*
X5618920Y3277960D01*
X5611510Y3275000D01*
X5603040Y3277960D01*
X5595630Y3286850D01*
X5591400Y3300190D01*
X5590340Y3315000D01*
X5592460Y3334260D01*
X5595630Y3344640D01*
X5600920Y3355010D01*
X5608330Y3362420D01*
X5615740Y3363900D01*
X5623150Y3360940D01*
X5628440Y3353530D01*
G01X5360580Y3725000D02*
Y3813900D01*
X5387040D01*
X5395510Y3809450D01*
X5400800Y3803530D01*
X5402920Y3791670D01*
X5400800Y3779820D01*
X5394450Y3772410D01*
X5387040Y3767970D01*
X5360580D01*
G01X5387040D02*
X5402920Y3725000D01*
G01X5458330D02*
X5460450Y3744260D01*
X5463630Y3760560D01*
X5467860Y3775380D01*
X5473150Y3791670D01*
X5481620Y3813900D01*
X5439280D01*
G01X5385580Y5388900D02*
Y5300000D01*
X5427920D01*
G01X5485450D02*
Y5388900D01*
X5472750Y5371120D01*
G01Y5300000D02*
X5498150D01*
G01X5758470Y25000D02*
Y113900D01*
X5779630D01*
X5788100Y109450D01*
X5794450Y103530D01*
X5799740Y94640D01*
X5803980Y84260D01*
X5805030Y69450D01*
X5803980Y54630D01*
X5799740Y44260D01*
X5794450Y35370D01*
X5788100Y29440D01*
X5779630Y25000D01*
X5758470D01*
G01X5860450D02*
Y113900D01*
X5847750Y96120D01*
G01Y25000D02*
X5873150D01*
G01X5939150D02*
Y113900D01*
X5926450Y96120D01*
G01Y25000D02*
X5951850D01*
G01X5793510Y2605030D02*
X5789060Y2598680D01*
X5786100Y2591280D01*
Y2582810D01*
X5790550Y2573280D01*
X5797950Y2565880D01*
X5806840Y2560580D01*
X5821660Y2556350D01*
X5835000Y2555290D01*
X5848330Y2557410D01*
X5857220Y2560580D01*
X5866110Y2566930D01*
X5872040Y2574340D01*
X5875000Y2581750D01*
Y2589160D01*
X5872040Y2596570D01*
X5867590Y2602920D01*
X5861670Y2608210D01*
G01X5875000Y2660450D02*
X5873520Y2667860D01*
X5869070Y2676320D01*
X5861670Y2681620D01*
X5851290Y2683730D01*
X5840920Y2681620D01*
X5832030Y2675270D01*
X5827590Y2665740D01*
Y2655160D01*
X5824620Y2648810D01*
X5817220Y2643520D01*
X5806840Y2641400D01*
X5796470Y2644580D01*
X5789060Y2651980D01*
X5786100Y2660450D01*
X5789060Y2668920D01*
X5796470Y2676320D01*
X5806840Y2679500D01*
X5817220Y2677380D01*
X5824620Y2672090D01*
X5827590Y2665740D01*
Y2655160D01*
X5832030Y2645630D01*
X5840920Y2639280D01*
X5851290Y2637170D01*
X5861670Y2639280D01*
X5869070Y2644580D01*
X5873520Y2653040D01*
X5875000Y2660450D01*
G01X6075000Y2535580D02*
X5986100D01*
Y2562040D01*
X5990550Y2570510D01*
X5996470Y2575800D01*
X6008330Y2577920D01*
X6020180Y2575800D01*
X6027590Y2569450D01*
X6032030Y2562040D01*
Y2535580D01*
G01Y2562040D02*
X6075000Y2577920D01*
G01Y2635450D02*
X5986100D01*
X6003880Y2622750D01*
G01X6075000D02*
Y2648150D01*
G01X6064630Y2696160D02*
X6072040Y2703570D01*
X6075000Y2712030D01*
X6072040Y2720500D01*
X6063150Y2727910D01*
X6049810Y2733200D01*
X6036480Y2735320D01*
X6020180D01*
X6006840Y2733200D01*
X5994990Y2727910D01*
X5989060Y2721560D01*
X5986100Y2714150D01*
X5989060Y2705680D01*
X5994990Y2699330D01*
X6003880Y2695100D01*
X6015740Y2692980D01*
X6026100Y2695100D01*
X6036480Y2700390D01*
X6042400Y2706740D01*
X6043890Y2714150D01*
X6040920Y2722620D01*
X6033510Y2728970D01*
X6020180Y2735320D01*
G01X6075000Y2935580D02*
X5986100D01*
Y2962040D01*
X5990550Y2970510D01*
X5996470Y2975800D01*
X6008330Y2977920D01*
X6020180Y2975800D01*
X6027590Y2969450D01*
X6032030Y2962040D01*
Y2935580D01*
G01Y2962040D02*
X6075000Y2977920D01*
G01Y3035450D02*
X5986100D01*
X6003880Y3022750D01*
G01X6075000D02*
Y3048150D01*
G01X6037960Y3094040D02*
X6027590Y3101450D01*
X6021660Y3107800D01*
X6018700Y3116270D01*
X6021660Y3123680D01*
X6027590Y3128970D01*
X6036480Y3133200D01*
X6046850Y3134260D01*
X6055740Y3133200D01*
X6064630Y3128970D01*
X6072040Y3122620D01*
X6075000Y3115210D01*
X6072040Y3106740D01*
X6063150Y3099330D01*
X6049810Y3095100D01*
X6035000Y3094040D01*
X6015740Y3096160D01*
X6005360Y3099330D01*
X5994990Y3104620D01*
X5987580Y3112030D01*
X5986100Y3119440D01*
X5989060Y3126850D01*
X5996470Y3132140D01*
G01X5875000Y2935580D02*
X5786100D01*
Y2962040D01*
X5790550Y2970510D01*
X5796470Y2975800D01*
X5808330Y2977920D01*
X5820180Y2975800D01*
X5827590Y2969450D01*
X5832030Y2962040D01*
Y2935580D01*
G01Y2962040D02*
X5875000Y2977920D01*
G01Y3035450D02*
X5786100D01*
X5803880Y3022750D01*
G01X5875000D02*
Y3048150D01*
G01Y3112030D02*
X5855740Y3114150D01*
X5839440Y3117330D01*
X5824620Y3121560D01*
X5808330Y3126850D01*
X5786100Y3135320D01*
Y3092980D01*
G01X5931750Y3275000D02*
X5923280Y3276480D01*
X5915880Y3282410D01*
X5909520Y3291300D01*
X5905290Y3301670D01*
X5903170Y3313520D01*
Y3325380D01*
X5905290Y3337230D01*
X5909520Y3347600D01*
X5915880Y3356490D01*
X5923280Y3362420D01*
X5931750Y3363900D01*
X5940220Y3362420D01*
X5947620Y3356490D01*
X5953980Y3347600D01*
X5958210Y3337230D01*
X5960330Y3325380D01*
Y3313520D01*
X5958210Y3301670D01*
X5953980Y3291300D01*
X5947620Y3282410D01*
X5940220Y3276480D01*
X5931750Y3275000D01*
G01X5940220Y3298710D02*
X5952920Y3275000D01*
G01X6008330D02*
X6010450Y3294260D01*
X6013630Y3310560D01*
X6017860Y3325380D01*
X6023150Y3341670D01*
X6031620Y3363900D01*
X5989280D01*
G01X6183470Y5700000D02*
Y5788900D01*
X6204630D01*
X6213100Y5784450D01*
X6219450Y5778530D01*
X6224740Y5769640D01*
X6228980Y5759260D01*
X6230030Y5744450D01*
X6228980Y5729630D01*
X6224740Y5719260D01*
X6219450Y5710370D01*
X6213100Y5704440D01*
X6204630Y5700000D01*
X6183470D01*
G01X6285450D02*
Y5788900D01*
X6272750Y5771120D01*
G01Y5700000D02*
X6298150D01*
G01X6362030D02*
X6364150Y5719260D01*
X6367330Y5735560D01*
X6371560Y5750380D01*
X6376850Y5766670D01*
X6385320Y5788900D01*
X6342980D01*
G01X6183470Y5300000D02*
Y5388900D01*
X6204630D01*
X6213100Y5384450D01*
X6219450Y5378530D01*
X6224740Y5369640D01*
X6228980Y5359260D01*
X6230030Y5344450D01*
X6228980Y5329630D01*
X6224740Y5319260D01*
X6219450Y5310370D01*
X6213100Y5304440D01*
X6204630Y5300000D01*
X6183470D01*
G01X6285450D02*
Y5388900D01*
X6272750Y5371120D01*
G01Y5300000D02*
X6298150D01*
G01X6344040Y5337040D02*
X6351450Y5347410D01*
X6357800Y5353340D01*
X6366270Y5356300D01*
X6373680Y5353340D01*
X6378970Y5347410D01*
X6383200Y5338520D01*
X6384260Y5328150D01*
X6383200Y5319260D01*
X6378970Y5310370D01*
X6372620Y5302960D01*
X6365210Y5300000D01*
X6356740Y5302960D01*
X6349330Y5311850D01*
X6345100Y5325190D01*
X6344040Y5340000D01*
X6346160Y5359260D01*
X6349330Y5369640D01*
X6354620Y5380010D01*
X6362030Y5387420D01*
X6369440Y5388900D01*
X6376850Y5385940D01*
X6382140Y5378530D01*
G01X6280030Y831490D02*
X6273680Y835940D01*
X6266280Y838900D01*
X6257810D01*
X6248280Y834450D01*
X6240880Y827050D01*
X6235580Y818160D01*
X6231350Y803340D01*
X6230290Y790000D01*
X6232410Y776670D01*
X6235580Y767780D01*
X6241930Y758890D01*
X6249340Y752960D01*
X6256750Y750000D01*
X6264160D01*
X6271570Y752960D01*
X6277920Y757410D01*
X6283210Y763330D01*
G01X6335450Y750000D02*
Y838900D01*
X6322750Y821120D01*
G01Y750000D02*
X6348150D01*
G01X6394040Y824080D02*
X6400390Y832970D01*
X6407800Y837420D01*
X6416270Y838900D01*
X6426850Y835940D01*
X6434260Y828530D01*
X6436380Y819640D01*
X6435320Y810750D01*
X6431080Y803340D01*
X6409920Y788520D01*
X6400390Y778150D01*
X6394040Y763330D01*
X6391920Y750000D01*
X6436380D01*
G01X6215000Y2310000D02*
Y1040000D01*
G01X6670000Y1880000D02*
Y2220000D01*
G01X7330000Y1880000D02*
X6670000D01*
G01Y2220000D02*
X7330000D01*
G01X6218510Y2580030D02*
X6214060Y2573680D01*
X6211100Y2566280D01*
Y2557810D01*
X6215550Y2548280D01*
X6222950Y2540880D01*
X6231840Y2535580D01*
X6246660Y2531350D01*
X6260000Y2530290D01*
X6273330Y2532410D01*
X6282220Y2535580D01*
X6291110Y2541930D01*
X6297040Y2549340D01*
X6300000Y2556750D01*
Y2564160D01*
X6297040Y2571570D01*
X6292590Y2577920D01*
X6286670Y2583210D01*
G01X6300000Y2635450D02*
X6211100D01*
X6228880Y2622750D01*
G01X6300000D02*
Y2648150D01*
G01Y2714150D02*
X6211100D01*
X6228880Y2701450D01*
G01X6300000D02*
Y2726850D01*
G01X6580030Y2931490D02*
X6573680Y2935940D01*
X6566280Y2938900D01*
X6557810D01*
X6548280Y2934450D01*
X6540880Y2927050D01*
X6535580Y2918160D01*
X6531350Y2903340D01*
X6530290Y2890000D01*
X6532410Y2876670D01*
X6535580Y2867780D01*
X6541930Y2858890D01*
X6549340Y2852960D01*
X6556750Y2850000D01*
X6564160D01*
X6571570Y2852960D01*
X6577920Y2857410D01*
X6583210Y2863330D01*
G01X6635450Y2850000D02*
Y2938900D01*
X6622750Y2921120D01*
G01Y2850000D02*
X6648150D01*
G01X6690870Y2863330D02*
X6697220Y2855930D01*
X6704620Y2851480D01*
X6714150Y2850000D01*
X6723680Y2852960D01*
X6731080Y2858890D01*
X6736380Y2869260D01*
X6737430Y2881110D01*
X6735320Y2892970D01*
X6730020Y2900380D01*
X6722620Y2906300D01*
X6715210Y2907780D01*
X6707800Y2906300D01*
X6698280Y2900380D01*
X6701450Y2938900D01*
X6730020D01*
G01X6618510Y2655030D02*
X6614060Y2648680D01*
X6611100Y2641280D01*
Y2632810D01*
X6615550Y2623280D01*
X6622950Y2615880D01*
X6631840Y2610580D01*
X6646660Y2606350D01*
X6660000Y2605290D01*
X6673330Y2607410D01*
X6682220Y2610580D01*
X6691110Y2616930D01*
X6697040Y2624340D01*
X6700000Y2631750D01*
Y2639160D01*
X6697040Y2646570D01*
X6692590Y2652920D01*
X6686670Y2658210D01*
G01X6689630Y2692460D02*
X6697040Y2699870D01*
X6700000Y2708330D01*
X6697040Y2716800D01*
X6688150Y2724210D01*
X6674810Y2729500D01*
X6661480Y2731620D01*
X6645180D01*
X6631840Y2729500D01*
X6619990Y2724210D01*
X6614060Y2717860D01*
X6611100Y2710450D01*
X6614060Y2701980D01*
X6619990Y2695630D01*
X6628880Y2691400D01*
X6640740Y2689280D01*
X6651100Y2691400D01*
X6661480Y2696690D01*
X6667400Y2703040D01*
X6668890Y2710450D01*
X6665920Y2718920D01*
X6658510Y2725270D01*
X6645180Y2731620D01*
G01X6500000Y2535580D02*
X6411100D01*
Y2562040D01*
X6415550Y2570510D01*
X6421470Y2575800D01*
X6433330Y2577920D01*
X6445180Y2575800D01*
X6452590Y2569450D01*
X6457030Y2562040D01*
Y2535580D01*
G01Y2562040D02*
X6500000Y2577920D01*
G01X6425920Y2615340D02*
X6417030Y2621690D01*
X6412580Y2629100D01*
X6411100Y2637570D01*
X6414060Y2648150D01*
X6421470Y2655560D01*
X6430360Y2657680D01*
X6439250Y2656620D01*
X6446660Y2652380D01*
X6461480Y2631220D01*
X6471850Y2621690D01*
X6486670Y2615340D01*
X6500000Y2613220D01*
Y2657680D01*
G01X6486670Y2690870D02*
X6494070Y2697220D01*
X6498520Y2704620D01*
X6500000Y2714150D01*
X6497040Y2723680D01*
X6491110Y2731080D01*
X6480740Y2736380D01*
X6468890Y2737430D01*
X6457030Y2735320D01*
X6449620Y2730020D01*
X6443700Y2722620D01*
X6442220Y2715210D01*
X6443700Y2707800D01*
X6449620Y2698280D01*
X6411100Y2701450D01*
Y2730020D01*
G01X6525000Y2935580D02*
X6436100D01*
Y2962040D01*
X6440550Y2970510D01*
X6446470Y2975800D01*
X6458330Y2977920D01*
X6470180Y2975800D01*
X6477590Y2969450D01*
X6482030Y2962040D01*
Y2935580D01*
G01Y2962040D02*
X6525000Y2977920D01*
G01X6450920Y3015340D02*
X6442030Y3021690D01*
X6437580Y3029100D01*
X6436100Y3037570D01*
X6439060Y3048150D01*
X6446470Y3055560D01*
X6455360Y3057680D01*
X6464250Y3056620D01*
X6471660Y3052380D01*
X6486480Y3031220D01*
X6496850Y3021690D01*
X6511670Y3015340D01*
X6525000Y3013220D01*
Y3057680D01*
G01Y3114150D02*
X6436100D01*
X6453880Y3101450D01*
G01X6525000D02*
Y3126850D01*
G01X6300000Y2935580D02*
X6211100D01*
Y2962040D01*
X6215550Y2970510D01*
X6221470Y2975800D01*
X6233330Y2977920D01*
X6245180Y2975800D01*
X6252590Y2969450D01*
X6257030Y2962040D01*
Y2935580D01*
G01Y2962040D02*
X6300000Y2977920D01*
G01X6225920Y3015340D02*
X6217030Y3021690D01*
X6212580Y3029100D01*
X6211100Y3037570D01*
X6214060Y3048150D01*
X6221470Y3055560D01*
X6230360Y3057680D01*
X6239250Y3056620D01*
X6246660Y3052380D01*
X6261480Y3031220D01*
X6271850Y3021690D01*
X6286670Y3015340D01*
X6300000Y3013220D01*
Y3057680D01*
G01X6282220Y3090870D02*
X6292590Y3097220D01*
X6298520Y3105680D01*
X6300000Y3115210D01*
X6298520Y3123680D01*
X6291110Y3132140D01*
X6282220Y3137430D01*
X6273330Y3138490D01*
X6262960Y3136380D01*
X6255550Y3128970D01*
X6252590Y3121560D01*
Y3112030D01*
G01Y3121560D02*
X6248140Y3127910D01*
X6240740Y3133200D01*
X6231840Y3135320D01*
X6222950Y3133200D01*
X6215550Y3127910D01*
X6211100Y3118380D01*
X6212580Y3108860D01*
X6218510Y3099330D01*
G01X6331750Y3275000D02*
X6323280Y3276480D01*
X6315880Y3282410D01*
X6309520Y3291300D01*
X6305290Y3301670D01*
X6303170Y3313520D01*
Y3325380D01*
X6305290Y3337230D01*
X6309520Y3347600D01*
X6315880Y3356490D01*
X6323280Y3362420D01*
X6331750Y3363900D01*
X6340220Y3362420D01*
X6347620Y3356490D01*
X6353980Y3347600D01*
X6358210Y3337230D01*
X6360330Y3325380D01*
Y3313520D01*
X6358210Y3301670D01*
X6353980Y3291300D01*
X6347620Y3282410D01*
X6340220Y3276480D01*
X6331750Y3275000D01*
G01X6340220Y3298710D02*
X6352920Y3275000D01*
G01X6392460Y3285370D02*
X6399870Y3277960D01*
X6408330Y3275000D01*
X6416800Y3277960D01*
X6424210Y3286850D01*
X6429500Y3300190D01*
X6431620Y3313520D01*
Y3329820D01*
X6429500Y3343160D01*
X6424210Y3355010D01*
X6417860Y3360940D01*
X6410450Y3363900D01*
X6401980Y3360940D01*
X6395630Y3355010D01*
X6391400Y3346120D01*
X6389280Y3334260D01*
X6391400Y3323900D01*
X6396690Y3313520D01*
X6403040Y3307600D01*
X6410450Y3306110D01*
X6418920Y3309080D01*
X6425270Y3316490D01*
X6431620Y3329820D01*
G01X7025000Y860580D02*
X6936100D01*
Y887040D01*
X6940550Y895510D01*
X6946470Y900800D01*
X6958330Y902920D01*
X6970180Y900800D01*
X6977590Y894450D01*
X6982030Y887040D01*
Y860580D01*
G01Y887040D02*
X7025000Y902920D01*
G01X7007220Y937170D02*
X7017590Y943520D01*
X7023520Y951980D01*
X7025000Y961510D01*
X7023520Y969980D01*
X7016110Y978440D01*
X7007220Y983730D01*
X6998330Y984790D01*
X6987960Y982680D01*
X6980550Y975270D01*
X6977590Y967860D01*
Y958330D01*
G01Y967860D02*
X6973140Y974210D01*
X6965740Y979500D01*
X6956840Y981620D01*
X6947950Y979500D01*
X6940550Y974210D01*
X6936100Y964680D01*
X6937580Y955160D01*
X6943510Y945630D01*
G01X7025000Y1039150D02*
X6936100D01*
X6953880Y1026450D01*
G01X7025000D02*
Y1051850D01*
G01X7225000Y860580D02*
X7136100D01*
Y887040D01*
X7140550Y895510D01*
X7146470Y900800D01*
X7158330Y902920D01*
X7170180Y900800D01*
X7177590Y894450D01*
X7182030Y887040D01*
Y860580D01*
G01Y887040D02*
X7225000Y902920D01*
G01X7207220Y937170D02*
X7217590Y943520D01*
X7223520Y951980D01*
X7225000Y961510D01*
X7223520Y969980D01*
X7216110Y978440D01*
X7207220Y983730D01*
X7198330Y984790D01*
X7187960Y982680D01*
X7180550Y975270D01*
X7177590Y967860D01*
Y958330D01*
G01Y967860D02*
X7173140Y974210D01*
X7165740Y979500D01*
X7156840Y981620D01*
X7147950Y979500D01*
X7140550Y974210D01*
X7136100Y964680D01*
X7137580Y955160D01*
X7143510Y945630D01*
G01X7136100Y1039150D02*
X7139060Y1030680D01*
X7146470Y1024330D01*
X7155360Y1020100D01*
X7167220Y1016920D01*
X7180550Y1015870D01*
X7193890Y1016920D01*
X7205740Y1020100D01*
X7214630Y1024330D01*
X7222040Y1030680D01*
X7225000Y1039150D01*
X7222040Y1047620D01*
X7214630Y1053970D01*
X7205740Y1058200D01*
X7193890Y1061380D01*
X7180550Y1062430D01*
X7167220Y1061380D01*
X7155360Y1058200D01*
X7146470Y1053970D01*
X7139060Y1047620D01*
X7136100Y1039150D01*
G01X6800000Y860580D02*
X6711100D01*
Y887040D01*
X6715550Y895510D01*
X6721470Y900800D01*
X6733330Y902920D01*
X6745180Y900800D01*
X6752590Y894450D01*
X6757030Y887040D01*
Y860580D01*
G01Y887040D02*
X6800000Y902920D01*
G01X6782220Y937170D02*
X6792590Y943520D01*
X6798520Y951980D01*
X6800000Y961510D01*
X6798520Y969980D01*
X6791110Y978440D01*
X6782220Y983730D01*
X6773330Y984790D01*
X6762960Y982680D01*
X6755550Y975270D01*
X6752590Y967860D01*
Y958330D01*
G01Y967860D02*
X6748140Y974210D01*
X6740740Y979500D01*
X6731840Y981620D01*
X6722950Y979500D01*
X6715550Y974210D01*
X6711100Y964680D01*
X6712580Y955160D01*
X6718510Y945630D01*
G01X6800000Y1037030D02*
X6780740Y1039150D01*
X6764440Y1042330D01*
X6749620Y1046560D01*
X6733330Y1051850D01*
X6711100Y1060320D01*
Y1017980D01*
G01X7025000Y1235580D02*
X6936100D01*
Y1262040D01*
X6940550Y1270510D01*
X6946470Y1275800D01*
X6958330Y1277920D01*
X6970180Y1275800D01*
X6977590Y1269450D01*
X6982030Y1262040D01*
Y1235580D01*
G01Y1262040D02*
X7025000Y1277920D01*
G01X6950920Y1315340D02*
X6942030Y1321690D01*
X6937580Y1329100D01*
X6936100Y1337570D01*
X6939060Y1348150D01*
X6946470Y1355560D01*
X6955360Y1357680D01*
X6964250Y1356620D01*
X6971660Y1352380D01*
X6986480Y1331220D01*
X6996850Y1321690D01*
X7011670Y1315340D01*
X7025000Y1313220D01*
Y1357680D01*
G01Y1412030D02*
X7005740Y1414150D01*
X6989440Y1417330D01*
X6974620Y1421560D01*
X6958330Y1426850D01*
X6936100Y1435320D01*
Y1392980D01*
G01X7225000Y1235580D02*
X7136100D01*
Y1262040D01*
X7140550Y1270510D01*
X7146470Y1275800D01*
X7158330Y1277920D01*
X7170180Y1275800D01*
X7177590Y1269450D01*
X7182030Y1262040D01*
Y1235580D01*
G01Y1262040D02*
X7225000Y1277920D01*
G01X7150920Y1315340D02*
X7142030Y1321690D01*
X7137580Y1329100D01*
X7136100Y1337570D01*
X7139060Y1348150D01*
X7146470Y1355560D01*
X7155360Y1357680D01*
X7164250Y1356620D01*
X7171660Y1352380D01*
X7186480Y1331220D01*
X7196850Y1321690D01*
X7211670Y1315340D01*
X7225000Y1313220D01*
Y1357680D01*
G01Y1414150D02*
X7223520Y1421560D01*
X7219070Y1430020D01*
X7211670Y1435320D01*
X7201290Y1437430D01*
X7190920Y1435320D01*
X7182030Y1428970D01*
X7177590Y1419440D01*
Y1408860D01*
X7174620Y1402510D01*
X7167220Y1397220D01*
X7156840Y1395100D01*
X7146470Y1398280D01*
X7139060Y1405680D01*
X7136100Y1414150D01*
X7139060Y1422620D01*
X7146470Y1430020D01*
X7156840Y1433200D01*
X7167220Y1431080D01*
X7174620Y1425790D01*
X7177590Y1419440D01*
Y1408860D01*
X7182030Y1399330D01*
X7190920Y1392980D01*
X7201290Y1390870D01*
X7211670Y1392980D01*
X7219070Y1398280D01*
X7223520Y1406740D01*
X7225000Y1414150D01*
G01X6800000Y1235580D02*
X6711100D01*
Y1262040D01*
X6715550Y1270510D01*
X6721470Y1275800D01*
X6733330Y1277920D01*
X6745180Y1275800D01*
X6752590Y1269450D01*
X6757030Y1262040D01*
Y1235580D01*
G01Y1262040D02*
X6800000Y1277920D01*
G01X6782220Y1312170D02*
X6792590Y1318520D01*
X6798520Y1326980D01*
X6800000Y1336510D01*
X6798520Y1344980D01*
X6791110Y1353440D01*
X6782220Y1358730D01*
X6773330Y1359790D01*
X6762960Y1357680D01*
X6755550Y1350270D01*
X6752590Y1342860D01*
Y1333330D01*
G01Y1342860D02*
X6748140Y1349210D01*
X6740740Y1354500D01*
X6731840Y1356620D01*
X6722950Y1354500D01*
X6715550Y1349210D01*
X6711100Y1339680D01*
X6712580Y1330160D01*
X6718510Y1320630D01*
G01X6762960Y1394040D02*
X6752590Y1401450D01*
X6746660Y1407800D01*
X6743700Y1416270D01*
X6746660Y1423680D01*
X6752590Y1428970D01*
X6761480Y1433200D01*
X6771850Y1434260D01*
X6780740Y1433200D01*
X6789630Y1428970D01*
X6797040Y1422620D01*
X6800000Y1415210D01*
X6797040Y1406740D01*
X6788150Y1399330D01*
X6774810Y1395100D01*
X6760000Y1394040D01*
X6740740Y1396160D01*
X6730360Y1399330D01*
X6719990Y1404620D01*
X6712580Y1412030D01*
X6711100Y1419440D01*
X6714060Y1426850D01*
X6721470Y1432140D01*
G01X7005030Y2931490D02*
X6998680Y2935940D01*
X6991280Y2938900D01*
X6982810D01*
X6973280Y2934450D01*
X6965880Y2927050D01*
X6960580Y2918160D01*
X6956350Y2903340D01*
X6955290Y2890000D01*
X6957410Y2876670D01*
X6960580Y2867780D01*
X6966930Y2858890D01*
X6974340Y2852960D01*
X6981750Y2850000D01*
X6989160D01*
X6996570Y2852960D01*
X7002920Y2857410D01*
X7008210Y2863330D01*
G01X7060450Y2850000D02*
Y2938900D01*
X7047750Y2921120D01*
G01Y2850000D02*
X7073150D01*
G01X7151850D02*
Y2938900D01*
X7112690Y2875190D01*
X7165610D01*
G01X6900000Y2610580D02*
X6811100D01*
Y2637040D01*
X6815550Y2645510D01*
X6821470Y2650800D01*
X6833330Y2652920D01*
X6845180Y2650800D01*
X6852590Y2644450D01*
X6857030Y2637040D01*
Y2610580D01*
G01Y2637040D02*
X6900000Y2652920D01*
G01X6882220Y2687170D02*
X6892590Y2693520D01*
X6898520Y2701980D01*
X6900000Y2711510D01*
X6898520Y2719980D01*
X6891110Y2728440D01*
X6882220Y2733730D01*
X6873330Y2734790D01*
X6862960Y2732680D01*
X6855550Y2725270D01*
X6852590Y2717860D01*
Y2708330D01*
G01Y2717860D02*
X6848140Y2724210D01*
X6840740Y2729500D01*
X6831840Y2731620D01*
X6822950Y2729500D01*
X6815550Y2724210D01*
X6811100Y2714680D01*
X6812580Y2705160D01*
X6818510Y2695630D01*
G01X6900000Y2801850D02*
X6811100D01*
X6874810Y2762690D01*
Y2815610D01*
G01X7100000Y2610580D02*
X7011100D01*
Y2637040D01*
X7015550Y2645510D01*
X7021470Y2650800D01*
X7033330Y2652920D01*
X7045180Y2650800D01*
X7052590Y2644450D01*
X7057030Y2637040D01*
Y2610580D01*
G01Y2637040D02*
X7100000Y2652920D01*
G01X7082220Y2687170D02*
X7092590Y2693520D01*
X7098520Y2701980D01*
X7100000Y2711510D01*
X7098520Y2719980D01*
X7091110Y2728440D01*
X7082220Y2733730D01*
X7073330Y2734790D01*
X7062960Y2732680D01*
X7055550Y2725270D01*
X7052590Y2717860D01*
Y2708330D01*
G01Y2717860D02*
X7048140Y2724210D01*
X7040740Y2729500D01*
X7031840Y2731620D01*
X7022950Y2729500D01*
X7015550Y2724210D01*
X7011100Y2714680D01*
X7012580Y2705160D01*
X7018510Y2695630D01*
G01X7089630Y2771160D02*
X7097040Y2778570D01*
X7100000Y2787030D01*
X7097040Y2795500D01*
X7088150Y2802910D01*
X7074810Y2808200D01*
X7061480Y2810320D01*
X7045180D01*
X7031840Y2808200D01*
X7019990Y2802910D01*
X7014060Y2796560D01*
X7011100Y2789150D01*
X7014060Y2780680D01*
X7019990Y2774330D01*
X7028880Y2770100D01*
X7040740Y2767980D01*
X7051100Y2770100D01*
X7061480Y2775390D01*
X7067400Y2781740D01*
X7068890Y2789150D01*
X7065920Y2797620D01*
X7058510Y2803970D01*
X7045180Y2810320D01*
G01X6756750Y3100000D02*
X6748280Y3101480D01*
X6740880Y3107410D01*
X6734520Y3116300D01*
X6730290Y3126670D01*
X6728170Y3138520D01*
Y3150380D01*
X6730290Y3162230D01*
X6734520Y3172600D01*
X6740880Y3181490D01*
X6748280Y3187420D01*
X6756750Y3188900D01*
X6765220Y3187420D01*
X6772620Y3181490D01*
X6778980Y3172600D01*
X6783210Y3162230D01*
X6785330Y3150380D01*
Y3138520D01*
X6783210Y3126670D01*
X6778980Y3116300D01*
X6772620Y3107410D01*
X6765220Y3101480D01*
X6756750Y3100000D01*
G01X6765220Y3123710D02*
X6777920Y3100000D01*
G01X6848150D02*
Y3188900D01*
X6808990Y3125190D01*
X6861910D01*
G01X7080030Y5256490D02*
X7073680Y5260940D01*
X7066280Y5263900D01*
X7057810D01*
X7048280Y5259450D01*
X7040880Y5252050D01*
X7035580Y5243160D01*
X7031350Y5228340D01*
X7030290Y5215000D01*
X7032410Y5201670D01*
X7035580Y5192780D01*
X7041930Y5183890D01*
X7049340Y5177960D01*
X7056750Y5175000D01*
X7064160D01*
X7071570Y5177960D01*
X7077920Y5182410D01*
X7083210Y5188330D01*
G01X7115340Y5249080D02*
X7121690Y5257970D01*
X7129100Y5262420D01*
X7137570Y5263900D01*
X7148150Y5260940D01*
X7155560Y5253530D01*
X7157680Y5244640D01*
X7156620Y5235750D01*
X7152380Y5228340D01*
X7131220Y5213520D01*
X7121690Y5203150D01*
X7115340Y5188330D01*
X7113220Y5175000D01*
X7157680D01*
G01X7212030D02*
X7214150Y5194260D01*
X7217330Y5210560D01*
X7221560Y5225380D01*
X7226850Y5241670D01*
X7235320Y5263900D01*
X7192980D01*
G01X7635650Y450000D02*
Y490000D01*
X7614480Y538900D01*
G01X7656820D02*
X7635650Y490000D01*
G01X7714350Y450000D02*
Y538900D01*
X7701650Y521120D01*
G01Y450000D02*
X7727050D01*
G01X7355030Y531490D02*
X7348680Y535940D01*
X7341280Y538900D01*
X7332810D01*
X7323280Y534450D01*
X7315880Y527050D01*
X7310580Y518160D01*
X7306350Y503340D01*
X7305290Y490000D01*
X7307410Y476670D01*
X7310580Y467780D01*
X7316930Y458890D01*
X7324340Y452960D01*
X7331750Y450000D01*
X7339160D01*
X7346570Y452960D01*
X7352920Y457410D01*
X7358210Y463330D01*
G01X7390340Y524080D02*
X7396690Y532970D01*
X7404100Y537420D01*
X7412570Y538900D01*
X7423150Y535940D01*
X7430560Y528530D01*
X7432680Y519640D01*
X7431620Y510750D01*
X7427380Y503340D01*
X7406220Y488520D01*
X7396690Y478150D01*
X7390340Y463330D01*
X7388220Y450000D01*
X7432680D01*
G01X7489150D02*
Y538900D01*
X7476450Y521120D01*
G01Y450000D02*
X7501850D01*
G01X7368510Y905030D02*
X7364060Y898680D01*
X7361100Y891280D01*
Y882810D01*
X7365550Y873280D01*
X7372950Y865880D01*
X7381840Y860580D01*
X7396660Y856350D01*
X7410000Y855290D01*
X7423330Y857410D01*
X7432220Y860580D01*
X7441110Y866930D01*
X7447040Y874340D01*
X7450000Y881750D01*
Y889160D01*
X7447040Y896570D01*
X7442590Y902920D01*
X7436670Y908210D01*
G01X7375920Y940340D02*
X7367030Y946690D01*
X7362580Y954100D01*
X7361100Y962570D01*
X7364060Y973150D01*
X7371470Y980560D01*
X7380360Y982680D01*
X7389250Y981620D01*
X7396660Y977380D01*
X7411480Y956220D01*
X7421850Y946690D01*
X7436670Y940340D01*
X7450000Y938220D01*
Y982680D01*
G01X7432220Y1015870D02*
X7442590Y1022220D01*
X7448520Y1030680D01*
X7450000Y1040210D01*
X7448520Y1048680D01*
X7441110Y1057140D01*
X7432220Y1062430D01*
X7423330Y1063490D01*
X7412960Y1061380D01*
X7405550Y1053970D01*
X7402590Y1046560D01*
Y1037030D01*
G01Y1046560D02*
X7398140Y1052910D01*
X7390740Y1058200D01*
X7381840Y1060320D01*
X7372950Y1058200D01*
X7365550Y1052910D01*
X7361100Y1043380D01*
X7362580Y1033860D01*
X7368510Y1024330D01*
G01X7528110Y1405000D02*
Y1495000D01*
G01X7608110Y1325000D02*
X7528110Y1405000D01*
G01Y1245000D02*
X7608110Y1325000D01*
G01X8520000Y1155000D02*
X7530000D01*
G01X7528110D02*
Y1245000D01*
G01X7450000Y1283470D02*
X7361100D01*
Y1304630D01*
X7365550Y1313100D01*
X7371470Y1319450D01*
X7380360Y1324740D01*
X7390740Y1328980D01*
X7405550Y1330030D01*
X7420370Y1328980D01*
X7430740Y1324740D01*
X7439630Y1319450D01*
X7445560Y1313100D01*
X7450000Y1304630D01*
Y1283470D01*
G01X7439630Y1367460D02*
X7447040Y1374870D01*
X7450000Y1383330D01*
X7447040Y1391800D01*
X7438150Y1399210D01*
X7424810Y1404500D01*
X7411480Y1406620D01*
X7395180D01*
X7381840Y1404500D01*
X7369990Y1399210D01*
X7364060Y1392860D01*
X7361100Y1385450D01*
X7364060Y1376980D01*
X7369990Y1370630D01*
X7378880Y1366400D01*
X7390740Y1364280D01*
X7401100Y1366400D01*
X7411480Y1371690D01*
X7417400Y1378040D01*
X7418890Y1385450D01*
X7415920Y1393920D01*
X7408510Y1400270D01*
X7395180Y1406620D01*
G01X7530000Y1495000D02*
X8520000D01*
G01X7330000Y2220000D02*
Y2130000D01*
X7250000Y2050000D01*
X7330000Y1970000D01*
Y1880000D01*
G01X7568510Y1880030D02*
X7564060Y1873680D01*
X7561100Y1866280D01*
Y1857810D01*
X7565550Y1848280D01*
X7572950Y1840880D01*
X7581840Y1835580D01*
X7596660Y1831350D01*
X7610000Y1830290D01*
X7623330Y1832410D01*
X7632220Y1835580D01*
X7641110Y1841930D01*
X7647040Y1849340D01*
X7650000Y1856750D01*
Y1864160D01*
X7647040Y1871570D01*
X7642590Y1877920D01*
X7636670Y1883210D01*
G01X7632220Y1912170D02*
X7642590Y1918520D01*
X7648520Y1926980D01*
X7650000Y1936510D01*
X7648520Y1944980D01*
X7641110Y1953440D01*
X7632220Y1958730D01*
X7623330Y1959790D01*
X7612960Y1957680D01*
X7605550Y1950270D01*
X7602590Y1942860D01*
Y1933330D01*
G01Y1942860D02*
X7598140Y1949210D01*
X7590740Y1954500D01*
X7581840Y1956620D01*
X7572950Y1954500D01*
X7565550Y1949210D01*
X7561100Y1939680D01*
X7562580Y1930160D01*
X7568510Y1920630D01*
G01X7575920Y1994040D02*
X7567030Y2000390D01*
X7562580Y2007800D01*
X7561100Y2016270D01*
X7564060Y2026850D01*
X7571470Y2034260D01*
X7580360Y2036380D01*
X7589250Y2035320D01*
X7596660Y2031080D01*
X7611480Y2009920D01*
X7621850Y2000390D01*
X7636670Y1994040D01*
X7650000Y1991920D01*
Y2036380D01*
G01X7568510Y2280030D02*
X7564060Y2273680D01*
X7561100Y2266280D01*
Y2257810D01*
X7565550Y2248280D01*
X7572950Y2240880D01*
X7581840Y2235580D01*
X7596660Y2231350D01*
X7610000Y2230290D01*
X7623330Y2232410D01*
X7632220Y2235580D01*
X7641110Y2241930D01*
X7647040Y2249340D01*
X7650000Y2256750D01*
Y2264160D01*
X7647040Y2271570D01*
X7642590Y2277920D01*
X7636670Y2283210D01*
G01X7632220Y2312170D02*
X7642590Y2318520D01*
X7648520Y2326980D01*
X7650000Y2336510D01*
X7648520Y2344980D01*
X7641110Y2353440D01*
X7632220Y2358730D01*
X7623330Y2359790D01*
X7612960Y2357680D01*
X7605550Y2350270D01*
X7602590Y2342860D01*
Y2333330D01*
G01Y2342860D02*
X7598140Y2349210D01*
X7590740Y2354500D01*
X7581840Y2356620D01*
X7572950Y2354500D01*
X7565550Y2349210D01*
X7561100Y2339680D01*
X7562580Y2330160D01*
X7568510Y2320630D01*
G01X7650000Y2426850D02*
X7561100D01*
X7624810Y2387690D01*
Y2440610D01*
G01X7430030Y2931490D02*
X7423680Y2935940D01*
X7416280Y2938900D01*
X7407810D01*
X7398280Y2934450D01*
X7390880Y2927050D01*
X7385580Y2918160D01*
X7381350Y2903340D01*
X7380290Y2890000D01*
X7382410Y2876670D01*
X7385580Y2867780D01*
X7391930Y2858890D01*
X7399340Y2852960D01*
X7406750Y2850000D01*
X7414160D01*
X7421570Y2852960D01*
X7427920Y2857410D01*
X7433210Y2863330D01*
G01X7485450Y2850000D02*
Y2938900D01*
X7472750Y2921120D01*
G01Y2850000D02*
X7498150D01*
G01X7540870Y2867780D02*
X7547220Y2857410D01*
X7555680Y2851480D01*
X7565210Y2850000D01*
X7573680Y2851480D01*
X7582140Y2858890D01*
X7587430Y2867780D01*
X7588490Y2876670D01*
X7586380Y2887040D01*
X7578970Y2894450D01*
X7571560Y2897410D01*
X7562030D01*
G01X7571560D02*
X7577910Y2901860D01*
X7583200Y2909260D01*
X7585320Y2918160D01*
X7583200Y2927050D01*
X7577910Y2934450D01*
X7568380Y2938900D01*
X7558860Y2937420D01*
X7549330Y2931490D01*
G01X7700000Y2610580D02*
X7611100D01*
Y2637040D01*
X7615550Y2645510D01*
X7621470Y2650800D01*
X7633330Y2652920D01*
X7645180Y2650800D01*
X7652590Y2644450D01*
X7657030Y2637040D01*
Y2610580D01*
G01Y2637040D02*
X7700000Y2652920D01*
G01X7682220Y2687170D02*
X7692590Y2693520D01*
X7698520Y2701980D01*
X7700000Y2711510D01*
X7698520Y2719980D01*
X7691110Y2728440D01*
X7682220Y2733730D01*
X7673330Y2734790D01*
X7662960Y2732680D01*
X7655550Y2725270D01*
X7652590Y2717860D01*
Y2708330D01*
G01Y2717860D02*
X7648140Y2724210D01*
X7640740Y2729500D01*
X7631840Y2731620D01*
X7622950Y2729500D01*
X7615550Y2724210D01*
X7611100Y2714680D01*
X7612580Y2705160D01*
X7618510Y2695630D01*
G01X7625920Y2769040D02*
X7617030Y2775390D01*
X7612580Y2782800D01*
X7611100Y2791270D01*
X7614060Y2801850D01*
X7621470Y2809260D01*
X7630360Y2811380D01*
X7639250Y2810320D01*
X7646660Y2806080D01*
X7661480Y2784920D01*
X7671850Y2775390D01*
X7686670Y2769040D01*
X7700000Y2766920D01*
Y2811380D01*
G01X7500000Y2610580D02*
X7411100D01*
Y2637040D01*
X7415550Y2645510D01*
X7421470Y2650800D01*
X7433330Y2652920D01*
X7445180Y2650800D01*
X7452590Y2644450D01*
X7457030Y2637040D01*
Y2610580D01*
G01Y2637040D02*
X7500000Y2652920D01*
G01X7482220Y2687170D02*
X7492590Y2693520D01*
X7498520Y2701980D01*
X7500000Y2711510D01*
X7498520Y2719980D01*
X7491110Y2728440D01*
X7482220Y2733730D01*
X7473330Y2734790D01*
X7462960Y2732680D01*
X7455550Y2725270D01*
X7452590Y2717860D01*
Y2708330D01*
G01Y2717860D02*
X7448140Y2724210D01*
X7440740Y2729500D01*
X7431840Y2731620D01*
X7422950Y2729500D01*
X7415550Y2724210D01*
X7411100Y2714680D01*
X7412580Y2705160D01*
X7418510Y2695630D01*
G01X7482220Y2765870D02*
X7492590Y2772220D01*
X7498520Y2780680D01*
X7500000Y2790210D01*
X7498520Y2798680D01*
X7491110Y2807140D01*
X7482220Y2812430D01*
X7473330Y2813490D01*
X7462960Y2811380D01*
X7455550Y2803970D01*
X7452590Y2796560D01*
Y2787030D01*
G01Y2796560D02*
X7448140Y2802910D01*
X7440740Y2808200D01*
X7431840Y2810320D01*
X7422950Y2808200D01*
X7415550Y2802910D01*
X7411100Y2793380D01*
X7412580Y2783860D01*
X7418510Y2774330D01*
G01X7300000Y2610580D02*
X7211100D01*
Y2637040D01*
X7215550Y2645510D01*
X7221470Y2650800D01*
X7233330Y2652920D01*
X7245180Y2650800D01*
X7252590Y2644450D01*
X7257030Y2637040D01*
Y2610580D01*
G01Y2637040D02*
X7300000Y2652920D01*
G01X7211100Y2710450D02*
X7300000D01*
G01X7211100Y2686110D02*
Y2734790D01*
G01X7225920Y2769040D02*
X7217030Y2775390D01*
X7212580Y2782800D01*
X7211100Y2791270D01*
X7214060Y2801850D01*
X7221470Y2809260D01*
X7230360Y2811380D01*
X7239250Y2810320D01*
X7246660Y2806080D01*
X7261480Y2784920D01*
X7271850Y2775390D01*
X7286670Y2769040D01*
X7300000Y2766920D01*
Y2811380D01*
G01X7308470Y4300000D02*
Y4388900D01*
X7329630D01*
X7338100Y4384450D01*
X7344450Y4378530D01*
X7349740Y4369640D01*
X7353980Y4359260D01*
X7355030Y4344450D01*
X7353980Y4329630D01*
X7349740Y4319260D01*
X7344450Y4310370D01*
X7338100Y4304440D01*
X7329630Y4300000D01*
X7308470D01*
G01X7423150D02*
Y4388900D01*
X7383990Y4325190D01*
X7436910D01*
G01X7630030Y5381490D02*
X7623680Y5385940D01*
X7616280Y5388900D01*
X7607810D01*
X7598280Y5384450D01*
X7590880Y5377050D01*
X7585580Y5368160D01*
X7581350Y5353340D01*
X7580290Y5340000D01*
X7582410Y5326670D01*
X7585580Y5317780D01*
X7591930Y5308890D01*
X7599340Y5302960D01*
X7606750Y5300000D01*
X7614160D01*
X7621570Y5302960D01*
X7627920Y5307410D01*
X7633210Y5313330D01*
G01X7665340Y5374080D02*
X7671690Y5382970D01*
X7679100Y5387420D01*
X7687570Y5388900D01*
X7698150Y5385940D01*
X7705560Y5378530D01*
X7707680Y5369640D01*
X7706620Y5360750D01*
X7702380Y5353340D01*
X7681220Y5338520D01*
X7671690Y5328150D01*
X7665340Y5313330D01*
X7663220Y5300000D01*
X7707680D01*
G01X7764150D02*
X7771560Y5301480D01*
X7780020Y5305930D01*
X7785320Y5313330D01*
X7787430Y5323710D01*
X7785320Y5334080D01*
X7778970Y5342970D01*
X7769440Y5347410D01*
X7758860D01*
X7752510Y5350380D01*
X7747220Y5357780D01*
X7745100Y5368160D01*
X7748280Y5378530D01*
X7755680Y5385940D01*
X7764150Y5388900D01*
X7772620Y5385940D01*
X7780020Y5378530D01*
X7783200Y5368160D01*
X7781080Y5357780D01*
X7775790Y5350380D01*
X7769440Y5347410D01*
X7758860D01*
X7749330Y5342970D01*
X7742980Y5334080D01*
X7740870Y5323710D01*
X7742980Y5313330D01*
X7748280Y5305930D01*
X7756740Y5301480D01*
X7764150Y5300000D01*
G01X7905030Y531490D02*
X7898680Y535940D01*
X7891280Y538900D01*
X7882810D01*
X7873280Y534450D01*
X7865880Y527050D01*
X7860580Y518160D01*
X7856350Y503340D01*
X7855290Y490000D01*
X7857410Y476670D01*
X7860580Y467780D01*
X7866930Y458890D01*
X7874340Y452960D01*
X7881750Y450000D01*
X7889160D01*
X7896570Y452960D01*
X7902920Y457410D01*
X7908210Y463330D01*
G01X7940340Y524080D02*
X7946690Y532970D01*
X7954100Y537420D01*
X7962570Y538900D01*
X7973150Y535940D01*
X7980560Y528530D01*
X7982680Y519640D01*
X7981620Y510750D01*
X7977380Y503340D01*
X7956220Y488520D01*
X7946690Y478150D01*
X7940340Y463330D01*
X7938220Y450000D01*
X7982680D01*
G01X8039150Y538900D02*
X8030680Y535940D01*
X8024330Y528530D01*
X8020100Y519640D01*
X8016920Y507780D01*
X8015870Y494450D01*
X8016920Y481110D01*
X8020100Y469260D01*
X8024330Y460370D01*
X8030680Y452960D01*
X8039150Y450000D01*
X8047620Y452960D01*
X8053970Y460370D01*
X8058200Y469260D01*
X8061380Y481110D01*
X8062430Y494450D01*
X8061380Y507780D01*
X8058200Y519640D01*
X8053970Y528530D01*
X8047620Y535940D01*
X8039150Y538900D01*
G01X8150000Y2610580D02*
X8061100D01*
Y2637040D01*
X8065550Y2645510D01*
X8071470Y2650800D01*
X8083330Y2652920D01*
X8095180Y2650800D01*
X8102590Y2644450D01*
X8107030Y2637040D01*
Y2610580D01*
G01Y2637040D02*
X8150000Y2652920D01*
G01Y2723150D02*
X8061100D01*
X8124810Y2683990D01*
Y2736910D01*
G01X8150000Y2801850D02*
X8061100D01*
X8124810Y2762690D01*
Y2815610D01*
G01X7950000Y2610580D02*
X7861100D01*
Y2637040D01*
X7865550Y2645510D01*
X7871470Y2650800D01*
X7883330Y2652920D01*
X7895180Y2650800D01*
X7902590Y2644450D01*
X7907030Y2637040D01*
Y2610580D01*
G01Y2637040D02*
X7950000Y2652920D01*
G01X7936670Y2687170D02*
X7944070Y2693520D01*
X7948520Y2700920D01*
X7950000Y2710450D01*
X7947040Y2719980D01*
X7941110Y2727380D01*
X7930740Y2732680D01*
X7918890Y2733730D01*
X7907030Y2731620D01*
X7899620Y2726320D01*
X7893700Y2718920D01*
X7892220Y2711510D01*
X7893700Y2704100D01*
X7899620Y2694580D01*
X7861100Y2697750D01*
Y2726320D01*
G01X7950000Y2789150D02*
X7861100D01*
X7878880Y2776450D01*
G01X7950000D02*
Y2801850D01*
G01X7731750Y3100000D02*
X7723280Y3101480D01*
X7715880Y3107410D01*
X7709520Y3116300D01*
X7705290Y3126670D01*
X7703170Y3138520D01*
Y3150380D01*
X7705290Y3162230D01*
X7709520Y3172600D01*
X7715880Y3181490D01*
X7723280Y3187420D01*
X7731750Y3188900D01*
X7740220Y3187420D01*
X7747620Y3181490D01*
X7753980Y3172600D01*
X7758210Y3162230D01*
X7760330Y3150380D01*
Y3138520D01*
X7758210Y3126670D01*
X7753980Y3116300D01*
X7747620Y3107410D01*
X7740220Y3101480D01*
X7731750Y3100000D01*
G01X7740220Y3123710D02*
X7752920Y3100000D01*
G01X7810450D02*
Y3188900D01*
X7797750Y3171120D01*
G01Y3100000D02*
X7823150D01*
G01X7901850D02*
Y3188900D01*
X7862690Y3125190D01*
X7915610D01*
G01X7958470Y2900000D02*
Y2988900D01*
X7979630D01*
X7988100Y2984450D01*
X7994450Y2978530D01*
X7999740Y2969640D01*
X8003980Y2959260D01*
X8005030Y2944450D01*
X8003980Y2929630D01*
X7999740Y2919260D01*
X7994450Y2910370D01*
X7988100Y2904440D01*
X7979630Y2900000D01*
X7958470D01*
G01X8060450D02*
Y2988900D01*
X8047750Y2971120D01*
G01Y2900000D02*
X8073150D01*
G01X8151850D02*
Y2988900D01*
X8112690Y2925190D01*
X8165610D01*
G01X7685580Y4300000D02*
Y4388900D01*
X7712040D01*
X7720510Y4384450D01*
X7725800Y4378530D01*
X7727920Y4366670D01*
X7725800Y4354820D01*
X7719450Y4347410D01*
X7712040Y4342970D01*
X7685580D01*
G01X7712040D02*
X7727920Y4300000D01*
G01X7765340Y4374080D02*
X7771690Y4382970D01*
X7779100Y4387420D01*
X7787570Y4388900D01*
X7798150Y4385940D01*
X7805560Y4378530D01*
X7807680Y4369640D01*
X7806620Y4360750D01*
X7802380Y4353340D01*
X7781220Y4338520D01*
X7771690Y4328150D01*
X7765340Y4313330D01*
X7763220Y4300000D01*
X7807680D01*
G01X8035580D02*
Y4388900D01*
X8062040D01*
X8070510Y4384450D01*
X8075800Y4378530D01*
X8077920Y4366670D01*
X8075800Y4354820D01*
X8069450Y4347410D01*
X8062040Y4342970D01*
X8035580D01*
G01X8062040D02*
X8077920Y4300000D01*
G01X8148150D02*
Y4388900D01*
X8108990Y4325190D01*
X8161910D01*
G01X8212030Y4300000D02*
X8214150Y4319260D01*
X8217330Y4335560D01*
X8221560Y4350380D01*
X8226850Y4366670D01*
X8235320Y4388900D01*
X8192980D01*
G01X7811100Y5761640D02*
Y5801860D01*
X7900000Y5761640D01*
Y5801860D01*
G01Y5837170D02*
X7811100D01*
Y5858330D01*
X7815550Y5866800D01*
X7821470Y5873150D01*
X7830360Y5878440D01*
X7840740Y5882680D01*
X7855550Y5883730D01*
X7870370Y5882680D01*
X7880740Y5878440D01*
X7889630Y5873150D01*
X7895560Y5866800D01*
X7900000Y5858330D01*
Y5837170D01*
G01Y5939150D02*
X7811100D01*
X7828880Y5926450D01*
G01X7900000D02*
Y5951850D01*
G01X8519860Y1495000D02*
Y1155000D01*
G01X8405030Y2181490D02*
X8398680Y2185940D01*
X8391280Y2188900D01*
X8382810D01*
X8373280Y2184450D01*
X8365880Y2177050D01*
X8360580Y2168160D01*
X8356350Y2153340D01*
X8355290Y2140000D01*
X8357410Y2126670D01*
X8360580Y2117780D01*
X8366930Y2108890D01*
X8374340Y2102960D01*
X8381750Y2100000D01*
X8389160D01*
X8396570Y2102960D01*
X8402920Y2107410D01*
X8408210Y2113330D01*
G01X8437170Y2117780D02*
X8443520Y2107410D01*
X8451980Y2101480D01*
X8461510Y2100000D01*
X8469980Y2101480D01*
X8478440Y2108890D01*
X8483730Y2117780D01*
X8484790Y2126670D01*
X8482680Y2137040D01*
X8475270Y2144450D01*
X8467860Y2147410D01*
X8458330D01*
G01X8467860D02*
X8474210Y2151860D01*
X8479500Y2159260D01*
X8481620Y2168160D01*
X8479500Y2177050D01*
X8474210Y2184450D01*
X8464680Y2188900D01*
X8455160Y2187420D01*
X8445630Y2181490D01*
G01X8515870Y2117780D02*
X8522220Y2107410D01*
X8530680Y2101480D01*
X8540210Y2100000D01*
X8548680Y2101480D01*
X8557140Y2108890D01*
X8562430Y2117780D01*
X8563490Y2126670D01*
X8561380Y2137040D01*
X8553970Y2144450D01*
X8546560Y2147410D01*
X8537030D01*
G01X8546560D02*
X8552910Y2151860D01*
X8558200Y2159260D01*
X8560320Y2168160D01*
X8558200Y2177050D01*
X8552910Y2184450D01*
X8543380Y2188900D01*
X8533860Y2187420D01*
X8524330Y2181490D01*
G01X8356750Y3100000D02*
X8348280Y3101480D01*
X8340880Y3107410D01*
X8334520Y3116300D01*
X8330290Y3126670D01*
X8328170Y3138520D01*
Y3150380D01*
X8330290Y3162230D01*
X8334520Y3172600D01*
X8340880Y3181490D01*
X8348280Y3187420D01*
X8356750Y3188900D01*
X8365220Y3187420D01*
X8372620Y3181490D01*
X8378980Y3172600D01*
X8383210Y3162230D01*
X8385330Y3150380D01*
Y3138520D01*
X8383210Y3126670D01*
X8378980Y3116300D01*
X8372620Y3107410D01*
X8365220Y3101480D01*
X8356750Y3100000D01*
G01X8365220Y3123710D02*
X8377920Y3100000D01*
G01X8435450D02*
Y3188900D01*
X8422750Y3171120D01*
G01Y3100000D02*
X8448150D01*
G01X8494040Y3174080D02*
X8500390Y3182970D01*
X8507800Y3187420D01*
X8516270Y3188900D01*
X8526850Y3185940D01*
X8534260Y3178530D01*
X8536380Y3169640D01*
X8535320Y3160750D01*
X8531080Y3153340D01*
X8509920Y3138520D01*
X8500390Y3128150D01*
X8494040Y3113330D01*
X8491920Y3100000D01*
X8536380D01*
G01X8385580Y2900000D02*
Y2988900D01*
X8412040D01*
X8420510Y2984450D01*
X8425800Y2978530D01*
X8427920Y2966670D01*
X8425800Y2954820D01*
X8419450Y2947410D01*
X8412040Y2942970D01*
X8385580D01*
G01X8412040D02*
X8427920Y2900000D01*
G01X8462170Y2917780D02*
X8468520Y2907410D01*
X8476980Y2901480D01*
X8486510Y2900000D01*
X8494980Y2901480D01*
X8503440Y2908890D01*
X8508730Y2917780D01*
X8509790Y2926670D01*
X8507680Y2937040D01*
X8500270Y2944450D01*
X8492860Y2947410D01*
X8483330D01*
G01X8492860D02*
X8499210Y2951860D01*
X8504500Y2959260D01*
X8506620Y2968160D01*
X8504500Y2977050D01*
X8499210Y2984450D01*
X8489680Y2988900D01*
X8480160Y2987420D01*
X8470630Y2981490D01*
G01X8433470Y4300000D02*
Y4388900D01*
X8454630D01*
X8463100Y4384450D01*
X8469450Y4378530D01*
X8474740Y4369640D01*
X8478980Y4359260D01*
X8480030Y4344450D01*
X8478980Y4329630D01*
X8474740Y4319260D01*
X8469450Y4310370D01*
X8463100Y4304440D01*
X8454630Y4300000D01*
X8433470D01*
G01X8535450D02*
Y4388900D01*
X8522750Y4371120D01*
G01Y4300000D02*
X8548150D01*
G01X8594040Y4374080D02*
X8600390Y4382970D01*
X8607800Y4387420D01*
X8616270Y4388900D01*
X8626850Y4385940D01*
X8634260Y4378530D01*
X8636380Y4369640D01*
X8635320Y4360750D01*
X8631080Y4353340D01*
X8609920Y4338520D01*
X8600390Y4328150D01*
X8594040Y4313330D01*
X8591920Y4300000D01*
X8636380D01*
G01X8225000Y4781750D02*
X8223520Y4773280D01*
X8217590Y4765880D01*
X8208700Y4759520D01*
X8198330Y4755290D01*
X8186480Y4753170D01*
X8174620D01*
X8162770Y4755290D01*
X8152400Y4759520D01*
X8143510Y4765880D01*
X8137580Y4773280D01*
X8136100Y4781750D01*
X8137580Y4790220D01*
X8143510Y4797620D01*
X8152400Y4803980D01*
X8162770Y4808210D01*
X8174620Y4810330D01*
X8186480D01*
X8198330Y4808210D01*
X8208700Y4803980D01*
X8217590Y4797620D01*
X8223520Y4790220D01*
X8225000Y4781750D01*
G01X8201290Y4790220D02*
X8225000Y4802920D01*
G01X8207220Y4837170D02*
X8217590Y4843520D01*
X8223520Y4851980D01*
X8225000Y4861510D01*
X8223520Y4869980D01*
X8216110Y4878440D01*
X8207220Y4883730D01*
X8198330Y4884790D01*
X8187960Y4882680D01*
X8180550Y4875270D01*
X8177590Y4867860D01*
Y4858330D01*
G01Y4867860D02*
X8173140Y4874210D01*
X8165740Y4879500D01*
X8156840Y4881620D01*
X8147950Y4879500D01*
X8140550Y4874210D01*
X8136100Y4864680D01*
X8137580Y4855160D01*
X8143510Y4845630D01*
G01X8205030Y5256490D02*
X8198680Y5260940D01*
X8191280Y5263900D01*
X8182810D01*
X8173280Y5259450D01*
X8165880Y5252050D01*
X8160580Y5243160D01*
X8156350Y5228340D01*
X8155290Y5215000D01*
X8157410Y5201670D01*
X8160580Y5192780D01*
X8166930Y5183890D01*
X8174340Y5177960D01*
X8181750Y5175000D01*
X8189160D01*
X8196570Y5177960D01*
X8202920Y5182410D01*
X8208210Y5188330D01*
G01X8240340Y5249080D02*
X8246690Y5257970D01*
X8254100Y5262420D01*
X8262570Y5263900D01*
X8273150Y5260940D01*
X8280560Y5253530D01*
X8282680Y5244640D01*
X8281620Y5235750D01*
X8277380Y5228340D01*
X8256220Y5213520D01*
X8246690Y5203150D01*
X8240340Y5188330D01*
X8238220Y5175000D01*
X8282680D01*
G01X8319040Y5212040D02*
X8326450Y5222410D01*
X8332800Y5228340D01*
X8341270Y5231300D01*
X8348680Y5228340D01*
X8353970Y5222410D01*
X8358200Y5213520D01*
X8359260Y5203150D01*
X8358200Y5194260D01*
X8353970Y5185370D01*
X8347620Y5177960D01*
X8340210Y5175000D01*
X8331740Y5177960D01*
X8324330Y5186850D01*
X8320100Y5200190D01*
X8319040Y5215000D01*
X8321160Y5234260D01*
X8324330Y5244640D01*
X8329620Y5255010D01*
X8337030Y5262420D01*
X8344440Y5263900D01*
X8351850Y5260940D01*
X8357140Y5253530D01*
G01X8705030Y1206490D02*
X8698680Y1210940D01*
X8691280Y1213900D01*
X8682810D01*
X8673280Y1209450D01*
X8665880Y1202050D01*
X8660580Y1193160D01*
X8656350Y1178340D01*
X8655290Y1165000D01*
X8657410Y1151670D01*
X8660580Y1142780D01*
X8666930Y1133890D01*
X8674340Y1127960D01*
X8681750Y1125000D01*
X8689160D01*
X8696570Y1127960D01*
X8702920Y1132410D01*
X8708210Y1138330D01*
G01X8740340Y1199080D02*
X8746690Y1207970D01*
X8754100Y1212420D01*
X8762570Y1213900D01*
X8773150Y1210940D01*
X8780560Y1203530D01*
X8782680Y1194640D01*
X8781620Y1185750D01*
X8777380Y1178340D01*
X8756220Y1163520D01*
X8746690Y1153150D01*
X8740340Y1138330D01*
X8738220Y1125000D01*
X8782680D01*
G01X8815870Y1138330D02*
X8822220Y1130930D01*
X8829620Y1126480D01*
X8839150Y1125000D01*
X8848680Y1127960D01*
X8856080Y1133890D01*
X8861380Y1144260D01*
X8862430Y1156110D01*
X8860320Y1167970D01*
X8855020Y1175380D01*
X8847620Y1181300D01*
X8840210Y1182780D01*
X8832800Y1181300D01*
X8823280Y1175380D01*
X8826450Y1213900D01*
X8855020D01*
G01X8660580Y1325000D02*
Y1413900D01*
X8687040D01*
X8695510Y1409450D01*
X8700800Y1403530D01*
X8702920Y1391670D01*
X8700800Y1379820D01*
X8694450Y1372410D01*
X8687040Y1367970D01*
X8660580D01*
G01X8687040D02*
X8702920Y1325000D01*
G01X8737170Y1338330D02*
X8743520Y1330930D01*
X8750920Y1326480D01*
X8760450Y1325000D01*
X8769980Y1327960D01*
X8777380Y1333890D01*
X8782680Y1344260D01*
X8783730Y1356110D01*
X8781620Y1367970D01*
X8776320Y1375380D01*
X8768920Y1381300D01*
X8761510Y1382780D01*
X8754100Y1381300D01*
X8744580Y1375380D01*
X8747750Y1413900D01*
X8776320D01*
G01X8819040Y1399080D02*
X8825390Y1407970D01*
X8832800Y1412420D01*
X8841270Y1413900D01*
X8851850Y1410940D01*
X8859260Y1403530D01*
X8861380Y1394640D01*
X8860320Y1385750D01*
X8856080Y1378340D01*
X8834920Y1363520D01*
X8825390Y1353150D01*
X8819040Y1338330D01*
X8816920Y1325000D01*
X8861380D01*
G01X9105030Y1756490D02*
X9098680Y1760940D01*
X9091280Y1763900D01*
X9082810D01*
X9073280Y1759450D01*
X9065880Y1752050D01*
X9060580Y1743160D01*
X9056350Y1728340D01*
X9055290Y1715000D01*
X9057410Y1701670D01*
X9060580Y1692780D01*
X9066930Y1683890D01*
X9074340Y1677960D01*
X9081750Y1675000D01*
X9089160D01*
X9096570Y1677960D01*
X9102920Y1682410D01*
X9108210Y1688330D01*
G01X9160450Y1675000D02*
Y1763900D01*
X9147750Y1746120D01*
G01Y1675000D02*
X9173150D01*
G01X9221160Y1685370D02*
X9228570Y1677960D01*
X9237030Y1675000D01*
X9245500Y1677960D01*
X9252910Y1686850D01*
X9258200Y1700190D01*
X9260320Y1713520D01*
Y1729820D01*
X9258200Y1743160D01*
X9252910Y1755010D01*
X9246560Y1760940D01*
X9239150Y1763900D01*
X9230680Y1760940D01*
X9224330Y1755010D01*
X9220100Y1746120D01*
X9217980Y1734260D01*
X9220100Y1723900D01*
X9225390Y1713520D01*
X9231740Y1707600D01*
X9239150Y1706110D01*
X9247620Y1709080D01*
X9253970Y1716490D01*
X9260320Y1729820D01*
G01X8660580Y1525000D02*
Y1613900D01*
X8687040D01*
X8695510Y1609450D01*
X8700800Y1603530D01*
X8702920Y1591670D01*
X8700800Y1579820D01*
X8694450Y1572410D01*
X8687040Y1567970D01*
X8660580D01*
G01X8687040D02*
X8702920Y1525000D01*
G01X8737170Y1538330D02*
X8743520Y1530930D01*
X8750920Y1526480D01*
X8760450Y1525000D01*
X8769980Y1527960D01*
X8777380Y1533890D01*
X8782680Y1544260D01*
X8783730Y1556110D01*
X8781620Y1567970D01*
X8776320Y1575380D01*
X8768920Y1581300D01*
X8761510Y1582780D01*
X8754100Y1581300D01*
X8744580Y1575380D01*
X8747750Y1613900D01*
X8776320D01*
G01X8815870Y1542780D02*
X8822220Y1532410D01*
X8830680Y1526480D01*
X8840210Y1525000D01*
X8848680Y1526480D01*
X8857140Y1533890D01*
X8862430Y1542780D01*
X8863490Y1551670D01*
X8861380Y1562040D01*
X8853970Y1569450D01*
X8846560Y1572410D01*
X8837030D01*
G01X8846560D02*
X8852910Y1576860D01*
X8858200Y1584260D01*
X8860320Y1593160D01*
X8858200Y1602050D01*
X8852910Y1609450D01*
X8843380Y1613900D01*
X8833860Y1612420D01*
X8824330Y1606490D01*
G01X8660580Y1925000D02*
Y2013900D01*
X8687040D01*
X8695510Y2009450D01*
X8700800Y2003530D01*
X8702920Y1991670D01*
X8700800Y1979820D01*
X8694450Y1972410D01*
X8687040Y1967970D01*
X8660580D01*
G01X8687040D02*
X8702920Y1925000D01*
G01X8737170Y1938330D02*
X8743520Y1930930D01*
X8750920Y1926480D01*
X8760450Y1925000D01*
X8769980Y1927960D01*
X8777380Y1933890D01*
X8782680Y1944260D01*
X8783730Y1956110D01*
X8781620Y1967970D01*
X8776320Y1975380D01*
X8768920Y1981300D01*
X8761510Y1982780D01*
X8754100Y1981300D01*
X8744580Y1975380D01*
X8747750Y2013900D01*
X8776320D01*
G01X8839150D02*
X8830680Y2010940D01*
X8824330Y2003530D01*
X8820100Y1994640D01*
X8816920Y1982780D01*
X8815870Y1969450D01*
X8816920Y1956110D01*
X8820100Y1944260D01*
X8824330Y1935370D01*
X8830680Y1927960D01*
X8839150Y1925000D01*
X8847620Y1927960D01*
X8853970Y1935370D01*
X8858200Y1944260D01*
X8861380Y1956110D01*
X8862430Y1969450D01*
X8861380Y1982780D01*
X8858200Y1994640D01*
X8853970Y2003530D01*
X8847620Y2010940D01*
X8839150Y2013900D01*
G01X8660580Y1725000D02*
Y1813900D01*
X8687040D01*
X8695510Y1809450D01*
X8700800Y1803530D01*
X8702920Y1791670D01*
X8700800Y1779820D01*
X8694450Y1772410D01*
X8687040Y1767970D01*
X8660580D01*
G01X8687040D02*
X8702920Y1725000D01*
G01X8737170Y1738330D02*
X8743520Y1730930D01*
X8750920Y1726480D01*
X8760450Y1725000D01*
X8769980Y1727960D01*
X8777380Y1733890D01*
X8782680Y1744260D01*
X8783730Y1756110D01*
X8781620Y1767970D01*
X8776320Y1775380D01*
X8768920Y1781300D01*
X8761510Y1782780D01*
X8754100Y1781300D01*
X8744580Y1775380D01*
X8747750Y1813900D01*
X8776320D01*
G01X8851850Y1725000D02*
Y1813900D01*
X8812690Y1750190D01*
X8865610D01*
G01X8660580Y2988900D02*
Y2900000D01*
X8702920D01*
G01X8781620D02*
X8739280D01*
Y2988900D01*
X8781620D01*
G01X8764680Y2945930D02*
X8739280D01*
G01X8815870Y2900000D02*
Y2988900D01*
X8837030D01*
X8845500Y2984450D01*
X8851850Y2978530D01*
X8857140Y2969640D01*
X8861380Y2959260D01*
X8862430Y2944450D01*
X8861380Y2929630D01*
X8857140Y2919260D01*
X8851850Y2910370D01*
X8845500Y2904440D01*
X8837030Y2900000D01*
X8815870D01*
G01X8917850D02*
Y2988900D01*
X8905150Y2971120D01*
G01Y2900000D02*
X8930550D01*
G01X8975000Y4435580D02*
X8886100D01*
Y4462040D01*
X8890550Y4470510D01*
X8896470Y4475800D01*
X8908330Y4477920D01*
X8920180Y4475800D01*
X8927590Y4469450D01*
X8932030Y4462040D01*
Y4435580D01*
G01Y4462040D02*
X8975000Y4477920D01*
G01Y4548150D02*
X8886100D01*
X8949810Y4508990D01*
Y4561910D01*
G01X8937960Y4594040D02*
X8927590Y4601450D01*
X8921660Y4607800D01*
X8918700Y4616270D01*
X8921660Y4623680D01*
X8927590Y4628970D01*
X8936480Y4633200D01*
X8946850Y4634260D01*
X8955740Y4633200D01*
X8964630Y4628970D01*
X8972040Y4622620D01*
X8975000Y4615210D01*
X8972040Y4606740D01*
X8963150Y4599330D01*
X8949810Y4595100D01*
X8935000Y4594040D01*
X8915740Y4596160D01*
X8905360Y4599330D01*
X8894990Y4604620D01*
X8887580Y4612030D01*
X8886100Y4619440D01*
X8889060Y4626850D01*
X8896470Y4632140D01*
G01X8975000Y4885580D02*
X8886100D01*
Y4912040D01*
X8890550Y4920510D01*
X8896470Y4925800D01*
X8908330Y4927920D01*
X8920180Y4925800D01*
X8927590Y4919450D01*
X8932030Y4912040D01*
Y4885580D01*
G01Y4912040D02*
X8975000Y4927920D01*
G01X8961670Y4962170D02*
X8969070Y4968520D01*
X8973520Y4975920D01*
X8975000Y4985450D01*
X8972040Y4994980D01*
X8966110Y5002380D01*
X8955740Y5007680D01*
X8943890Y5008730D01*
X8932030Y5006620D01*
X8924620Y5001320D01*
X8918700Y4993920D01*
X8917220Y4986510D01*
X8918700Y4979100D01*
X8924620Y4969580D01*
X8886100Y4972750D01*
Y5001320D01*
G01X9254230Y50000D02*
Y138900D01*
X9281750Y64820D01*
X9309270Y138900D01*
Y50000D01*
G01X9338220D02*
Y138900D01*
G01X9382680D02*
Y50000D01*
G01Y94450D02*
X9338220D01*
G01X9451850Y50000D02*
Y138900D01*
X9412690Y75190D01*
X9465610D01*
G01X9254230Y6075000D02*
Y6163900D01*
X9281750Y6089820D01*
X9309270Y6163900D01*
Y6075000D01*
G01X9338220D02*
Y6163900D01*
G01X9382680D02*
Y6075000D01*
G01Y6119450D02*
X9338220D01*
G01X9419040Y6149080D02*
X9425390Y6157970D01*
X9432800Y6162420D01*
X9441270Y6163900D01*
X9451850Y6160940D01*
X9459260Y6153530D01*
X9461380Y6144640D01*
X9460320Y6135750D01*
X9456080Y6128340D01*
X9434920Y6113520D01*
X9425390Y6103150D01*
X9419040Y6088330D01*
X9416920Y6075000D01*
X9461380D01*
G54D18*
G01X1299060Y3063500D02*
X1100940D01*
G03Y2936500I0J-63500D01*
G01X1299060D01*
G03Y3063500I0J63500D01*
G01X1352400Y3025400D02*
Y2969520D01*
G01X1342240Y3039370D02*
Y2960630D01*
G01X1334620Y3050800D02*
G02X1338430Y3046990I0J-3810D01*
G01Y2951740D01*
G01X1041250Y3021590D02*
G02X1042520Y3020320I0J-1270D01*
G01Y2977140D01*
G01X1051410Y3035560D02*
Y2964440D01*
G01X1060300Y3045720D02*
G02X1061570Y3044450I0J-1270D01*
G01Y2953010D01*
G01X1205080Y2996190D02*
G03I-6350J0D01*
G01X3861500Y5749060D02*
Y5550940D01*
G03X3988500I63500J0D01*
G01Y5749060D01*
G03X3861500I-63500J0D01*
G01X3903410Y5491250D02*
G02X3904680Y5492520I1270J0D01*
G01X3947860D01*
G01X3889440Y5501410D02*
X3960560D01*
G01X3879280Y5510300D02*
G02X3880550Y5511570I1270J0D01*
G01X3971990D01*
G01X3935160Y5648730D02*
G03I-6350J0D01*
G01X3899600Y5802400D02*
X3955480D01*
G01X3885630Y5792240D02*
X3964370D01*
G01X3874200Y5784620D02*
G02X3878010Y5788430I3810J0D01*
G01X3973260D01*
G01X4750940Y2636500D02*
X4949060D01*
G03Y2763500I0J63500D01*
G01X4750940D01*
G03Y2636500I0J-63500D01*
G01X4697600Y2674600D02*
Y2730480D01*
G01X4707760Y2660630D02*
Y2739370D01*
G01X4715380Y2649200D02*
G02X4711570Y2653010I0J3810D01*
G01Y2748260D01*
G01X5008750Y2678410D02*
G02X5007480Y2679680I0J1270D01*
G01Y2722860D01*
G01X4998590Y2664440D02*
Y2735560D01*
G01X4989700Y2654280D02*
G02X4988430Y2655550I0J1270D01*
G01Y2746990D01*
G01X4857620Y2703810D02*
G03I-6350J0D01*
G01X5038500Y5500940D02*
Y5699060D01*
G03X4911500I-63500J0D01*
G01Y5500940D01*
G03X5038500I63500J0D01*
G01X5000400Y5447600D02*
X4944520D01*
G01X5014370Y5457760D02*
X4935630D01*
G01X5025800Y5465380D02*
G02X5021990Y5461570I-3810J0D01*
G01X4926740D01*
G01X4977540Y5601270D02*
G03I-6350J0D01*
G01X4996590Y5758750D02*
G02X4995320Y5757480I-1270J0D01*
G01X4952140D01*
G01X5010560Y5748590D02*
X4939440D01*
G01X5020720Y5739700D02*
G02X5019450Y5738430I-1270J0D01*
G01X4928010D01*
G01X5788500Y2525940D02*
Y2724060D01*
G03X5661500I-63500J0D01*
G01Y2525940D01*
G03X5788500I63500J0D01*
G01X5750400Y2472600D02*
X5694520D01*
G01X5764370Y2482760D02*
X5685630D01*
G01X5775800Y2490380D02*
G02X5771990Y2486570I-3810J0D01*
G01X5676740D01*
G01X5746590Y2783750D02*
G02X5745320Y2782480I-1270J0D01*
G01X5702140D01*
G01X5760560Y2773590D02*
X5689440D01*
G01X5770720Y2764700D02*
G02X5769450Y2763430I-1270J0D01*
G01X5678010D01*
G01X5388500Y2525940D02*
Y2724060D01*
G03X5261500I-63500J0D01*
G01Y2525940D01*
G03X5388500I63500J0D01*
G01X5350400Y2472600D02*
X5294520D01*
G01X5364370Y2482760D02*
X5285630D01*
G01X5375800Y2490380D02*
G02X5371990Y2486570I-3810J0D01*
G01X5276740D01*
G01X5346590Y2783750D02*
G02X5345320Y2782480I-1270J0D01*
G01X5302140D01*
G01X5360560Y2773590D02*
X5289440D01*
G01X5370720Y2764700D02*
G02X5369450Y2763430I-1270J0D01*
G01X5278010D01*
G01X5327540Y2626270D02*
G03I-6350J0D01*
G01X6424060Y963500D02*
X6225940D01*
G03Y836500I0J-63500D01*
G01X6424060D01*
G03Y963500I0J63500D01*
G01X6166250Y921590D02*
G02X6167520Y920320I0J-1270D01*
G01Y877140D01*
G01X6176410Y935560D02*
Y864440D01*
G01X6185300Y945720D02*
G02X6186570Y944450I0J-1270D01*
G01Y853010D01*
G01X6213500Y2525940D02*
Y2724060D01*
G03X6086500I-63500J0D01*
G01Y2525940D01*
G03X6213500I63500J0D01*
G01X6175400Y2472600D02*
X6119520D01*
G01X6189370Y2482760D02*
X6110630D01*
G01X6200800Y2490380D02*
G02X6196990Y2486570I-3810J0D01*
G01X6101740D01*
G01X6171590Y2783750D02*
G02X6170320Y2782480I-1270J0D01*
G01X6127140D01*
G01X6185560Y2773590D02*
X6114440D01*
G01X6195720Y2764700D02*
G02X6194450Y2763430I-1270J0D01*
G01X6103010D01*
G01X6152540Y2626270D02*
G03I-6350J0D01*
G01X5727540D02*
G03I-6350J0D01*
G01X6477400Y925400D02*
Y869520D01*
G01X6467240Y939370D02*
Y860630D01*
G01X6459620Y950800D02*
G02X6463430Y946990I0J-3810D01*
G01Y851740D01*
G01X6330080Y896190D02*
G03I-6350J0D01*
G01X6486500Y2799060D02*
Y2600940D01*
G03X6613500I63500J0D01*
G01Y2799060D01*
G03X6486500I-63500J0D01*
G01X6524600Y2852400D02*
X6580480D01*
G01X6510630Y2842240D02*
X6589370D01*
G01X6499200Y2834620D02*
G02X6503010Y2838430I3810J0D01*
G01X6598260D01*
G01X6528410Y2541250D02*
G02X6529680Y2542520I1270J0D01*
G01X6572860D01*
G01X6514440Y2551410D02*
X6585560D01*
G01X6504280Y2560300D02*
G02X6505550Y2561570I1270J0D01*
G01X6596990D01*
G01X6560160Y2698730D02*
G03I-6350J0D01*
G01X6550940Y2936500D02*
X6749060D01*
G03Y3063500I0J63500D01*
G01X6550940D01*
G03Y2936500I0J-63500D01*
G01X6497600Y2974600D02*
Y3030480D01*
G01X6507760Y2960630D02*
Y3039370D01*
G01X6515380Y2949200D02*
G02X6511570Y2953010I0J3810D01*
G01Y3048260D01*
G01X6657620Y3003810D02*
G03I-6350J0D01*
G01X7149060Y3063500D02*
X6950940D01*
G03Y2936500I0J-63500D01*
G01X7149060D01*
G03Y3063500I0J63500D01*
G01X6891250Y3021590D02*
G02X6892520Y3020320I0J-1270D01*
G01Y2977140D01*
G01X6901410Y3035560D02*
Y2964440D01*
G01X6910300Y3045720D02*
G02X6911570Y3044450I0J-1270D01*
G01Y2953010D01*
G01X7055080Y2996190D02*
G03I-6350J0D01*
G01X6808750Y2978410D02*
G02X6807480Y2979680I0J1270D01*
G01Y3022860D01*
G01X6798590Y2964440D02*
Y3035560D01*
G01X6789700Y2954280D02*
G02X6788430Y2955550I0J1270D01*
G01Y3046990D01*
G01X7236500Y1049060D02*
Y850940D01*
G03X7363500I63500J0D01*
G01Y1049060D01*
G03X7236500I-63500J0D01*
G01X7278410Y791250D02*
G02X7279680Y792520I1270J0D01*
G01X7322860D01*
G01X7264440Y801410D02*
X7335560D01*
G01X7254280Y810300D02*
G02X7255550Y811570I1270J0D01*
G01X7346990D01*
G01X7310160Y948730D02*
G03I-6350J0D01*
G01X7274600Y1102400D02*
X7330480D01*
G01X7260630Y1092240D02*
X7339370D01*
G01X7249200Y1084620D02*
G02X7253010Y1088430I3810J0D01*
G01X7348260D01*
G01X7436500Y2049060D02*
Y1850940D01*
G03X7563500I63500J0D01*
G01Y2049060D01*
G03X7436500I-63500J0D01*
G01X7478410Y1791250D02*
G02X7479680Y1792520I1270J0D01*
G01X7522860D01*
G01X7464440Y1801410D02*
X7535560D01*
G01X7454280Y1810300D02*
G02X7455550Y1811570I1270J0D01*
G01X7546990D01*
G01X7474600Y2102400D02*
X7530480D01*
G01X7460630Y2092240D02*
X7539370D01*
G01X7449200Y2084620D02*
G02X7453010Y2088430I3810J0D01*
G01X7548260D01*
G01X7510160Y1948730D02*
G03I-6350J0D01*
G01X7436500Y2424060D02*
Y2225940D01*
G03X7563500I63500J0D01*
G01Y2424060D01*
G03X7436500I-63500J0D01*
G01X7478410Y2166250D02*
G02X7479680Y2167520I1270J0D01*
G01X7522860D01*
G01X7464440Y2176410D02*
X7535560D01*
G01X7454280Y2185300D02*
G02X7455550Y2186570I1270J0D01*
G01X7546990D01*
G01X7510160Y2323730D02*
G03I-6350J0D01*
G01X7474600Y2477400D02*
X7530480D01*
G01X7460630Y2467240D02*
X7539370D01*
G01X7449200Y2459620D02*
G02X7453010Y2463430I3810J0D01*
G01X7548260D01*
G01X7202400Y3025400D02*
Y2969520D01*
G01X7192240Y3039370D02*
Y2960630D01*
G01X7184620Y3050800D02*
G02X7188430Y3046990I0J-3810D01*
G01Y2951740D01*
G01X7375940Y2936500D02*
X7574060D01*
G03Y3063500I0J63500D01*
G01X7375940D01*
G03Y2936500I0J-63500D01*
G01X7322600Y2974600D02*
Y3030480D01*
G01X7332760Y2960630D02*
Y3039370D01*
G01X7340380Y2949200D02*
G02X7336570Y2953010I0J3810D01*
G01Y3048260D01*
G01X7623590Y2964440D02*
Y3035560D01*
G01X7614700Y2954280D02*
G02X7613430Y2955550I0J1270D01*
G01Y3046990D01*
G01X7482620Y3003810D02*
G03I-6350J0D01*
G01X7799060Y5513500D02*
X7600940D01*
G03Y5386500I0J-63500D01*
G01X7799060D01*
G03Y5513500I0J63500D01*
G01X7541250Y5471590D02*
G02X7542520Y5470320I0J-1270D01*
G01Y5427140D01*
G01X7551410Y5485560D02*
Y5414440D01*
G01X7560300Y5495720D02*
G02X7561570Y5494450I0J-1270D01*
G01Y5403010D01*
G01X8100940Y611500D02*
X8299060D01*
G03Y738500I0J63500D01*
G01X8100940D01*
G03Y611500I0J-63500D01*
G01X8047600Y649600D02*
Y705480D01*
G01X8057760Y635630D02*
Y714370D01*
G01X8065380Y624200D02*
G02X8061570Y628010I0J3810D01*
G01Y723260D01*
G01X7633750Y2978410D02*
G02X7632480Y2979680I0J1270D01*
G01Y3022860D01*
G01X7852400Y5475400D02*
Y5419520D01*
G01X7842240Y5489370D02*
Y5410630D01*
G01X7834620Y5500800D02*
G02X7838430Y5496990I0J-3810D01*
G01Y5401740D01*
G01X7705080Y5446190D02*
G03I-6350J0D01*
G01X8358750Y653410D02*
G02X8357480Y654680I0J1270D01*
G01Y697860D01*
G01X8348590Y639440D02*
Y710560D01*
G01X8339700Y629280D02*
G02X8338430Y630550I0J1270D01*
G01Y721990D01*
G01X8207620Y678810D02*
G03I-6350J0D01*
G01X8849060Y1338500D02*
X8650940D01*
G03Y1211500I0J-63500D01*
G01X8849060D01*
G03Y1338500I0J63500D01*
G01X8902400Y1300400D02*
Y1244520D01*
G01X8892240Y1314370D02*
Y1235630D01*
G01X8884620Y1325800D02*
G02X8888430Y1321990I0J-3810D01*
G01Y1226740D01*
G01X8591250Y1296590D02*
G02X8592520Y1295320I0J-1270D01*
G01Y1252140D01*
G01X8601410Y1310560D02*
Y1239440D01*
G01X8610300Y1320720D02*
G02X8611570Y1319450I0J-1270D01*
G01Y1228010D01*
G01X8755080Y1271190D02*
G03I-6350J0D01*
G01X8849060Y1138500D02*
X8650940D01*
G03Y1011500I0J-63500D01*
G01X8849060D01*
G03Y1138500I0J63500D01*
G01X8902400Y1100400D02*
Y1044520D01*
G01X8892240Y1114370D02*
Y1035630D01*
G01X8884620Y1125800D02*
G02X8888430Y1121990I0J-3810D01*
G01Y1026740D01*
G01X8591250Y1096590D02*
G02X8592520Y1095320I0J-1270D01*
G01Y1052140D01*
G01X8601410Y1110560D02*
Y1039440D01*
G01X8610300Y1120720D02*
G02X8611570Y1119450I0J-1270D01*
G01Y1028010D01*
G01X8755080Y1071190D02*
G03I-6350J0D01*
G01X9249060Y1888500D02*
X9050940D01*
G03Y1761500I0J-63500D01*
G01X9249060D01*
G03Y1888500I0J63500D01*
G01X8991250Y1846590D02*
G02X8992520Y1845320I0J-1270D01*
G01Y1802140D01*
G01X9001410Y1860560D02*
Y1789440D01*
G01X9010300Y1870720D02*
G02X9011570Y1869450I0J-1270D01*
G01Y1778010D01*
G01X9302400Y1850400D02*
Y1794520D01*
G01X9292240Y1864370D02*
Y1785630D01*
G01X9284620Y1875800D02*
G02X9288430Y1871990I0J-3810D01*
G01Y1776740D01*
G01X9155080Y1821190D02*
G03I-6350J0D01*
G54D19*
G01X1198730Y3057150D02*
Y2942850D01*
G01X3867850Y5648730D02*
X3982150D01*
G01X4851270Y2642850D02*
Y2757150D01*
G01X5032150Y5601270D02*
X4917850D01*
G01X5782150Y2626270D02*
X5667850D01*
G01X5382150D02*
X5267850D01*
G01X6207150D02*
X6092850D01*
G01X6323730Y957150D02*
Y842850D01*
G01X6492850Y2698730D02*
X6607150D01*
G01X6651270Y2942850D02*
Y3057150D01*
G01X7048730D02*
Y2942850D01*
G01X7242850Y948730D02*
X7357150D01*
G01X7442850Y1948730D02*
X7557150D01*
G01X7442850Y2323730D02*
X7557150D01*
G01X7476270Y2942850D02*
Y3057150D01*
G01X7698730Y5507150D02*
Y5392850D01*
G01X8201270Y617850D02*
Y732150D01*
G01X8748730Y1332150D02*
Y1217850D01*
G01Y1132150D02*
Y1017850D01*
G01X9148730Y1882150D02*
Y1767850D01*
M02*
