G04 ================== begin FILE IDENTIFICATION RECORD ==================*
G04 Layout Name:  D:/Spacewizard/2019/PCBA/M249V10/Schematics/M249V10-DRL_200212.brd*
G04 Film Name:    TOP*
G04 File Format:  Gerber RS274X*
G04 File Origin:  Cadence Allegro 17.2-P019*
G04 Origin Date:  Wed Feb 12 03:13:37 2020*
G04 *
G04 Layer:  ETCH/TOP*
G04 Layer:  PIN/TOP*
G04 Layer:  VIA CLASS/TOP*
G04 *
G04 Offset:    (0.0000 0.0000)*
G04 Mirror:    No*
G04 Mode:      Positive*
G04 Rotation:  0*
G04 FullContactRelief:  No*
G04 UndefLineWidth:     0.1500*
G04 ================== end FILE IDENTIFICATION RECORD ====================*
%FSLAX25Y25*MOMM*%
%IR0*IPPOS*OFA0.00000B0.00000*MIA0B0*SFA1.00000B1.00000*%
%ADD21R,.889X.7874*%
%ADD29R,.7874X.889*%
%ADD34O,2.X.6*%
%ADD38R,2.X.6*%
%ADD39O,.44X1.9*%
%AMMACRO47*
4,1,8,-2.0574,.254,
-1.2446,.254,
-1.2446,.8636,
2.0574,.8636,
2.0574,-.8636,
-1.2446,-.8636,
-1.2446,-.254,
-2.0574,-.254,
-2.0574,.254,
0.0*
%
%ADD47MACRO47*%
%ADD44R,.44X1.9*%
%AMMACRO41*
4,1,12,1.6,-1.15,
1.6,1.15,
.6,1.15,
.6,1.8,
-.6,1.8,
-.6,1.15,
-1.6,1.15,
-1.6,-1.15,
-.6,-1.15,
-.6,-1.8,
.6,-1.8,
.6,-1.15,
1.6,-1.15,
0.0*
%
%ADD41MACRO41*%
%ADD11C,.6*%
%ADD24R,1.27X.635*%
%ADD48C,.75*%
%ADD16R,1.016X.8128*%
%ADD28R,.8128X1.016*%
%ADD15R,.8X.8*%
%ADD53R,.671X.671*%
%ADD30R,1.X1.5*%
%ADD18R,2.2X1.2*%
%ADD45R,1.5X1.*%
%ADD32R,1.5X2.6*%
%ADD52C,1.*%
%ADD36R,2.6X1.5*%
%ADD26R,1.4X1.9*%
%ADD23R,1.5X1.8*%
%ADD12R,1.9X1.4*%
%ADD37C,1.2*%
%ADD19R,2.3X5.6*%
%ADD20C,2.2*%
%ADD33R,5.7X1.7*%
%ADD17C,1.6*%
%ADD13C,2.5*%
%ADD54R,1.X1.*%
%ADD27R,1.3208X1.016*%
%ADD25R,1.016X1.3208*%
%ADD14R,6.4X5.8*%
%AMMACRO50*
4,1,12,-1.15,-1.6,
1.15,-1.6,
1.15,-.6,
1.8,-.6,
1.8,.6,
1.15,.6,
1.15,1.6,
-1.15,1.6,
-1.15,.6,
-1.8,.6,
-1.8,-.6,
-1.15,-.6,
-1.15,-1.6,
0.0*
%
%ADD50MACRO50*%
%ADD51R,1.397X1.016*%
%ADD49R,1.525X1.78*%
%ADD35R,1.016X1.397*%
%ADD40R,1.78X1.525*%
%ADD43R,.508X.508*%
%ADD10C,8.128*%
%ADD31R,1.78X1.78*%
%ADD46R,.8128X.4318*%
%ADD22R,2.3368X1.6256*%
%ADD42R,1.397X1.1938*%
%ADD55C,.5*%
%ADD56C,.15*%
%ADD57C,.25*%
%ADD58C,.35*%
%ADD59C,.127*%
%ADD60C,1.5*%
%ADD61C,3.0044*%
%ADD62C,1.2544*%
%ADD63C,1.4544*%
%ADD65C,2.2098*%
%ADD64C,1.8544*%
G75*
%LPD*%
G75*
G36*
G01X104770Y699660D02*
G02X87500Y706920I-7110J7258D01*
G01Y4595250D01*
G02X104820Y4602460I10160J2D01*
G03X397130Y5319110I295180J297540D01*
G02X391150Y5337530I-70J10158D01*
G02X3000000Y6175000I2610522J-3649960D01*
G01X8849820D01*
G02X8855730Y6156570I5J-10161D01*
G03X8961340Y5419750I243591J-341064D01*
G02X8958000Y5400000I-3347J-9591D01*
G01X8625000D01*
X8375000Y5150000D01*
X8203250D01*
G02X8196070Y5167340I3J10158D01*
G01X8300220Y5271500D01*
Y5292280D01*
X8322720D01*
Y5357280D01*
X8422720D01*
Y5612720D01*
X8322720D01*
Y5677720D01*
X8177280D01*
Y5612720D01*
X8077280D01*
Y5522720D01*
X8055600D01*
X7840600Y5737720D01*
X7787720D01*
Y5750000D01*
G03X7775000Y5762720I-12720J0D01*
G01X7625000D01*
G03X7612280Y5750000I0J-12720D01*
G01Y5690620D01*
X7444380Y5522720D01*
X7322720D01*
Y5612720D01*
X7222720D01*
Y5677720D01*
X7077280D01*
Y5612720D01*
X6977280D01*
Y5522720D01*
X6967920D01*
X6902920Y5587720D01*
X6657720D01*
Y5625000D01*
G03X6645000Y5637720I-12720J0D01*
G01X6385000D01*
G03X6372280Y5625000I0J-12720D01*
G01Y5475000D01*
G03X6385000Y5462280I12720J0D01*
G01X6477280D01*
Y5430620D01*
X6409380Y5362720D01*
X5537920D01*
X5487720Y5412920D01*
Y5422280D01*
X5735000D01*
G03X5747720Y5435000I0J12720D01*
G01Y5605000D01*
G03X5735000Y5617720I-12720J0D01*
G01X5165000D01*
G03X5152280Y5605000I0J-12720D01*
G01Y5435000D01*
G03X5165000Y5422280I12720J0D01*
G01X5412280D01*
Y5381680D01*
X5506680Y5287280D01*
X6440620D01*
X6552720Y5399380D01*
Y5462280D01*
X6645000D01*
G03X6657720Y5475000I0J12720D01*
G01Y5512280D01*
X6871680D01*
X6936680Y5447280D01*
X6977280D01*
Y5357280D01*
X7077280D01*
Y5292280D01*
X7222720D01*
Y5357280D01*
X7322720D01*
Y5447280D01*
X7475620D01*
X7665620Y5637280D01*
X7775000D01*
G03X7787720Y5650000I0J12720D01*
G01Y5662280D01*
X7809360D01*
X7966570Y5505060D01*
G02X7959390Y5487720I-7184J-7182D01*
G01X7842710D01*
X7842170Y5492180D01*
G03X7829540Y5503360I-12630J-1544D01*
G01X7727940D01*
G03X7715220Y5490640I0J-12720D01*
G01Y5409360D01*
G03X7727940Y5396640I12720J0D01*
G01X7829540D01*
G03X7842170Y5407820I0J12724D01*
G01X7842710Y5412280D01*
X8020600D01*
X8055600Y5447280D01*
X8077280D01*
Y5357280D01*
X8177280D01*
Y5290600D01*
X8136900Y5250220D01*
X6804200D01*
X6649780Y5095800D01*
Y3604200D01*
X6829200Y3424780D01*
X7749780D01*
Y3020800D01*
X7624780Y2895800D01*
Y2700000D01*
G03X7725220I50220J0D01*
G01Y2854200D01*
X7850220Y2979200D01*
Y3424780D01*
X9279200D01*
X9325000Y3378980D01*
Y1375000D01*
X9255300Y1305300D01*
G02X9238070Y1311030I-7177J7190D01*
G03X9208260Y1355790I-62068J-9031D01*
G02Y1373210I5226J8710D01*
G03Y1480790I-32260J53790D01*
G02Y1498210I5226J8710D01*
G03X9143740I-32260J53790D01*
G02Y1480790I-5226J-8710D01*
G03X9119890Y1455030I32260J-53789D01*
G01X9118490Y1452220D01*
X9111250D01*
X9050220Y1513250D01*
Y1710450D01*
X8918270Y1842400D01*
X8894470D01*
X8878920Y1857950D01*
Y1915000D01*
G03X8866200Y1927720I-12720J0D01*
G01X8786200D01*
G03X8774010Y1918640I0J-12723D01*
G01X8772930Y1915020D01*
X8750210D01*
G02X8743030Y1932360I6J10159D01*
G01X8760450Y1949780D01*
X8864550D01*
X9007740Y1806590D01*
Y1784360D01*
G03X9020460Y1771640I12720J0D01*
G01X9122060D01*
G03X9134780Y1784360I0J12720D01*
G01Y1865640D01*
G03X9122060Y1878360I-12720J0D01*
G01X9020460D01*
G03X9014210Y1876720I0J-12729D01*
G01X9010850Y1874820D01*
X8885450Y2000220D01*
X8739550D01*
X8678640Y1939310D01*
X8667270Y1950670D01*
X8667510Y1953070D01*
G03Y1961490I-42510J4210D01*
G01X8667270Y1963890D01*
X8699020Y1995630D01*
Y2022280D01*
X8713800D01*
G03X8725990Y2031360I0J12723D01*
G01X8727070Y2034980D01*
X8772930D01*
X8774010Y2031360D01*
G03X8786200Y2022280I12190J3643D01*
G01X8866200D01*
G03X8878920Y2035000I0J12720D01*
G01Y2115000D01*
G03X8866200Y2127720I-12720J0D01*
G01X8786200D01*
G03X8774010Y2118640I0J-12723D01*
G01X8772930Y2115020D01*
X8727070D01*
X8725990Y2118640D01*
G03X8713800Y2127720I-12190J-3643D01*
G01X8633800D01*
G03X8621080Y2115000I0J-12720D01*
G01Y2035000D01*
G03X8633800Y2022280I12720J0D01*
G01X8642070D01*
G02X8645660Y2013610I-2J-5079D01*
G01X8631610Y1999550D01*
X8629210Y1999790D01*
G03X8616960Y1915320I-4215J-42512D01*
G01X8621080Y1914530D01*
Y1835000D01*
G03X8633800Y1822280I12720J0D01*
G01X8713800D01*
G03X8725990Y1831360I0J12723D01*
G01X8727070Y1834980D01*
X8772930D01*
X8774010Y1831360D01*
G03X8786200Y1822280I12190J3643D01*
G01X8843250D01*
X8873570Y1791960D01*
X8897370D01*
X8999780Y1689550D01*
Y1492350D01*
X9090350Y1401780D01*
X9118570D01*
G03X9143740Y1373210I57428J25221D01*
G02Y1355790I-5226J-8710D01*
G03X9117740Y1325220I32266J-53784D01*
G01X9110450D01*
X8975220Y1460450D01*
Y1660450D01*
X8935450Y1700220D01*
X8878920D01*
Y1715000D01*
G03X8866200Y1727720I-12720J0D01*
G01X8786200D01*
G03X8774010Y1718640I0J-12723D01*
G01X8772930Y1715020D01*
X8727070D01*
X8725990Y1718640D01*
G03X8713800Y1727720I-12190J-3643D01*
G01X8633800D01*
G03X8621080Y1715000I0J-12720D01*
G01Y1700220D01*
X8610450D01*
X8600220Y1710450D01*
Y1860450D01*
X8335450Y2125220D01*
X8094560D01*
Y2323940D01*
X7738920D01*
Y2262980D01*
X7657640D01*
Y2186740D01*
X7738920D01*
Y2125780D01*
X7915590D01*
G02X7922770Y2108440I-6J-10159D01*
G01X7587030Y1772700D01*
Y1696860D01*
G03X7577530Y1673000I25213J-23860D01*
G01Y1527000D01*
G03X7636810Y1502460I34719J0D01*
G02X7651190I7190J-7179D01*
G03X7700310I24560J24540D01*
G02X7714690I7190J-7179D01*
G03X7763810I24560J24540D01*
G02X7778190I7190J-7179D01*
G03X7827310I24560J24540D01*
G02X7841690I7190J-7179D01*
G03X7890810I24560J24540D01*
G02X7905190I7190J-7179D01*
G03X7957450Y1506060I24564J24539D01*
G02X7965550I4050J-3059D01*
G03X7966820Y1504490I27618J21042D01*
G01X7968030Y1503060D01*
Y1490250D01*
X7953000Y1475220D01*
X7509480D01*
G03X7442990Y1478290I-34480J-25220D01*
G02X7425220Y1485020I-7610J6731D01*
G01Y2449450D01*
X7375220Y2499450D01*
Y2571080D01*
X7390000D01*
G03X7402720Y2583800I0J12720D01*
G01Y2663800D01*
G03X7393640Y2675990I-12723J0D01*
G01X7390020Y2677070D01*
Y2722930D01*
X7393640Y2724010D01*
G03X7402720Y2736200I-3643J12190D01*
G01Y2816200D01*
G03X7390000Y2828920I-12720J0D01*
G01X7375220D01*
Y2885450D01*
X7367270Y2893390D01*
X7367510Y2895790D01*
G03X7355930Y2929470I-42512J4214D01*
G02X7363280Y2946640I7352J7011D01*
G01X7424110D01*
X7424780Y2945970D01*
Y2584480D01*
G03X7492510Y2554210I25219J-34481D01*
G01X7492270Y2556610D01*
X7506910Y2571250D01*
X7509200Y2571100D01*
G03X7510000Y2571080I718J12702D01*
G01X7590000D01*
G03X7602720Y2583800I0J12720D01*
G01Y2663800D01*
G03X7593640Y2675990I-12723J0D01*
G01X7590020Y2677070D01*
Y2722930D01*
X7593640Y2724010D01*
G03X7602720Y2736200I-3643J12190D01*
G01Y2816200D01*
G03X7590000Y2828920I-12720J0D01*
G01X7575220D01*
Y2865520D01*
G03X7580930Y2929470I-25220J34482D01*
G02X7588280Y2946640I7352J7011D01*
G01X7604540D01*
G03X7617260Y2959360I0J12720D01*
G01Y3040640D01*
G03X7604540Y3053360I-12720J0D01*
G01X7502940D01*
G03X7490220Y3040640I0J-12720D01*
G01Y2959360D01*
G03X7502940Y2946640I12720J0D01*
G01X7511720D01*
G02X7519070Y2929470I-2J-10159D01*
G03X7524780Y2865520I30930J-29468D01*
G01Y2828920D01*
X7510000D01*
G03X7497280Y2816200I0J-12720D01*
G01Y2736200D01*
G03X7506360Y2724010I12723J0D01*
G01X7509980Y2722930D01*
Y2677070D01*
X7506360Y2675990D01*
G03X7497280Y2663800I3643J-12190D01*
G01Y2632950D01*
X7492560Y2628230D01*
G02X7475220Y2635410I-7181J7186D01*
G01Y2966870D01*
X7459780Y2982310D01*
Y3040640D01*
G03X7447060Y3053360I-12720J0D01*
G01X7345460D01*
G03X7332740Y3040640I0J-12720D01*
G01Y2959360D01*
G03X7333260Y2955750I12721J-10D01*
G02X7323810Y2942700I-9739J-2894D01*
G03X7292990Y2928290I1187J-42702D01*
G02X7275220Y2935020I-7610J6731D01*
G01Y2965190D01*
X7215190Y3025220D01*
X7192260D01*
Y3040640D01*
G03X7179540Y3053360I-12720J0D01*
G01X7077940D01*
G03X7065220Y3040640I0J-12720D01*
G01Y2959360D01*
G03X7077940Y2946640I12720J0D01*
G01X7179540D01*
G03X7192260Y2959360I0J12720D01*
G01Y2964550D01*
G02X7200930Y2968140I5079J-2D01*
G01X7224780Y2944290D01*
Y2649020D01*
X7202720D01*
Y2663800D01*
G03X7193640Y2675990I-12723J0D01*
G01X7190020Y2677070D01*
Y2722930D01*
X7193640Y2724010D01*
G03X7202720Y2736200I-3643J12190D01*
G01Y2816200D01*
G03X7190000Y2828920I-12720J0D01*
G01X7110000D01*
G03X7097280Y2816200I0J-12720D01*
G01Y2736200D01*
G03X7106360Y2724010I12723J0D01*
G01X7109980Y2722930D01*
Y2677070D01*
X7106360Y2675990D01*
G03X7097280Y2663800I3643J-12190D01*
G01Y2606750D01*
X7065750Y2575220D01*
X7002370D01*
Y2580800D01*
X7002470Y2581300D01*
G03X7002720Y2583800I-12469J2509D01*
G01Y2663800D01*
G03X6993640Y2675990I-12723J0D01*
G01X6990020Y2677070D01*
Y2722930D01*
X6993640Y2724010D01*
G03X7002720Y2736200I-3643J12190D01*
G01Y2816200D01*
G03X6990000Y2828920I-12720J0D01*
G01X6910000D01*
G03X6897280Y2816200I0J-12720D01*
G01Y2736200D01*
G03X6906360Y2724010I12723J0D01*
G01X6909980Y2722930D01*
Y2677070D01*
X6906360Y2675990D01*
G03X6897280Y2663800I3643J-12190D01*
G01Y2649020D01*
X6802720D01*
Y2663800D01*
G03X6793640Y2675990I-12723J0D01*
G01X6790020Y2677070D01*
Y2722930D01*
X6793640Y2724010D01*
G03X6802720Y2736200I-3643J12190D01*
G01Y2816200D01*
G03X6790000Y2828920I-12720J0D01*
G01X6775220D01*
Y2865520D01*
G03X6771100Y2937140I-25222J34478D01*
G01X6768530Y2938600D01*
Y2946640D01*
X6779540D01*
G03X6792260Y2959360I0J12720D01*
G01Y3040640D01*
G03X6779540Y3053360I-12720J0D01*
G01X6677940D01*
G03X6665220Y3040640I0J-12720D01*
G01Y2976390D01*
G02X6647880Y2969210I-10159J6D01*
G01X6634780Y2982310D01*
Y3040640D01*
G03X6622060Y3053360I-12720J0D01*
G01X6520460D01*
G03X6507740Y3040640I0J-12720D01*
G01Y2959360D01*
G03X6520460Y2946640I12720J0D01*
G01X6531470D01*
Y2938600D01*
X6528900Y2937140D01*
G03X6524780Y2865520I21102J-37142D01*
G01Y2842260D01*
X6509360D01*
G03X6496640Y2829540I0J-12720D01*
G01Y2727940D01*
G03X6509360Y2715220I12720J0D01*
G01X6590640D01*
G03X6603360Y2727940I0J12720D01*
G01Y2829540D01*
G03X6590640Y2842260I-12720J0D01*
G01X6575220D01*
Y2865520D01*
G03X6580930Y2929470I-25220J34482D01*
G02X6588280Y2946640I7352J7011D01*
G01X6599110D01*
X6624780Y2920970D01*
Y2648150D01*
X6674350Y2598580D01*
X6697280D01*
Y2583800D01*
G03X6710000Y2571080I12720J0D01*
G01X6724780D01*
Y2510020D01*
G02X6707010Y2503290I-10160J1D01*
G03X6640520Y2500220I-32010J-28290D01*
G01X6564200D01*
X6524020Y2540400D01*
G02X6531200Y2557740I7186J7181D01*
G01X6590640D01*
G03X6603360Y2570460I0J12720D01*
G01Y2672060D01*
G03X6590640Y2684780I-12720J0D01*
G01X6509360D01*
G03X6496640Y2672060I0J-12720D01*
G01Y2592300D01*
G02X6479300Y2585120I-10159J6D01*
G01X6475220Y2589200D01*
Y3370380D01*
X6360530Y3485070D01*
G02X6367710Y3502410I7186J7181D01*
G01X6370800D01*
G03X6383520Y3515130I0J12720D01*
G01Y3654830D01*
G03X6370800Y3667550I-12720J0D01*
G01X6345220D01*
Y3690480D01*
X6260480Y3775220D01*
X5655520D01*
X5547850Y3667550D01*
X5469200D01*
G03X5456480Y3654830I0J-12720D01*
G01Y3515130D01*
G03X5469200Y3502410I12720J0D01*
G01X5570800D01*
G03X5583520Y3515130I0J12720D01*
G01Y3631880D01*
X5676420Y3724780D01*
X5894780D01*
Y3667550D01*
X5869200D01*
G03X5856480Y3654830I0J-12720D01*
G01Y3515130D01*
G03X5869200Y3502410I12720J0D01*
G01X5970800D01*
G03X5983520Y3515130I0J12720D01*
G01Y3654830D01*
G03X5970800Y3667550I-12720J0D01*
G01X5945220D01*
Y3724780D01*
X6239580D01*
X6279470Y3684890D01*
G02X6272290Y3667550I-7186J-7181D01*
G01X6269200D01*
G03X6256480Y3654830I0J-12720D01*
G01Y3515130D01*
G03X6269200Y3502410I12720J0D01*
G01X6294780D01*
Y3479480D01*
X6424780Y3349480D01*
Y3153290D01*
X6419020D01*
X6418360Y3153470D01*
G03X6415000Y3153920I-3354J-12271D01*
G01X6357950D01*
X6250220Y3261650D01*
Y3282450D01*
X6275800D01*
G03X6288520Y3295170I0J12720D01*
G01Y3434870D01*
G03X6275800Y3447590I-12720J0D01*
G01X6174200D01*
G03X6161480Y3434870I0J-12720D01*
G01Y3295170D01*
G03X6174200Y3282450I12720J0D01*
G01X6199780D01*
Y3240750D01*
X6322280Y3118250D01*
Y3061200D01*
G03X6331360Y3049010I12723J0D01*
G01X6334980Y3047930D01*
Y3002070D01*
X6331360Y3000990D01*
G03X6326360Y2998130I3651J-12184D01*
G02X6312270Y2998400I-6905J7453D01*
G01X6202720Y3107950D01*
Y3141200D01*
G03X6190000Y3153920I-12720J0D01*
G01X6110000D01*
G03X6097280Y3141200I0J-12720D01*
G01Y3061200D01*
G03X6106360Y3049010I12723J0D01*
G01X6109980Y3047930D01*
Y3002070D01*
X6106360Y3000990D01*
G03X6097280Y2988800I3643J-12190D01*
G01Y2974020D01*
X6059480D01*
G03X5995010Y2979230I-34484J-25219D01*
G02X5977720Y2986460I-7132J7234D01*
G01Y2988800D01*
G03X5968640Y3000990I-12723J0D01*
G01X5965020Y3002070D01*
Y3047930D01*
X5968640Y3049010D01*
G03X5977720Y3061200I-3643J12190D01*
G01Y3141200D01*
G03X5965000Y3153920I-12720J0D01*
G01X5907950D01*
X5850220Y3211650D01*
Y3282450D01*
X5875800D01*
G03X5888520Y3295170I0J12720D01*
G01Y3434870D01*
G03X5875800Y3447590I-12720J0D01*
G01X5774200D01*
G03X5761480Y3434870I0J-12720D01*
G01Y3295170D01*
G03X5774200Y3282450I12720J0D01*
G01X5799780D01*
Y3190750D01*
X5872280Y3118250D01*
Y3079310D01*
G02X5854940Y3072130I-10159J6D01*
G01X5800650Y3126420D01*
X5777720D01*
Y3141200D01*
G03X5765000Y3153920I-12720J0D01*
G01X5685000D01*
G03X5672280Y3141200I0J-12720D01*
G01Y3061200D01*
G03X5681360Y3049010I12723J0D01*
G01X5684980Y3047930D01*
Y3002070D01*
X5681360Y3000990D01*
G03X5672280Y2988800I3643J-12190D01*
G01Y2974020D01*
X5659560D01*
X5658040Y2975880D01*
G03X5595010Y2979230I-33043J-27079D01*
G02X5577720Y2986460I-7132J7234D01*
G01Y2988800D01*
G03X5568640Y3000990I-12723J0D01*
G01X5565020Y3002070D01*
Y3047930D01*
X5568640Y3049010D01*
G03X5577720Y3061200I-3643J12190D01*
G01Y3141200D01*
G03X5565000Y3153920I-12720J0D01*
G01X5507950D01*
X5450220Y3211650D01*
Y3282450D01*
X5475800D01*
G03X5488520Y3295170I0J12720D01*
G01Y3434870D01*
G03X5475800Y3447590I-12720J0D01*
G01X5374200D01*
G03X5361480Y3434870I0J-12720D01*
G01Y3295170D01*
G03X5374200Y3282450I12720J0D01*
G01X5399780D01*
Y3190750D01*
X5472280Y3118250D01*
Y3079310D01*
G02X5454940Y3072130I-10159J6D01*
G01X5400650Y3126420D01*
X5377720D01*
Y3141200D01*
G03X5365000Y3153920I-12720J0D01*
G01X5285000D01*
G03X5272280Y3141200I0J-12720D01*
G01Y3061200D01*
G03X5281360Y3049010I12723J0D01*
G01X5284980Y3047930D01*
Y3002070D01*
X5281360Y3000990D01*
G03X5273120Y2993340I3643J-12187D01*
G02X5259440Y2987720I-9487J3634D01*
G03X5219930Y2985480I-17612J-38920D01*
G02X5204560Y2994210I-5209J8725D01*
G01Y3013640D01*
G03X5191840Y3026360I-12720J0D01*
G01X4958160D01*
G03X4945440Y3013640I0J-12720D01*
G01Y2982580D01*
X4887160D01*
X4879800Y2975220D01*
X4854340D01*
X4853350Y2979020D01*
G03X4841040Y2988520I-12310J-3226D01*
G01X4725780D01*
G02X4722190Y2997190I4J5080D01*
G01X4725000Y3000000D01*
Y3001540D01*
X4784940Y3061480D01*
X4841040D01*
G03X4853760Y3074200I0J12720D01*
G01Y3175800D01*
G03X4841040Y3188520I-12720J0D01*
G01X4784940D01*
X4762720Y3210740D01*
Y3385520D01*
X4837720Y3460520D01*
Y3531490D01*
G02X4842300Y3536540I5079J-4D01*
G03X4853760Y3549200I-1263J12660D01*
G01Y3650800D01*
G03X4841040Y3663520I-12720J0D01*
G01X4725000D01*
Y3736480D01*
X4841040D01*
G03X4853760Y3749200I0J12720D01*
G01Y3790060D01*
X4893620Y3829920D01*
X4945440D01*
Y3811360D01*
G03X4958160Y3798640I12720J0D01*
G01X5191840D01*
G03X5204560Y3811360I0J12720D01*
G01Y3829920D01*
X5261800D01*
X5263280Y3827440D01*
G03X5274200Y3821240I10920J6517D01*
G01X5375800D01*
G03X5388520Y3833960I0J12720D01*
G01Y3966040D01*
G03X5375800Y3978760I-12720J0D01*
G01X5274200D01*
G03X5261480Y3966040I0J-12720D01*
G01Y3955360D01*
X5204560D01*
Y3973920D01*
G03X5191840Y3986640I-12720J0D01*
G01X4958160D01*
G03X4945440Y3973920I0J-12720D01*
G01Y3955360D01*
X4841660D01*
X4749820Y3863520D01*
X4725000D01*
Y5375000D01*
X3525000D01*
X3287500Y5612500D01*
Y6025000D01*
X3237500Y6075000D01*
X3125000D01*
X3075000Y6025000D01*
Y5575000D01*
X3925000Y4725000D01*
Y4600000D01*
X3675000D01*
X3195060Y5079940D01*
G02X3202250Y5097280I7188J7180D01*
G01X3275000D01*
G03X3287720Y5110000I0J12720D01*
G01Y5290000D01*
G03X3275000Y5302720I-12720J0D01*
G01X3125000D01*
G03X3112280Y5290000I0J-12720D01*
G01Y5125000D01*
X1525000D01*
X800000Y4400000D01*
X312500D01*
X300000Y4387500D01*
Y3187500D01*
X337500Y3150000D01*
X1137500D01*
X1175000Y3112500D01*
Y3053360D01*
X1070460D01*
G03X1057740Y3040640I0J-12720D01*
G01Y2959360D01*
G03X1070460Y2946640I12720J0D01*
G01X1175000D01*
Y2925000D01*
X1137500Y2887500D01*
X300000D01*
Y807700D01*
G03X104770Y699660I98001J-407500D01*
G37*
G36*
G01X350000Y2773720D02*
Y2825000D01*
X1071770D01*
Y2819200D01*
X1071580Y2818520D01*
G03X1071080Y2815000I12218J-3531D01*
G01Y2735000D01*
G03X1083800Y2722280I12720J0D01*
G01X1163800D01*
G03X1164380Y2722290I71J12721D01*
G02X1175000Y2712140I461J-10148D01*
G01Y2700000D01*
X875000Y2400000D01*
X450000D01*
X350000Y2500000D01*
Y2608280D01*
X545000D01*
G03X557720Y2621000I0J12720D01*
G01Y2761000D01*
G03X545000Y2773720I-12720J0D01*
G01X350000D01*
G37*
G36*
G01X2231750Y552990D02*
X1706750D01*
Y927990D01*
X2231750D01*
Y552990D01*
G37*
G36*
G01X2442740Y1400710D02*
X1917740D01*
Y1775710D01*
X2442740D01*
Y1400710D01*
G37*
G36*
G01X2450000Y2250000D02*
X1925000D01*
Y2625000D01*
X2450000D01*
Y2250000D01*
G37*
G36*
G01X2600000Y150000D02*
X2550000Y200000D01*
Y825000D01*
X2775000Y1050000D01*
Y2937500D01*
X2912500Y3075000D01*
X3750000D01*
X4025000Y3350000D01*
Y3900000D01*
X4158000D01*
X4181000Y3923000D01*
Y4277000D01*
X4156000Y4302000D01*
X4025000D01*
Y4477000D01*
X4027000Y4479000D01*
X4195000D01*
X4216000Y4500000D01*
Y4673000D01*
X4194000Y4695000D01*
X4193500Y4694500D01*
X4025000D01*
Y4823640D01*
X4191840D01*
G03X4204560Y4836360I0J12720D01*
G01Y4998920D01*
G03X4191840Y5011640I-12720J0D01*
G01X4025000D01*
Y5275000D01*
X4625000D01*
Y3100000D01*
X4316060Y2791060D01*
G02X4298720Y2798250I-7180J7188D01*
G01Y2870000D01*
G03X4286000Y2882720I-12720J0D01*
G01X4146000D01*
G03X4133280Y2870000I0J-12720D01*
G01Y2680000D01*
G03X4146000Y2667280I12720J0D01*
G01X4180020D01*
G02X4183610Y2658610I-4J-5080D01*
G01X4180220Y2655220D01*
X3505200D01*
G03X3432520Y2629540I-30200J-30218D01*
G01X3432040Y2625000D01*
X3400000D01*
Y2509220D01*
X2815500D01*
G03X2802780Y2496500I0J-12720D01*
G01Y1916500D01*
G03X2815500Y1903780I12720J0D01*
G01X3400000D01*
Y1659220D01*
X2815500D01*
G03X2802780Y1646500I0J-12720D01*
G01Y1066500D01*
G03X2815500Y1053780I12720J0D01*
G01X3379250D01*
G02X3386440Y1036440I2J-10160D01*
G01X3175000Y825000D01*
Y809220D01*
X2590500D01*
G03X2577780Y796500I0J-12720D01*
G01Y216500D01*
G03X2590500Y203780I12720J0D01*
G01X3154250D01*
G02X3161440Y186440I2J-10160D01*
G01X3125000Y150000D01*
X2600000D01*
G37*
G36*
G01X3816640Y888280D02*
Y588280D01*
X3316640D01*
Y888280D01*
X3816640D01*
G37*
G36*
G01X4050000Y1725000D02*
Y1425000D01*
X3550000D01*
Y1725000D01*
X4050000D01*
G37*
G36*
G01X4041640Y2563280D02*
Y2263280D01*
X3541640D01*
Y2563280D01*
X4041640D01*
G37*
G36*
G01X4275000Y378720D02*
Y459980D01*
X4297930D01*
X4299010Y456360D01*
G03X4311200Y447280I12190J3643D01*
G01X4391200D01*
G03X4403760Y458000I0J12718D01*
G01X4404440Y462280D01*
X4454910D01*
X4455980Y461750D01*
G03Y538250I19020J38250D01*
G01X4454910Y537720D01*
X4404440D01*
X4403760Y542000D01*
G03X4391200Y552720I-12560J-1998D01*
G01X4311200D01*
G03X4299010Y543640I0J-12723D01*
G01X4297930Y540020D01*
X4275000D01*
Y759980D01*
X4297930D01*
X4299010Y756360D01*
G03X4311200Y747280I12190J3643D01*
G01X4391200D01*
G03X4403760Y758000I0J12718D01*
G01X4404440Y762280D01*
X4465620D01*
X4622920Y919580D01*
X4697600D01*
X4698670Y919050D01*
G03Y995550I19020J38250D01*
G01X4697600Y995020D01*
X4681320D01*
G02X4671300Y1006860I-2J10158D01*
G03X4671470Y1008960I-12552J2073D01*
G01Y1037280D01*
X4759380D01*
X4834120Y962530D01*
X4834500Y961400D01*
G03X4865490Y933350I40499J13600D01*
G02X4870420Y916260I-2255J-9907D01*
G01X4762280Y808120D01*
Y398920D01*
X4742080Y378720D01*
X4732720D01*
Y411000D01*
G03X4720000Y423720I-12720J0D01*
G01X4530000D01*
G03X4517280Y411000I0J-12720D01*
G01Y378720D01*
X4275000D01*
G37*
G36*
G01X5137720Y260220D02*
Y340000D01*
G03X5125000Y352720I-12720J0D01*
G01X5005590D01*
G02X4998410Y370060I4J10158D01*
G01X5087720Y459380D01*
Y547280D01*
X5125000D01*
G03X5137720Y560000I0J12720D01*
G01Y820000D01*
G03X5125000Y832720I-12720J0D01*
G01X5087720D01*
Y859380D01*
X5215140Y986790D01*
G02X5232440Y978720I7181J-7184D01*
G03X5294020Y936750I42558J-3719D01*
G01X5295090Y937280D01*
X5359380D01*
X5412280Y884380D01*
Y832720D01*
X5375000D01*
G03X5362280Y820000I0J-12720D01*
G01Y560000D01*
G03X5375000Y547280I12720J0D01*
G01X5525000D01*
G03X5537720Y560000I0J12720D01*
G01Y820000D01*
G03X5525000Y832720I-12720J0D01*
G01X5487720D01*
Y915620D01*
X5390620Y1012720D01*
X5295090D01*
X5294020Y1013250D01*
G03X5271280Y1017560I-19028J-38248D01*
G02X5263210Y1034860I-886J10119D01*
G01X5294120Y1065780D01*
X5344910D01*
X5345980Y1065250D01*
G03X5365000Y1060780I19024J38249D01*
G01X5505000D01*
G03X5547360Y1109040I0J42721D01*
G02X5564620Y1117540I10075J1316D01*
G01X5612280Y1069880D01*
Y970090D01*
X5611750Y969020D01*
G03X5688250I38250J-19020D01*
G01X5687720Y970090D01*
Y1101120D01*
X5545880Y1242970D01*
X5545500Y1244100D01*
G03X5505000Y1273220I-40500J-13604D01*
G01X5365000D01*
G03X5359460Y1272860I-6J-42720D01*
G02X5350960Y1290120I-1316J10075D01*
G01X5375620Y1314780D01*
X5505000D01*
G03Y1400220I0J42720D01*
G01X5365000D01*
G03X5324500Y1371100I0J-42724D01*
G01X5324120Y1369970D01*
X4933740Y979580D01*
G02X4916650Y984510I-7183J7185D01*
G03X4888600Y1015500I-41650J-9509D01*
G01X4887470Y1015880D01*
X4790620Y1112720D01*
X4671470D01*
Y1141040D01*
G03X4658750Y1153760I-12720J0D01*
G01X4557150D01*
G03X4544430Y1141040I0J-12720D01*
G01Y1008960D01*
G03X4557150Y996240I12720J0D01*
G01X4568370D01*
G02X4575550Y978900I-4J-10158D01*
G01X4434380Y837720D01*
X4404440D01*
X4403760Y842000D01*
G03X4391200Y852720I-12560J-1998D01*
G01X4311200D01*
G03X4299010Y843640I0J-12723D01*
G01X4297930Y840020D01*
X4275000D01*
Y1247860D01*
X4357210Y1330070D01*
G02X4373010Y1328260I7180J-7188D01*
G03X4383800Y1322280I10790J6744D01*
G01X4463800D01*
G03X4475990Y1331360I0J12723D01*
G01X4477070Y1334980D01*
X4522930D01*
X4524010Y1331360D01*
G03X4536200Y1322280I12190J3643D01*
G01X4616200D01*
G03X4628760Y1333000I0J12718D01*
G01X4629440Y1337280D01*
X4704910D01*
X4705980Y1336750D01*
G03Y1413250I19020J38250D01*
G01X4704910Y1412720D01*
X4629440D01*
X4628760Y1417000D01*
G03X4616200Y1427720I-12560J-1998D01*
G01X4536200D01*
G03X4524010Y1418640I0J-12723D01*
G01X4522930Y1415020D01*
X4477070D01*
X4475990Y1418640D01*
G03X4463800Y1427720I-12190J-3643D01*
G01X4383800D01*
G03X4377730Y1426180I0J-12733D01*
G02X4362720Y1435110I-4851J8926D01*
G01Y1589890D01*
G02X4377730Y1598820I10159J4D01*
G03X4383800Y1597280I6070J11193D01*
G01X4463800D01*
G03X4475990Y1606360I0J12723D01*
G01X4477070Y1609980D01*
X4522930D01*
X4524010Y1606360D01*
G03X4536200Y1597280I12190J3643D01*
G01X4616200D01*
G03X4628760Y1608000I0J12718D01*
G01X4629440Y1612280D01*
X4690620D01*
X4737470Y1659120D01*
X4738600Y1659500D01*
G03X4684500Y1713600I-13600J40500D01*
G01X4684120Y1712470D01*
X4659380Y1687720D01*
X4629440D01*
X4628760Y1692000D01*
G03X4616200Y1702720I-12560J-1998D01*
G01X4536200D01*
G03X4524010Y1693640I0J-12723D01*
G01X4522930Y1690020D01*
X4477070D01*
X4475990Y1693640D01*
G03X4463800Y1702720I-12190J-3643D01*
G01X4454020D01*
Y1740220D01*
X4389020Y1805220D01*
X4275000D01*
Y2011630D01*
X4281190D01*
X4282200Y2011170D01*
G03X4286400Y2009500I17862J38805D01*
G01X4287530Y2009120D01*
X4328530Y1968130D01*
Y1858960D01*
G03X4341250Y1846240I12720J0D01*
G01X4442850D01*
G03X4455570Y1858960I0J12720D01*
G01Y1950420D01*
X4533430Y2028280D01*
X4767280D01*
Y1996000D01*
G03X4780000Y1983280I12720J0D01*
G01X4970000D01*
G03X4982720Y1996000I0J12720D01*
G01Y2028280D01*
X5098320D01*
X5151820Y2081780D01*
X5344910D01*
X5345980Y2081250D01*
G03X5365000Y2076780I19024J38249D01*
G01X5505000D01*
G03Y2162220I0J42720D01*
G01X5365000D01*
G03X5345980Y2157750I4J-42719D01*
G01X5344910Y2157220D01*
X5295120D01*
G02X5287120Y2173650I-3J10161D01*
G03X5294000Y2186400I-33610J26368D01*
G01X5294380Y2187530D01*
X5315620Y2208780D01*
X5344910D01*
X5345980Y2208250D01*
G03X5365000Y2203780I19024J38249D01*
G01X5505000D01*
G03Y2289220I0J42720D01*
G01X5365000D01*
G03X5345980Y2284750I4J-42719D01*
G01X5344910Y2284220D01*
X5284380D01*
X5241030Y2240880D01*
X5239900Y2240500D01*
G03X5219880Y2173650I13602J-40496D01*
G02X5211880Y2157220I-7997J-6269D01*
G01X5120580D01*
X5067080Y2103720D01*
X4982720D01*
Y2136000D01*
G03X4970000Y2148720I-12720J0D01*
G01X4780000D01*
G03X4767280Y2136000I0J-12720D01*
G01Y2103720D01*
X4502190D01*
X4402230Y2003760D01*
X4399580D01*
X4340880Y2062470D01*
X4340500Y2063600D01*
G03X4282200Y2088830I-40496J-13602D01*
G01X4281190Y2088370D01*
X4275000D01*
Y2097860D01*
X4357210Y2180070D01*
G02X4373010Y2178260I7180J-7188D01*
G03X4383800Y2172280I10790J6744D01*
G01X4463800D01*
G03X4475990Y2181360I0J12723D01*
G01X4477070Y2184980D01*
X4522930D01*
X4524010Y2181360D01*
G03X4536200Y2172280I12190J3643D01*
G01X4616200D01*
G03X4628760Y2183000I0J12718D01*
G01X4629440Y2187280D01*
X5004910D01*
X5005980Y2186750D01*
G03Y2263250I19020J38250D01*
G01X5004910Y2262720D01*
X4629440D01*
X4628760Y2267000D01*
G03X4616200Y2277720I-12560J-1998D01*
G01X4536200D01*
G03X4524010Y2268640I0J-12723D01*
G01X4522930Y2265020D01*
X4477070D01*
X4475990Y2268640D01*
G03X4463800Y2277720I-12190J-3643D01*
G01X4383800D01*
G03X4377730Y2276180I0J-12733D01*
G02X4362720Y2285110I-4851J8926D01*
G01Y2439890D01*
G02X4377730Y2448820I10159J4D01*
G03X4383800Y2447280I6070J11193D01*
G01X4463800D01*
G03X4475990Y2456360I0J12723D01*
G01X4477070Y2459980D01*
X4522930D01*
X4524010Y2456360D01*
G03X4536200Y2447280I12190J3643D01*
G01X4616200D01*
G03X4628920Y2460000I0J12720D01*
G01Y2524380D01*
X4662470Y2557920D01*
X4663600Y2558300D01*
G03X4609500Y2612400I-13600J40500D01*
G01X4609120Y2611270D01*
X4550580Y2552720D01*
X4536200D01*
G03X4524010Y2543640I0J-12723D01*
G01X4522930Y2540020D01*
X4477070D01*
X4475990Y2543640D01*
G03X4463800Y2552720I-12190J-3643D01*
G01X4454020D01*
Y2586320D01*
X4382670Y2657670D01*
X4433940Y2708940D01*
G02X4451280Y2701750I7180J-7188D01*
G01Y2680000D01*
G03X4464000Y2667280I12720J0D01*
G01X4588380D01*
X4593380Y2662280D01*
X4707290D01*
X4707830Y2657820D01*
G03X4720460Y2646640I12630J1544D01*
G01X4822060D01*
G03X4834780Y2659360I0J12720D01*
G01Y2700020D01*
X4847880Y2713110D01*
G02X4865220Y2705930I7182J-7184D01*
G01Y2659360D01*
G03X4877940Y2646640I12720J0D01*
G01X4979540D01*
G03X4992260Y2659360I0J12720D01*
G01Y2740640D01*
G03X4990540Y2747020I-12718J-7D01*
G02X4999330Y2762280I8789J5099D01*
G01X5010580D01*
X5072280Y2700580D01*
Y2661200D01*
G03X5081360Y2649010I12723J0D01*
G01X5084980Y2647930D01*
Y2602070D01*
X5081360Y2600990D01*
G03X5072280Y2588800I3643J-12190D01*
G01Y2508800D01*
G03X5085000Y2496080I12720J0D01*
G01X5165000D01*
G03X5177720Y2508800I0J12720D01*
G01Y2588800D01*
G03X5168640Y2600990I-12723J0D01*
G01X5165020Y2602070D01*
Y2647930D01*
X5168640Y2649010D01*
G03X5177720Y2661200I-3643J12190D01*
G01Y2718250D01*
X5242190Y2782730D01*
X5244590Y2782490D01*
G03X5221270Y2857660I4213J42509D01*
G02X5204560Y2865430I-6549J7770D01*
G01Y2903390D01*
G02X5219930Y2912120I10161J5D01*
G03X5259440Y2909880I21898J36680D01*
G02X5273120Y2904260I4193J-9254D01*
G03X5285000Y2896080I11880J4537D01*
G01X5365000D01*
G03X5377720Y2908800I0J12720D01*
G01Y2988800D01*
G03X5368640Y3000990I-12723J0D01*
G01X5365020Y3002070D01*
Y3047930D01*
X5368640Y3049010D01*
G03X5377720Y3061200I-3643J12190D01*
G01Y3065750D01*
G02X5386390Y3069340I5079J-2D01*
G01X5447280Y3008450D01*
Y2979370D01*
X5472280Y2954370D01*
Y2931750D01*
X5399780Y2859250D01*
Y2571480D01*
X5378360D01*
Y2597060D01*
G03X5365640Y2609780I-12720J0D01*
G01X5284360D01*
G03X5271640Y2597060I0J-12720D01*
G01Y2536080D01*
X5198280Y2462720D01*
X5070090D01*
X5069020Y2463250D01*
G03X5007310Y2426610I-19021J-38251D01*
G01X5007130Y2421720D01*
X4982720D01*
Y2454000D01*
G03X4970000Y2466720I-12720J0D01*
G01X4780000D01*
G03X4767280Y2454000I0J-12720D01*
G01Y2314000D01*
G03X4780000Y2301280I12720J0D01*
G01X4970000D01*
G03X4982720Y2314000I0J12720D01*
G01Y2317980D01*
G02X5000060Y2325160I10158J-4D01*
G01X5006130Y2319100D01*
X5986340D01*
X6149980Y2482740D01*
X6190640D01*
G03X6203360Y2495460I0J12720D01*
G01Y2508540D01*
X6243960D01*
X6246500Y2511080D01*
X6296760D01*
X6297440Y2506800D01*
G03X6310000Y2496080I12560J1998D01*
G01X6367050D01*
X6411470Y2451660D01*
X6462670D01*
X6470230Y2444110D01*
X6469990Y2441710D01*
G03X6555190Y2439210I42513J-4205D01*
G02X6565340Y2449780I10150J412D01*
G01X6640520D01*
G03X6676140Y2432300I34477J25223D01*
G02X6684980Y2416670I277J-10158D01*
G03X6679530Y2398000I29269J-18674D01*
G01Y2350220D01*
X6134480D01*
G03X6065170Y2300260I-34481J-25221D01*
G02X6056890Y2284220I-8284J-5881D01*
G01X5698590D01*
X5697520Y2284750D01*
G03Y2208250I-19020J-38250D01*
G01X5698590Y2208780D01*
X6002690D01*
G02X6011780Y2194080I0J-10160D01*
G03X6024780Y2140520I38221J-19081D01*
G01Y1415050D01*
X6202730Y1237110D01*
X6202490Y1234710D01*
G03X6245000Y1187780I42510J-4212D01*
G01X6385000D01*
G03Y1273220I0J42720D01*
G01X6245000D01*
G03X6240790Y1273010I21J-42719D01*
G01X6238390Y1272770D01*
X6075220Y1435950D01*
Y2140520D01*
G03X6088220Y2194080I-25221J34479D01*
G02X6097310Y2208780I9090J4540D01*
G01X6224910D01*
X6225980Y2208250D01*
G03X6245000Y2203780I19024J38249D01*
G01X6385000D01*
G03Y2289220I0J42720D01*
G01X6245000D01*
G03X6225980Y2284750I4J-42719D01*
G01X6224910Y2284220D01*
X6131790D01*
G02X6128410Y2293090I-2J5078D01*
G03X6134480Y2299780I-28427J31891D01*
G01X6577280D01*
G02X6584010Y2282010I-1J-10160D01*
G03X6587080Y2215520I28290J-32010D01*
G01Y2051850D01*
X6626850Y2012080D01*
X6627250D01*
X6630440Y2008890D01*
G02X6626850Y2000220I-3592J-3591D01*
G01X6589550D01*
X6480050Y1890720D01*
X6419480D01*
G03X6385000Y1908220I-34480J-25218D01*
G01X6245000D01*
G03Y1822780I0J-42720D01*
G01X6385000D01*
G03X6419480Y1840280I0J42718D01*
G01X6481790D01*
G02X6488970Y1822940I-6J-10159D01*
G01X6429750Y1763720D01*
X6419560D01*
X6418040Y1765580D01*
G03X6385000Y1781220I-33040J-27079D01*
G01X6245000D01*
G03Y1695780I0J-42720D01*
G01X6385000D01*
G03X6419480Y1713280I0J42718D01*
G01X6450650D01*
X6637150Y1899780D01*
X6789550D01*
X6816030Y1873300D01*
Y1871860D01*
G03X6813550Y1868940I25184J-23902D01*
G02X6805450I-4050J3059D01*
G03X6753190Y1872540I-27696J-20939D01*
G02X6738810I-7190J7179D01*
G03X6679530Y1848000I-24561J-24540D01*
G01Y1800220D01*
X6593250D01*
X6429750Y1636720D01*
X6419560D01*
X6418040Y1638580D01*
G03X6385000Y1654220I-33040J-27079D01*
G01X6245000D01*
G03Y1568780I0J-42720D01*
G01X6385000D01*
G03X6419480Y1586280I0J42718D01*
G01X6450650D01*
X6614150Y1749780D01*
X6679530D01*
Y1702000D01*
G03X6722710Y1668330I34717J0D01*
G02X6735280Y1657370I2470J-9856D01*
G03X6752190Y1618520I42470J-4620D01*
G02X6746110Y1600220I-6079J-8140D01*
G01X6564550D01*
X6474050Y1509720D01*
X6419480D01*
G03X6385000Y1527220I-34480J-25218D01*
G01X6245000D01*
G03Y1441780I0J-42720D01*
G01X6385000D01*
G03X6419480Y1459280I0J42718D01*
G01X6494950D01*
X6585450Y1549780D01*
X6835400D01*
X6929970Y1644350D01*
Y1678140D01*
G03X6932450Y1681060I-25184J23902D01*
G02X6940550I4050J-3059D01*
G03X6995950I27700J20940D01*
G02X7004050I4050J-3059D01*
G03X7006530Y1678140I27664J20982D01*
G01Y1658600D01*
X6849780Y1501850D01*
Y1478920D01*
X6835000D01*
G03X6822280Y1466200I0J-12720D01*
G01Y1451420D01*
X6815750D01*
X6707360Y1343030D01*
G02X6690020Y1350210I-7181J7186D01*
G01Y1372930D01*
X6693640Y1374010D01*
G03X6702720Y1386200I-3643J12190D01*
G01Y1466200D01*
G03X6690000Y1478920I-12720J0D01*
G01X6610000D01*
G03X6597280Y1466200I0J-12720D01*
G01Y1386200D01*
G03X6606360Y1374010I12723J0D01*
G01X6609980Y1372930D01*
Y1327070D01*
X6606360Y1325990D01*
G03X6597280Y1313800I3643J-12190D01*
G01Y1299020D01*
X6538350D01*
X6506610Y1267270D01*
X6504210Y1267510D01*
G03X6542510Y1229210I-4210J-42510D01*
G01X6542270Y1231610D01*
X6559250Y1248580D01*
X6597280D01*
Y1233800D01*
G03X6610000Y1221080I12720J0D01*
G01X6690000D01*
G03X6702720Y1233800I0J12720D01*
G01Y1267050D01*
X6812270Y1376600D01*
G02X6826360Y1376870I7185J-7183D01*
G03X6831360Y1374010I8651J9324D01*
G01X6834980Y1372930D01*
Y1327070D01*
X6831360Y1325990D01*
G03X6822280Y1313800I3643J-12190D01*
G01Y1233800D01*
G03X6835000Y1221080I12720J0D01*
G01X6915000D01*
G03X6927720Y1233800I0J12720D01*
G01Y1248580D01*
X7022280D01*
Y1233800D01*
G03X7035000Y1221080I12720J0D01*
G01X7092050D01*
X7122370Y1190760D01*
X7123570D01*
X7174780Y1139550D01*
Y834480D01*
G03X7162660Y779250I25221J-34479D01*
G02X7153780Y764150I-8879J-4940D01*
G01X6955120D01*
X6906860Y812410D01*
G02X6910450Y821080I3592J3591D01*
G01X6915000D01*
G03X6919780Y822010I5J12721D01*
G02X6933470Y814980I3815J-9415D01*
G03X7009480Y799780I41529J10020D01*
G01X7036650D01*
X7057950Y821080D01*
X7115000D01*
G03X7127720Y833800I0J12720D01*
G01Y913800D01*
G03X7118640Y925990I-12723J0D01*
G01X7115020Y927070D01*
Y972930D01*
X7118640Y974010D01*
G03X7127720Y986200I-3643J12190D01*
G01Y1066200D01*
G03X7115000Y1078920I-12720J0D01*
G01X7100220D01*
Y1115520D01*
G03X7049780I-25220J34480D01*
G01Y1078920D01*
X7035000D01*
G03X7022280Y1066200I0J-12720D01*
G01Y986200D01*
G03X7031360Y974010I12723J0D01*
G01X7034980Y972930D01*
Y927070D01*
X7031360Y925990D01*
G03X7022280Y913800I3643J-12190D01*
G01Y856750D01*
X7015750Y850220D01*
X7009560D01*
X7008040Y852080D01*
G03X6945010Y855430I-33043J-27079D01*
G02X6927720Y862660I-7132J7234D01*
G01Y913800D01*
G03X6918640Y925990I-12723J0D01*
G01X6915020Y927070D01*
Y972930D01*
X6918640Y974010D01*
G03X6927720Y986200I-3643J12190D01*
G01Y1066200D01*
G03X6915000Y1078920I-12720J0D01*
G01X6900220D01*
Y1089550D01*
X6918390Y1107730D01*
X6920790Y1107490D01*
G03X6882490Y1145790I4210J42510D01*
G01X6882730Y1143390D01*
X6875000Y1135670D01*
X6835450Y1175220D01*
X6539550D01*
X6445060Y1080730D01*
G02X6427720Y1087910I-7181J7186D01*
G01Y1133500D01*
G03X6415000Y1146220I-12720J0D01*
G01X6215000D01*
G03X6204150Y1140150I0J-12732D01*
G01X6202670Y1137720D01*
X6159380D01*
X6037280Y1015620D01*
Y337990D01*
X5959510Y260220D01*
X5937720D01*
Y340000D01*
G03X5925000Y352720I-12720J0D01*
G01X5775000D01*
G03X5762280Y340000I0J-12720D01*
G01Y260220D01*
X5537720D01*
Y340000D01*
G03X5525000Y352720I-12720J0D01*
G01X5375000D01*
G03X5362280Y340000I0J-12720D01*
G01Y260220D01*
X5137720D01*
G37*
G36*
G01X5661310Y2394540D02*
G02X5654130Y2411880I4J10158D01*
G01X5724980Y2482740D01*
X5765640D01*
G03X5778360Y2495460I0J12720D01*
G01Y2506470D01*
X5786400D01*
X5787860Y2503900D01*
G03X5859500Y2499810I37141J21102D01*
G02X5875390Y2500470I8208J-5991D01*
G03X5885000Y2496080I9610J8323D01*
G01X5965000D01*
G03X5977720Y2508800I0J12720D01*
G01Y2588800D01*
G03X5968640Y2600990I-12723J0D01*
G01X5965020Y2602070D01*
Y2647930D01*
X5968640Y2649010D01*
G03X5977720Y2661200I-3643J12190D01*
G01Y2741200D01*
G03X5965000Y2753920I-12720J0D01*
G01X5885000D01*
G03X5872280Y2741200I0J-12720D01*
G01Y2661200D01*
G03X5881360Y2649010I12723J0D01*
G01X5884980Y2647930D01*
Y2602070D01*
X5881360Y2600990D01*
G03X5872280Y2588800I3643J-12190D01*
G01Y2574020D01*
X5850220D01*
Y2903550D01*
X5863610Y2916940D01*
G02X5872280Y2913350I3591J-3592D01*
G01Y2908800D01*
G03X5885000Y2896080I12720J0D01*
G01X5965000D01*
G03X5977720Y2908800I0J12720D01*
G01Y2911140D01*
G02X5995010Y2918370I10158J-4D01*
G03X6059480Y2923580I29986J30429D01*
G01X6097280D01*
Y2908800D01*
G03X6110000Y2896080I12720J0D01*
G01X6190000D01*
G03X6202720Y2908800I0J12720D01*
G01Y2988800D01*
G03X6193640Y3000990I-12723J0D01*
G01X6190020Y3002070D01*
Y3024790D01*
G02X6207360Y3031970I10159J-6D01*
G01X6282330Y2957000D01*
X6224780Y2899450D01*
Y2586520D01*
X6215260D01*
X6212720Y2583980D01*
X6203360D01*
Y2597060D01*
G03X6190640Y2609780I-12720J0D01*
G01X6109360D01*
G03X6096640Y2597060I0J-12720D01*
G01Y2536080D01*
X5955100Y2394540D01*
X5661310D01*
G37*
G36*
G01X5261310D02*
G02X5254130Y2411880I4J10158D01*
G01X5324980Y2482740D01*
X5365640D01*
G03X5378360Y2495460I0J12720D01*
G01Y2506470D01*
X5386400D01*
X5387860Y2503900D01*
G03X5459500Y2499810I37141J21102D01*
G02X5475390Y2500470I8208J-5991D01*
G03X5485000Y2496080I9610J8323D01*
G01X5565000D01*
G03X5577720Y2508800I0J12720D01*
G01Y2588800D01*
G03X5568640Y2600990I-12723J0D01*
G01X5565020Y2602070D01*
Y2647930D01*
X5568640Y2649010D01*
G03X5577720Y2661200I-3643J12190D01*
G01Y2741200D01*
G03X5565000Y2753920I-12720J0D01*
G01X5485000D01*
G03X5472280Y2741200I0J-12720D01*
G01Y2661200D01*
G03X5481360Y2649010I12723J0D01*
G01X5484980Y2647930D01*
Y2602070D01*
X5481360Y2600990D01*
G03X5472280Y2588800I3643J-12190D01*
G01Y2574020D01*
X5450220D01*
Y2838350D01*
X5507950Y2896080D01*
X5565000D01*
G03X5577720Y2908800I0J12720D01*
G01Y2911140D01*
G02X5595010Y2918370I10158J-4D01*
G03X5658040Y2921720I29987J30429D01*
G01X5659560Y2923580D01*
X5672280D01*
Y2908800D01*
G03X5685000Y2896080I12720J0D01*
G01X5765000D01*
G03X5777720Y2908800I0J12720D01*
G01Y2988800D01*
G03X5768640Y3000990I-12723J0D01*
G01X5765020Y3002070D01*
Y3047930D01*
X5768640Y3049010D01*
G03X5777720Y3061200I-3643J12190D01*
G01Y3065750D01*
G02X5786390Y3069340I5079J-2D01*
G01X5847280Y3008450D01*
Y2979370D01*
X5850990Y2975660D01*
X5799780Y2924450D01*
Y2571480D01*
X5778360D01*
Y2597060D01*
G03X5765640Y2609780I-12720J0D01*
G01X5684360D01*
G03X5671640Y2597060I0J-12720D01*
G01Y2536080D01*
X5598280Y2462720D01*
X5395090D01*
X5394020Y2463250D01*
G03X5335550Y2408600I-19022J-38252D01*
G02X5326170Y2394540I-9380J-3901D01*
G01X5261310D01*
G37*
G36*
G01X6118650Y125000D02*
X6024810Y218840D01*
X6112720Y306750D01*
Y984380D01*
X6190620Y1062280D01*
X6208910D01*
X6209890Y1061850D01*
G03X6215000Y1060780I5107J11651D01*
G01X6400590D01*
G02X6407770Y1043440I-6J-10159D01*
G01X6378520Y1014190D01*
Y953360D01*
X6352940D01*
G03X6340220Y940640I0J-12720D01*
G01Y859360D01*
G03X6352940Y846640I12720J0D01*
G01X6454540D01*
G03X6467260Y859360I0J12720D01*
G01Y940640D01*
G03X6454540Y953360I-12720J0D01*
G01X6428960D01*
Y993290D01*
X6560450Y1124780D01*
X6814550D01*
X6849780Y1089550D01*
Y1078920D01*
X6835000D01*
G03X6822280Y1066200I0J-12720D01*
G01Y986200D01*
G03X6831360Y974010I12723J0D01*
G01X6834980Y972930D01*
Y927070D01*
X6831360Y925990D01*
G03X6822280Y913800I3643J-12190D01*
G01Y899020D01*
X6702720D01*
Y913800D01*
G03X6693640Y925990I-12723J0D01*
G01X6690020Y927070D01*
Y972930D01*
X6693640Y974010D01*
G03X6702720Y986200I-3643J12190D01*
G01Y1066200D01*
G03X6690000Y1078920I-12720J0D01*
G01X6610000D01*
G03X6597280Y1066200I0J-12720D01*
G01Y986200D01*
G03X6606360Y974010I12723J0D01*
G01X6609980Y972930D01*
Y927070D01*
X6606360Y925990D01*
G03X6597280Y913800I3643J-12190D01*
G01Y833800D01*
G03X6610000Y821080I12720J0D01*
G01X6624780D01*
Y810450D01*
X6505450Y691120D01*
X6502330Y692390D01*
G03X6542390Y652330I-27330J-67390D01*
G01X6541120Y655450D01*
X6675220Y789550D01*
Y821080D01*
X6690000D01*
G03X6702720Y833800I0J12720D01*
G01Y848580D01*
X6822280D01*
Y833800D01*
G03X6835000Y821080I12720J0D01*
G01X6849780D01*
Y798150D01*
X6934220Y713710D01*
X7349380D01*
X7353210Y717540D01*
G02X7361880Y713950I3591J-3592D01*
G01Y669050D01*
G03X7374600Y656330I12720J0D01*
G01X7402450D01*
X7406440Y652340D01*
G02X7402850Y643670I-3592J-3591D01*
G01X7374600D01*
G03X7361880Y630950I0J-12720D01*
G01Y580150D01*
G03X7374600Y567430I12720J0D01*
G01X7425400D01*
G03X7438120Y580150I0J12720D01*
G01Y596140D01*
G02X7455460Y603320I10159J-6D01*
G01X7464000Y594780D01*
X7482430D01*
Y560310D01*
G03X7495150Y547590I12720J0D01*
G01X7634850D01*
G03X7647570Y560310I0J12720D01*
G01Y679690D01*
G03X7634850Y692410I-12720J0D01*
G01X7495150D01*
G03X7482430Y679690I0J-12720D01*
G01Y672210D01*
G02X7465090Y665030I-10159J6D01*
G01X7438120Y692000D01*
Y696900D01*
X7468440Y727220D01*
Y917610D01*
X7560300Y1009470D01*
G02X7577640Y1002290I7181J-7186D01*
G01Y955000D01*
G03X7590360Y942280I12720J0D01*
G01X7634360D01*
G03X7642360Y945110I0J12722D01*
G01X7643760Y946250D01*
X7650640D01*
Y938690D01*
X7728250Y861080D01*
G02X7724660Y852410I-3592J-3591D01*
G01X7715150D01*
G03X7702430Y839690I0J-12720D01*
G01Y720310D01*
G03X7715150Y707590I12720J0D01*
G01X7854850D01*
G03X7867570Y720310I0J12720D01*
G01Y754780D01*
X7884560D01*
X7913170Y726170D01*
X7912360Y723310D01*
G03X7911880Y719850I12230J-3460D01*
G01Y669050D01*
G03X7924600Y656330I12720J0D01*
G01X7975400D01*
G03X7988120Y669050I0J12720D01*
G01Y694610D01*
G02X8003650Y703240I10160J5D01*
G01X8040120D01*
X8057740Y685620D01*
Y634360D01*
G03X8070460Y621640I12720J0D01*
G01X8099780D01*
Y584480D01*
G03X8092710Y522030I25220J-34480D01*
G02X8085030Y505220I-7681J-6650D01*
G01X6312480D01*
X6244780Y437520D01*
Y312520D01*
X6150030Y217770D01*
X6148060Y217680D01*
G03X6135400Y134850I1935J-42678D01*
G01X6138740Y133640D01*
Y125000D01*
X6118650D01*
G37*
G36*
G01X6178090Y142810D02*
G03X6192680Y173060I-28088J32191D01*
G01X6192770Y175030D01*
X6305220Y287480D01*
Y412480D01*
X6337520Y444780D01*
X6811630D01*
G02X6820200Y429170I-4J-10160D01*
G03X6890730Y381030I36055J-22913D01*
G01X6921900D01*
X6946330Y405460D01*
X7801170D01*
G02X7810550Y391400I0J-10159D01*
G03Y358600I39450J-16400D01*
G02X7801170Y344540I-9380J-3901D01*
G01X6589550D01*
X6549780Y304770D01*
Y267210D01*
G03X6528630Y142990I25222J-68205D01*
G02X6522150Y125000I-6479J-7828D01*
G01X6427850D01*
G02X6421370Y142990I-1J10162D01*
G03X6328630I-46370J56010D01*
G02X6322150Y125000I-6479J-7828D01*
G01X6184770D01*
G02X6178090Y142810I3J10159D01*
G37*
G36*
G01X6621370Y142990D02*
G03X6600220Y267210I-46372J56015D01*
G01Y283870D01*
X6610450Y294100D01*
X8219570D01*
G02X8226760Y276760I2J-10160D01*
G01X8195860Y245860D01*
G02X8180870Y246540I-7184J7186D01*
G03X8078460Y144130I-55870J-46540D01*
G02X8079140Y129140I-6506J-7806D01*
G01X8075000Y125000D01*
X7976620D01*
G02X7970290Y143110I-1J10161D01*
G03X7879710I-45290J56890D01*
G02X7873380Y125000I-6329J-7949D01*
G01X7776620D01*
G02X7770290Y143110I-1J10161D01*
G03X7679710I-45290J56890D01*
G02X7673380Y125000I-6329J-7949D01*
G01X7576620D01*
G02X7570290Y143110I-1J10161D01*
G03X7479710I-45290J56890D01*
G02X7473380Y125000I-6329J-7949D01*
G01X7027850D01*
G02X7021370Y142990I-1J10162D01*
G03X6928630I-46370J56010D01*
G02X6922150Y125000I-6479J-7828D01*
G01X6827850D01*
G02X6821370Y142990I-1J10162D01*
G03X6728630I-46370J56010D01*
G02X6722150Y125000I-6479J-7828D01*
G01X6627850D01*
G02X6621370Y142990I-1J10162D01*
G37*
G36*
G01X6424780Y2896710D02*
Y2568300D01*
X6473640Y2519440D01*
G02X6466460Y2502100I-7186J-7181D01*
G01X6432370D01*
X6402720Y2531750D01*
Y2588800D01*
G03X6393640Y2600990I-12723J0D01*
G01X6390020Y2602070D01*
Y2647930D01*
X6393640Y2649010D01*
G03X6402720Y2661200I-3643J12190D01*
G01Y2741200D01*
G03X6390000Y2753920I-12720J0D01*
G01X6310000D01*
G03X6297280Y2741200I0J-12720D01*
G01Y2661200D01*
G03X6306360Y2649010I12723J0D01*
G01X6309980Y2647930D01*
Y2602070D01*
X6306360Y2600990D01*
G03X6297440Y2590800I3642J-12187D01*
G01X6296760Y2586520D01*
X6275220D01*
Y2878550D01*
X6313610Y2916940D01*
G02X6322280Y2913350I3591J-3592D01*
G01Y2908800D01*
G03X6335000Y2896080I12720J0D01*
G01X6415000D01*
G03X6418360Y2896530I6J12721D01*
G01X6419020Y2896710D01*
X6424780D01*
G37*
G36*
G01X7200000Y1185670D02*
X7144470Y1241200D01*
X7143270D01*
X7127720Y1256750D01*
Y1313800D01*
G03X7118640Y1325990I-12723J0D01*
G01X7115020Y1327070D01*
Y1372930D01*
X7118640Y1374010D01*
G03X7127720Y1386200I-3643J12190D01*
G01Y1400980D01*
X7197950D01*
X7206750Y1409780D01*
X7242830D01*
Y1395630D01*
G03X7255550Y1382910I12720J0D01*
G01X7344450D01*
G03X7357170Y1395630I0J12720D01*
G01Y1474370D01*
G03X7344450Y1487090I-12720J0D01*
G01X7325220D01*
Y1631600D01*
X7357440Y1663820D01*
G02X7374780Y1656640I7181J-7186D01*
G01Y1339550D01*
X7404350Y1309990D01*
G02X7397710Y1292660I-7186J-7184D01*
G03X7362510Y1270480I2292J-42659D01*
G02X7349530Y1266030I-8920J4864D01*
G03X7344450Y1267090I-5083J-11659D01*
G01X7255550D01*
G03X7242830Y1254370I0J-12720D01*
G01Y1228500D01*
X7200000Y1185670D01*
G37*
G36*
G01X6927720Y1462640D02*
Y1466200D01*
G03X6915000Y1478920I-12720J0D01*
G01X6910450D01*
G02X6906860Y1487590I2J5079D01*
G01X7035350Y1616080D01*
G02X7052660Y1608100I7183J-7183D01*
G03X7120470Y1639230I42589J-3350D01*
G01Y1678140D01*
G03X7122950Y1681060I-25184J23902D01*
G02X7131050I4050J-3059D01*
G03X7183310Y1677460I27696J20939D01*
G02X7197690I7190J-7179D01*
G03X7246810I24560J24540D01*
G02X7261190I7190J-7179D01*
G03X7272400Y1669950I24561J24540D01*
G02X7275670Y1653390I-3913J-9375D01*
G01X7274780Y1652500D01*
Y1487090D01*
X7255550D01*
G03X7242830Y1474370I0J-12720D01*
G01Y1460220D01*
X7185850D01*
X7177050Y1451420D01*
X7127720D01*
Y1466200D01*
G03X7115000Y1478920I-12720J0D01*
G01X7035000D01*
G03X7022280Y1466200I0J-12720D01*
G01Y1451420D01*
X7010760D01*
X7009240Y1453280D01*
G03X6945240Y1455640I-33042J-27079D01*
G02X6927720Y1462640I-7361J7001D01*
G37*
G36*
G01X7059480Y2125220D02*
G03X7017660Y2142080I-34477J-25222D01*
G02X7006750Y2156490I-1750J10010D01*
G03X6993470Y2209480I-38501J18510D01*
G01Y2228140D01*
G03X6995620Y2230630I-25176J23911D01*
G02X7003720Y2230510I4005J-3123D01*
G03X7056310Y2226460I28029J20490D01*
G02X7070690I7190J-7179D01*
G03X7122950Y2230060I24564J24539D01*
G02X7131050I4050J-3059D01*
G03X7133530Y2227140I27664J20982D01*
G01Y2188520D01*
X7070230Y2125220D01*
X7059480D01*
G37*
G36*
G01X7374780Y2038730D02*
G02X7357440Y2031550I-10159J6D01*
G01X7247470Y2141520D01*
Y2207950D01*
G02X7260350Y2217740I10159J2D01*
G03X7263750Y2217280I3390J12261D01*
G01X7307750D01*
G03X7320470Y2230000I0J12720D01*
G01Y2420000D01*
G03X7313680Y2431250I-12715J0D01*
G01X7310970Y2432680D01*
Y2460450D01*
X7271200Y2500220D01*
X7209480D01*
G03X7145340Y2444250I-34479J-25225D01*
G02X7142920Y2427900I-7055J-7310D01*
G03X7134190Y2421540I15830J-30900D01*
G02X7119810I-7190J7179D01*
G03X7067550Y2417940I-24564J-24539D01*
G02X7059450I-4050J3059D01*
G03X7056970Y2420860I-27664J-20982D01*
G01Y2440520D01*
G03X7060040Y2507010I-25220J34480D01*
G02X7066770Y2524780I6731J7610D01*
G01X7086650D01*
X7132950Y2571080D01*
X7190000D01*
G03X7202720Y2583800I0J12720D01*
G01Y2598580D01*
X7297280D01*
Y2583800D01*
G03X7310000Y2571080I12720J0D01*
G01X7324780D01*
Y2478550D01*
X7374780Y2428550D01*
Y2038730D01*
G37*
G36*
G01X6975000Y3900000D02*
X6900000Y3975000D01*
Y4900000D01*
X7000000Y5000000D01*
X8475000D01*
X8650000Y5175000D01*
X9450000D01*
Y4025000D01*
X9325000Y3900000D01*
X6975000D01*
G37*
G36*
G01X7246220Y764150D02*
G02X7237340Y779250I-1J10160D01*
G03X7242700Y798810I-37342J20747D01*
G02X7255750Y808260I10156J-289D01*
G03X7259360Y807740I3600J12201D01*
G01X7340640D01*
G03X7353360Y820460I0J12720D01*
G01Y922060D01*
G03X7340640Y934780I-12720J0D01*
G01X7259360D01*
G03X7246640Y922060I0J-12720D01*
G01Y838280D01*
G02X7229470Y830930I-10159J2D01*
G03X7225220Y834480I-29454J-30943D01*
G01Y1024780D01*
G02X7242560Y1031960I10159J-6D01*
G01X7246640Y1027880D01*
Y977940D01*
G03X7259360Y965220I12720J0D01*
G01X7340640D01*
G03X7353360Y977940I0J12720D01*
G01Y1079540D01*
G03X7340640Y1092260I-12720J0D01*
G01X7259360D01*
G03X7256970Y1092030I18J-12718D01*
G01X7254330Y1091530D01*
X7225220Y1120640D01*
Y1139550D01*
X7249660Y1163990D01*
X7252450Y1163290D01*
G03X7255550Y1162910I3086J12342D01*
G01X7344450D01*
G03X7357170Y1175630I0J12720D01*
G01Y1208420D01*
G02X7373610Y1216410I10161J2D01*
G03X7397710Y1207340I26397J33588D01*
G02X7404350Y1190010I-546J-10146D01*
G01X7374780Y1160450D01*
Y810450D01*
X7328480Y764150D01*
X7246220D01*
G37*
G36*
G01X8157290Y522030D02*
G03X8150220Y584480I-32290J27970D01*
G01Y621640D01*
X8172060D01*
G03X8184780Y634360I0J12720D01*
G01Y715640D01*
G03X8172060Y728360I-12720J0D01*
G01X8100480D01*
X8085760Y743070D01*
G02X8089500Y759820I7184J7189D01*
G03X8040520Y825220I-14499J40183D01*
G01X8029770D01*
X7955080Y899910D01*
Y953140D01*
G03X7957560Y956060I-25184J23902D01*
G02X7965660I4050J-3059D01*
G03X8017920Y952460I27696J20939D01*
G02X8032300I7190J-7179D01*
G03X8074750Y947240I24563J24539D01*
G02X8090140Y938530I5231J-8708D01*
G01Y912280D01*
X8207640Y794780D01*
X8312480D01*
X8364830Y742430D01*
Y582570D01*
X8287480Y505220D01*
X8164970D01*
G02X8157290Y522030I1J10160D01*
G37*
G36*
G01X8211510Y1144000D02*
G03X8209080Y1146860I-27635J-21018D01*
G01Y1276590D01*
X8141710Y1343960D01*
X8054150D01*
G02X8046970Y1361300I6J10159D01*
G01X8081970Y1396300D01*
Y1503140D01*
G03X8084450Y1506060I-25184J23902D01*
G02X8092550I4050J-3059D01*
G03X8144810Y1502460I27696J20939D01*
G02X8159190I7190J-7179D01*
G03X8208310I24560J24540D01*
G02X8222690I7190J-7179D01*
G03X8271810I24560J24540D01*
G02X8286190I7190J-7179D01*
G03X8338450Y1506060I24564J24539D01*
G02X8346550I4050J-3059D01*
G03X8349030Y1503140I27664J20982D01*
G01Y1440300D01*
X8462680Y1326650D01*
Y1320150D01*
G02X8447230Y1311480I-10160J4D01*
G03X8382490Y1270790I-22229J-36480D01*
G01X8382730Y1268390D01*
X8360400Y1246070D01*
Y1235170D01*
G02X8342650Y1228410I-10161J-4D01*
G03X8288030Y1236180I-31904J-28410D01*
G02X8272470Y1244780I-5401J8604D01*
G01Y1281120D01*
X8275220Y1283870D01*
Y1315520D01*
G03X8224780I-25220J34480D01*
G01Y1304770D01*
X8222030Y1302020D01*
Y1146860D01*
G03X8219600Y1144000I25205J-23878D01*
G02X8211510I-4045J3072D01*
G37*
G36*
G01X8021060Y1143940D02*
G03X7968800Y1147540I-27696J-20939D01*
G02X7954420I-7190J7179D01*
G03X7905680Y1147920I-24563J-24540D01*
G02X7891310Y1148150I-7070J7293D01*
G03X7838660Y1144940I-24951J-24148D01*
G02X7830560I-4050J3059D01*
G03X7828080Y1147860I-27664J-20982D01*
G01Y1182590D01*
X7815580Y1195090D01*
G02X7818390Y1211440I7185J7182D01*
G03X7833150Y1276950I-18389J38561D01*
G02X7841030Y1293520I7880J6411D01*
G01X7863910D01*
G02X7873240Y1279350I-3J-10159D01*
G03X7916710Y1219990I39258J-16848D01*
G01X7919110Y1220230D01*
X7953930Y1185400D01*
X8000180D01*
X8031640Y1153940D01*
Y1146940D01*
X8030430Y1145510D01*
G03X8029160Y1143940I26348J-22612D01*
G02X8021060I-4050J3059D01*
G37*
G36*
G01X8568160Y664200D02*
G02X8550820Y671380I-7182J7183D01*
G01Y1402400D01*
X8462970Y1490250D01*
Y1503060D01*
X8464180Y1504490D01*
G03X8472470Y1527000I-26416J22510D01*
G01Y1673000D01*
G03X8413190Y1697540I-34719J0D01*
G02X8398810I-7190J7179D01*
G03X8346550Y1693940I-24564J-24539D01*
G02X8338450I-4050J3059D01*
G03X8337180Y1695510I-27618J-21042D01*
G01X8335970Y1696940D01*
Y1709750D01*
X8358940Y1732730D01*
X8361340Y1732490D01*
G03X8399660Y1749280I4212J42511D01*
G02X8415890I8115J-6113D01*
G03X8482010Y1746710I34110J25720D01*
G02X8499780Y1739980I7610J-6731D01*
G01Y1514550D01*
X8564550Y1449780D01*
X8621080D01*
Y1435000D01*
G03X8633800Y1422280I12720J0D01*
G01X8713800D01*
G03X8725990Y1431360I0J12723D01*
G01X8727070Y1434980D01*
X8772930D01*
X8774010Y1431360D01*
G03X8786200Y1422280I12190J3643D01*
G01X8843250D01*
X8873570Y1391960D01*
X8909870D01*
X9049780Y1252050D01*
Y1192350D01*
X9090350Y1151780D01*
X9092920D01*
X9095520Y1145520D01*
X8900220Y950220D01*
X8854190D01*
X8568160Y664200D01*
G37*
G36*
G01X8337520Y855220D02*
X8232680D01*
X8150580Y937320D01*
Y948910D01*
G02X8159260Y952500I5080J5D01*
G03X8208380Y952420I24600J24500D01*
G02X8222730I7175J-7194D01*
G03X8271810Y952460I24520J24580D01*
G02X8286190I7190J-7179D01*
G03X8335310I24560J24540D01*
G02X8349690I7190J-7179D01*
G03X8401950Y956060I24564J24539D01*
G02X8410050I4050J-3059D01*
G03X8412530Y953140I27664J20982D01*
G01Y804740D01*
G02X8395190Y797550I-10159J-4D01*
G01X8337520Y855220D01*
G37*
%LPC*%
G75*
G36*
G01X8805530Y3016450D02*
Y3083550D01*
G02X8818250Y3096270I12720J0D01*
G01X8885350D01*
G02X8898070Y3083550I0J-12720D01*
G01Y3016450D01*
G02X8885350Y3003730I-12720J0D01*
G01X8818250D01*
G02X8805530Y3016450I0J12720D01*
G37*
G36*
G01X8967720Y2377280D02*
X8712280D01*
Y2477280D01*
X8647280D01*
Y2622720D01*
X8712280D01*
Y2722720D01*
X8967720D01*
Y2622720D01*
X9032720D01*
Y2477280D01*
X8967720D01*
Y2377280D01*
G37*
G36*
G01X8107910Y3005550D02*
Y3094450D01*
G02X8120630Y3107170I12720J0D01*
G01X8199370D01*
G02X8212090Y3094450I0J-12720D01*
G01Y3005550D01*
G02X8199370Y2992830I-12720J0D01*
G01X8120630D01*
G02X8107910Y3005550I0J12720D01*
G37*
G36*
G01X8166030Y3191000D02*
Y3369000D01*
G02X8178750Y3381720I12720J0D01*
G01X8331250D01*
G02X8343970Y3369000I0J-12720D01*
G01Y3191000D01*
G02X8331250Y3178280I-12720J0D01*
G01X8178750D01*
G02X8166030Y3191000I0J12720D01*
G37*
G36*
G01X8481030D02*
Y3369000D01*
G02X8493750Y3381720I12720J0D01*
G01X8646250D01*
G02X8658970Y3369000I0J-12720D01*
G01Y3191000D01*
G02X8646250Y3178280I-12720J0D01*
G01X8493750D01*
G02X8481030Y3191000I0J12720D01*
G37*
G36*
G01X8422720Y6092720D02*
Y5837280D01*
X8322720D01*
Y5772280D01*
X8177280D01*
Y5837280D01*
X8077280D01*
Y6092720D01*
X8177280D01*
Y6157720D01*
X8322720D01*
Y6092720D01*
X8422720D01*
G37*
G36*
G01X7612280Y5950000D02*
Y6050000D01*
G02X7625000Y6062720I12720J0D01*
G01X7775000D01*
G02X7787720Y6050000I0J-12720D01*
G01Y5950000D01*
G02X7775000Y5937280I-12720J0D01*
G01X7625000D01*
G02X7612280Y5950000I0J12720D01*
G37*
G36*
G01X7557740Y5409360D02*
Y5490640D01*
G02X7570460Y5503360I12720J0D01*
G01X7672060D01*
G02X7684780Y5490640I0J-12720D01*
G01Y5409360D01*
G02X7672060Y5396640I-12720J0D01*
G01X7570460D01*
G02X7557740Y5409360I0J12720D01*
G37*
G36*
G01X7198280Y3198750D02*
Y3351250D01*
G02X7211000Y3363970I12720J0D01*
G01X7389000D01*
G02X7401720Y3351250I0J-12720D01*
G01Y3198750D01*
G02X7389000Y3186030I-12720J0D01*
G01X7211000D01*
G02X7198280Y3198750I0J12720D01*
G37*
G36*
G01X7446640Y2195460D02*
Y2297060D01*
G02X7459360Y2309780I12720J0D01*
G01X7540640D01*
G02X7553360Y2297060I0J-12720D01*
G01Y2195460D01*
G02X7540640Y2182740I-12720J0D01*
G01X7459360D01*
G02X7446640Y2195460I0J12720D01*
G37*
G36*
G01Y1820460D02*
Y1922060D01*
G02X7459360Y1934780I12720J0D01*
G01X7540640D01*
G02X7553360Y1922060I0J-12720D01*
G01Y1820460D01*
G02X7540640Y1807740I-12720J0D01*
G01X7459360D01*
G02X7446640Y1820460I0J12720D01*
G37*
G36*
G01X7322720Y6092720D02*
Y5837280D01*
X7222720D01*
Y5772280D01*
X7077280D01*
Y5837280D01*
X6977280D01*
Y6092720D01*
X7077280D01*
Y6157720D01*
X7222720D01*
Y6092720D01*
X7322720D01*
G37*
G36*
G01X6907740Y2959360D02*
Y3040640D01*
G02X6920460Y3053360I12720J0D01*
G01X7022060D01*
G02X7034780Y3040640I0J-12720D01*
G01Y2959360D01*
G02X7022060Y2946640I-12720J0D01*
G01X6920460D01*
G02X6907740Y2959360I0J12720D01*
G37*
G36*
G01X6372280Y5875000D02*
Y6025000D01*
G02X6385000Y6037720I12720J0D01*
G01X6645000D01*
G02X6657720Y6025000I0J-12720D01*
G01Y5875000D01*
G02X6645000Y5862280I-12720J0D01*
G01X6385000D01*
G02X6372280Y5875000I0J12720D01*
G37*
G36*
G01X6066480Y3515130D02*
Y3654830D01*
G02X6079200Y3667550I12720J0D01*
G01X6180800D01*
G02X6193520Y3654830I0J-12720D01*
G01Y3515130D01*
G02X6180800Y3502410I-12720J0D01*
G01X6079200D01*
G02X6066480Y3515130I0J12720D01*
G37*
G36*
G01X5666480D02*
Y3654830D01*
G02X5679200Y3667550I12720J0D01*
G01X5780800D01*
G02X5793520Y3654830I0J-12720D01*
G01Y3515130D01*
G02X5780800Y3502410I-12720J0D01*
G01X5679200D01*
G02X5666480Y3515130I0J12720D01*
G37*
G36*
G01X5266480D02*
Y3654830D01*
G02X5279200Y3667550I12720J0D01*
G01X5380800D01*
G02X5393520Y3654830I0J-12720D01*
G01Y3515130D01*
G02X5380800Y3502410I-12720J0D01*
G01X5279200D01*
G02X5266480Y3515130I0J12720D01*
G37*
G36*
G01X717280Y2939000D02*
Y3079000D01*
G02X730000Y3091720I12720J0D01*
G01X920000D01*
G02X932720Y3079000I0J-12720D01*
G01Y2939000D01*
G02X920000Y2926280I-12720J0D01*
G01X730000D01*
G02X717280Y2939000I0J12720D01*
G37*
G36*
G01X342280D02*
Y3079000D01*
G02X355000Y3091720I12720J0D01*
G01X545000D01*
G02X557720Y3079000I0J-12720D01*
G01Y2939000D01*
G02X545000Y2926280I-12720J0D01*
G01X355000D01*
G02X342280Y2939000I0J12720D01*
G37*
G36*
G01X4015620Y6062280D02*
X3977720Y6024380D01*
Y6007740D01*
X3981820Y6006930D01*
G02X3992090Y5994450I-2448J-12480D01*
G01Y5905550D01*
G02X3979370Y5892830I-12720J0D01*
G01X3900630D01*
G02X3887910Y5905550I0J12720D01*
G01Y5912280D01*
X3837420D01*
X3796920Y5952780D01*
X3747650D01*
X3746120Y5950850D01*
G02X3736150Y5946030I-9970J7901D01*
G01X3609150D01*
G02X3596430Y5958750I0J12720D01*
G01Y6022250D01*
G02X3609150Y6034970I12720J0D01*
G01X3736150D01*
G02X3746120Y6030150I0J-12721D01*
G01X3747650Y6028220D01*
X3828160D01*
X3868660Y5987720D01*
X3887910D01*
Y5994450D01*
G02X3898180Y6006930I12718J0D01*
G01X3902280Y6007740D01*
Y6055620D01*
X3984380Y6137720D01*
X4278920D01*
X4370940Y6045710D01*
G03X4388280Y6052890I7182J7184D01*
G01Y6064000D01*
G02X4401000Y6076720I12720J0D01*
G01X4579000D01*
G02X4591720Y6064000I0J-12720D01*
G01Y5886000D01*
G02X4579000Y5873280I-12720J0D01*
G01X4401000D01*
G02X4388280Y5886000I0J12720D01*
G01Y5937280D01*
X4372680D01*
X4247680Y6062280D01*
X4015620D01*
G37*
G36*
G01X3884360Y5665220D02*
G02X3871640Y5677940I0J12720D01*
G01Y5738920D01*
X3784780Y5825780D01*
X3747650D01*
X3746120Y5823850D01*
G02X3736150Y5819030I-9970J7901D01*
G01X3609150D01*
G02X3596430Y5831750I0J12720D01*
G01Y5895250D01*
G02X3609150Y5907970I12720J0D01*
G01X3736150D01*
G02X3746120Y5903150I0J-12721D01*
G01X3747650Y5901220D01*
X3816020D01*
X3924980Y5792260D01*
X3965640D01*
G02X3978360Y5779540I0J-12720D01*
G01Y5766460D01*
X4110380D01*
X4112920Y5763920D01*
X4121760D01*
X4122440Y5768200D01*
G02X4135000Y5778920I12560J-1998D01*
G01X4215000D01*
G02X4227720Y5766200I0J-12720D01*
G01Y5686200D01*
G02X4218640Y5674010I-12723J0D01*
G01X4215020Y5672930D01*
Y5627070D01*
X4218640Y5625990D01*
G02X4227560Y5615800I-3642J-12187D01*
G01X4228240Y5611520D01*
X4305240D01*
X4331440Y5637720D01*
X4387280D01*
Y5675000D01*
G02X4400000Y5687720I12720J0D01*
G01X4500000D01*
G02X4512720Y5675000I0J-12720D01*
G01Y5525000D01*
G02X4500000Y5512280I-12720J0D01*
G01X4400000D01*
G02X4387280Y5525000I0J12720D01*
G01Y5562280D01*
X4362680D01*
X4336480Y5536080D01*
X4228240D01*
X4227560Y5531800D01*
G02X4215000Y5521080I-12560J1998D01*
G01X4135000D01*
G02X4122280Y5533800I0J12720D01*
G01Y5613800D01*
G02X4131360Y5625990I12723J0D01*
G01X4134980Y5627070D01*
Y5672930D01*
X4131360Y5674010D01*
G02X4122440Y5684200I3642J12187D01*
G01X4121760Y5688480D01*
X4081680D01*
X4079140Y5691020D01*
X3978360D01*
Y5677940D01*
G02X3965640Y5665220I-12720J0D01*
G01X3884360D01*
G37*
G36*
G01X6177720Y5475000D02*
G02X6165000Y5462280I-12720J0D01*
G01X5905000D01*
G02X5892280Y5475000I0J12720D01*
G01Y5625000D01*
G02X5905000Y5637720I12720J0D01*
G01X5972110D01*
G03X5979290Y5655060I-4J10158D01*
G01X5872080Y5762280D01*
X5820090D01*
X5819020Y5761750D01*
G02Y5838250I-19020J38250D01*
G01X5820090Y5837720D01*
X5903320D01*
X6072720Y5668320D01*
Y5637720D01*
X6165000D01*
G02X6177720Y5625000I0J-12720D01*
G01Y5475000D01*
G37*
G36*
G01X5027600Y5749250D02*
G03X5026280Y5736510I7183J-7183D01*
G02X5028360Y5729540I-10638J-6970D01*
G01Y5662650D01*
G03X5045700Y5655470I10158J4D01*
G01X5100620Y5710380D01*
Y5883960D01*
X5150260Y5933610D01*
G03X5146670Y5942280I-3590J3592D01*
G01X5142920D01*
X5137920Y5937280D01*
X4961720D01*
Y5886000D01*
G02X4949000Y5873280I-12720J0D01*
G01X4771000D01*
G02X4758280Y5886000I0J12720D01*
G01Y6064000D01*
G02X4771000Y6076720I12720J0D01*
G01X4949000D01*
G02X4961720Y6064000I0J-12720D01*
G01Y6012720D01*
X5106680D01*
X5111680Y6017720D01*
X5152280D01*
Y6065000D01*
G02X5165000Y6077720I12720J0D01*
G01X5735000D01*
G02X5747720Y6065000I0J-12720D01*
G01Y6017720D01*
X5842920D01*
X5872920Y5987720D01*
X5892280D01*
Y6025000D01*
G02X5905000Y6037720I12720J0D01*
G01X6165000D01*
G02X6177720Y6025000I0J-12720D01*
G01Y5875000D01*
G02X6165000Y5862280I-12720J0D01*
G01X5905000D01*
G02X5892280Y5875000I0J12720D01*
G01Y5912280D01*
X5841680D01*
X5811680Y5942280D01*
X5747720D01*
Y5895000D01*
G02X5735000Y5882280I-12720J0D01*
G01X5205620D01*
X5176060Y5852720D01*
Y5679140D01*
X5028360Y5531440D01*
Y5470460D01*
G02X5015640Y5457740I-12720J0D01*
G01X4974980D01*
X4904520Y5387280D01*
X4045480D01*
X3925020Y5507740D01*
X3884360D01*
G02X3871640Y5520460I0J12720D01*
G01Y5533540D01*
X3796470D01*
X3758230Y5571780D01*
X3747650D01*
X3746120Y5569850D01*
G02X3736150Y5565030I-9970J7901D01*
G01X3609150D01*
G02X3596430Y5577750I0J12720D01*
G01Y5641250D01*
G02X3609150Y5653970I12720J0D01*
G01X3634930D01*
Y5692030D01*
X3609150D01*
G02X3596430Y5704750I0J12720D01*
G01Y5768250D01*
G02X3609150Y5780970I12720J0D01*
G01X3736150D01*
G02X3748870Y5768250I0J-12720D01*
G01Y5704750D01*
G02X3736150Y5692030I-12720J0D01*
G01X3710370D01*
Y5653970D01*
X3736150D01*
G02X3746120Y5649150I0J-12721D01*
G01X3747650Y5647220D01*
X3789470D01*
X3827710Y5608980D01*
X3871640D01*
Y5622060D01*
G02X3884360Y5634780I12720J0D01*
G01X3965640D01*
G02X3978360Y5622060I0J-12720D01*
G01Y5561080D01*
X4076720Y5462720D01*
X4873280D01*
X4921640Y5511080D01*
Y5572060D01*
G02X4934360Y5584780I12720J0D01*
G01X4975020D01*
X4988110Y5597880D01*
G03X4980930Y5615220I-7184J7182D01*
G01X4934360D01*
G02X4921640Y5627940I0J12720D01*
G01Y5641020D01*
X4844360D01*
X4812720Y5609380D01*
Y5525000D01*
G02X4800000Y5512280I-12720J0D01*
G01X4700000D01*
G02X4687280Y5525000I0J12720D01*
G01Y5634380D01*
X4584380Y5737280D01*
X4314300D01*
X4158750Y5892830D01*
X4120630D01*
G02X4107910Y5905550I0J12720D01*
G01Y5994450D01*
G02X4120630Y6007170I12720J0D01*
G01X4199370D01*
G02X4212090Y5994450I0J-12720D01*
G01Y5946170D01*
X4345540Y5812720D01*
X4615620D01*
X4740620Y5687720D01*
X4784380D01*
X4813120Y5716460D01*
X4921640D01*
Y5729540D01*
G02X4932820Y5742170I12724J0D01*
G01X4937280Y5742710D01*
Y5765620D01*
X4984120Y5812470D01*
X4984500Y5813600D01*
G02X5038600Y5759500I40500J-13600D01*
G01X5037470Y5759120D01*
X5027600Y5749250D01*
G37*
G36*
G01X5204560Y3186360D02*
G02X5191840Y3173640I-12720J0D01*
G01X4958160D01*
G02X4945440Y3186360I0J12720D01*
G01Y3241950D01*
X4850000D01*
G02Y3367390I0J62720D01*
G01X5012280D01*
Y3463360D01*
X4958160D01*
G02X4945440Y3476080I0J12720D01*
G01Y3638640D01*
G02X4958160Y3651360I12720J0D01*
G01X5191840D01*
G02X5204560Y3638640I0J-12720D01*
G01Y3476080D01*
G02X5191840Y3463360I-12720J0D01*
G01X5137720D01*
Y3361640D01*
X5191840D01*
G02X5204560Y3348920I0J-12720D01*
G01Y3186360D01*
G37*
G36*
G01X8874680Y3178280D02*
G03X8865130Y3164640I-4J-10161D01*
G02X8784870I-40130J-14640D01*
G03X8775320Y3178280I-9546J3479D01*
G01X8753750D01*
G02X8741030Y3191000I0J12720D01*
G01Y3369000D01*
G02X8753750Y3381720I12720J0D01*
G01X8906250D01*
G02X8918970Y3369000I0J-12720D01*
G01Y3191000D01*
G02X8906250Y3178280I-12720J0D01*
G01X8874680D01*
G37*
G36*
G01X6855380Y3087280D02*
X6437280Y3505380D01*
Y3759380D01*
X6334380Y3862280D01*
X5588520D01*
Y3833960D01*
G02X5575800Y3821240I-12720J0D01*
G01X5474200D01*
G02X5461480Y3833960I0J12720D01*
G01Y3966040D01*
G02X5474200Y3978760I12720J0D01*
G01X5575800D01*
G02X5588520Y3966040I0J-12720D01*
G01Y3937720D01*
X6365620D01*
X6512720Y3790620D01*
Y3536620D01*
X6519940Y3529410D01*
G03X6537280Y3536590I7182J7184D01*
G01Y3859380D01*
X6359380Y4037280D01*
X4845090D01*
X4844020Y4036750D01*
G02Y4113250I-19020J38250D01*
G01X4845090Y4112720D01*
X6390620D01*
X6612720Y3890620D01*
Y3540620D01*
X6840620Y3312720D01*
X6938280D01*
Y3351250D01*
G02X6951000Y3363970I12720J0D01*
G01X7129000D01*
G02X7141720Y3351250I0J-12720D01*
G01Y3198750D01*
G02X7129000Y3186030I-12720J0D01*
G01X6951000D01*
G02X6938280Y3198750I0J12720D01*
G01Y3237280D01*
X6836590D01*
G03X6829410Y3219940I4J-10158D01*
G01X6886620Y3162720D01*
X7508330D01*
X7522280Y3176670D01*
Y3186030D01*
X7471000D01*
G02X7458280Y3198750I0J12720D01*
G01Y3351250D01*
G02X7471000Y3363970I12720J0D01*
G01X7649000D01*
G02X7661720Y3351250I0J-12720D01*
G01Y3198750D01*
G02X7649000Y3186030I-12720J0D01*
G01X7597720D01*
Y3145430D01*
X7539570Y3087280D01*
X6855380D01*
G37*
G36*
G01X8025220Y2571080D02*
Y2534480D01*
G02X7974780I-25220J-34480D01*
G01Y2571080D01*
X7960000D01*
G02X7947280Y2583800I0J12720D01*
G01Y2663800D01*
G02X7956360Y2675990I12723J0D01*
G01X7959980Y2677070D01*
Y2722930D01*
X7956360Y2724010D01*
G02X7947280Y2736200I3643J12190D01*
G01Y2816200D01*
G02X7960000Y2828920I12720J0D01*
G01X7974780D01*
Y2865520D01*
G02X8025220I25220J34480D01*
G01Y2828920D01*
X8040000D01*
G02X8052720Y2816200I0J-12720D01*
G01Y2736200D01*
G02X8043640Y2724010I-12723J0D01*
G01X8040020Y2722930D01*
Y2677070D01*
X8043640Y2675990D01*
G02X8052720Y2663800I-3643J-12190D01*
G01Y2583800D01*
G02X8040000Y2571080I-12720J0D01*
G01X8025220D01*
G37*
G36*
G01X7774780Y2860450D02*
X7899780Y2985450D01*
Y2985800D01*
X7902530Y2988550D01*
X7898060Y2993030D01*
X7896860Y2993400D01*
G02X7887910Y3005550I3772J12150D01*
G01Y3094450D01*
G02X7900630Y3107170I12720J0D01*
G01X7912280D01*
Y3160450D01*
X7915360Y3163530D01*
G03X7912870Y3179720I-7185J7181D01*
G02X7906030Y3191000I5881J11280D01*
G01Y3369000D01*
G02X7918750Y3381720I12720J0D01*
G01X8071250D01*
G02X8083970Y3369000I0J-12720D01*
G01Y3191000D01*
G02X8071250Y3178280I-12720J0D01*
G01X8001450D01*
X7962720Y3139550D01*
Y3132600D01*
X7965220Y3130100D01*
Y3107170D01*
X7979370D01*
G02X7992090Y3094450I0J-12720D01*
G01Y3005550D01*
G02X7979370Y2992830I-12720J0D01*
G01X7965220D01*
Y2979550D01*
X7825220Y2839550D01*
Y2828920D01*
X7840000D01*
G02X7852720Y2816200I0J-12720D01*
G01Y2736200D01*
G02X7843640Y2724010I-12723J0D01*
G01X7840020Y2722930D01*
Y2677070D01*
X7843640Y2675990D01*
G02X7852720Y2663800I-3643J-12190D01*
G01Y2583800D01*
G02X7840000Y2571080I-12720J0D01*
G01X7825220D01*
Y2534480D01*
G02X7774780I-25220J-34480D01*
G01Y2571080D01*
X7760000D01*
G02X7747280Y2583800I0J12720D01*
G01Y2663800D01*
G02X7756360Y2675990I12723J0D01*
G01X7759980Y2677070D01*
Y2722930D01*
X7756360Y2724010D01*
G02X7747280Y2736200I3643J12190D01*
G01Y2816200D01*
G02X7760000Y2828920I12720J0D01*
G01X7774780D01*
Y2860450D01*
G37*
G36*
G01X7624850Y1971810D02*
X7605640Y1991020D01*
X7553360D01*
Y1977940D01*
G02X7540640Y1965220I-12720J0D01*
G01X7459360D01*
G02X7446640Y1977940I0J12720D01*
G01Y2079540D01*
G02X7459360Y2092260I12720J0D01*
G01X7540640D01*
G02X7553360Y2079540I0J-12720D01*
G01Y2066460D01*
X7563120D01*
X7609380Y2112720D01*
X7711000D01*
G02X7725750Y2109710I-15J-37717D01*
G01X7726710Y2109310D01*
X7751640D01*
G02X7764360Y2096590I0J-12720D01*
G01Y2053410D01*
G02X7751640Y2040690I-12720J0D01*
G01X7726710D01*
X7725750Y2040290D01*
G02X7711000Y2037280I-14765J34707D01*
G01X7678330D01*
G03X7674740Y2028610I0J-5078D01*
G01X7678190Y2025150D01*
X7680000Y2024970D01*
G02X7625030Y1970000I-5000J-49970D01*
G01X7624850Y1971810D01*
G37*
G36*
G01X8216590Y2459940D02*
G03X8209410Y2477280I-7184J7182D01*
G01X8167280D01*
Y2622720D01*
X8232280D01*
Y2722720D01*
X8322280D01*
Y2732080D01*
X8312280Y2742080D01*
Y2866850D01*
G02X8324780Y2943430I37721J33153D01*
G01Y2973150D01*
X8323580Y2974350D01*
Y2997280D01*
X8308800D01*
G02X8296080Y3010000I0J12720D01*
G01Y3090000D01*
G02X8308800Y3102720I12720J0D01*
G01X8388800D01*
G02X8400990Y3093640I0J-12723D01*
G01X8402070Y3090020D01*
X8447930D01*
X8449010Y3093640D01*
G02X8461200Y3102720I12190J-3643D01*
G01X8541200D01*
G02X8553920Y3090000I0J-12720D01*
G01Y3075220D01*
X8652530D01*
Y3083550D01*
G02X8665250Y3096270I12720J0D01*
G01X8732350D01*
G02X8745070Y3083550I0J-12720D01*
G01Y3016450D01*
G02X8732350Y3003730I-12720J0D01*
G01X8665250D01*
G02X8652530Y3016450I0J12720D01*
G01Y3024780D01*
X8553920D01*
Y3010000D01*
G02X8541200Y2997280I-12720J0D01*
G01X8461200D01*
G02X8449010Y3006360I0J12723D01*
G01X8447930Y3009980D01*
X8402070D01*
X8400990Y3006360D01*
G02X8388800Y2997280I-12190J3643D01*
G01X8375220D01*
Y2943430D01*
G02X8387720Y2866850I-25221J-43427D01*
G01Y2773320D01*
X8397720Y2763320D01*
Y2722720D01*
X8487720D01*
Y2622720D01*
X8552720D01*
Y2477280D01*
X8530590D01*
G03X8523410Y2459940I4J-10158D01*
G01X8620620Y2362720D01*
X9111830D01*
G02X9199220Y2256790I62171J-37722D01*
G01Y2060510D01*
G03X9215040Y2052070I10161J-2D01*
G02X9243170Y1937650I34960J-52073D01*
G03X9234880Y1920370I-1107J-10097D01*
G01X9253960Y1901290D01*
Y1878360D01*
X9279540D01*
G02X9292260Y1865640I0J-12720D01*
G01Y1784360D01*
G02X9279540Y1771640I-12720J0D01*
G01X9177940D01*
G02X9165220Y1784360I0J12720D01*
G01Y1865640D01*
G02X9177940Y1878360I12720J0D01*
G01X9181030D01*
G03X9188210Y1895700I-6J10159D01*
G01X9148780Y1935130D01*
Y2256790D01*
G02X9111830Y2287280I25226J68205D01*
G01X8589380D01*
X8493980Y2382670D01*
X8487720Y2380080D01*
Y2377280D01*
X8240620D01*
X8200340Y2337000D01*
X7606040D01*
X7577020Y2366020D01*
X7553360D01*
Y2352940D01*
G02X7540640Y2340220I-12720J0D01*
G01X7459360D01*
G02X7446640Y2352940I0J12720D01*
G01Y2454540D01*
G02X7459360Y2467260I12720J0D01*
G01X7540640D01*
G02X7553360Y2454540I0J-12720D01*
G01Y2441460D01*
X7608260D01*
X7637280Y2412440D01*
X8169100D01*
X8216590Y2459940D01*
G37*
G36*
G01X717280Y2621000D02*
Y2761000D01*
G02X730000Y2773720I12720J0D01*
G01X920000D01*
G02X932720Y2761000I0J-12720D01*
G01Y2621000D01*
G02X920000Y2608280I-12720J0D01*
G01X730000D01*
G02X717280Y2621000I0J12720D01*
G37*
G36*
G01X1854280Y672000D02*
Y792000D01*
G02X1867000Y804720I12720J0D01*
G01X2087000D01*
G02X2099720Y792000I0J-12720D01*
G01Y672000D01*
G02X2087000Y659280I-12720J0D01*
G01X1867000D01*
G02X1854280Y672000I0J12720D01*
G37*
G36*
G01X2079280Y1522000D02*
Y1642000D01*
G02X2092000Y1654720I12720J0D01*
G01X2312000D01*
G02X2324720Y1642000I0J-12720D01*
G01Y1522000D01*
G02X2312000Y1509280I-12720J0D01*
G01X2092000D01*
G02X2079280Y1522000I0J12720D01*
G37*
G36*
G01Y2372000D02*
Y2492000D01*
G02X2092000Y2504720I12720J0D01*
G01X2312000D01*
G02X2324720Y2492000I0J-12720D01*
G01Y2372000D01*
G02X2312000Y2359280I-12720J0D01*
G01X2092000D01*
G02X2079280Y2372000I0J12720D01*
G37*
G36*
G01X3429280Y672000D02*
Y792000D01*
G02X3442000Y804720I12720J0D01*
G01X3662000D01*
G02X3674720Y792000I0J-12720D01*
G01Y672000D01*
G02X3662000Y659280I-12720J0D01*
G01X3442000D01*
G02X3429280Y672000I0J12720D01*
G37*
G36*
G01X3654280Y1522000D02*
Y1642000D01*
G02X3667000Y1654720I12720J0D01*
G01X3887000D01*
G02X3899720Y1642000I0J-12720D01*
G01Y1522000D01*
G02X3887000Y1509280I-12720J0D01*
G01X3667000D01*
G02X3654280Y1522000I0J12720D01*
G37*
G36*
G01Y2372000D02*
Y2492000D01*
G02X3667000Y2504720I12720J0D01*
G01X3887000D01*
G02X3899720Y2492000I0J-12720D01*
G01Y2372000D01*
G02X3887000Y2359280I-12720J0D01*
G01X3667000D01*
G02X3654280Y2372000I0J12720D01*
G37*
G36*
G01X4732720Y589000D02*
G02X4720000Y576280I-12720J0D01*
G01X4530000D01*
G02X4517280Y589000I0J12720D01*
G01Y729000D01*
G02X4530000Y741720I12720J0D01*
G01X4587280D01*
Y804910D01*
X4586750Y805980D01*
G02X4663250I38250J19020D01*
G01X4662720Y804910D01*
Y741720D01*
X4720000D01*
G02X4732720Y729000I0J-12720D01*
G01Y589000D01*
G37*
G36*
G01X6245000Y1949780D02*
G02Y2035220I0J42720D01*
G01X6385000D01*
G02Y1949780I0J-42720D01*
G01X6245000D01*
G37*
G36*
G01X5271640Y2652940D02*
Y2754540D01*
G02X5284360Y2767260I12720J0D01*
G01X5365640D01*
G02X5378360Y2754540I0J-12720D01*
G01Y2652940D01*
G02X5365640Y2640220I-12720J0D01*
G01X5284360D01*
G02X5271640Y2652940I0J12720D01*
G37*
G36*
G01X6385000Y2162220D02*
G02Y2076780I0J-42720D01*
G01X6245000D01*
G02X6216950Y2087280I0J42717D01*
G01X6191910D01*
X6190840Y2086750D01*
G02Y2163250I-19020J38250D01*
G01X6191910Y2162720D01*
X6249620D01*
X6250120Y2162220D01*
X6385000D01*
G37*
G36*
G01X5133800Y1937280D02*
X5070090D01*
X5069020Y1936750D01*
G02Y2013250I-19020J38250D01*
G01X5070090Y2012720D01*
X5102560D01*
X5120060Y2030220D01*
X5344910D01*
X5345980Y2030750D01*
G02X5365000Y2035220I19024J-38249D01*
G01X5505000D01*
G02Y1949780I0J-42720D01*
G01X5365000D01*
G02X5345980Y1954250I4J42719D01*
G01X5344910Y1954780D01*
X5151300D01*
X5133800Y1937280D01*
G37*
G36*
G01X5344910Y1573780D02*
X5170090D01*
X5169020Y1573250D01*
G02Y1649750I-19020J38250D01*
G01X5170090Y1649220D01*
X5344910D01*
X5345980Y1649750D01*
G02X5365000Y1654220I19024J-38249D01*
G01X5505000D01*
G02Y1568780I0J-42720D01*
G01X5365000D01*
G02X5345980Y1573250I4J42719D01*
G01X5344910Y1573780D01*
G37*
G36*
G01X5325120Y1446780D02*
X5315880Y1437530D01*
X5315500Y1436400D01*
G02X5261400Y1490500I-40500J13600D01*
G01X5262530Y1490880D01*
X5293880Y1522220D01*
X5344910D01*
X5345980Y1522750D01*
G02X5365000Y1527220I19024J-38249D01*
G01X5505000D01*
G02Y1441780I0J-42720D01*
G01X5365000D01*
G02X5345980Y1446250I4J42719D01*
G01X5344910Y1446780D01*
X5325120D01*
G37*
G36*
G01X6419480Y1382720D02*
X6472530D01*
G02X6461130Y1332280I27471J-32717D01*
G01X6419480D01*
G02X6385000Y1314780I-34480J25218D01*
G01X6245000D01*
G02Y1400220I0J42720D01*
G01X6385000D01*
G02X6419480Y1382720I0J-42718D01*
G37*
G36*
G01X5925000Y547280D02*
X5775000D01*
G02X5762280Y560000I0J12720D01*
G01Y820000D01*
G02X5775000Y832720I12720J0D01*
G01X5812280D01*
Y1504880D01*
X5564620Y1752540D01*
G03X5547360Y1744040I-7185J-7184D01*
G02X5505000Y1695780I-42360J-5539D01*
G01X5365000D01*
G02X5345980Y1700250I4J42719D01*
G01X5344910Y1700780D01*
X5154120D01*
X5087720Y1634380D01*
Y1350380D01*
X4982720Y1245380D01*
Y1146000D01*
G02X4970000Y1133280I-12720J0D01*
G01X4780000D01*
G02X4767280Y1146000I0J12720D01*
G01Y1178280D01*
X4533430D01*
X4455570Y1100420D01*
Y1008960D01*
G02X4442850Y996240I-12720J0D01*
G01X4341250D01*
G02X4328530Y1008960I0J12720D01*
G01Y1141040D01*
G02X4341250Y1153760I12720J0D01*
G01X4354330D01*
Y1163590D01*
X4335660Y1182250D01*
X4334530Y1182630D01*
G02X4388630Y1236730I13600J40500D01*
G01X4389010Y1235600D01*
X4429770Y1194830D01*
Y1193570D01*
G03X4438440Y1189980I5078J0D01*
G01X4478280Y1229810D01*
Y1253720D01*
X4767280D01*
Y1286000D01*
G02X4780000Y1298720I12720J0D01*
G01X4929380D01*
X5012280Y1381620D01*
Y1665620D01*
X5122880Y1776220D01*
X5344910D01*
X5345980Y1776750D01*
G02X5365000Y1781220I19024J-38249D01*
G01X5505000D01*
G02X5510540Y1780860I6J-42720D01*
G03X5519040Y1798120I1316J10075D01*
G01X5494380Y1822780D01*
X5365000D01*
G02X5345980Y1827250I4J42719D01*
G01X5344910Y1827780D01*
X5281680D01*
X5279000Y1830460D01*
X4923830D01*
G03X4914450Y1816400I0J-10159D01*
G02X4913250Y1780980I-39450J-16394D01*
G01X4912720Y1779910D01*
Y1616720D01*
X4970000D01*
G02X4982720Y1604000I0J-12720D01*
G01Y1464000D01*
G02X4970000Y1451280I-12720J0D01*
G01X4780000D01*
G02X4767280Y1464000I0J12720D01*
G01Y1604000D01*
G02X4780000Y1616720I12720J0D01*
G01X4837280D01*
Y1779910D01*
X4836750Y1780980D01*
G02X4835550Y1816400I38250J19026D01*
G03X4826170Y1830460I-9380J3901D01*
G01X4791200D01*
X4734380Y1887280D01*
X4671470D01*
Y1858960D01*
G02X4658750Y1846240I-12720J0D01*
G01X4557150D01*
G02X4544430Y1858960I0J12720D01*
G01Y1991040D01*
G02X4557150Y2003760I12720J0D01*
G01X4658750D01*
G02X4671470Y1991040I0J-12720D01*
G01Y1962720D01*
X4765620D01*
X4822440Y1905900D01*
X5310240D01*
X5312920Y1903220D01*
X5344910D01*
X5345980Y1903750D01*
G02X5365000Y1908220I19024J-38249D01*
G01X5505000D01*
G02X5545500Y1879100I0J-42724D01*
G01X5545880Y1877970D01*
X5887720Y1536120D01*
Y832720D01*
X5925000D01*
G02X5937720Y820000I0J-12720D01*
G01Y560000D01*
G02X5925000Y547280I-12720J0D01*
G37*
G36*
G01X6096640Y2652940D02*
Y2754540D01*
G02X6109360Y2767260I12720J0D01*
G01X6190640D01*
G02X6203360Y2754540I0J-12720D01*
G01Y2652940D01*
G02X6190640Y2640220I-12720J0D01*
G01X6109360D01*
G02X6096640Y2652940I0J12720D01*
G37*
G36*
G01X5671640D02*
Y2754540D01*
G02X5684360Y2767260I12720J0D01*
G01X5765640D01*
G02X5778360Y2754540I0J-12720D01*
G01Y2652940D01*
G02X5765640Y2640220I-12720J0D01*
G01X5684360D01*
G02X5671640Y2652940I0J12720D01*
G37*
G36*
G01X7911880Y580150D02*
Y630950D01*
G02X7924600Y643670I12720J0D01*
G01X7975400D01*
G02X7988120Y630950I0J-12720D01*
G01Y580150D01*
G02X7975400Y567430I-12720J0D01*
G01X7924600D01*
G02X7911880Y580150I0J12720D01*
G37*
G36*
G01X7702430Y560310D02*
Y679690D01*
G02X7715150Y692410I12720J0D01*
G01X7854850D01*
G02X7867570Y679690I0J-12720D01*
G01Y560310D01*
G02X7854850Y547590I-12720J0D01*
G01X7715150D01*
G02X7702430Y560310I0J12720D01*
G37*
G36*
G01X7482430Y720310D02*
Y839690D01*
G02X7495150Y852410I12720J0D01*
G01X7634850D01*
G02X7647570Y839690I0J-12720D01*
G01Y720310D01*
G02X7634850Y707590I-12720J0D01*
G01X7495150D01*
G02X7482430Y720310I0J12720D01*
G37*
G36*
G01X6309780Y859360D02*
G02X6297060Y846640I-12720J0D01*
G01X6195460D01*
G02X6182740Y859360I0J12720D01*
G01Y873640D01*
G02X6212460Y953580I17261J39077D01*
G01X6213190Y953360D01*
X6297060D01*
G02X6309780Y940640I0J-12720D01*
G01Y859360D01*
G37*
G36*
G01X8477410Y4869200D02*
Y4970800D01*
G02X8490130Y4983520I12720J0D01*
G01X8629830D01*
G02X8642550Y4970800I0J-12720D01*
G01Y4869200D01*
G02X8629830Y4856480I-12720J0D01*
G01X8490130D01*
G02X8477410Y4869200I0J12720D01*
G37*
G36*
G01X6938280Y4098750D02*
Y4251250D01*
G02X6951000Y4263970I12720J0D01*
G01X7129000D01*
G02X7141720Y4251250I0J-12720D01*
G01Y4098750D01*
G02X7129000Y4086030I-12720J0D01*
G01X6951000D01*
G02X6938280Y4098750I0J12720D01*
G37*
G36*
G01X8365240Y4704570D02*
X8235450Y4574780D01*
X7273600D01*
X7265220Y4566400D01*
Y4532170D01*
X7279370D01*
G02X7292090Y4519450I0J-12720D01*
G01Y4430550D01*
G02X7279370Y4417830I-12720J0D01*
G01X7265220D01*
Y4405800D01*
X7325220Y4345800D01*
Y4263970D01*
X7389000D01*
G02X7401720Y4251250I0J-12720D01*
G01Y4098750D01*
G02X7389000Y4086030I-12720J0D01*
G01X7211000D01*
G02X7198280Y4098750I0J12720D01*
G01Y4251250D01*
G02X7211000Y4263970I12720J0D01*
G01X7274780D01*
Y4324900D01*
X7214780Y4384900D01*
Y4417830D01*
X7200630D01*
G02X7187910Y4430550I0J12720D01*
G01Y4519450D01*
G02X7200630Y4532170I12720J0D01*
G01X7214780D01*
Y4587300D01*
X7252700Y4625220D01*
X8214550D01*
X8314800Y4725470D01*
Y4761480D01*
X8270170D01*
G02X8257450Y4774200I0J12720D01*
G01Y4875800D01*
G02X8270170Y4888520I12720J0D01*
G01X8409870D01*
G02X8422590Y4875800I0J-12720D01*
G01Y4774200D01*
G02X8409870Y4761480I-12720J0D01*
G01X8365240D01*
Y4704570D01*
G37*
G36*
G01X9085450Y4024780D02*
X7839550D01*
X7774780Y4089550D01*
Y4429310D01*
X7774410Y4430230D01*
G02X7774010Y4431360I11778J4805D01*
G01X7772930Y4434980D01*
X7727070D01*
X7725990Y4431360D01*
G02X7713800Y4422280I-12190J3643D01*
G01X7633800D01*
G02X7621080Y4435000I0J12720D01*
G01Y4449780D01*
X7512090D01*
Y4432380D01*
X7585220Y4359250D01*
Y4263970D01*
X7649000D01*
G02X7661720Y4251250I0J-12720D01*
G01Y4098750D01*
G02X7649000Y4086030I-12720J0D01*
G01X7471000D01*
G02X7458280Y4098750I0J12720D01*
G01Y4251250D01*
G02X7471000Y4263970I12720J0D01*
G01X7534780D01*
Y4338350D01*
X7455300Y4417830D01*
X7420630D01*
G02X7407910Y4430550I0J12720D01*
G01Y4519450D01*
G02X7420630Y4532170I12720J0D01*
G01X7499370D01*
G02X7512090Y4519450I0J-12720D01*
G01Y4500220D01*
X7621080D01*
Y4515000D01*
G02X7633800Y4527720I12720J0D01*
G01X7713800D01*
G02X7725990Y4518640I0J-12723D01*
G01X7727070Y4515020D01*
X7772930D01*
X7774010Y4518640D01*
G02X7786200Y4527720I12190J-3643D01*
G01X7866200D01*
G02X7878920Y4515000I0J-12720D01*
G01Y4500220D01*
X7996080D01*
Y4515000D01*
G02X8008800Y4527720I12720J0D01*
G01X8088800D01*
G02X8100990Y4518640I0J-12723D01*
G01X8102070Y4515020D01*
X8147930D01*
X8149010Y4518640D01*
G02X8161200Y4527720I12190J-3643D01*
G01X8218250D01*
X8274780Y4584250D01*
Y4585450D01*
X8314550Y4625220D01*
X8589550D01*
X8613470Y4649140D01*
G03X8606290Y4666480I-7186J7181D01*
G01X8490130D01*
G02X8477410Y4679200I0J12720D01*
G01Y4780800D01*
G02X8490130Y4793520I12720J0D01*
G01X8589650D01*
X8695150Y4899020D01*
X8772280D01*
Y4913800D01*
G02X8781360Y4925990I12723J0D01*
G01X8784980Y4927070D01*
Y4972930D01*
X8781360Y4974010D01*
G02X8772280Y4986200I3643J12190D01*
G01Y5066200D01*
G02X8785000Y5078920I12720J0D01*
G01X8865000D01*
G02X8877720Y5066200I0J-12720D01*
G01Y5051420D01*
X9012050D01*
X9186250Y4877220D01*
X9193490D01*
X9194890Y4880030D01*
G02X9218740Y4905790I56110J-28029D01*
G03Y4923210I-5226J8710D01*
G02X9283260I32260J53790D01*
G03Y4905790I5226J-8710D01*
G02Y4798210I-32260J-53790D01*
G03Y4780790I5226J-8710D01*
G02Y4673210I-32260J-53790D01*
G03Y4655790I5226J-8710D01*
G02X9284670Y4549090I-32261J-53786D01*
G01X9282320Y4547590D01*
Y4539720D01*
X9301000D01*
G02X9313720Y4527000I0J-12720D01*
G01Y4427000D01*
G02X9301000Y4414280I-12720J0D01*
G01X9276220D01*
Y4215550D01*
X9085450Y4024780D01*
G37*
G36*
G01X8215220Y634360D02*
Y715640D01*
G02X8227940Y728360I12720J0D01*
G01X8329540D01*
G02X8342260Y715640I0J-12720D01*
G01Y634360D01*
G02X8329540Y621640I-12720J0D01*
G01X8227940D01*
G02X8215220Y634360I0J12720D01*
G37*
G36*
G01X8607740Y1034360D02*
Y1115640D01*
G02X8620460Y1128360I12720J0D01*
G01X8722060D01*
G02X8734780Y1115640I0J-12720D01*
G01Y1034360D01*
G02X8722060Y1021640I-12720J0D01*
G01X8620460D01*
G02X8607740Y1034360I0J12720D01*
G37*
G36*
G01Y1234360D02*
Y1315640D01*
G02X8620460Y1328360I12720J0D01*
G01X8722060D01*
G02X8734780Y1315640I0J-12720D01*
G01Y1234360D01*
G02X8722060Y1221640I-12720J0D01*
G01X8620460D01*
G02X8607740Y1234360I0J12720D01*
G37*
G36*
G01X8772460Y1008120D02*
G03X8770900Y1023770I-7185J7187D01*
G02X8765220Y1034360I7032J10590D01*
G01Y1115640D01*
G02X8777940Y1128360I12720J0D01*
G01X8803520D01*
Y1221640D01*
X8777940D01*
G02X8765220Y1234360I0J12720D01*
G01Y1315640D01*
G02X8777940Y1328360I12720J0D01*
G01X8879540D01*
G02X8892260Y1315640I0J-12720D01*
G01Y1234360D01*
G02X8879540Y1221640I-12720J0D01*
G01X8853960D01*
Y1128360D01*
X8879540D01*
G02X8892260Y1115640I0J-12720D01*
G01Y1034360D01*
G02X8879540Y1021640I-12720J0D01*
G01X8853960D01*
Y1018290D01*
X8717270Y881610D01*
X8717510Y879210D01*
G02X8679210Y917510I-42510J-4210D01*
G01X8681610Y917270D01*
X8772460Y1008120D01*
G37*
G54D61*
X2125000Y5460000D03*
G54D62*
X9050000Y2000000D03*
G54D63*
X9174000Y2925000D03*
Y2725000D03*
Y2525000D03*
X9175000Y3325000D03*
X9174000Y3125000D03*
X6275000Y625000D03*
X6675000D03*
X6875000D03*
X7075000D03*
G54D65*
X4387000Y4368000D03*
G54D64*
X4387450Y5105930D03*
%LPD*%
G75*
G36*
G01X9225780Y4414280D02*
Y4236450D01*
X9064550Y4075220D01*
X7860450D01*
X7825220Y4110450D01*
Y4422280D01*
X7866200D01*
G03X7878920Y4435000I0J12720D01*
G01Y4449780D01*
X7996080D01*
Y4435000D01*
G03X8008800Y4422280I12720J0D01*
G01X8088800D01*
G03X8100990Y4431360I0J12723D01*
G01X8102070Y4434980D01*
X8147930D01*
X8149010Y4431360D01*
G03X8161200Y4422280I12190J3643D01*
G01X8165750D01*
G02X8169340Y4413610I-2J-5079D01*
G01X8107770Y4352040D01*
X8078620D01*
X8048300Y4321720D01*
X7918750D01*
G03X7906030Y4309000I0J-12720D01*
G01Y4131000D01*
G03X7918750Y4118280I12720J0D01*
G01X8071250D01*
G03X8083970Y4131000I0J12720D01*
G01Y4286050D01*
X8099520Y4301600D01*
X8128670D01*
X8226420Y4399350D01*
Y4422280D01*
X8241200D01*
G03X8253920Y4435000I0J12720D01*
G01Y4492050D01*
X8325220Y4563350D01*
Y4564550D01*
X8335450Y4574780D01*
X8610450D01*
X8737450Y4701780D01*
X9193570D01*
G03X9218740Y4673210I57428J25221D01*
G02Y4655790I-5226J-8710D01*
G03X9194890Y4630030I32260J-53789D01*
G01X9193490Y4627220D01*
X9186250D01*
X9162050Y4651420D01*
X8877720D01*
Y4666200D01*
G03X8865000Y4678920I-12720J0D01*
G01X8785000D01*
G03X8772280Y4666200I0J-12720D01*
G01Y4586200D01*
G03X8781360Y4574010I12723J0D01*
G01X8784980Y4572930D01*
Y4527070D01*
X8781360Y4525990D01*
G03X8772280Y4513800I3643J-12190D01*
G01Y4500220D01*
X8687090D01*
Y4519450D01*
G03X8674370Y4532170I-12720J0D01*
G01X8595630D01*
G03X8582910Y4519450I0J-12720D01*
G01Y4430550D01*
G03X8595630Y4417830I12720J0D01*
G01X8674370D01*
G03X8687090Y4430550I0J12720D01*
G01Y4449780D01*
X8748150D01*
X8749350Y4448580D01*
X8772280D01*
Y4433800D01*
G03X8785000Y4421080I12720J0D01*
G01X8799780D01*
Y4398150D01*
X8804780Y4393150D01*
Y4321720D01*
X8753750D01*
G03X8741030Y4309000I0J-12720D01*
G01Y4131000D01*
G03X8753750Y4118280I12720J0D01*
G01X8906250D01*
G03X8918970Y4131000I0J12720D01*
G01Y4309000D01*
G03X8906250Y4321720I-12720J0D01*
G01X8855220D01*
Y4421080D01*
X8865000D01*
G03X8877720Y4433800I0J12720D01*
G01Y4513800D01*
G03X8868640Y4525990I-12723J0D01*
G01X8865020Y4527070D01*
Y4572930D01*
X8868640Y4574010D01*
G03X8877720Y4586200I-3643J12190D01*
G01Y4600980D01*
X9141150D01*
X9165350Y4576780D01*
X9193570D01*
G03X9217330Y4549090I57420J25232D01*
G01X9219680Y4547590D01*
Y4539720D01*
X9201000D01*
G03X9188280Y4527000I0J-12720D01*
G01Y4427000D01*
G03X9201000Y4414280I12720J0D01*
G01X9225780D01*
G37*
G36*
G01X8877720Y5000980D02*
X8991150D01*
X9165350Y4826780D01*
X9193570D01*
G03X9218740Y4798210I57428J25221D01*
G02Y4780790I-5226J-8710D01*
G03X9193570Y4752220I32258J-53791D01*
G01X8716550D01*
X8659890Y4695560D01*
G02X8642550Y4702740I-7181J7186D01*
G01Y4775080D01*
X8716050Y4848580D01*
X8772280D01*
Y4833800D01*
G03X8785000Y4821080I12720J0D01*
G01X8865000D01*
G03X8877720Y4833800I0J12720D01*
G01Y4913800D01*
G03X8868640Y4925990I-12723J0D01*
G01X8865020Y4927070D01*
Y4972930D01*
X8868640Y4974010D01*
G03X8877720Y4986200I-3643J12190D01*
G01Y5000980D01*
G37*
%LPC*%
G75*
G36*
G01X8362910Y4430550D02*
Y4519450D01*
G02X8375630Y4532170I12720J0D01*
G01X8454370D01*
G02X8467090Y4519450I0J-12720D01*
G01Y4430550D01*
G02X8454370Y4417830I-12720J0D01*
G01X8375630D01*
G02X8362910Y4430550I0J12720D01*
G37*
G36*
G01X8166030Y4131000D02*
Y4309000D01*
G02X8178750Y4321720I12720J0D01*
G01X8331250D01*
G02X8343970Y4309000I0J-12720D01*
G01Y4131000D01*
G02X8331250Y4118280I-12720J0D01*
G01X8178750D01*
G02X8166030Y4131000I0J12720D01*
G37*
G36*
G01X8481030D02*
Y4309000D01*
G02X8493750Y4321720I12720J0D01*
G01X8646250D01*
G02X8658970Y4309000I0J-12720D01*
G01Y4131000D01*
G02X8646250Y4118280I-12720J0D01*
G01X8493750D01*
G02X8481030Y4131000I0J12720D01*
G37*
%LPD*%
G75*
G54D10*
X398000Y400200D03*
X400000Y4900000D03*
X9099290Y400180D03*
X9099320Y5815510D03*
G54D20*
X1875000Y4950000D03*
X2125000D03*
X2375000D03*
G54D11*
X191770Y805620D03*
Y1405620D03*
Y1005620D03*
Y1205620D03*
Y1805620D03*
Y1605620D03*
Y2405620D03*
Y2005620D03*
Y2205620D03*
X475000Y2150000D03*
X191770Y2793120D03*
Y2593120D03*
X437500Y2550000D03*
X191770Y3193120D03*
Y2993120D03*
Y3393120D03*
Y3793120D03*
Y3593120D03*
Y3993120D03*
Y4180620D03*
Y4380620D03*
X650000Y2550000D03*
X875000D03*
X787500Y2450000D03*
X550000D03*
X1300000Y400000D03*
Y275000D03*
X1276200Y2675000D03*
X1050000Y2650000D03*
X1000000Y4700220D03*
X1400000Y5100220D03*
X1200000D03*
Y4900220D03*
X1000000Y5100220D03*
Y4900220D03*
X1400000Y5312720D03*
Y5712720D03*
Y5512720D03*
X1200000Y5312720D03*
Y5712720D03*
Y5512720D03*
X1004270Y5505620D03*
Y5305620D03*
X1600000Y400000D03*
Y275000D03*
X1450000D03*
Y400000D03*
X1800000Y875000D03*
Y600000D03*
X1525000Y1250000D03*
X1675000D03*
Y1125000D03*
X1525000D03*
X1825000Y1250000D03*
Y1125000D03*
X1525000Y2100000D03*
X1675000Y1975000D03*
X1525000D03*
X1675000Y2100000D03*
X1825000D03*
Y1975000D03*
X1887500Y3150000D03*
X1800000Y5712720D03*
Y5312720D03*
Y5512720D03*
X1600000Y5312720D03*
Y5712720D03*
Y5512720D03*
X1800000Y5912720D03*
X1975000Y875000D03*
X2150000D03*
Y600000D03*
X1975000D03*
X2025000Y1450000D03*
X2200000D03*
X2375000D03*
X2025000Y1725000D03*
X2200000D03*
X2375000D03*
X2000000Y2300000D03*
X2200000D03*
X2400000D03*
X2000000Y2575000D03*
X2200000D03*
X2400000D03*
Y5512720D03*
X2000000Y5712720D03*
X2200000D03*
X2400000D03*
X2000000Y5312720D03*
X2400000D03*
Y5912720D03*
X2200000D03*
X2000000D03*
X2525000Y950000D03*
X2718390Y1775000D03*
X2725000Y2625000D03*
X2600000Y5512720D03*
X2800000D03*
X2600000Y5712720D03*
X2800000D03*
X2600000Y5312720D03*
X2800000D03*
Y5912720D03*
X2600000D03*
X3350000Y5050000D03*
X3000000Y5512720D03*
Y5712720D03*
Y5312720D03*
X3200000D03*
X3000000Y5912720D03*
X3425000Y950000D03*
X3750000Y850000D03*
X3375000D03*
Y650000D03*
X3750000Y750000D03*
Y650000D03*
X3375000Y750000D03*
X3475000Y1775000D03*
X3600000Y1675000D03*
Y1475000D03*
Y1575000D03*
Y2325000D03*
Y2525000D03*
Y2425000D03*
X3475000Y2625000D03*
X3650000Y4750000D03*
X3800000D03*
X3500000Y5050000D03*
Y4900000D03*
X3650000D03*
X3600000Y5512720D03*
X3400000Y5712720D03*
X3800000D03*
X3400000Y5912720D03*
X4100000Y375000D03*
X4200000Y712720D03*
X3975000Y1675000D03*
Y1575000D03*
Y1475000D03*
X4300000Y2050000D03*
X3975000Y2325000D03*
Y2425000D03*
Y2525000D03*
X3925000Y4200000D03*
X4475000Y500000D03*
X4717690Y957300D03*
X4625000Y825000D03*
X4400000Y912720D03*
Y712720D03*
X4725000Y1375000D03*
X4348130Y1223130D03*
X4725000Y1700000D03*
X4500000Y1525000D03*
Y2375000D03*
X4650000Y2598800D03*
X4659760Y3025000D03*
X4600000Y5512720D03*
X5200000Y312720D03*
X5275000Y975000D03*
X4875000D03*
X4800000Y912720D03*
X5200000Y712720D03*
Y512720D03*
X5275000Y1450000D03*
X5200000Y1312720D03*
X5000000Y1112720D03*
X5150000Y1611500D03*
X4875000Y1800000D03*
X5050000Y1975000D03*
X5025000Y2225000D03*
X5253500Y2200000D03*
X5050000Y2425000D03*
X5000000Y2712720D03*
Y2512720D03*
X4800000D03*
X5248800Y2825000D03*
X5241820Y2948800D03*
X4850000Y3304670D03*
X5200000Y3112720D03*
X5000000D03*
Y3712720D03*
X5200000D03*
X4800000Y4312720D03*
X5000000D03*
X5200000D03*
X4825000Y4075000D03*
X4800000Y4512720D03*
X5000000D03*
X5200000D03*
X4800000Y4712720D03*
X5000000D03*
X5200000D03*
X4800000Y4912720D03*
X5000000D03*
X5200000D03*
X4800000Y5112720D03*
X5000000D03*
X5200000D03*
X4800000Y5312720D03*
X5000000D03*
X5200000D03*
X5025000Y5800000D03*
X5600000Y312720D03*
X5650000Y950000D03*
X5600000Y712720D03*
Y512720D03*
Y1312720D03*
Y1912720D03*
Y1512720D03*
X5678500Y2246500D03*
X5600000Y2112720D03*
X5425000Y2525000D03*
X5375000Y2425000D03*
X5625000Y2750000D03*
X5750000Y2425000D03*
X5625000Y2948800D03*
X5400000Y4312720D03*
X5600000D03*
X5400000Y4512720D03*
X5600000D03*
X5400000Y4712720D03*
X5600000D03*
X5400000Y4912720D03*
X5600000D03*
X5400000Y5112720D03*
X5600000D03*
X5400000Y5712720D03*
X5600000D03*
X5400000Y5312720D03*
X6150000Y175000D03*
X6200000Y912720D03*
X6000000D03*
X6200000Y712720D03*
X6000000D03*
X6200000Y512720D03*
X6000000D03*
Y1312720D03*
Y1112720D03*
X5800000Y1912720D03*
Y1712720D03*
X6171820Y2125000D03*
X6100000Y2325000D03*
X6050000Y2175000D03*
X5825000Y2525000D03*
X6025000Y2750000D03*
X5900000Y2425000D03*
X6025000Y2948800D03*
X5800000Y4312720D03*
X6000000D03*
X6200000D03*
X5800000Y4000000D03*
X6000000D03*
X6200000D03*
X5800000Y4512720D03*
X6000000D03*
X6200000D03*
X5800000Y4712720D03*
X6000000D03*
X6200000D03*
X5800000Y4912720D03*
X6000000D03*
X6200000D03*
X5800000Y5112720D03*
X6000000D03*
X6200000D03*
X5800000Y5512720D03*
Y5712720D03*
X6200000D03*
X5800000Y5800000D03*
X6400000Y312720D03*
Y712720D03*
X6500000Y1225000D03*
Y1350000D03*
X6600000Y1512720D03*
X6612300Y2250000D03*
X6550000Y2900000D03*
X6675000Y2475000D03*
X6350000Y2850000D03*
X6512500Y2437500D03*
X6600000Y3112720D03*
X6525000Y3300000D03*
X6600000Y4112720D03*
X6400000Y4312720D03*
X6600000D03*
X6400000Y4512720D03*
X6600000D03*
X6400000Y4712720D03*
X6600000D03*
X6400000Y4912720D03*
X6600000D03*
X6400000Y5112720D03*
X6600000D03*
X6400000Y5712720D03*
X6600000D03*
Y5312720D03*
X6856250Y406250D03*
X6975000Y825000D03*
X7000000Y1112720D03*
X7075000Y1150000D03*
X6976200Y1426200D03*
X6925000Y1150000D03*
X7000000Y1512720D03*
X7095250Y1604750D03*
X6777750Y1652750D03*
X7166970Y1954260D03*
X7085670Y2035540D03*
X6775000Y2175000D03*
X6968250D03*
X7025000Y2100000D03*
X7031750Y2475000D03*
X6750000Y2900000D03*
X6904750Y2475000D03*
X7175000D03*
X7100000Y4700000D03*
Y4500000D03*
Y4900000D03*
X6800000Y5712720D03*
X7000000D03*
X6800000Y5312720D03*
X7000000D03*
X6800000Y5912720D03*
X7250000Y200000D03*
X7200000Y800000D03*
X7625000Y900000D03*
X7275000Y600000D03*
X7300000Y800000D03*
X7200000Y1312720D03*
X7475000Y1450000D03*
X7550000Y1375000D03*
X7400000Y1250000D03*
X7500000Y1625000D03*
X7200000Y1512720D03*
X7575000Y2150000D03*
X7550000Y2900000D03*
X7325000D03*
X7575000Y2500000D03*
X7250000Y2550000D03*
X7450000D03*
X7300000Y4700000D03*
X7500000D03*
Y4900000D03*
X7300000D03*
X7200000Y5712720D03*
X7400000D03*
Y5312720D03*
X7600000D03*
X7400000Y5912720D03*
X7850000Y375000D03*
X8125000Y550000D03*
X8025000Y575000D03*
Y900000D03*
X7800000Y912820D03*
X8075000Y800000D03*
X8037500Y1262500D03*
X7800000Y1250000D03*
X7912500Y1262500D03*
X8025000Y1775000D03*
Y1875000D03*
X7825000Y2075000D03*
X7925000Y2225000D03*
X7800000D03*
X8100000Y1950000D03*
X8000000Y2900000D03*
X8150000Y2775000D03*
X8000000Y2500000D03*
X7800000D03*
X7700000Y4300000D03*
X8100000Y4700000D03*
X7900000D03*
X7700000D03*
X7940340Y4376110D03*
X7700000Y4900000D03*
X8100000D03*
X7900000D03*
X8000000Y5712720D03*
X7800000Y5312720D03*
X8000000D03*
Y5912720D03*
X8250000Y575000D03*
X8275000Y900000D03*
X8200000Y1425000D03*
X8250000Y1350000D03*
X8425000Y1275000D03*
X8310750Y1200000D03*
X8450000Y1775000D03*
X8365550D03*
X8275000D03*
X8400000Y2312720D03*
X8200000Y2225000D03*
Y1950000D03*
X8625000Y1957280D03*
X8600000Y2712720D03*
Y2512720D03*
X8400000Y3312720D03*
X8415340Y4226110D03*
X8600000Y5512720D03*
X8400000Y5712720D03*
X8600000D03*
X8400000Y5312720D03*
X8600000Y5912720D03*
X8675000Y875000D03*
X8975000Y1150000D03*
X9000000Y2112720D03*
Y3112720D03*
Y3312720D03*
X8800000Y2912720D03*
X8825000Y3150000D03*
X8990340Y4226110D03*
X8715340Y4351110D03*
X8990340Y4476110D03*
X8715340Y4601110D03*
X8990340Y4901110D03*
X8900000Y5100000D03*
X9100000D03*
X8700000D03*
X9200000Y1712720D03*
X9300000Y4100000D03*
Y5100000D03*
G54D12*
X450000Y2691000D03*
Y3009000D03*
X825000Y2691000D03*
Y3009000D03*
X4625000Y341000D03*
Y659000D03*
X4875000Y1216000D03*
Y1534000D03*
Y2066000D03*
Y2384000D03*
G54D30*
X4450000Y5600000D03*
X4750000D03*
G54D21*
X2375000Y835000D03*
Y615000D03*
X2600000Y1710000D03*
Y1490000D03*
Y2340000D03*
Y2560000D03*
X3975000Y810000D03*
Y590000D03*
X4200000Y1440000D03*
Y1660000D03*
Y2290000D03*
Y2510000D03*
X7300000Y1215000D03*
Y1435000D03*
G54D22*
X2675000Y4232360D03*
Y4567640D03*
X4075000Y4582360D03*
Y4917640D03*
X5075000Y2932360D03*
Y3267640D03*
Y3557360D03*
Y3892640D03*
G54D31*
X4490000Y5975000D03*
X4860000D03*
G54D40*
X7040000Y3275000D03*
Y4175000D03*
X7560000Y3275000D03*
X7300000D03*
Y4175000D03*
X7560000D03*
G54D13*
G01X1335500Y506500D02*
X800000Y1042000D01*
Y1329000D01*
G01X1560500Y1356500D02*
X1192000Y1725000D01*
X800000D01*
G01X1560500Y2206500D02*
X1497180Y2143180D01*
X1455330D01*
X1433150Y2121000D01*
X800000D01*
G01Y3604000D02*
X985760Y3418240D01*
X1291760D01*
X1545000Y3165000D01*
Y3000000D01*
X800000Y1329000D03*
Y1725000D03*
Y2121000D03*
Y3604000D03*
Y3996000D03*
G54D50*
X8360000Y2550000D03*
X8840000D03*
G54D14*
X1335500Y506500D03*
X1560500Y1356500D03*
Y2206500D03*
X2910500Y506500D03*
X3135500Y1356500D03*
Y2206500D03*
G54D23*
X3200000Y4400000D03*
Y5200000D03*
X3700000Y4400000D03*
Y5200000D03*
G54D32*
X5050000Y210000D03*
Y690000D03*
X5450000Y210000D03*
Y690000D03*
X5850000Y210000D03*
Y690000D03*
G54D41*
X7150000Y5485000D03*
Y5965000D03*
X8250000Y5485000D03*
Y5965000D03*
G54D60*
G01X1875000Y4950000D02*
Y4800000D01*
X2025000Y4650000D01*
X2557080D01*
X2639440Y4567640D01*
X2675000D01*
G01X2900000Y3225000D02*
X2744800D01*
X2519800Y3000000D01*
X2305000D01*
G01X2170000Y4425000D02*
X2362640Y4232360D01*
X2675000D01*
G01D02*
X2637300Y4194660D01*
Y3916110D01*
X2900000Y3653410D01*
Y3225000D01*
G01X3200000Y4400000D02*
Y4157300D01*
X3067700Y4025000D01*
X2900000D01*
G01X2675000Y4567640D02*
X2710560D01*
G01X3700000Y4025000D02*
Y4400000D01*
G01X3828930Y4653930D02*
X3900500Y4582360D01*
X4075000D01*
G01Y4917640D02*
X4039440D01*
X3757080Y5200000D01*
X3700000D01*
G01X4387450Y5105930D02*
X4199160Y4917640D01*
X4075000D01*
G01X4363290Y5105930D02*
X4387450D01*
G54D42*
X7565000Y780000D03*
Y620000D03*
X7785000Y780000D03*
Y620000D03*
G54D51*
X8340020Y4825000D03*
X8559980Y4730000D03*
Y4920000D03*
G54D33*
X5450000Y5520000D03*
Y5980000D03*
G54D15*
X1123800Y2775000D03*
X1276200D03*
X2400000Y223800D03*
Y376200D03*
X2625000Y1073800D03*
Y1226200D03*
Y1923800D03*
Y2076200D03*
X4198800Y500000D03*
X3975000Y223800D03*
Y376200D03*
X4198800Y800000D03*
X4200000Y1073800D03*
Y1226200D03*
Y1923800D03*
Y2076200D03*
X4175000Y5573800D03*
Y5726200D03*
X4351200Y500000D03*
Y800000D03*
X4423800Y1375000D03*
X4576200D03*
X4423800Y1650000D03*
X4576200D03*
X4423800Y2225000D03*
X4576200D03*
X4423800Y2500000D03*
X4576200D03*
X5125000Y2701200D03*
Y2548800D03*
X5525000D03*
Y2701200D03*
Y2948800D03*
Y3101200D03*
X5325000D03*
Y2948800D03*
X5725000Y3101200D03*
Y2948800D03*
X5925000Y2548800D03*
Y2701200D03*
Y2948800D03*
Y3101200D03*
X6150000D03*
Y2948800D03*
X6650000Y873800D03*
Y1273800D03*
Y1426200D03*
Y1026200D03*
X6350000Y2548800D03*
Y2701200D03*
X6375000Y2948800D03*
Y3101200D03*
X6875000Y873800D03*
X7075000D03*
X6875000Y1273800D03*
Y1426200D03*
X7075000Y1273800D03*
Y1426200D03*
X6875000Y1026200D03*
X7075000D03*
X6750000Y2776200D03*
Y2623800D03*
X6950000D03*
Y2776200D03*
X7150000D03*
Y2623800D03*
X7550000Y2776200D03*
Y2623800D03*
X7350000Y2776200D03*
Y2623800D03*
X8000000Y2776200D03*
Y2623800D03*
X7800000D03*
Y2776200D03*
X7673800Y4475000D03*
X7826200D03*
X8048800D03*
X8348800Y3050000D03*
X8501200D03*
X8201200Y4475000D03*
X8826200Y1475000D03*
X8673800D03*
X8826200Y1675000D03*
X8673800D03*
X8826200Y1875000D03*
X8673800D03*
Y2075000D03*
X8826200D03*
X8825000Y4473800D03*
Y4626200D03*
Y4873800D03*
Y5026200D03*
G54D24*
X3177350Y5736500D03*
Y5609500D03*
Y5863500D03*
Y5990500D03*
X3672650Y5609500D03*
Y5736500D03*
Y5863500D03*
Y5990500D03*
G54D43*
X7400000Y605550D03*
Y694450D03*
X7950000Y605550D03*
Y694450D03*
G54D25*
X4167050Y225000D03*
X4382950D03*
X4607950Y1075000D03*
X4392050D03*
X4607950Y1925000D03*
X4392050D03*
X5525000Y3900000D03*
X5325000D03*
G54D52*
G01X3177350Y5736500D02*
Y5609500D01*
G01Y5863500D02*
Y5736500D01*
G01Y5609500D02*
Y5597650D01*
X3575000Y5200000D01*
X3700000D01*
G01X3177350Y5990500D02*
Y5863500D01*
G01X4659760Y3025000D02*
X4759760Y3125000D01*
G01D02*
X4700000Y3184760D01*
Y3411500D01*
X4775000Y3486500D01*
Y3600000D01*
G01X5075000Y3892640D02*
X4867640D01*
X4775000Y3800000D01*
G01X5075000Y3557360D02*
Y3267640D01*
G01X4850000Y3304670D02*
X5037970D01*
X5075000Y3267640D01*
G01Y3892640D02*
X5317640D01*
X5325000Y3900000D01*
X9050000Y2000000D03*
X9176000Y1177000D03*
Y1302000D03*
Y1427000D03*
Y1552000D03*
X9250000Y2000000D03*
X9251000Y4602000D03*
Y4727000D03*
Y4852000D03*
Y4977000D03*
G54D16*
X1278740Y3000000D03*
X1121260D03*
X4771260Y2700000D03*
X4928740D03*
X6403740Y900000D03*
X6246260D03*
X6571260Y3000000D03*
X7128740D03*
X6971260D03*
X6728740D03*
X7396260D03*
X7553740D03*
X7621260Y5450000D03*
X8121260Y675000D03*
X7778740Y5450000D03*
X8278740Y675000D03*
X8828740Y1275000D03*
X8671260D03*
X8828740Y1075000D03*
X8671260D03*
X9071260Y1825000D03*
X9228740D03*
G54D34*
X5435000Y1103500D03*
Y1230500D03*
Y1357500D03*
Y1484500D03*
Y1611500D03*
Y1738500D03*
Y1865500D03*
Y1992500D03*
Y2119500D03*
Y2246500D03*
X6315000Y1357500D03*
Y1230500D03*
Y1865500D03*
Y1738500D03*
Y1611500D03*
Y1484500D03*
Y2246500D03*
Y2119500D03*
Y1992500D03*
G54D35*
X5425000Y3365020D03*
X5520000Y3584980D03*
X5330000D03*
X5730000D03*
X5825000Y3365020D03*
X6225000D03*
X5920000Y3584980D03*
X6130000D03*
X6320000D03*
G54D17*
X1430000Y4425000D03*
X1525000Y3700000D03*
X2125000D03*
X2170000Y4425000D03*
X2900000Y3225000D03*
Y4025000D03*
X3700000Y3225000D03*
Y4025000D03*
X4387450Y4365930D03*
Y5105930D03*
G54D26*
X4216000Y2775000D03*
X4534000D03*
G54D53*
X8698800Y3050000D03*
X8851800D03*
G54D44*
X7612360Y1050000D03*
X7285750Y2325000D03*
G54D27*
X4075000Y4000000D03*
Y4200000D03*
X4775000Y3125000D03*
Y2925000D03*
Y3800000D03*
Y3600000D03*
G54D54*
X9176000Y1052000D03*
X9251000Y4477000D03*
G54D36*
X6035000Y5550000D03*
Y5950000D03*
X6515000Y5550000D03*
Y5950000D03*
G54D45*
X7700000Y5700000D03*
Y6000000D03*
G54D18*
X1979000Y276500D03*
X1977000Y732000D03*
X2204000Y1126500D03*
X2202000Y1582000D03*
X2204000Y1976500D03*
X2202000Y2432000D03*
X3554000Y276500D03*
X3552000Y732000D03*
X3779000Y1126500D03*
Y1976500D03*
X3777000Y1582000D03*
Y2432000D03*
G54D55*
G01X475000Y2150000D02*
X650000Y2325000D01*
X926200D01*
X1276200Y2675000D01*
G01X1278740Y3000000D02*
Y2921660D01*
X1276200Y2919120D01*
Y2775000D01*
G01Y2675000D02*
Y2775000D01*
G01X2400000Y223800D02*
X2322300D01*
X2269600Y276500D01*
G01D02*
X1979000D01*
G01X2375000Y615000D02*
Y526050D01*
X2269600Y420650D01*
Y276500D01*
G01X2375000Y835000D02*
X2380080D01*
G01D02*
Y880080D01*
X2450000Y950000D01*
X2525000D01*
G01X2204000Y1126500D02*
X2494600D01*
G01X2500000Y1976500D02*
X2204000D01*
G01X2380080Y835000D02*
X2457150D01*
X2500000Y792150D01*
Y476200D01*
X2400000Y376200D01*
G01X2494600Y1126500D02*
X2547300Y1073800D01*
X2625000D01*
G01X2600000Y1490000D02*
Y1401050D01*
X2498950Y1300000D01*
X2494600D01*
Y1126500D01*
G01X2600000Y1710000D02*
X2682150D01*
X2725000Y1667150D01*
Y1326200D01*
X2625000Y1226200D01*
G01X2718390Y1775000D02*
X2650210D01*
X2600000Y1724790D01*
Y1710000D01*
G01X2625000Y1923800D02*
X2547300D01*
X2500000Y1971100D01*
Y1976500D01*
G01X2600000Y2340000D02*
Y2251050D01*
X2500000Y2151050D01*
Y1976500D01*
G01X2600000Y2560000D02*
X2682150D01*
X2723800Y2518350D01*
Y2175000D01*
X2625000Y2076200D01*
G01X2600000Y2560000D02*
Y2570000D01*
X2655000Y2625000D01*
X2725000D01*
G01X3554000Y276500D02*
X3856860D01*
X3875000Y294640D01*
G01X3779000Y1126500D02*
X4118140D01*
G01X3779000Y1976500D02*
X4117300D01*
X4120000Y1973800D01*
G01X3672650Y5736500D02*
Y5609500D01*
G01X3925000Y5571260D02*
X3812090D01*
X3773850Y5609500D01*
X3672650D01*
G01Y5863500D02*
X3800400D01*
X3925000Y5738900D01*
Y5728740D01*
G01X3940000Y5950000D02*
X3853040D01*
X3812540Y5990500D01*
X3672650D01*
G01X3975000Y376200D02*
X4098800Y500000D01*
G01X4167050Y258050D02*
X4250000Y341000D01*
X4625000D01*
G01X4167050Y258050D02*
Y225000D01*
G01Y258050D02*
Y307950D01*
X4100000Y375000D01*
G01X3875000Y294640D02*
X3945840Y223800D01*
X3975000D01*
G01Y590000D02*
X3969920D01*
X3850000Y470080D01*
Y319640D01*
X3875000Y294640D01*
G01X4098800Y500000D02*
X4198800D01*
G01X3975000Y810000D02*
X4057150D01*
X4098800Y768350D01*
Y500000D01*
G01X4200000Y1226200D02*
X4325000Y1351200D01*
Y1375000D01*
G01X4118140Y1126500D02*
X4170840Y1073800D01*
X4200000D01*
G01X4118140Y1126500D02*
X4087500Y1157140D01*
Y1328300D01*
X4128890Y1369690D01*
Y1373970D01*
X4194920Y1440000D01*
X4200000D01*
G01Y1660000D02*
X4282150D01*
X4325000Y1617150D01*
Y1375000D01*
G01X4120000Y1973800D02*
X4170000Y1923800D01*
X4200000D01*
G01X4392050Y1940240D02*
Y1957950D01*
X4300000Y2050000D01*
G01X4325000Y2225000D02*
Y2201200D01*
X4200000Y2076200D01*
G01Y2290000D02*
X4194920D01*
X4128890Y2223970D01*
Y2219690D01*
X4120000Y2210800D01*
Y1973800D01*
G01X4200000Y2510000D02*
X4282150D01*
X4325000Y2467150D01*
Y2225000D01*
G01X4075000Y4200000D02*
X3925000D01*
G01Y5728740D02*
X4094760D01*
X4097300Y5726200D01*
X4175000D01*
G01X3925000Y5571260D02*
Y5561100D01*
X4061100Y5425000D01*
X4888900D01*
X4975000Y5511100D01*
Y5521260D01*
G01X4450000Y5600000D02*
X4347060D01*
X4320860Y5573800D01*
X4175000D01*
G01X3940000Y5950000D02*
Y6040000D01*
X4000000Y6100000D01*
X4263300D01*
X4388300Y5975000D01*
X4490000D01*
G01X4160000Y5950000D02*
Y5944920D01*
X4329920Y5775000D01*
X4600000D01*
X4750000Y5625000D01*
Y5600000D01*
G01X4382950Y225000D02*
X4400000D01*
X4450000Y175000D01*
X4750000D01*
X5050000Y475000D01*
Y690000D01*
G01X5435000Y1357500D02*
X5365000D01*
X4800000Y792500D01*
Y383300D01*
X4757700Y341000D01*
X4625000D01*
G01X4475000Y500000D02*
X4351200D01*
G01X4717690Y957300D02*
X4607300D01*
X4450000Y800000D01*
X4351200D01*
G01X4625000Y659000D02*
Y825000D01*
G01X4607950Y1075000D02*
X4775000D01*
X4875000Y975000D01*
G01X4725000Y1375000D02*
X4576200D01*
G01X4325000D02*
X4423800D01*
G01X4392050Y1075000D02*
Y1090240D01*
G01D02*
X4516000Y1214190D01*
Y1216000D01*
X4875000D01*
G01X4392050Y1090240D02*
Y1179210D01*
X4348130Y1223130D01*
G01X4607950Y1925000D02*
X4750000D01*
X4806820Y1868180D01*
X5294620D01*
X5297300Y1865500D01*
X5435000D01*
G01X4725000Y1700000D02*
X4675000Y1650000D01*
X4576200D01*
G01Y2225000D02*
X5025000D01*
G01X4392050Y1925000D02*
Y1940240D01*
G01D02*
X4517810Y2066000D01*
X4875000D01*
G01X4423800Y2225000D02*
X4325000D01*
G01X4576200Y2500000D02*
Y2525000D01*
X4650000Y2598800D01*
G01X4771260Y2700000D02*
X4609000D01*
X4534000Y2775000D01*
G01X5125000Y2701200D02*
X5026200Y2800000D01*
X4881420D01*
X4781420Y2700000D01*
X4771260D01*
G01X4759760Y3125000D02*
X4775000D01*
G01X4975000Y5678740D02*
X4828740D01*
X4750000Y5600000D01*
G01X5050000Y690000D02*
Y875000D01*
X5278500Y1103500D01*
X5435000D01*
G01Y1738500D02*
X5138500D01*
X5050000Y1650000D01*
Y1366000D01*
X4900000Y1216000D01*
X4875000D01*
G01X5435000Y1611500D02*
X5150000D01*
G01X4875000Y1534000D02*
Y1800000D01*
G01X5050000Y1975000D02*
X5118180D01*
X5135680Y1992500D01*
X5435000D01*
G01Y2246500D02*
X5300000D01*
X5253500Y2200000D01*
G01X4875000Y2066000D02*
X5082700D01*
X5136200Y2119500D01*
X5435000D01*
G01X4875000Y2384000D02*
X4994570D01*
X5021750Y2356820D01*
X5970720D01*
X6150000Y2536100D01*
Y2546260D01*
G01X5050000Y2425000D02*
X5213900D01*
X5325000Y2536100D01*
Y2546260D01*
G01X4825000Y4075000D02*
X6375000D01*
X6575000Y3875000D01*
Y3525000D01*
X6825000Y3275000D01*
X7040000D01*
G01X5250000Y5980000D02*
X5138340Y5868340D01*
Y5694760D01*
X4975000Y5531420D01*
Y5521260D01*
G01Y5678740D02*
Y5750000D01*
X5025000Y5800000D01*
G01X4860000Y5975000D02*
X5122300D01*
X5127300Y5980000D01*
X5250000D01*
G01D02*
X5450000D01*
G01X5435000Y1230500D02*
X5505000D01*
X5650000Y1085500D01*
Y950000D01*
G01X5450000Y690000D02*
Y900000D01*
X5375000Y975000D01*
X5275000D01*
G01X5435000Y1484500D02*
X5309500D01*
X5275000Y1450000D01*
G01X5850000Y690000D02*
Y1520500D01*
X5505000Y1865500D01*
X5435000D01*
G01X6315000Y2246500D02*
X5678500D01*
G01X5375000Y2425000D02*
X5613900D01*
X5725000Y2536100D01*
Y2546260D01*
G01X5525000Y3900000D02*
X6350000D01*
X6475000Y3775000D01*
Y3521000D01*
X6871000Y3125000D01*
X7523950D01*
X7560000Y3161050D01*
Y3275000D01*
G01X6515000Y5550000D02*
Y5415000D01*
X6425000Y5325000D01*
X5522300D01*
X5450000Y5397300D01*
Y5520000D01*
G01X6035000Y5950000D02*
X5857300D01*
X5827300Y5980000D01*
X5450000D01*
G01X5962630Y210000D02*
X6075000Y322370D01*
Y1000000D01*
X6175000Y1100000D01*
X6311500D01*
X6315000Y1103500D01*
G01X6171820Y2125000D02*
X6234000D01*
X6239500Y2119500D01*
X6315000D01*
G01X6250000Y2548800D02*
X6230880D01*
X6228340Y2546260D01*
X6150000D01*
G01X6035000Y5550000D02*
Y5652700D01*
X5887700Y5800000D01*
X5800000D01*
G01X6350000Y2548800D02*
X6250000D01*
G01X6515000Y5550000D02*
X6887300D01*
X6952300Y5485000D01*
X7150000D01*
G01D02*
X7460000D01*
X7675000Y5700000D01*
X7700000D01*
G01X7150000Y5965000D02*
X6952300D01*
G01X7150000D02*
X7568880D01*
G01X7711000Y2374720D02*
X7621660D01*
X7592640Y2403740D01*
X7500000D01*
G01X7675000Y1975000D02*
X7621260Y2028740D01*
X7578740D01*
G01X7500000D02*
X7578740D01*
G01D02*
X7625000Y2075000D01*
X7711000D01*
G01X7568880Y5965000D02*
X7628880Y6025000D01*
X8017300D01*
G01X8125000Y671260D02*
X8121260Y675000D01*
G01X7711000Y2374720D02*
X8184720D01*
X8360000Y2550000D01*
G01X8250000Y5485000D02*
X8039980D01*
G01D02*
X7824980Y5700000D01*
X7700000D01*
G01X7778740Y5450000D02*
X8004980D01*
X8039980Y5485000D01*
G01X8017300Y6025000D02*
X8077300Y5965000D01*
X8250000D01*
G01X9174000Y2325000D02*
X8605000D01*
X8380000Y2550000D01*
X8360000D01*
G01D02*
Y2747700D01*
X8350000Y2757700D01*
Y2900000D01*
G54D46*
X7711000Y2374720D03*
Y2075000D03*
G54D19*
X1545000Y3000000D03*
X2305000D03*
G54D37*
X6375000Y199000D03*
X6575000D03*
X6275000Y625000D03*
X6475000D03*
X6675000D03*
X6775000Y199000D03*
X6975000D03*
X6875000Y625000D03*
X7075000D03*
X7525000Y200000D03*
X7725000D03*
X7925000D03*
X8125000D03*
X8325000D03*
X9174000Y2325000D03*
Y2925000D03*
Y2725000D03*
Y2525000D03*
X9175000Y3325000D03*
X9174000Y3125000D03*
G54D28*
X3925000Y5728740D03*
Y5571260D03*
X4975000Y5521260D03*
Y5678740D03*
X5725000Y2546260D03*
Y2703740D03*
X5325000Y2546260D03*
Y2703740D03*
X6150000Y2546260D03*
Y2703740D03*
X6550000Y2778740D03*
Y2621260D03*
X7300000Y871260D03*
Y1028740D03*
X7500000Y1871260D03*
Y2028740D03*
Y2403740D03*
Y2246260D03*
G54D56*
G01X2255000Y5460000D02*
G03I-130000J0D01*
G54D47*
X7876100Y2224860D03*
G54D38*
X6315000Y1103500D03*
G54D29*
X3940000Y5950000D03*
X4160000D03*
X7460000Y4475000D03*
X7240000D03*
X7940000Y3050000D03*
X8160000D03*
X8415000Y4475000D03*
X8635000D03*
G54D57*
G01X398000Y400200D02*
X97150Y701050D01*
G01X5125000Y2701200D02*
X5248800Y2825000D01*
G01X5325000Y2546260D02*
X5403740D01*
X5425000Y2525000D01*
G01D02*
Y2848800D01*
X5525000Y2948800D01*
G01X5425000Y2525000D02*
X5448800Y2548800D01*
X5525000D01*
G01X5725000Y2948800D02*
X5625000D01*
G01X5325000D02*
X5241820D01*
G01X5425000Y3365020D02*
Y3201200D01*
X5525000Y3101200D01*
G01X5325000D02*
X5390200D01*
X5472500Y3018900D01*
Y2989820D01*
X5513520Y2948800D01*
X5525000D01*
G01X5925000Y3750000D02*
X5665970D01*
X5520000Y3604030D01*
Y3584980D01*
G01X6050000Y2175000D02*
Y1425500D01*
X6245000Y1230500D01*
X6315000D01*
G01X6714250Y2325000D02*
X6100000D01*
G01X5825000Y2525000D02*
Y2914000D01*
X5859800Y2948800D01*
X5913520D01*
G01X5925000Y2548800D02*
X5848800D01*
X5825000Y2525000D01*
G01X5725000Y2546260D02*
X5803740D01*
X5825000Y2525000D01*
G01X6150000Y2948800D02*
X6025000D01*
G01X5825000Y3365020D02*
Y3201200D01*
X5925000Y3101200D01*
G01Y2948800D02*
X5913520D01*
G01X5725000Y3101200D02*
X5790200D01*
X5872500Y3018900D01*
Y2989820D01*
X5913520Y2948800D01*
G01X6326200D02*
X6173800Y3101200D01*
X6150000D01*
G01X5920000Y3584980D02*
Y3745000D01*
X5925000Y3750000D01*
G01X6320000Y3584980D02*
Y3680030D01*
X6250030Y3750000D01*
X5925000D01*
G01X6575000Y199000D02*
Y294320D01*
X6600000Y319320D01*
X8369320D01*
X8525000Y475000D01*
Y496680D01*
X8525600Y497280D01*
Y1391950D01*
X8437750Y1479800D01*
Y1600000D01*
G01X6475000Y625000D02*
X6650000Y800000D01*
Y873800D01*
G01D02*
X6875000D01*
G01X6403740Y900000D02*
Y1003740D01*
X6550000Y1150000D01*
X6825000D01*
X6875000Y1100000D01*
G01X6650000Y1273800D02*
X6673800D01*
X6826200Y1426200D01*
X6875000D01*
G01X6650000Y1273800D02*
X6548800D01*
X6500000Y1225000D01*
G01Y1350000D02*
X6492500Y1357500D01*
X6315000D01*
G01X6385000Y1230500D02*
X6315000D01*
G01Y1865500D02*
X6490500D01*
X6600000Y1975000D01*
X6900000D01*
X6968250Y1906750D01*
Y1775000D01*
G01X6315000Y1484500D02*
X6484500D01*
X6575000Y1575000D01*
X6824950D01*
X6904750Y1654800D01*
Y1775000D01*
G01X6315000Y1738500D02*
X6440200D01*
X6626700Y1925000D01*
X6800000D01*
X6841250Y1883750D01*
Y1775000D01*
G01X6315000Y1611500D02*
X6440200D01*
X6603700Y1775000D01*
X6714250D01*
G01X6612300Y2250000D02*
Y2062300D01*
X6637300Y2037300D01*
X6637700D01*
X6650000Y2025000D01*
X6999990D01*
X7158750Y1866240D01*
Y1775000D01*
G01X6550000Y2900000D02*
Y2778740D01*
G01X6320000Y3584980D02*
Y3489930D01*
X6450000Y3359930D01*
Y2578750D01*
X6553750Y2475000D01*
X6675000D01*
G01X6571260Y3000000D02*
X6581420D01*
X6650000Y2931420D01*
Y2658600D01*
X6684800Y2623800D01*
X6750000D01*
G01X6250000Y2548800D02*
Y2889000D01*
X6309800Y2948800D01*
X6326200D01*
G01X6512500Y2437500D02*
X6473120Y2476880D01*
X6421920D01*
X6350000Y2548800D01*
G01X6225000Y3365020D02*
Y3251200D01*
X6375000Y3101200D01*
G01X6326200Y2948800D02*
X6375000D01*
G01X6856250Y406250D02*
X6911450D01*
X6935880Y430680D01*
X8326680D01*
X8437750Y541750D01*
Y1050000D01*
G01X7802860Y1051000D02*
Y1172140D01*
X7775000Y1200000D01*
X7450000D01*
X7400000Y1150000D01*
Y800000D01*
X7338930Y738930D01*
X6944670D01*
X6875000Y808600D01*
Y873800D01*
G01X6975000Y825000D02*
X7026200D01*
X7075000Y873800D01*
G01X6875000Y1273800D02*
X7075000D01*
G01X7200000Y1150000D02*
X7134020Y1215980D01*
X7132820D01*
X7075000Y1273800D01*
G01Y1026200D02*
Y1150000D01*
G01X7031750Y1775000D02*
Y1648150D01*
X6875000Y1491400D01*
Y1426200D01*
G01X7075000D02*
X6976200D01*
G01X6875000Y1100000D02*
Y1026200D01*
G01X6925000Y1150000D02*
X6875000Y1100000D01*
G01X7300000Y1435000D02*
X7196300D01*
X7187500Y1426200D01*
X7075000D01*
G01X7095250Y1775000D02*
Y1604750D01*
G01X6777750Y1775000D02*
Y1652750D01*
G01X7031750Y2475000D02*
Y2324000D01*
G01X6904750Y2325000D02*
Y2475000D01*
G01X7085670Y2035540D02*
X7085620D01*
Y2035620D01*
X7250130D01*
X7285750Y2000000D01*
Y1775000D01*
G01X7150000Y2623800D02*
X7076200Y2550000D01*
X6900000D01*
X6841250Y2491250D01*
Y2325000D01*
G01X6775000Y2175000D02*
Y2322250D01*
X6777750Y2325000D01*
G01X6750000Y2623800D02*
Y2472950D01*
X6777750Y2445200D01*
Y2325000D01*
G01X6968250D02*
Y2175000D01*
G01X7025000Y2100000D02*
X7080680D01*
X7158750Y2178070D01*
Y2324000D01*
G01X6750000Y2776200D02*
Y2900000D01*
G01X7250000Y2623800D02*
X7150000D01*
G01X6950000D02*
X6750000D01*
G01X7128740Y3000000D02*
X7204740D01*
X7250000Y2954740D01*
Y2623800D01*
G01X7200000Y1110190D02*
Y800000D01*
G01X7612360Y1050000D02*
X7565160D01*
X7443220Y928060D01*
Y737670D01*
X7400000Y694450D01*
G01X7565000Y620000D02*
X7474450D01*
X7400000Y694450D01*
G01X7200000Y1110190D02*
Y1150000D01*
G01X7300000Y1028740D02*
X7281450D01*
X7200000Y1110190D01*
G01X7300000Y1215000D02*
X7265000D01*
X7200000Y1150000D01*
G01X7550000Y1375000D02*
X8025000D01*
X8056750Y1406750D01*
Y1600000D01*
G01X8183860Y1050000D02*
Y1266140D01*
X8131260Y1318740D01*
X7431260D01*
X7400000Y1350000D01*
Y2439000D01*
X7350000Y2489000D01*
Y2623800D01*
G01X7800000Y1250000D02*
X7400000D01*
G01X7222250Y1775000D02*
Y1898980D01*
X7166970Y1954260D01*
G01X7475000Y1450000D02*
X7963450D01*
X7993250Y1479800D01*
Y1600000D01*
G01X8673800Y1675000D02*
X8600000D01*
X8575000Y1700000D01*
Y1850000D01*
X8325000Y2100000D01*
X7950000D01*
X7612250Y1762250D01*
Y1600000D01*
G01X7300000Y1435000D02*
Y1642050D01*
X7350000Y1692050D01*
Y2003320D01*
X7222250Y2131070D01*
Y2325000D01*
G01X7175000Y2475000D02*
X7260750D01*
X7285750Y2450000D01*
Y2325000D01*
G01X7325000Y2900000D02*
X7350000Y2875000D01*
Y2776200D01*
G01X7550000D02*
Y2900000D01*
G01Y2623800D02*
X7523800D01*
X7450000Y2550000D01*
G01D02*
Y2956420D01*
X7406420Y3000000D01*
X7396260D01*
G01X7350000Y2623800D02*
X7250000D01*
G01X7560000Y4175000D02*
Y4348800D01*
X7459200Y4449600D01*
Y4475000D01*
X7460000D01*
G01X7240000D02*
Y4395350D01*
X7300000Y4335350D01*
Y4175000D01*
G01X7460000Y4475000D02*
X7673800D01*
G01X7240000D02*
Y4576850D01*
X7263150Y4600000D01*
X8225000D01*
X8340020Y4715020D01*
Y4825000D01*
G01X7850000Y375000D02*
X8350000D01*
X8487900Y512900D01*
Y1337100D01*
X8374250Y1450750D01*
Y1600000D01*
G01X8125000Y550000D02*
Y671260D01*
G01X7800000Y912820D02*
X7787820Y925000D01*
X7775000D01*
X7739360Y960640D01*
Y1051000D01*
G01X7785000Y780000D02*
X7775000Y790000D01*
Y850000D01*
X7675860Y949140D01*
Y1050000D01*
G01X7950000Y694450D02*
Y725010D01*
X7895010Y780000D01*
X7785000D01*
G01X8075000Y800000D02*
X8019320D01*
X7929860Y889460D01*
Y1050000D01*
G01X8037500Y1262500D02*
X8120360Y1179640D01*
Y1050000D01*
G01X7912500Y1262500D02*
X7964380Y1210620D01*
X8010630D01*
X8056860Y1164390D01*
Y1050000D01*
G01X7739250Y1600000D02*
Y1764250D01*
X7999600Y2024600D01*
X8275400D01*
X8450000Y1850000D01*
Y1775000D01*
G01X8100000Y1950000D02*
Y1894320D01*
X8120250Y1874070D01*
Y1600000D01*
G01X7866250D02*
Y1720200D01*
X7921050Y1775000D01*
X8025000D01*
G01X7802750Y1600000D02*
Y1749000D01*
X7928750Y1875000D01*
X8025000D01*
G01X8673800Y1475000D02*
X8575000D01*
X8525000Y1525000D01*
Y1837500D01*
X8300200Y2062300D01*
X7974800D01*
X7675750Y1763250D01*
Y1600000D01*
G01X8000000Y2776200D02*
Y2900000D01*
G01Y2623800D02*
Y2500000D01*
G01X7800000D02*
Y2623800D01*
G01Y2776200D02*
Y2850000D01*
X7925000Y2975000D01*
G01D02*
Y2975350D01*
X7930000Y2980350D01*
G01X7940000Y3050000D02*
Y2990000D01*
X7925000Y2975000D01*
G01X7940000Y3050000D02*
Y3119650D01*
X7937500Y3122150D01*
Y3150000D01*
X7995000Y3207500D01*
Y3280000D01*
G01X7826200Y4475000D02*
X7800000Y4448800D01*
Y4100000D01*
X7850000Y4050000D01*
X9075000D01*
X9251000Y4226000D01*
Y4477000D01*
G01X7995000Y4220000D02*
Y4232750D01*
X8089070Y4326820D01*
X8118220D01*
X8201200Y4409800D01*
Y4475000D01*
G01X7826200D02*
X8048800D01*
G01X8247250Y1050000D02*
Y1291570D01*
X8250000Y1294320D01*
Y1350000D01*
G01X8425000Y1275000D02*
X8385620Y1235620D01*
Y1181870D01*
X8374250Y1170500D01*
Y1050000D01*
G01X8310750D02*
Y1200000D01*
G01X8183750Y1600000D02*
Y1878070D01*
X8200000Y1894320D01*
Y1950000D01*
G01X8310750Y1600000D02*
Y1720200D01*
X8365550Y1775000D01*
G01X8247250Y1600000D02*
Y1747250D01*
X8275000Y1775000D01*
G01X8350000Y2900000D02*
Y2983600D01*
X8348800Y2984800D01*
Y3050000D01*
G01X8501200D02*
X8698800D01*
G01X8559980Y4730000D02*
X8561800D01*
X8705600Y4873800D01*
X8825000D01*
G01X8201200Y4475000D02*
X8300000Y4573800D01*
Y4575000D01*
X8325000Y4600000D01*
X8600000D01*
X8727000Y4727000D01*
X9251000D01*
G01X8828740Y1075000D02*
Y1028740D01*
X8675000Y875000D01*
G01X8828740Y1275000D02*
Y1075000D01*
G01X9176000Y1302000D02*
X9174000Y1300000D01*
X9100000D01*
X8950000Y1450000D01*
Y1650000D01*
X8925000Y1675000D01*
X8826200D01*
G01X9176000Y1177000D02*
X9100800D01*
X9075000Y1202800D01*
Y1262500D01*
X8920320Y1417180D01*
X8884020D01*
X8826200Y1475000D01*
G01X8673800Y1898800D02*
Y1908480D01*
X8625000Y1957280D01*
G01X8673800Y1875000D02*
Y1898800D01*
G01X9071260Y1825000D02*
X9025000D01*
X8875000Y1975000D01*
X8750000D01*
X8673800Y1898800D01*
G01X8826200Y1875000D02*
X8884020Y1817180D01*
X8907820D01*
X9025000Y1700000D01*
Y1502800D01*
X9100800Y1427000D01*
X9176000D01*
G01X8673800Y2075000D02*
Y2006080D01*
X8625000Y1957280D01*
G01X8825000Y3150000D02*
Y3275000D01*
X8830000Y3280000D01*
G01Y4220000D02*
Y4403600D01*
X8825000Y4408600D01*
Y4473800D01*
G01X8635000Y4475000D02*
X8758600D01*
X8759800Y4473800D01*
X8825000D01*
G01Y4626200D02*
X9151600D01*
X9175800Y4602000D01*
X9251000D01*
G01X8825000Y5026200D02*
X9001600D01*
X9175800Y4852000D01*
X9251000D01*
G01X8800000Y5500000D02*
X9099320Y5799320D01*
Y5815510D01*
G01D02*
X8659490D01*
G01X8800000Y6125000D02*
X9099320Y5825680D01*
Y5815510D01*
G01X9174000Y2325000D02*
Y1945580D01*
X9228740Y1890840D01*
Y1825000D01*
G54D48*
G01X2125000Y3700000D02*
X1887500Y3462500D01*
Y3150000D01*
G01X4075000Y4000000D02*
X3946260D01*
X3700000Y3753740D01*
Y3225000D01*
G01X4775000Y2925000D02*
X4900600D01*
X4907960Y2932360D01*
X5075000D01*
G01X5050000Y210000D02*
X5450000D01*
G01D02*
X5850000D01*
G01X5962630D02*
X6122630Y50000D01*
X8475000D01*
X8600000Y175000D01*
Y625010D01*
X8874990Y900000D01*
X9275000D01*
X9400000Y1025000D01*
Y3375000D01*
X9300000Y3475000D01*
X7800000D01*
G01X5850000Y210000D02*
X5962630D01*
G01X8250000Y5485000D02*
Y5292300D01*
X8157700Y5200000D01*
X6825000D01*
X6700000Y5075000D01*
Y3625000D01*
X6850000Y3475000D01*
X7800000D01*
G01D02*
Y3000000D01*
X7675000Y2875000D01*
Y2700000D01*
Y1975000D03*
Y2700000D03*
X8350000Y2900000D03*
G54D39*
X7158750Y1775000D03*
X7095250D03*
X7031750D03*
X6968250D03*
X6904750D03*
X6841250D03*
X6777750D03*
X6714250D03*
Y2325000D03*
X6777750D03*
X6841250D03*
X6904750D03*
X6968250D03*
X7031750Y2324000D03*
X7095250D03*
X7158750D03*
X7612250Y1600000D03*
X7285750Y1775000D03*
X7222250D03*
Y2325000D03*
X8120360Y1050000D03*
X8056860D03*
X7993360D03*
X7929860D03*
X7866360Y1051000D03*
X7802860D03*
X7739360D03*
X7675860Y1050000D03*
X7675750Y1600000D03*
X7739250D03*
X7802750D03*
X7866250D03*
X7929750D03*
X7993250D03*
X8056750D03*
X8120250D03*
X8437750Y1050000D03*
X8374250D03*
X8310750D03*
X8247250D03*
X8183860D03*
X8183750Y1600000D03*
X8247250D03*
X8310750D03*
X8374250D03*
X8437750D03*
G54D58*
G01X3425000Y950000D02*
X4126500D01*
X4198800Y877700D01*
Y800000D01*
G01X3475000Y1775000D02*
X4376500D01*
X4423800Y1727700D01*
Y1650000D01*
G01X3475000Y2625000D02*
X4372600D01*
X4423800Y2573800D01*
Y2500000D01*
G01X6150000Y175000D02*
X6275000Y300000D01*
Y425000D01*
X6325000Y475000D01*
X8300000D01*
X8395050Y570050D01*
Y754950D01*
X8325000Y825000D01*
X8220160D01*
X8120360Y924800D01*
Y1050000D01*
G01X7866360Y1051000D02*
Y883640D01*
X8016540Y733460D01*
X8052640D01*
X8111100Y675000D01*
X8121260D01*
G54D49*
X7995000Y3280000D03*
Y4220000D03*
X8570000Y3280000D03*
X8255000D03*
X8570000Y4220000D03*
X8255000D03*
X8830000Y3280000D03*
Y4220000D03*
G54D59*
G01X450000Y3009000D02*
X337200D01*
G01X400000Y4475800D02*
Y4900000D01*
G01D02*
Y5324200D01*
G01Y4900000D02*
X824200D01*
G01X825000Y2603200D02*
Y2691000D01*
G01D02*
Y2778800D01*
G01X712200Y2691000D02*
X825000D01*
G01D02*
X937800D01*
G01X450000Y2603200D02*
Y2691000D01*
G01D02*
Y2778800D01*
G01Y2691000D02*
X562800D01*
G01X825000Y2921200D02*
Y3009000D01*
G01D02*
Y3096800D01*
G01X712200Y3009000D02*
X825000D01*
G01D02*
X937800D01*
G01X450000Y2921200D02*
Y3009000D01*
G01D02*
Y3096800D01*
G01Y3009000D02*
X562800D01*
G01X1123800Y2717200D02*
Y2775000D01*
G01X1066000D02*
X1123800D01*
G01X1121260Y2941560D02*
Y3000000D01*
G01D02*
Y3058440D01*
G01X1052660Y3000000D02*
X1121260D01*
G01X1849200Y732000D02*
X1977000D01*
G01Y654200D02*
Y732000D01*
G01D02*
Y809800D01*
G01Y732000D02*
X2104800D01*
G01X2202000Y1504200D02*
Y1582000D01*
G01D02*
Y1659800D01*
G01X2074200Y1582000D02*
X2202000D01*
G01D02*
X2329800D01*
G01X2202000Y2354200D02*
Y2432000D01*
G01D02*
Y2509800D01*
G01X2074200Y2432000D02*
X2202000D01*
G01D02*
X2329800D01*
G01X2572700Y506500D02*
X2910500D01*
G01X2797700Y1356500D02*
X3135500D01*
G01X2797700Y2206500D02*
X3135500D01*
G01X2910500Y198700D02*
Y506500D01*
G01D02*
Y814300D01*
G01X3135500Y1048700D02*
Y1356500D01*
G01D02*
Y1664300D01*
G01Y1898700D02*
Y2206500D01*
G01D02*
Y2514300D01*
G01X3200000Y5092200D02*
Y5200000D01*
G01D02*
Y5307800D01*
G01X3107200Y5200000D02*
X3200000D01*
G01D02*
X3292800D01*
G01X3552000Y654200D02*
Y732000D01*
G01D02*
Y809800D01*
G01X3424200Y732000D02*
X3552000D01*
G01D02*
X3679800D01*
G01X3777000Y1504200D02*
Y1582000D01*
G01D02*
Y1659800D01*
G01X3649200Y1582000D02*
X3777000D01*
G01D02*
X3904800D01*
G01X3777000Y2354200D02*
Y2432000D01*
G01D02*
Y2509800D01*
G01X3649200Y2432000D02*
X3777000D01*
G01D02*
X3904800D01*
G01X4216000Y2775000D02*
Y2887800D01*
G01X4128200Y2775000D02*
X4216000D01*
G01X4075000Y4818560D02*
Y4917640D01*
G01D02*
Y5016720D01*
G01X4387450Y5008130D02*
Y5105930D01*
G01D02*
Y5203730D01*
G01Y5105930D02*
X4485250D01*
G01X5125000Y2491000D02*
Y2548800D01*
G01X5067200D02*
X5125000D01*
G01D02*
X5182800D01*
G01X4928740Y2641560D02*
Y2700000D01*
G01X4860140D02*
X4928740D01*
G01D02*
X4997340D01*
G01X5525000Y2701200D02*
Y2759000D01*
G01X5467200Y2701200D02*
X5525000D01*
G01D02*
X5582800D01*
G01X5325000Y2635140D02*
Y2703740D01*
G01D02*
Y2772340D01*
G01X5266560Y2703740D02*
X5325000D01*
G01D02*
X5383440D01*
G01X5666560D02*
X5725000D01*
G01X5661400Y3584980D02*
X5730000D01*
G01X5330000Y3497330D02*
Y3584980D01*
G01D02*
Y3672630D01*
G01X5261400Y3584980D02*
X5330000D01*
G01D02*
X5398600D01*
G01X5925000Y2701200D02*
Y2759000D01*
G01X5867200Y2701200D02*
X5925000D01*
G01D02*
X5982800D01*
G01X6150000Y2635140D02*
Y2703740D01*
G01D02*
Y2772340D01*
G01X6091560Y2703740D02*
X6150000D01*
G01D02*
X6208440D01*
G01X5725000Y2635140D02*
Y2703740D01*
G01D02*
Y2772340D01*
G01Y2703740D02*
X5783440D01*
G01X6130000Y3497330D02*
Y3584980D01*
G01D02*
Y3672630D01*
G01X6061400Y3584980D02*
X6130000D01*
G01D02*
X6198600D01*
G01X5730000Y3497330D02*
Y3584980D01*
G01D02*
Y3672630D01*
G01Y3584980D02*
X5798600D01*
G01X6375000Y199000D02*
Y276800D01*
G01X6297200Y199000D02*
X6375000D01*
G01D02*
X6452800D01*
G01X6275000Y547200D02*
Y625000D01*
G01D02*
Y702800D01*
G01X6197200Y625000D02*
X6275000D01*
G01D02*
X6352800D01*
G01X6246260Y841560D02*
Y900000D01*
G01D02*
Y958440D01*
G01Y900000D02*
X6314860D01*
G01X6650000Y1026200D02*
Y1084000D01*
G01X6592200Y1026200D02*
X6650000D01*
G01D02*
X6707800D01*
G01X6650000Y1426200D02*
Y1484000D01*
G01X6592200Y1426200D02*
X6650000D01*
G01D02*
X6707800D01*
G01X6315000Y1944700D02*
Y1992500D01*
G01D02*
Y2040300D01*
G01X6197200Y1992500D02*
X6315000D01*
G01D02*
X6432800D01*
G01X6350000Y2701200D02*
Y2759000D01*
G01X6292200Y2701200D02*
X6350000D01*
G01D02*
X6407800D01*
G01X6550000Y2552660D02*
Y2621260D01*
G01D02*
Y2689860D01*
G01X6491560Y2621260D02*
X6550000D01*
G01D02*
X6608440D01*
G01X6660140Y3000000D02*
X6728740D01*
G01X6515000Y5857200D02*
Y5950000D01*
G01D02*
Y6042800D01*
G01X6367200Y5950000D02*
X6515000D01*
G01D02*
X6662800D01*
G01X7095250Y2211200D02*
Y2324000D01*
G01D02*
Y2436800D01*
G01X7092200Y2776200D02*
X7150000D01*
G01X6950000D02*
Y2834000D01*
G01X6892200Y2776200D02*
X6950000D01*
G01D02*
X7007800D01*
G01X6728740Y3000000D02*
Y3058440D01*
G01Y3000000D02*
X6797340D01*
G01X6971260Y2941560D02*
Y3000000D01*
G01D02*
Y3058440D01*
G01X6902660Y3000000D02*
X6971260D01*
G01D02*
X7039860D01*
G01X7525000Y200000D02*
Y277800D01*
G01X7447200Y200000D02*
X7525000D01*
G01D02*
X7602800D01*
G01X7400000Y562350D02*
Y605550D01*
G01D02*
Y648750D01*
G01X7356800Y605550D02*
X7400000D01*
G01X7300000Y802660D02*
Y871260D01*
G01D02*
Y939860D01*
G01X7241560Y871260D02*
X7300000D01*
G01D02*
X7358440D01*
G01X7565000Y702510D02*
Y780000D01*
G01D02*
Y857490D01*
G01X7477350Y780000D02*
X7565000D01*
G01D02*
X7652650D01*
G01X7500000Y1802660D02*
Y1871260D01*
G01D02*
Y1939860D01*
G01X7441560Y1871260D02*
X7500000D01*
G01D02*
X7558440D01*
G01X7500000Y2177660D02*
Y2246260D01*
G01D02*
Y2314860D01*
G01X7441560Y2246260D02*
X7500000D01*
G01D02*
X7558440D01*
G01X7150000Y2776200D02*
Y2834000D01*
G01Y2776200D02*
X7207800D01*
G01X7553740Y3000000D02*
Y3058440D01*
G01X7485140Y3000000D02*
X7553740D01*
G01D02*
X7622340D01*
G01X7621260Y5391560D02*
Y5450000D01*
G01D02*
Y5508440D01*
G01X7552660Y5450000D02*
X7621260D01*
G01D02*
X7689860D01*
G01X7607200Y6000000D02*
X7700000D01*
G01X7150000Y5767200D02*
Y5965000D01*
G01D02*
Y6162800D01*
G01X7993360Y937200D02*
Y1050000D01*
G01X7950000Y562350D02*
Y605550D01*
G01D02*
Y648750D01*
G01X7906800Y605550D02*
X7950000D01*
G01D02*
X7993200D01*
G01X7785000Y542510D02*
Y620000D01*
G01D02*
Y697490D01*
G01X7697350Y620000D02*
X7785000D01*
G01D02*
X7872650D01*
G01X7993360Y1050000D02*
Y1162800D01*
G01X7876100Y2120700D02*
Y2224860D01*
G01D02*
Y2329020D01*
G01X7652560Y2224860D02*
X7876100D01*
G01D02*
X8099640D01*
G01X8102830Y3050000D02*
X8160000D01*
G01X7700000Y5932200D02*
Y6000000D01*
G01D02*
Y6067800D01*
G01Y6000000D02*
X7792800D01*
G01X8278740Y616560D02*
Y675000D01*
G01D02*
Y733440D01*
G01X8210140Y675000D02*
X8278740D01*
G01D02*
X8347340D01*
G01X8160000Y2987750D02*
Y3050000D01*
G01D02*
Y3112250D01*
G01Y3050000D02*
X8217170D01*
G01X8255000Y3173200D02*
Y3280000D01*
G01D02*
Y3386800D01*
G01X8160950Y3280000D02*
X8255000D01*
G01D02*
X8349050D01*
G01X8570000Y3173200D02*
Y3280000D01*
G01D02*
Y3386800D01*
G01X8475950Y3280000D02*
X8570000D01*
G01D02*
X8664050D01*
G01X8255000Y4113200D02*
Y4220000D01*
G01D02*
Y4326800D01*
G01X8160950Y4220000D02*
X8255000D01*
G01D02*
X8349050D01*
G01X8570000Y4113200D02*
Y4220000D01*
G01D02*
Y4326800D01*
G01X8475950Y4220000D02*
X8570000D01*
G01D02*
X8664050D01*
G01X8415000Y4412750D02*
Y4475000D01*
G01D02*
Y4537250D01*
G01X8357830Y4475000D02*
X8415000D01*
G01D02*
X8472170D01*
G01X8559980Y4851400D02*
Y4920000D01*
G01D02*
Y4988600D01*
G01X8472330Y4920000D02*
X8559980D01*
G01D02*
X8647630D01*
G01X8250000Y5767200D02*
Y5965000D01*
G01D02*
Y6162800D01*
G01Y5965000D02*
X8427800D01*
G01X8671260Y1016560D02*
Y1075000D01*
G01D02*
Y1133440D01*
G01X8602660Y1075000D02*
X8671260D01*
G01D02*
X8739860D01*
G01X8671260Y1216560D02*
Y1275000D01*
G01D02*
Y1333440D01*
G01X8602660Y1275000D02*
X8671260D01*
G01D02*
X8739860D01*
G01X8826200Y2017200D02*
Y2075000D01*
G01D02*
Y2132800D01*
G01Y2075000D02*
X8884000D01*
G01X8840000Y2372200D02*
Y2550000D01*
G01X8642200D02*
X8840000D01*
G01D02*
X9037800D01*
G01X8840000D02*
Y2727800D01*
G01X8851800Y2998650D02*
Y3050000D01*
G01D02*
Y3101350D01*
G01X8800450Y3050000D02*
X8851800D01*
G01D02*
X8903150D01*
G01X9176000Y1552000D02*
Y1619800D01*
G01X9108200Y1552000D02*
X9176000D01*
G01D02*
X9243800D01*
G01X9250000Y1932200D02*
Y2000000D01*
G01D02*
Y2067800D01*
G01Y2000000D02*
X9317800D01*
G01X9175000Y3247200D02*
Y3325000D01*
G01D02*
Y3402800D01*
G01X9097200Y3325000D02*
X9175000D01*
G01D02*
X9252800D01*
G01X9251000Y4977000D02*
Y5044800D01*
G01X9183200Y4977000D02*
X9251000D01*
G01D02*
X9318800D01*
M02*
